<?xml version="1.0" standalone="no"?>
<!DOCTYPE svg PUBLIC "-//W3C//DTD SVG 1.1//EN" "http://www.w3.org/Graphics/SVG/1.1/DTD/svg11.dtd" >
<svg xmlns="http://www.w3.org/2000/svg">
<metadata></metadata>
<defs>
<font id="balloon_bqregular" horiz-adv-x="1150" >
<font-face units-per-em="2048" ascent="1638" descent="-410" />
<missing-glyph horiz-adv-x="641" />
<glyph horiz-adv-x="2048" />
<glyph horiz-adv-x="2048" />
<glyph horiz-adv-x="682" />
<glyph horiz-adv-x="641" d="M264 1763q0 12 5 19.5t7 11.5q14 18 34 21.5t59 3.5q53 0 71.5 -7.5t40.5 -31.5l68 -80l149 98q16 10 27.5 15.5t30.5 5.5q8 0 23.5 -3.5t31.5 -7.5t31.5 -8t23.5 -8q18 -10 22.5 -21.5t4.5 -21.5q0 -16 -10.5 -25.5t-24.5 -19.5l-270 -207q-4 -4 -27.5 -18.5 t-52.5 -14.5q-25 0 -43.5 14.5t-38.5 30.5l-145 213q-4 4 -10.5 15.5t-6.5 25.5z" />
<glyph unicode="&#xd;" horiz-adv-x="641" />
<glyph horiz-adv-x="256" d="M-88 41q0 14 8 27.5t12 17.5l813 1292q16 23 36 40.5t55 17.5q37 0 50 -18.5t13 -28.5t-6 -21.5t-14 -24.5q-90 -145 -178.5 -288.5t-178.5 -286.5q-115 -182 -227.5 -361.5t-228.5 -359.5q-23 -25 -41.5 -36t-55.5 -11q-18 0 -30.5 3t-20.5 17q-6 6 -6 21z" />
<glyph horiz-adv-x="1579" d="M178 117q0 10 4 23.5t4 15.5l95 348q-37 6 -56.5 17t-19.5 46t14 81t25 71q8 27 15 55.5t26 44.5q12 12 32.5 17.5t61.5 9.5l63 237h-61q-12 0 -25.5 -1t-25.5 3q-20 4 -23.5 24.5t-3.5 25.5q0 18 7 39.5t7 23.5q6 16 11.5 30.5t9.5 31.5q14 51 25.5 81.5t27 46 t35.5 20.5t55 9q66 4 129.5 6t128.5 2q88 0 175 -5t176 -9l49 -6q23 -2 39 -13.5t16 -58.5q0 -29 -8 -51t-19 -72q-4 -14 -9 -32.5t-13 -36t-19.5 -32.5t-25.5 -22q-14 -6 -53 -4l-359 9h-123q59 -14 90 -24.5t56 -23.5q25 -12 39 -23t14 -40q0 -12 -8 -50t-17 -73h242h19.5 t17.5 -2q20 -4 34.5 -16.5t14.5 -59.5q0 -45 -12.5 -81.5t-22.5 -75.5q-6 -25 -14 -45q-8 -18 -20.5 -35t-28.5 -25q-10 -4 -22.5 -5t-26.5 -1h-275q-10 -51 -21.5 -101.5t-23.5 -101.5q-12 -47 -25.5 -94t-29.5 -94q-4 -12 -9.5 -25.5t-11.5 -25.5q-16 -39 -35.5 -51.5 t-62.5 -12.5q-29 0 -66.5 6t-95.5 27q-35 10 -51 19.5t-27 25.5q-2 4 -5 12t-3 21zM1094 156l10 49q37 152 73.5 301t77.5 301q35 127 73 251t77 251q12 31 22.5 52t24.5 35.5t34.5 20.5t53.5 6q16 0 51 -3t76 -11l13 -2q12 -2 29 -7t34.5 -14.5t30.5 -23.5q4 -8 9 -17.5 t5 -29.5q0 -12 -2 -23.5t-6 -36.5q-41 -152 -82 -301t-80 -301q-35 -137 -66.5 -273t-64.5 -274q-2 -8 -11.5 -36.5t-27.5 -44.5q-12 -10 -27.5 -14.5t-30 -6.5t-25.5 -2h-13q-25 0 -55.5 3t-84.5 18q-6 2 -38.5 13t-55.5 34q-20 20 -23 39.5t-1 46.5z" />
<glyph horiz-adv-x="1835" d="M178 117q0 10 4 23.5t4 15.5l95 348q-37 6 -56.5 17t-19.5 46t14 81t25 71q8 27 15 55.5t26 44.5q12 12 32.5 17.5t61.5 9.5l63 237h-61q-12 0 -25.5 -1t-25.5 3q-20 4 -23.5 24.5t-3.5 25.5q0 18 7 39.5t7 23.5q6 16 11.5 30.5t9.5 31.5q14 51 25.5 81.5t27 46 t35.5 20.5t55 9q66 4 129.5 6t128.5 2q88 0 175 -5t176 -9l49 -6q23 -2 39 -13.5t16 -58.5q0 -29 -8 -51t-19 -72q-4 -14 -9 -32.5t-13 -36t-19.5 -32.5t-25.5 -22q-14 -6 -53 -4l-359 9h-123q59 -14 90 -24.5t56 -23.5q25 -12 39 -23t14 -40q0 -12 -8 -50t-17 -73h242h19.5 t17.5 -2q20 -4 34.5 -16.5t14.5 -59.5q0 -45 -12.5 -81.5t-22.5 -75.5q-6 -25 -14 -45q-8 -18 -20.5 -35t-28.5 -25q-10 -4 -22.5 -5t-26.5 -1h-275q-10 -51 -21.5 -101.5t-23.5 -101.5q-12 -47 -25.5 -94t-29.5 -94q-4 -12 -9.5 -25.5t-11.5 -25.5q-16 -39 -35.5 -51.5 t-62.5 -12.5q-29 0 -66.5 6t-95.5 27q-35 10 -51 19.5t-27 25.5q-2 4 -5 12t-3 21zM1141 297q0 35 12 84t29 121q10 47 21 92t24 92q20 78 40.5 152.5t43.5 150.5q18 68 36.5 134.5t41.5 133.5q16 53 24 83t29 51q25 23 57.5 26.5t42.5 3.5q29 0 61.5 -7t90.5 -23 q41 -10 58 -26.5t17 -39.5q0 -10 -6 -36.5t-14 -56.5t-15.5 -56.5t-9.5 -34.5q-12 -43 -25 -87t-26 -87q-41 -152 -78.5 -302.5t-74.5 -302.5q53 0 106 1.5t107 1.5h38.5t63.5 4q2 0 13.5 2t21.5 2q35 0 45 -23.5t10 -38.5q0 -12 -4 -28.5t-10 -42.5q-4 -23 -11.5 -52.5 t-17.5 -61.5t-25.5 -59.5t-35.5 -41.5q-18 -14 -43 -17.5t-72 -3.5q-27 -2 -51.5 -2h-48.5q-35 0 -72 1t-74 1q-23 0 -46 -2t-46 2q-37 4 -65.5 25.5t-51 50.5t-41 60.5t-34.5 60.5q-14 25 -24.5 46t-10.5 50z" />
<glyph unicode=" "  horiz-adv-x="641" />
<glyph unicode="&#x09;" horiz-adv-x="641" />
<glyph unicode="&#xa0;" horiz-adv-x="641" />
<glyph unicode="!" horiz-adv-x="598" d="M238 170q4 33 19 67.5t40 62.5t56.5 45t66.5 17q8 0 23.5 -1t33.5 -9q43 -18 64.5 -60t21.5 -89q0 -35 -10 -72q-18 -55 -64.5 -101t-109.5 -46q-37 0 -65.5 15t-47 42t-25.5 60.5t-3 68.5zM338 553q0 14 3 29.5t5 17.5q16 111 34.5 217.5t39.5 214.5q14 82 29.5 162 t31.5 164q4 12 15.5 29.5t46.5 27.5q16 4 55 7t88 3h82q14 -2 27.5 -2h25.5q2 0 12.5 -1t22.5 -6t22.5 -14t10.5 -26v-11t-4 -19q-35 -104 -68 -206t-69 -204q-35 -98 -73 -192.5t-77 -192.5l-8 -12q-4 -4 -7 -10.5t-8 -10.5q-23 -23 -52 -26t-40 -3q-16 0 -33.5 1.5 t-33.5 3.5q-41 2 -54 10q-6 4 -15 14t-9 35z" />
<glyph unicode="$" horiz-adv-x="811" d="M186 336q0 41 13.5 78t25.5 71q12 33 20.5 51.5t43.5 16.5q16 0 41.5 -5t27.5 -5q31 -8 68 -14.5t68 -6.5q8 0 16 1t20 5q8 2 32 15.5t24 42.5q0 6 -2 17t-13 24q-18 25 -42.5 37t-51.5 24q-25 12 -53 29q-51 31 -83 66.5t-48.5 70.5t-22.5 66.5t-6 56.5q0 78 39 144.5 t107 99.5q20 10 40.5 15t61.5 13q6 23 13 45.5t14 46.5q6 23 15 41.5t26 28.5q14 8 44.5 13.5t73.5 5.5q35 0 61.5 -4.5t61.5 -12.5q35 -6 46.5 -15t11.5 -28q-2 -12 -9.5 -45t-11.5 -63q41 -6 73 -13.5t44 -21.5q8 -10 8 -29q0 -23 -8 -60.5t-25 -88.5q-4 -14 -16 -36 t-53 -22q-12 0 -27.5 3t-40.5 7q-6 2 -42 6.5t-71 4.5q-23 0 -38 -4q-4 -2 -25 -15.5t-21 -42.5q2 -18 11.5 -30.5t13.5 -16.5q16 -14 45 -30.5t70 -41.5q72 -47 117 -112.5t45 -153.5q0 -12 -2.5 -33.5t-10.5 -50.5q-16 -45 -49 -97t-70 -81q-18 -14 -42.5 -25.5t-46 -20.5 t-39 -14t-21.5 -7q-8 -29 -15.5 -55.5t-15.5 -55.5q-4 -18 -11 -42t-17 -38q-16 -27 -54.5 -37t-103.5 -10q-20 0 -47 1t-50.5 8t-40 22.5t-16.5 44.5q0 16 5 40.5t12.5 50t13.5 48.5t10 35q-90 27 -108 47q-4 6 -8.5 14t-4.5 27z" />
<glyph unicode="%" horiz-adv-x="1622" d="M264 827q0 18 1 47t7 70q8 45 22.5 93t34 96.5t45 92.5t56.5 81q66 76 133.5 101.5t108.5 25.5q16 0 44.5 -5.5t63.5 -23.5q72 -41 98.5 -114.5t26.5 -153.5q0 -61 -11 -129t-33.5 -134.5t-54.5 -126t-75 -106.5q-10 -10 -29.5 -30.5t-50 -41t-69.5 -35t-86 -14.5 q-53 0 -85 16.5t-49 28.5q-39 31 -58 71t-28.5 79t-10.5 69.5t-1 42.5zM461 49q2 12 9 25.5t15 25.5l807 1284q37 35 56.5 43.5t52.5 8.5q8 0 33.5 -1t40.5 -22q10 -10 10 -33q0 -16 -8.5 -29.5t-18.5 -29.5l-780 -1243q-10 -16 -13 -21.5t-10 -13.5q-25 -31 -50 -33t-64 -4 q-8 -2 -23 -2q-35 0 -46 16.5t-11 28.5zM470 805q1 -14 5 -25q6 -16 20.5 -30.5t30.5 -14.5q10 0 18.5 3t12.5 7q31 16 46 45t20 37q2 6 16 39t29.5 79t28 97.5t12.5 96.5q-2 53 -16.5 75.5t-39.5 22.5q-12 0 -26.5 -6t-30.5 -27q-35 -39 -74 -134t-51 -226q-2 -25 -1 -39z M1051 301q0 43 10 119t53 180q53 131 114.5 193.5t119.5 89.5q12 4 42.5 15t71.5 11q14 0 44 -5t63 -27q45 -29 68.5 -67t34.5 -77t13.5 -71.5t2.5 -47.5q0 -66 -13.5 -138.5t-38 -142t-59.5 -133t-80 -108.5q-10 -8 -28.5 -24.5t-45 -34t-61.5 -29.5t-76 -12 q-45 2 -73.5 13t-43.5 22q-45 29 -81.5 94t-36.5 180zM1256.5 280q0.5 -12 5.5 -24q10 -29 24 -38t25 -9q10 2 20 6t12 6q31 18 47.5 48t20.5 34q2 4 15.5 36t28.5 77t28.5 97t13.5 99q0 2 -1 17.5t-6 34t-17.5 33t-34.5 14.5q-16 0 -30.5 -10.5t-26 -22.5t-18.5 -24l-7 -11 q-23 -35 -54.5 -121t-41.5 -203q-4 -27 -3.5 -39z" />
<glyph unicode="&#x26;" d="M147 371q0 16 2.5 44.5t12.5 67.5q2 18 12 50t29.5 71t50.5 80t76 76q35 27 71.5 45.5t73.5 34.5q-16 23 -39.5 67.5t-23.5 118.5q0 25 8 72t37 100q57 111 168.5 173.5t236.5 62.5q18 0 53 -3.5t77 -17.5t87 -40.5t84 -76.5q35 -47 44.5 -82.5t9.5 -58.5 q0 -16 -2.5 -34.5t-2.5 -20.5q-4 -23 -10 -34t-14 -17q-16 -14 -69.5 -27.5t-117.5 -13.5q-43 0 -57 6t-18 47q-4 35 -14.5 50t-22.5 24q-6 4 -19.5 9t-33.5 5q-51 0 -84 -41t-33 -88q0 -39 24.5 -59.5t34.5 -24.5t21.5 -6t21.5 -8q4 -2 9.5 -7.5t7.5 -17.5 q-2 -16 -13.5 -51t-29.5 -82q-10 -29 -23.5 -55.5t-36.5 -42.5t-47 -20.5t-70 -27.5q-10 -4 -34.5 -19t-51 -39.5t-46 -61.5t-19.5 -84q0 -41 15.5 -66.5t36 -39t42 -17.5t35.5 -4q20 0 44 7t46.5 19.5t44 26.5t35.5 31q10 12 20.5 28.5t12.5 20.5q-12 0 -24.5 1t-26.5 3 q-25 2 -31 8t-6 19q0 25 18 71q4 10 14.5 31.5t22.5 46.5t25.5 45.5t23.5 30.5q14 12 34.5 17t65.5 5q47 0 89.5 1t89.5 -1h44t42 -4q45 -4 59 -13t14 -38q0 -25 -7 -54.5t-15 -56t-17 -44.5l-8 -19q-10 -23 -25.5 -35t-62.5 -12h-33.5t-33.5 -2q-10 0 -20.5 -1t-20.5 -3 q12 -6 29.5 -13.5t31.5 -16.5t24.5 -22.5t10.5 -27.5t-8 -32.5t-20.5 -36t-25 -33t-20.5 -23.5q-63 -74 -126.5 -118t-123 -68.5t-110.5 -32.5t-90 -8q-113 0 -214.5 47t-162.5 145q-16 23 -37 73t-21 122z" />
<glyph unicode="(" horiz-adv-x="641" d="M260 391q0 33 2 79t14 118q8 57 23.5 125.5t36 139.5t42 136.5t42.5 118.5q41 104 94 189t143 157q18 16 62.5 44t107.5 50q14 4 41 11.5t41 7.5q20 0 31.5 -9.5t18 -21.5t8.5 -25.5t2 -21.5q0 -6 -1 -18.5t-10 -24.5q-10 -16 -30.5 -22.5t-40.5 -16.5q-33 -14 -78 -49 t-92 -103q-27 -39 -49.5 -84t-44 -101t-43 -129t-48.5 -167q-23 -80 -38 -144.5t-24 -116.5t-13 -95t-4 -82q0 -14 2 -50t11 -81t29.5 -95.5t59.5 -91.5q16 -18 34.5 -35.5t18.5 -39.5q0 -29 -25.5 -57.5t-54.5 -28.5t-79 55q-29 31 -62 73t-60.5 99t-47 133t-19.5 174z" />
<glyph unicode=")" horiz-adv-x="641" d="M29 -46q0 7 4 13t8 10.5t4 6.5q8 6 15.5 10t16.5 7t20.5 7t27.5 12l48 30t67 59q53 57 86.5 122.5t58.5 137.5q6 14 24.5 69.5t41 132t45 165.5t34.5 171q10 51 14.5 92t4.5 95q0 70 -12.5 121t-30 88.5t-39 65.5t-41.5 50q-23 23 -30 34t-7 28q2 25 18.5 46t38.5 32 q29 14 52.5 -0.5t64.5 -59.5q63 -70 99 -139.5t53.5 -133t21.5 -116.5t4 -88q0 -61 -5 -113.5t-9 -72.5q-12 -82 -32.5 -174.5t-48.5 -184.5t-63.5 -179t-76.5 -157q-10 -16 -39 -58t-74 -83q-33 -31 -96.5 -72t-163.5 -69q-2 -2 -16.5 -5.5t-24.5 -3.5q-6 0 -23.5 3.5 t-27.5 19.5t-11 42t-1 28v11z" />
<glyph unicode="*" horiz-adv-x="768" d="M287 975q0 25 8 41q12 25 39.5 37t83.5 34q23 8 45 16.5t45 18.5q-12 20 -24.5 41t-26.5 43q-14 23 -26.5 45.5t-12.5 44.5q0 6 1 15.5t11 21.5q0 2 8 11.5t19.5 19.5t26 19.5t30.5 9.5q25 0 36 -13.5t15 -21.5l78 -129l68 149q4 4 16 21.5t35 23.5q10 4 35.5 5.5 t36.5 1.5q18 0 38.5 -10.5t20.5 -33.5q0 -10 -2 -16t-6 -16l-62 -142l158 39q12 4 17.5 5t17.5 1q20 0 31.5 -14t11.5 -31q0 -16 -7.5 -33.5t-17.5 -35.5q-2 -2 -8 -15.5t-16 -21.5q-14 -14 -35 -21l-180 -53l106 -123q16 -18 21.5 -28.5t5.5 -22.5q0 -23 -13.5 -45 t-27.5 -37q-10 -10 -22.5 -19t-24.5 -9t-24.5 7t-16.5 9l-105 108l-30 -106q-16 -33 -28.5 -44t-47.5 -15q-2 0 -16.5 -2.5t-24.5 -2.5q-6 0 -17.5 2.5t-21.5 8.5q-25 16 -24 39.5t3 33.5l45 166l-174 -63q-18 -4 -26 -2t-17 6q-12 8 -20 27.5t-8 54.5z" />
<glyph unicode="+" horiz-adv-x="1110" d="M297 573q0 10 1 26.5t11 41.5q18 47 45 60.5t76 21.5h162v213q4 49 13 65.5t32 24.5q8 4 19.5 6t29.5 2q25 0 48.5 -4t29.5 -6q4 -2 26.5 -7t36.5 -22q14 -16 17.5 -32.5t3.5 -36.5v-203h201q31 -2 52 -8t36 -33q4 -8 7 -20.5t3 -30.5q-2 -33 -14.5 -71t-12.5 -42 q-10 -18 -24.5 -28.5t-28.5 -15.5t-26.5 -5h-18.5h-174v-211q0 -31 -4 -54.5t-33 -39.5q-10 -8 -21.5 -10t-25.5 -2t-29.5 2t-32.5 6q-8 2 -16 2t-16 2q-4 0 -14.5 3t-22.5 9t-23.5 16.5t-15.5 26.5q-2 10 -2 33v217h-195q-35 4 -57.5 11t-34.5 42q-4 6 -7 19.5t-1 31.5z " />
<glyph unicode="," horiz-adv-x="425" d="M47 -219q6 53 13.5 106.5t15.5 106.5l20 98t21 98q4 23 7 32t9 20q12 23 29.5 34t36 15t34 4h21.5q16 0 29.5 1t27.5 1q10 0 33 -1t47 -11q6 -4 16.5 -10.5t10.5 -22.5q0 -14 -7.5 -31.5t-9.5 -21.5q-16 -41 -31.5 -80t-33.5 -80q-23 -47 -46.5 -96t-47.5 -97 q-14 -27 -29.5 -51t-32.5 -49q-14 -20 -30.5 -33.5t-40.5 -13.5q-6 0 -15.5 1t-19.5 7q-20 10 -23.5 30.5t-3.5 43.5z" />
<glyph unicode="-" horiz-adv-x="937" d="M182 512q2 31 10.5 60.5t30.5 86.5q10 23 21.5 43.5t27.5 36.5q25 23 49.5 26t36.5 3h590q47 -4 69.5 -16.5t22.5 -63.5q0 -53 -16 -93t-23 -50q-10 -25 -22 -51q0 -2 -6 -12.5t-15.5 -23t-22.5 -24.5t-28 -18q-8 -2 -19 -3t-32 -3h-569q-10 2 -18.5 2t-18.5 4 q-23 4 -45.5 21.5t-22.5 74.5z" />
<glyph unicode="." horiz-adv-x="425" d="M100 131q2 25 6.5 38t8.5 24q16 45 54 83.5t91 38.5q59 0 89 -45t30 -98q0 -43 -21.5 -91t-60.5 -75q-8 -4 -25.5 -12t-44.5 -8q-18 0 -41.5 6t-44 22.5t-33 44t-8.5 72.5z" />
<glyph unicode="/" horiz-adv-x="641" d="M20 39q0 10 3.5 16t13.5 23l739 1272q27 37 48.5 54t70.5 17q35 0 51.5 -3t28.5 -13l9 -9t5 -16q0 -10 -6 -23.5t-16 -31.5q-100 -176 -199.5 -350t-200.5 -348q-84 -141 -166 -282.5t-168 -283.5q-18 -29 -40.5 -45t-83.5 -16q-23 0 -43.5 2t-34.5 16q-10 4 -11 21z" />
<glyph unicode="0" horiz-adv-x="1110" d="M215 479q2 76 9 133.5t12 81.5q14 74 38.5 154t60.5 156.5t81 147.5t98 126q14 14 45 42t76 55.5t103.5 48t127.5 20.5q66 0 112 -18.5t66 -28.5q74 -43 115 -107.5t60.5 -130t22.5 -120t3 -74.5q0 -31 -4 -90.5t-18 -137.5q-29 -166 -94.5 -315.5t-188.5 -271.5 q-72 -72 -157 -121t-187 -49q-25 0 -60.5 5t-75.5 21.5t-82 48t-79 86.5q-16 25 -31.5 55.5t-28 71.5t-18.5 93t-6 118zM548 444.5q1 -18.5 5 -34.5q8 -29 29.5 -55.5t50.5 -26.5q18 2 49 17t61 56q14 20 29.5 48t28 53.5t20.5 44t8 20.5q16 39 34 91.5t31 107.5t22.5 109.5 t9.5 97.5q0 84 -24.5 117.5t-65.5 33.5q-23 0 -42.5 -11t-45.5 -42q-29 -33 -60 -86t-58.5 -126t-49 -164t-29.5 -197q-4 -35 -3 -53.5z" />
<glyph unicode="1" horiz-adv-x="1067" d="M373 104q0 16 5 34t9 34q6 23 12.5 44.5t10.5 43.5l24 94t23 95q6 25 13 48t13 46q29 104 59.5 205.5t63.5 205.5q-20 8 -38.5 15.5t-39.5 15.5q-20 8 -36.5 16.5t-22.5 30.5q-4 4 -4 17q0 29 30.5 59.5t71.5 75.5q41 43 79 86t75 88q35 39 52.5 53t43.5 14q12 0 25.5 -2 t25.5 -4q18 -2 53 -8t76 -25q39 -16 48.5 -31.5t9.5 -35.5q0 -18 -11.5 -64.5t-28 -108t-37 -133t-38.5 -141.5q-35 -123 -65.5 -239.5t-65.5 -237.5q-20 -78 -40.5 -150.5t-43.5 -152.5q-4 -18 -9 -34.5t-17.5 -29t-34 -18.5t-60.5 -6q-41 0 -80 7t-73 18 q-35 10 -56.5 23.5t-21.5 51.5z" />
<glyph unicode="2" horiz-adv-x="980" d="M162 240q2 16 7 26t9 17q4 6 20.5 22.5l39 39l49 49t51.5 50.5q74 76 128 138.5t94 115t68.5 96.5t55.5 85q10 16 24.5 37.5t28 45t22.5 48t9 47.5q0 39 -25.5 51t-37.5 12q-29 0 -59 -27.5t-46 -50.5q0 -2 -11 -17t-22 -26q-14 -10 -30.5 -13t-38.5 -3q-23 0 -44.5 1 t-43.5 1q-133 2 -134 70q0 23 13.5 65.5t42.5 91.5q49 78 112.5 124t126 71t116.5 32t83 7q96 0 183 -44t128 -128q10 -18 21.5 -58t11.5 -98q0 -41 -9 -96t-44 -135t-83 -156t-105.5 -147.5t-118 -138.5t-119.5 -130q6 -2 27.5 -4t46.5 -2q23 0 45 1t45 3q18 2 35.5 3 t35.5 1q10 0 21.5 1t23.5 1q20 0 36 -6t24 -24q4 -10 5 -18.5t1 -12.5q0 -10 -3 -27.5t-8 -36t-9.5 -36t-6.5 -25.5q-23 -66 -44 -88t-56 -29q-31 -8 -110.5 -11t-176.5 -3q-98 0 -196 6q-20 2 -51 4t-48 11q-25 14 -45 50t-43 91q-4 6 -13 29.5t-9 46.5z" />
<glyph unicode="3" horiz-adv-x="1024" d="M156 362q0 16 2 37t4 23q8 41 25.5 66.5t58.5 37.5q6 2 25.5 5.5t41.5 3.5q49 0 83 -15.5t46 -32.5q4 -6 7.5 -17t3.5 -28q0 -12 -1 -25.5t3 -27.5q4 -41 30.5 -62.5t65.5 -21.5q6 0 23.5 2t37.5 12q33 14 51.5 39t27.5 49.5t11.5 45t2.5 30.5q0 33 -10.5 56.5t-24 40 t-28.5 26.5t-28 15q-14 6 -28.5 10t-26.5 10q-4 4 -20.5 17.5t-16.5 37.5q0 12 3 24.5t7 24.5q16 57 33 100.5t37 59.5q14 12 31.5 14.5t40.5 6.5q4 2 20.5 5t32.5 11q35 16 59.5 48t24.5 73q0 8 -3 21.5t-10 26.5t-22.5 23.5t-40.5 10.5q-8 0 -19 -1t-28 -11 q-20 -12 -34.5 -32t-32.5 -36t-43 -22.5t-54 -6.5q-43 0 -82 7.5t-49 11.5q-35 12 -48 32.5t-13 34.5q0 16 7 31.5t17 30.5q25 41 50.5 71.5t64.5 61.5q16 14 47 34.5t72 39t93 32t114 13.5q76 0 147 -25q98 -35 159.5 -114.5t61.5 -188.5q0 -90 -43 -174t-114 -131 q-33 -23 -73 -37t-46 -18q29 -16 42 -24.5t25 -21.5q31 -23 65 -81t34 -154q0 -23 -5.5 -67t-27.5 -99q-29 -70 -76 -128t-106.5 -99t-131 -64.5t-147.5 -23.5q-25 0 -68.5 5t-95 24.5t-101.5 57.5t-89 103q-10 18 -30.5 68.5t-20.5 117.5z" />
<glyph unicode="4" d="M201 616q0 23 12 44.5t27 44.5q59 86 118.5 167.5t118.5 165.5q59 82 120.5 162t123.5 160q4 6 12 16t21.5 21.5t32 19.5t42.5 8q23 -2 58 -10t78 -20q29 -10 55.5 -20.5t42.5 -35.5q2 -4 5 -12t3 -18q0 -20 -15.5 -41t-29.5 -41q-10 -16 -20.5 -31.5t-20.5 -32.5 q20 -2 49 -4t57.5 -5t55.5 -7t45 -12q31 -12 53.5 -37t22.5 -56q0 -10 -11 -55l-92 -321q39 -4 59.5 -15.5t20.5 -48.5q0 -18 -6 -37.5t-10 -36.5q-4 -14 -7 -27.5t-8 -27.5q-4 -18 -11 -35.5t-15 -38.5q-6 -29 -23 -41q-18 -16 -48 -18t-52 -2l-76 -258l-4 -12 q-4 -12 -8 -21q-20 -45 -74 -45q-23 2 -66.5 8t-95.5 21q-37 10 -58 22.5t-21 52.5q0 31 11 69t21 67t17.5 56.5t17.5 55.5l-291 8q-29 2 -50 5.5t-40.5 15.5t-40 35.5t-47.5 66.5q-31 47 -45 76t-14 55zM600 670l213 -11l143 463q-29 -35 -57.5 -70.5t-56.5 -70.5 l-117 -160q-31 -39 -61.5 -75.5t-63.5 -75.5z" />
<glyph unicode="5" horiz-adv-x="1067" d="M172 346q0 4 1 25.5t9 38.5q10 18 29.5 33.5t67.5 21.5q6 0 24.5 2t40 4t40.5 3t26 1q47 0 66.5 -16.5t25.5 -36.5q2 -10 8 -26.5t25 -35.5q25 -23 49 -27.5t34 -4.5q27 0 47.5 10t26.5 14q14 8 32.5 25.5t34 43t27 59.5t11.5 77q0 70 -22.5 99.5t-51.5 41.5 q-8 4 -26.5 8.5t-43.5 4.5q-31 0 -56.5 -9.5t-33.5 -13.5q-16 -8 -36.5 -20.5t-34.5 -12.5q-16 0 -27.5 16.5t-24.5 30.5q-8 10 -15 18.5t-15 18.5q-12 16 -23.5 32.5t-21.5 33.5q-27 37 -35 52t-8 42q0 29 7 51.5t21 71.5q8 27 14.5 52.5t14.5 53.5q16 51 32.5 103.5 t30.5 103.5q2 16 9 31q4 12 10 23.5t16 19.5q10 10 25.5 11t19.5 3h633q20 0 36.5 -3t27.5 -17q10 -12 12 -23.5t2 -19.5q0 -20 -8 -57t-21 -84q-6 -23 -12 -47.5t-23 -41.5q-16 -16 -40.5 -18t-53.5 -2q-47 0 -93 2t-93 4h-187q-8 -35 -14 -58.5t-11 -41t-11.5 -32.5 t-12.5 -34q18 10 62.5 30.5t103.5 20.5q14 0 38 -3t51.5 -11t58 -24.5t59.5 -42.5q39 -35 76 -105t37 -192q0 -59 -22.5 -162t-106.5 -225q-55 -82 -115.5 -131.5t-119 -77t-111 -36.5t-91.5 -9q-20 0 -57 3t-84 21q-55 20 -102 53t-82 77t-55.5 97.5t-20.5 112.5z" />
<glyph unicode="6" horiz-adv-x="1067" d="M199 408q0 29 3 72.5t17 109.5q27 121 77 224.5t106.5 184t107.5 138t80 86.5q70 72 120 120t91 64q18 10 33.5 11t23.5 1q16 0 32.5 -3t20.5 -3q8 -2 34 -10t54.5 -17.5t53 -17.5t32.5 -12q16 -10 34 -26.5t18 -33.5q-2 -25 -32 -50t-46 -40q-27 -23 -51.5 -45 t-46.5 -45q-37 -35 -63 -60.5t-47.5 -50t-43.5 -51t-51 -65.5q2 0 13 2t26.5 4t34 4t32.5 2q88 0 166 -53t109 -139q12 -35 15 -66t3 -45q0 -63 -27.5 -162.5t-117.5 -218.5q-59 -78 -117.5 -124t-114 -70.5t-105.5 -31.5t-91 -7q-94 0 -151.5 29.5t-86.5 52.5 q-53 43 -83 93t-44 98t-16 88t-2 63zM549 428q0 -39 21.5 -70.5t60.5 -31.5q31 0 63.5 21.5t58 52t42 66.5t16.5 66q0 6 -1 16.5t-7 22t-16.5 19.5t-28.5 8q-25 0 -43.5 -2t-22.5 22q-4 16 -5 41t-1 52.5v52.5v41q-18 -33 -58 -108.5t-67 -180.5q-2 -4 -7 -32.5t-5 -55.5z " />
<glyph unicode="7" horiz-adv-x="980" d="M190 113q0 16 23 59l254 449h-74q-10 0 -23.5 1t-25.5 7t-20.5 19.5t-8.5 37.5q0 6 3.5 23.5t13.5 35.5q18 25 42.5 31t55.5 10h139q33 57 56.5 95.5t47 71t50.5 68.5t68 87q-51 -6 -92.5 -10t-87.5 -7.5t-106.5 -4.5t-152.5 -1h-24.5t-20.5 2q-33 8 -37 35t-4 39 q0 16 2 30.5t2 18.5q2 10 10.5 34t16.5 48.5t16.5 46t14.5 31.5q20 45 51 49t51 6q86 2 172 3.5t172 -1.5q59 0 118.5 -2t119.5 -4q49 -4 68.5 -12t35.5 -27q4 -6 21.5 -35.5t33.5 -58.5q23 -41 32 -63.5t9 -42.5q0 -23 -10 -41.5t-24 -40.5q-37 -49 -62.5 -84t-48.5 -66.5 t-45.5 -68.5t-54.5 -93h80q4 0 16 -1t24.5 -6t22.5 -15t10 -29q-2 -20 -10 -37.5t-12 -21.5q-31 -43 -62.5 -49t-54.5 -6h-61.5t-59.5 -2q-39 -63 -78 -127t-75 -129q-41 -72 -80 -145t-80 -146q-4 -8 -11.5 -20.5t-19.5 -23t-29.5 -18.5t-44.5 -8q-25 0 -42 4t-58 15 q-2 0 -15.5 3t-32 9t-38.5 14t-37 21q-18 12 -23.5 23t-5.5 20z" />
<glyph unicode="8" horiz-adv-x="1024" d="M133 283q0 47 11.5 87t27.5 71.5t31.5 53t25.5 33.5q49 61 108.5 106.5t123.5 88.5q-10 16 -20.5 29.5t-20.5 27.5t-25.5 39t-31 57.5t-25.5 74.5t-10 89q0 20 3 50t15 66t34.5 75t61.5 76q18 18 49 41.5t73 43t97.5 33t122.5 13.5q55 0 141.5 -14.5t196.5 -71.5 q55 -29 75 -52.5t22 -52.5q-2 -37 -42 -86t-102 -112q0 -2 10.5 -20.5t22.5 -44.5t21.5 -55.5t9.5 -56.5t-8.5 -46t-20.5 -31.5t-25.5 -20.5t-21.5 -14l-148 -94q37 -72 61.5 -131.5t24.5 -137.5q0 -23 -4 -56.5t-17 -74.5t-39 -84t-71 -82q-49 -45 -101 -68.5t-101.5 -34.5 t-88 -13t-59.5 -2q-80 0 -152.5 19t-136.5 73q-12 10 -28.5 28.5t-31.5 44t-26.5 59.5t-11.5 77zM494 348q0 -10 6 -24q10 -20 29.5 -31.5t41.5 -11.5q8 0 19.5 1t27.5 11q16 8 42 33.5t26 72.5q0 23 -8 44.5t-31 60.5q-53 -31 -81.5 -52.5t-45.5 -43.5q-10 -14 -18 -28.5 t-8 -31.5zM639 1040q0 -35 14.5 -64.5t55.5 -80.5l252 164q-10 8 -28 22.5t-43.5 27.5t-58 23.5t-71.5 10.5q-37 0 -59.5 -10.5t-37 -25.5t-19.5 -33.5t-5 -33.5z" />
<glyph unicode="9" horiz-adv-x="1067" d="M260 815q0 27 4 69t16.5 92t36 107.5t64.5 114.5q53 78 114.5 126t121 73.5t111.5 35t89 9.5q90 0 168 -37t131 -109q37 -49 56.5 -103t28.5 -103.5t11 -88t2 -53.5q0 -92 -18 -178t-43 -156.5t-49.5 -123t-36.5 -76.5q-78 -145 -176 -263t-211 -243q-14 -14 -27.5 -24.5 t-29.5 -10.5q-27 0 -74 27.5t-100 64.5q-8 6 -21.5 14.5t-27 19.5t-22.5 22.5t-9 21.5t8 20q6 8 22.5 27t37 40.5t38 40.5t23.5 26q29 33 55.5 65.5t52.5 67.5q20 27 33.5 42t21 26.5t13.5 23.5t16 33q-14 -6 -31.5 -14.5t-50.5 -8.5q-23 0 -71 7t-101 38q-27 14 -57.5 40 t-57 67t-44 97t-17.5 134zM575 870q0 -41 20.5 -79.5t55.5 -53.5q20 -8 43 -7t31 1q25 0 35 -12q10 -16 12 -50t4 -83q18 37 33.5 67.5t28 61t21.5 63.5t18 74q6 37 9 65.5t3 43.5q-2 59 -19.5 90.5t-38.5 48.5q-33 27 -67 26q-18 -2 -52 -15t-65 -48q-29 -35 -50.5 -89 t-21.5 -104z" />
<glyph unicode=":" horiz-adv-x="512" d="M188 139q2 31 14.5 64t33 59.5t49 44t63.5 17.5q55 0 86 -42t33 -96q0 -6 -2 -23.5t-8 -39.5q-4 -10 -12.5 -30.5t-26 -43t-44 -39t-65.5 -16.5q-20 0 -34.5 4t-20.5 6q-25 10 -47.5 39.5t-18.5 95.5zM304 558.5q1 19.5 3 29.5q2 20 6 30.5t9 20.5q8 20 22 41.5t33.5 39 t42 29t47.5 11.5q59 0 90 -45t31 -99q0 -14 -3 -30.5t-7 -30.5q-4 -8 -13.5 -28.5t-27 -43t-44 -40t-63.5 -17.5q-23 0 -37 5t-20 9q-29 12 -43.5 34t-20.5 43.5t-5 41z" />
<glyph unicode=";" horiz-adv-x="512" d="M145 -231q0 16 2.5 31.5t4.5 19.5q6 49 12 99t16 99q8 43 16.5 85t18.5 85q8 33 19.5 59.5t44.5 39.5q35 10 114 10q12 0 35 -1t55 -9q8 -2 20.5 -7.5t12.5 -23.5q0 -16 -10 -44t-27 -65q-25 -59 -51.5 -118.5t-54.5 -118.5q-8 -16 -31 -63.5t-57 -94.5 q-6 -6 -26.5 -30.5t-59.5 -24.5q-18 0 -36 13.5t-18 58.5zM236 561q2 16 5 34.5t9 35.5q16 43 55 81t90 38q31 0 58 -17q31 -18 48 -57t17 -76q0 -12 -3 -29.5t-13 -40.5q-23 -45 -45.5 -68.5t-38.5 -33.5q-10 -4 -22.5 -8t-35.5 -4q-18 0 -40.5 6t-42 21.5t-31.5 44 t-10 73.5z" />
<glyph unicode="=" horiz-adv-x="1110" d="M223 350q0 23 6.5 47.5t8.5 28.5q2 6 8 26.5t20 32.5q16 10 33.5 14.5t38.5 8.5h801q45 0 70.5 -15.5t25.5 -62.5q0 -2 -1 -20.5t-6 -43t-15.5 -49t-30.5 -38.5q-12 -10 -30.5 -14.5t-55.5 -8.5h-807q-10 2 -27.5 10t-30.5 37q-4 8 -6 18.5t-2 28.5zM223 762q0 14 3 31.5 t14 46.5q10 35 19 50t24 25q20 14 40.5 14.5t30.5 0.5h779q2 0 21.5 1t31.5 -3q18 -4 33.5 -22.5t15.5 -65.5q0 -12 -2 -30.5t-10 -45.5t-17.5 -42t-24 -24.5t-33 -13.5t-44.5 -6h-774q-35 -2 -55.5 2t-36.5 33q-4 6 -9.5 18t-5.5 31z" />
<glyph unicode="?" horiz-adv-x="980" d="M328 166q2 39 18 72.5t43 60.5t60.5 42t72.5 15q10 0 25.5 -2t38.5 -12q41 -16 65.5 -53t24.5 -84q0 -27 -6 -47.5t-8 -28.5q-23 -59 -69 -99t-110 -40q-10 0 -25.5 2t-35.5 10q-35 12 -54.5 35.5t-28.5 48.5t-10 46.5t-1 33.5zM379 1019.5q-4 16.5 0 47.5t11 52.5 t11 31.5q10 27 44 82t100 104q43 33 90 52.5t90 28.5t77 12.5t52 3.5q14 0 42 -2t61.5 -9.5t71.5 -24t75 -42.5q41 -31 64.5 -67t36 -69.5t15.5 -62.5t3 -47q0 -16 -4.5 -53t-20.5 -80q-35 -96 -102.5 -162.5t-145.5 -130.5q-53 -43 -103 -90t-85 -107q-2 -4 -11.5 -20 t-19.5 -27q-39 -33 -168 -32q-12 0 -30.5 1t-37 4t-35 8t-24.5 15q-4 6 -8 14.5t-4 24.5q0 6 3 24.5t10 43t18.5 51.5t25.5 51q18 29 48 61.5t64 65.5t67.5 61.5t60.5 47.5q39 29 79 52t64 68q4 6 11.5 22.5t7.5 39.5q0 31 -22.5 51.5t-53.5 20.5q-41 -2 -71.5 -29 t-45.5 -62q-8 -18 -13 -34.5t-20 -30.5q-10 -10 -28.5 -17.5t-48.5 -7.5q-16 0 -30.5 2t-31.5 2q-27 4 -66.5 8.5t-60.5 26.5q-8 10 -12 26.5z" />
<glyph unicode="A" horiz-adv-x="1067" d="M123 125q0 23 12 51.5t23 50.5q10 23 18 44.5t17 43.5q-14 4 -31 15.5t-17 46.5q0 14 4.5 36.5t8.5 47t9 47t9 35.5q0 2 4 16t12.5 33.5t18.5 38t25 31.5q16 16 43.5 18t74.5 4q29 66 57.5 128t57.5 124q45 94 92 186t94 185q8 14 15.5 28.5t17.5 26.5q25 39 50.5 51 t68.5 12q29 -2 59.5 -5t83.5 -13l12 -2q13 -2 30.5 -6t33.5 -11.5t27 -17.5q12 -14 19 -34.5t13 -65.5q8 -68 14.5 -128.5t10.5 -129t7 -157.5t3 -216v-247t-2 -249q0 -6 -2 -34.5t-14 -49.5q-23 -39 -74 -47t-90 -8h-16.5t-28.5 2t-33.5 6t-32.5 13q-31 18 -38 46.5 t-9 63.5v330q-8 -23 -19 -46.5t-28 -39.5q-25 -31 -58.5 -36t-103.5 -7l-114 -270q-14 -35 -26.5 -48.5t-31.5 -19.5q-14 -6 -26.5 -8t-16.5 -2q-25 0 -44 6t-64 18q-35 8 -63.5 21.5t-47.5 42.5q-10 16 -12 29.5t-2 19.5zM686 670h127l23 422z" />
<glyph unicode="B" horiz-adv-x="1110" d="M228 252v6q0 18 5 47q20 88 42 176t47 176q27 96 53 189.5t55 187.5q-47 -12 -67.5 -22.5t-47.5 -10.5q-12 0 -26.5 5.5t-14.5 33.5q0 35 13.5 86.5t23.5 81.5q16 53 26.5 80t29.5 43q16 18 44.5 30.5t84.5 29.5q35 10 115.5 26.5t185.5 16.5q18 0 74.5 -4.5t117.5 -20.5 q63 -16 120.5 -48t100.5 -78t69 -104.5t26 -129.5q0 -49 -9.5 -81t-17.5 -48q-33 -78 -89 -128.5t-122 -97.5q47 -61 78 -117.5t31 -138.5q0 -35 -16.5 -100.5t-74.5 -136.5q-51 -61 -112.5 -101.5t-130 -63t-142 -30.5t-147.5 -8h-34.5t-55.5 4q-59 8 -90 39t-64 78 q-29 37 -46 58.5t-25.5 38t-9.5 36.5zM553 1075q6 0 23.5 -2t42 -7t51 -11t49.5 -17q10 -4 28.5 -16t18.5 -41q0 -18 -7 -39.5t-14 -42.5l-18 -74q6 2 30.5 6.5t47.5 14.5q6 2 27.5 13t45 30.5t42 48.5t18.5 66q0 14 -7 38.5t-40 47.5q-16 12 -43 21t-74 9q-35 0 -71.5 -6 t-67.5 -14t-53.5 -15.5zM590 311q4 0 30 -2q8 -1 16 -1q17 0 34 3q55 10 102 47t47 97q0 37 -17.5 51t-29.5 24q-31 23 -35 40.5t-12 56.5q-4 27 -10 54.5t-13 55.5z" />
<glyph unicode="C" horiz-adv-x="980" d="M201 446v20q-1 118 21 222q24 113 58.5 203t71.5 156.5t64 103.5q14 20 52 69.5t95 94.5q72 59 162 90t184 31q18 0 61.5 -4.5t90.5 -30.5q27 -14 49.5 -34.5t39.5 -52.5t27.5 -78t10.5 -112q0 -12 -1 -32.5t-7 -45t-20.5 -51t-41.5 -51.5q-8 -6 -25.5 -17.5t-43.5 -21.5 q-10 -4 -29 -7t-47 -3q-80 0 -111 20q-8 4 -15 14.5t-7 33.5t8 44t10 42q-2 18 -13 33.5t-30 15.5q-10 0 -26.5 -6.5t-32.5 -24.5q-25 -25 -61 -91.5t-64 -154.5q-6 -20 -16.5 -53t-19.5 -67.5t-17.5 -67.5t-12.5 -53q-2 -18 -4 -40t-3 -42.5t-1 -33.5v-15q0 -41 23.5 -57.5 t37.5 -16.5q6 0 14.5 2t20.5 12q29 25 37 52.5t25 56.5q4 10 12 20t18 21q18 20 41 30.5t43.5 15.5t37 6t26.5 1h17.5t30.5 -3t35.5 -9.5t35.5 -16.5q2 0 9 -6t11 -12q10 -10 10 -35q0 -14 -2 -30.5t-8 -43.5q-4 -16 -14 -50t-30.5 -78t-49.5 -92t-70 -89q-23 -20 -53.5 -43 t-87.5 -51q-70 -33 -113 -42t-84 -9q-20 0 -63 5t-90 33q-70 41 -122 145.5t-54 280.5z" />
<glyph unicode="D" horiz-adv-x="1193" d="M221 276q0 23 2 34.5t6 33.5q10 51 21.5 102.5t25.5 102.5q16 66 35 130t35 128q16 57 31.5 113.5t32.5 113.5l8 41q-16 -6 -32.5 -12t-35.5 -14q-12 -6 -24.5 -11.5t-22.5 -5.5q-20 2 -24.5 21.5t-4.5 25.5q0 10 1 17.5t8 25.5l55 195q14 33 26.5 44t45.5 28 q86 20 159.5 33.5t159.5 13.5q82 0 149.5 -13.5t120 -34t91 -44t63.5 -44.5q27 -23 57.5 -59.5t58 -90.5t46 -125t18.5 -159q0 -43 -8 -110.5t-45 -161.5q-8 -23 -26.5 -64t-47 -92t-69.5 -106.5t-93 -104.5q-78 -76 -160.5 -121t-157.5 -69.5t-137.5 -31.5t-99.5 -7 q-31 0 -59.5 8t-71.5 55l-26.5 26.5t-24.5 29.5q-49 55 -67.5 89t-18.5 70zM539 1114q35 -8 86 -20.5t82 -32.5q23 -12 36 -32.5t13 -43.5q0 -14 -4 -29.5t-4 -17.5l-142 -559q4 0 22.5 1t33.5 5q25 6 81 38t107 91q53 63 86 151.5t33 172.5q0 68 -23.5 122t-65.5 92 t-99.5 58t-123.5 20q-27 0 -49 -3t-69 -13z" />
<glyph unicode="E" horiz-adv-x="1024" d="M213 573q0 16 8 62.5t21 93.5q8 29 19 59.5t30 47.5q14 12 30.5 15t57.5 3l61 215q-59 4 -84.5 16.5t-25.5 40.5q0 14 11 55.5t21 82.5q8 33 21.5 72.5t36.5 62.5q18 18 39.5 21t72.5 5h70q27 0 52.5 1t52.5 1q98 0 194 -2t191 -4q61 -2 105 -6t60 -22q4 -4 7.5 -13.5 t3.5 -25.5q0 -20 -8.5 -66.5t-22.5 -93.5q-25 -84 -53 -111q-18 -16 -42 -17t-48 -1q-47 0 -97.5 3t-97.5 3q-35 2 -69.5 2t-71.5 2q-16 0 -31.5 1t-32.5 1h-23.5t-33.5 -4q39 -23 86 -43q20 -10 32.5 -21.5t12.5 -31.5q0 -2 -1 -11.5t-3 -19.5q-6 -23 -11 -45t-10 -45 q59 0 117 -1t117 -3q35 0 65.5 -1t42.5 -5q23 -6 30 -26.5t7 -43.5q0 -29 -9 -62.5t-32 -88.5q-35 -92 -67 -113q-12 -8 -23.5 -8h-19.5q-14 0 -28.5 1t-31.5 3q-14 0 -26.5 1t-24.5 1q-53 0 -109.5 1t-113.5 1l-47 -182q68 1 137 1l137 -1q29 0 53.5 -1t42 -7.5t27.5 -22.5 t10 -49q0 -14 -3 -33.5t-7 -37t-7 -29.5l-3 -13q-12 -45 -23.5 -68.5t-25.5 -37.5q-29 -29 -75 -29h-132q-59 0 -116.5 -1t-117.5 -1q-47 0 -78.5 5t-54 15.5t-39 24.5t-30.5 35q-39 51 -52.5 88t-13.5 59q0 8 2 23.5t5 32t7.5 31t6.5 22.5q10 43 19 86t20 86 q-31 10 -48.5 21.5t-17.5 43.5z" />
<glyph unicode="F" horiz-adv-x="937" d="M178 115q0 14 8 41l95 348q-37 6 -56.5 16t-19.5 49q0 35 11 67t28 89q10 27 17 53.5t26 42.5q20 18 52 21.5t40 3.5l63 237q-35 0 -69.5 -1t-44.5 3q-14 4 -19.5 17.5t-5.5 30.5q0 8 1 15t3 17q6 25 14.5 48.5t14.5 46.5q16 53 28.5 83.5t27 46t34.5 20.5t55 7 q66 4 129.5 6t128.5 2q88 0 175 -5t176 -9q10 -2 21 -2t24 -2q23 -4 41 -13.5t18 -52.5q0 -29 -10 -67.5t-17 -67.5l-4 -15t-12 -34.5t-19.5 -39t-29.5 -27.5q-10 -6 -20.5 -7.5t-34.5 0.5l-359 9h-123q35 -10 75 -20.5t71 -24.5q35 -18 44 -30.5t9 -35.5q0 -16 -7 -49 t-18 -74h242q47 -2 66.5 -15.5t19.5 -64.5q0 -18 -2 -34.5t-7 -34t-12.5 -40t-17.5 -55.5q-12 -41 -24.5 -62.5t-28.5 -31.5q-10 -6 -24.5 -7t-30.5 -1h-275q-10 -49 -20.5 -98t-22.5 -97q-12 -51 -26.5 -99t-30.5 -97q-4 -12 -9.5 -25.5t-11.5 -25.5q-16 -39 -34.5 -51.5 t-59.5 -12.5q-33 0 -66.5 6t-63.5 14.5t-50.5 16.5t-26.5 10q-10 4 -27.5 17.5t-17.5 44.5z" />
<glyph unicode="G" horiz-adv-x="1110" d="M199 492q0 72 17 178t81 258q43 102 92 181t100.5 137.5t100.5 95t92 57.5q29 14 83 28.5t134 14.5q78 0 147.5 -20.5t127.5 -73.5q37 -35 60 -75t35.5 -77t16.5 -69.5t4 -51.5q0 -43 -13 -67.5t-31.5 -38t-39 -19.5t-35.5 -8q-53 -10 -93 -13t-95 -3h-21.5t-13.5 4 q-10 4 -23.5 19.5t-13.5 43.5q0 8 1 16.5t1 16.5t-1 21.5t-7 25.5t-18.5 22.5t-34.5 10.5q-41 0 -76 -25.5t-61.5 -61.5t-47 -75t-32.5 -70q-10 -23 -25.5 -60.5t-30 -88.5t-24.5 -114.5t-10 -133.5q0 -68 26.5 -100.5t61.5 -32.5q23 0 42 12.5t34.5 31t27 40t21.5 37.5 q-39 -2 -62.5 -1t-33.5 13q-8 8 -9 31q0 23 3 48.5t8.5 48t9.5 37.5t4 17q16 66 36.5 84.5t53.5 28.5q8 2 39 7t74 10.5t91 9.5t89 4q23 0 45 -1t45 -1q37 -4 55.5 -8.5t34.5 -14.5q10 -4 18.5 -12t8.5 -29q0 -35 -25 -129q-8 -23 -20.5 -55.5t-32.5 -44.5q-12 -6 -30.5 -8 t-20.5 -2q-16 -55 -29.5 -92t-26 -64t-26 -48.5t-31.5 -47.5q-53 -78 -119.5 -140.5t-158.5 -97.5q-47 -18 -86 -22t-58 -4q-31 0 -86 10t-121 53q-74 49 -113.5 114.5t-58 130t-22.5 120t-4 82.5z" />
<glyph unicode="H" horiz-adv-x="1236" d="M186 109q0 16 10.5 51t20.5 76q16 63 31.5 128.5t32.5 131.5q-35 16 -53.5 31.5t-18.5 54.5q0 35 10 76.5t33 111.5q6 20 14 38.5t23 33.5q20 20 43.5 23t52.5 1q18 70 37.5 139.5t40.5 137.5q10 31 20.5 61.5t20.5 63.5q12 37 20 65.5t21.5 48t35 30.5t62.5 11 q49 0 85 -11t52 -17q35 -14 58.5 -35t23.5 -62q0 -20 -10 -49.5t-16 -50.5q-4 -16 -10.5 -32.5t-10.5 -32.5q-18 -66 -37.5 -132.5t-40.5 -134.5l238 2q23 92 47.5 186.5t50.5 186.5q14 47 27.5 95t19.5 59q8 12 21.5 21t48.5 9t78 -10t69 -20q59 -18 77 -40t18 -57 q0 -33 -8.5 -67.5t-24.5 -93.5q-4 -23 -10.5 -44.5t-12.5 -43.5q-18 -76 -36.5 -152t-39.5 -154q-23 -80 -44 -159.5t-44 -159.5q-16 -59 -31.5 -116.5t-31.5 -117.5q-8 -25 -14.5 -48t-14.5 -48q-4 -18 -8 -25.5t-8 -15.5q-16 -25 -41 -38t-53 -13q-10 0 -41 3t-68 7 q-33 4 -63.5 14.5t-51.5 36.5q-12 14 -12 43q0 20 7 48t14 47q6 23 12 43t10 43q27 98 54.5 197.5t56.5 199.5q-33 -57 -66 -106q-4 -4 -17.5 -26t-31.5 -34q-10 -6 -26.5 -11t-49.5 -5q-29 0 -54.5 1t-53.5 -1q-35 -162 -74 -312q-4 -23 -10 -45t-13 -45 q-16 -55 -42.5 -74.5t-86.5 -19.5q-33 0 -62.5 6t-61.5 17q-8 4 -16.5 6t-16.5 6q-37 16 -48.5 33.5t-11.5 34.5z" />
<glyph unicode="I" horiz-adv-x="641" d="M156 156l10 49q39 160 78 315.5t82 310.5q33 121 68.5 240t72.5 238q20 61 45 87.5t92 26.5q18 0 56 -4t85 -14q63 -14 84 -38t21 -52q0 -20 -8 -60q-84 -295 -160 -589q-35 -141 -67.5 -279.5t-65.5 -280.5q-6 -25 -15.5 -47t-25.5 -36q-16 -12 -44 -16.5t-50 -4.5 q-20 0 -54 3t-81 18q-2 0 -13.5 3t-27 8t-30.5 13t-26 21q-16 16 -22 34q-4 13 -4 37v17z" />
<glyph unicode="J" horiz-adv-x="980" d="M131 332q0 27 1 47t4 42.5t10.5 52.5t19.5 73q16 70 41 90q20 18 53 24.5t62 6.5q35 0 65.5 -4.5t38.5 -6.5q20 -4 40.5 -12t31.5 -22q4 -4 7 -11.5t3 -21.5q0 -18 -4 -35.5t-15 -48.5q0 -4 -11 -44t-11 -79q0 -6 4 -26.5t27 -30.5q4 -2 8 -4.5t14 -2.5t16.5 2.5 t14.5 6.5q18 12 29.5 31.5t23.5 62.5l219 895q2 2 7.5 17.5t11.5 29.5q10 23 28.5 41t69.5 18q20 0 70.5 -3t101.5 -25q33 -14 49.5 -30.5t16.5 -55.5q0 -23 -9 -58q-23 -90 -42 -179t-42 -179q-14 -59 -27.5 -115.5t-27.5 -115.5q-12 -55 -23.5 -110.5t-23.5 -109.5 q-10 -45 -24.5 -87t-28.5 -85q-10 -23 -17.5 -41t-21.5 -41q-16 -29 -46 -63.5t-75 -65t-107.5 -51t-144.5 -20.5q-109 0 -210 45t-148 143q-20 41 -23.5 75t-5.5 81z" />
<glyph unicode="K" horiz-adv-x="1110" d="M131 115q0 12 8 39l322 1185q10 37 26.5 62.5t57.5 25.5q10 0 18 -1t19 -1q14 -2 28.5 -3t28.5 -3q10 0 47 -4t72 -16q39 -14 51 -28.5t12 -33.5q0 -16 -10 -61l-119 -387q84 43 128 73.5t79 65.5q29 29 49.5 56.5t38 57t31.5 60.5t31 66q10 20 19 39.5t19 40.5 q16 37 27.5 56t54.5 19q41 0 87.5 -15t80.5 -30q47 -20 59.5 -32.5t12.5 -36.5q0 -25 -16.5 -74t-46 -109.5t-70.5 -127t-92 -130.5q-4 -4 -21.5 -25.5t-43 -49t-58.5 -58t-64 -51.5q-14 -10 -28.5 -18.5t-30.5 -15.5t-38.5 -17t-53.5 -23q29 -49 58.5 -98t58.5 -100 q31 -53 61.5 -107.5t58.5 -107.5q20 -45 45 -91q14 -27 19.5 -41t5.5 -26q0 -16 -7 -29.5t-18 -23.5q-14 -14 -43.5 -33t-64.5 -36t-67.5 -28.5t-53.5 -11.5q-35 0 -51.5 21.5t-30.5 50.5l-74 141q-23 41 -42 84t-39 84q-45 94 -95 188l-49 -241q-4 -20 -10 -39t-10 -37 l-13 -55q-2 -4 -6 -16.5t-12 -25t-22.5 -21.5t-34.5 -9q-12 0 -40 4t-58.5 10.5t-57.5 12.5t-37 10q-25 10 -55.5 28.5t-30.5 47.5z" />
<glyph unicode="L" horiz-adv-x="894" d="M203 297q0 16 4 43t10 54.5t12.5 53t10.5 39.5q14 53 26.5 107.5t26.5 107.5q16 66 34.5 128.5t34.5 125.5q23 76 44.5 151t44.5 148q16 57 25 86t30 50q10 10 32.5 20t63.5 10q29 0 62.5 -7t87.5 -21q47 -12 63 -28.5t16 -39.5q0 -20 -11 -63t-25 -93 q-16 -49 -29.5 -100t-28.5 -102q-43 -152 -81 -301.5t-74 -303.5q43 0 86 2t84 1q29 0 54 -1.5t54 1.5q16 2 35.5 4t36.5 2q12 0 33.5 -9.5t21.5 -48.5q0 -10 -4 -30.5t-10 -46.5q-4 -20 -12.5 -50t-18.5 -61t-24.5 -57.5t-32.5 -40.5q-23 -18 -53.5 -20.5t-90.5 -4.5h-104 q-25 0 -49.5 1t-48.5 1q-27 0 -51 -2q-12 -1 -25 -1t-25 1q-37 2 -64.5 20.5t-50 44t-41 55.5t-34.5 58q-25 45 -35 66.5t-10 50.5z" />
<glyph unicode="M" horiz-adv-x="1579" d="M133 115q0 16 8 43q35 135 73 270t81 270q49 156 102.5 309.5t108.5 309.5q12 29 22.5 49t25.5 32.5t35.5 18.5t53.5 6q23 0 62.5 -6t95.5 -22q39 -10 58.5 -19.5t29.5 -23.5q16 -16 21 -38t10 -69q4 -80 7 -158.5t3 -160.5t-3 -164t-7 -164q63 137 133 279 q39 76 78.5 150.5t80.5 150.5q23 35 44.5 71.5t46.5 71.5q27 41 57.5 69.5t77.5 28.5q16 0 53 -6t80 -18q45 -12 66.5 -25.5t33.5 -30.5q15 -19 17 -41q0 -6 1 -13q0 -17 -3 -38l-117 -1112q-4 -39 -13.5 -64.5t-27 -41t-44 -21.5t-65.5 -6q-41 0 -73.5 6t-45.5 10 q-4 0 -19 4.5t-30.5 13.5t-28 24.5t-12.5 39.5q0 12 2 24.5t5 16.5q14 119 36 248q16 96 36 190.5t42 190.5q-29 -51 -55.5 -100t-52.5 -101q-31 -57 -60.5 -113.5t-58.5 -113.5q-31 -59 -61.5 -117.5t-61.5 -118.5q-8 -12 -14 -23t-15 -22q-23 -33 -51.5 -46t-69.5 -13 q-35 2 -66.5 9t-64.5 18q-39 14 -49 30q-14 16 -17 38t-5 44v204.5t4 203.5q4 59 5 115.5t5 113.5q-47 -174 -91 -340t-87 -332q0 -4 -6 -20t-15 -31q-29 -53 -92 -53q-31 0 -70.5 9t-64.5 18q-35 10 -59.5 27.5t-24.5 58.5z" />
<glyph unicode="N" horiz-adv-x="1280" d="M145 117q0 23 6.5 44t10.5 44q41 147 80 292.5t80 293.5q37 131 74.5 260t76.5 260q25 68 44.5 89t62.5 21q55 0 106 -15t96 -38q23 -12 42.5 -23.5t33.5 -31.5q14 -23 30.5 -64t35.5 -98q18 -76 29.5 -129t19.5 -101.5t14 -102.5t12 -134q14 88 28.5 174t35.5 172 q16 72 35.5 144.5t38.5 146.5q18 59 34.5 76.5t57.5 17.5q57 0 102 -16.5t62 -22.5q35 -16 56 -31.5t21 -58.5q0 -16 -3 -32.5t-3 -18.5q-33 -129 -63.5 -258t-65.5 -258q-37 -135 -76.5 -270.5t-80.5 -270.5q-6 -23 -8.5 -33t-2.5 -24q0 -16 4.5 -30.5t4.5 -29.5 q-2 -35 -36 -48t-67 -13q-14 0 -35.5 2t-43 6t-42 7t-34.5 8q-4 0 -16.5 3t-29 9t-34 16t-29.5 23q-12 14 -18.5 29.5t-14.5 52.5q-18 98 -35.5 195.5t-31.5 197.5q-10 74 -19.5 148.5t-19.5 150.5q-10 -68 -21.5 -135.5t-27.5 -132.5q-12 -59 -27.5 -114.5t-32.5 -115.5 q-16 -61 -31.5 -123.5t-31.5 -128.5q-4 -10 -9.5 -27.5t-16.5 -32.5t-31.5 -26.5t-53.5 -11.5q-18 0 -71.5 8t-106.5 31q-41 18 -52.5 36.5t-11.5 41.5z" />
<glyph unicode="O" d="M207 504q0 23 1 55.5t11 83.5q8 53 24.5 111.5t37 117t46 113.5t52.5 102q16 27 48 74t82 98.5t118.5 97.5t158.5 75q20 6 46 12t47 6q29 0 46 -9t23 -18q2 -4 4 -11t2 -17q0 -12 -2 -29.5t-5 -36t-6 -35t-5 -26.5q29 23 56.5 47t56.5 49q27 23 51 42t61 19 q33 0 52.5 -19.5t41.5 -78.5q16 -41 36 -111.5t20 -183.5q0 -80 -12.5 -171t-36 -181t-54 -175t-67.5 -155q-29 -53 -60.5 -99t-72.5 -89q-16 -18 -49 -49t-82.5 -60.5t-115 -52.5t-143.5 -23q-23 0 -51 2.5t-61 13.5t-69 31.5t-72 57.5q-25 25 -52.5 61.5t-51 89t-39 120 t-15.5 151.5zM575 522q0 -20 2.5 -36.5t4.5 -22.5q8 -33 30.5 -68t57.5 -35q14 0 26.5 5.5t16.5 7.5q27 14 52.5 40.5t53.5 80.5q16 29 37 79t39 116.5t30.5 147.5t12.5 173q0 49 -5.5 84t-19.5 80q-16 -37 -24 -54.5t-15.5 -27t-19.5 -17.5t-37 -22q-10 -8 -29.5 -24.5 t-42.5 -41.5q-29 -33 -62.5 -89t-64.5 -150q-6 -20 -13 -49t-14 -61t-11.5 -61.5t-4.5 -54.5z" />
<glyph unicode="P" horiz-adv-x="1110" d="M225 109q0 12 2 18t6 29q25 104 50.5 207.5t54.5 207.5q31 113 62.5 225.5t62.5 225.5q-49 -18 -86 -32.5t-53 -14.5q-35 0 -41.5 20.5t-6.5 34.5q0 10 2.5 37t8.5 53l6 28t19.5 65.5t33 76.5t45.5 64q14 12 38 25.5t69 23.5q12 2 41.5 9t71.5 15.5t89.5 13.5t94.5 5 q16 0 54 -2t87 -11.5t102.5 -30t100.5 -54.5q16 -12 43.5 -40t56.5 -75q16 -29 41 -91.5t25 -154.5q0 -59 -21.5 -140t-99.5 -192q-53 -72 -112.5 -120t-117 -77.5t-107.5 -43t-81 -13.5q-20 0 -28.5 4.5t-12.5 10.5q-16 20 -21.5 85.5t-5.5 143.5l-135 -559 q-2 -12 -6 -26.5t-14.5 -28t-27.5 -22.5t-46 -9t-74 7t-73 16q-23 6 -48.5 18t-40.5 33q-2 4 -5 12t-3 23zM586 1065q33 -6 72.5 -16.5t72.5 -26.5q27 -14 41 -30.5t14 -43.5q0 -25 -8 -51.5t-16 -52.5q-6 -25 -12.5 -48t-12.5 -46q20 8 43 16t39 18q6 4 26.5 18.5t43 37 t40 54.5t17.5 73q0 29 -9 47t-15 26q-31 37 -73 45.5t-89 8.5q-66 0 -102.5 -9.5t-71.5 -19.5z" />
<glyph unicode="Q" d="M209 510q0 29 3 79t17 120q20 100 56.5 199.5t89.5 187.5t124.5 161.5t164.5 122.5q6 2 26.5 13.5t49 22.5t62.5 20.5t64 9.5q53 -2 66.5 -19.5t13.5 -37.5q0 -18 -6 -52t-16 -75q29 25 57.5 49t56.5 51q27 23 53.5 45.5t67.5 22.5q12 0 28.5 -5.5t33.5 -27.5 q16 -20 28.5 -49t20.5 -60t14 -60.5t10 -49.5q4 -45 6.5 -88t2.5 -89q0 -37 -2.5 -69.5t-7.5 -71.5t-13 -86t-23 -115q-27 -86 -48 -143t-47.5 -106.5t-64.5 -99.5t-96 -122q16 -18 29.5 -37.5t30.5 -39.5q23 -29 29 -43.5t6 -28.5t-11 -33q-10 -16 -37.5 -46t-68.5 -62 q-10 -8 -27.5 -20.5t-36 -25t-37 -20.5t-30.5 -8q-16 0 -25.5 4t-13.5 6q-20 10 -33.5 30.5t-27.5 43.5q-14 20 -28.5 38.5t-31.5 37.5q-16 -2 -70 -3h-7q-51 0 -103 15q-82 25 -139.5 78t-92 123.5t-51 151.5t-16.5 161zM575 524q0 -59 14.5 -91t31.5 -56q14 16 27.5 31.5 t29.5 31.5q14 16 28.5 30.5t34.5 14.5q12 0 22.5 -5t29.5 -21q18 27 32.5 52.5t26.5 56t24.5 72.5t28.5 103q8 47 13.5 79t8.5 60.5t4 62.5t1 85q0 27 -1 44.5t-3 32.5t-7.5 32.5t-13.5 42.5q-4 -10 -8 -21.5t-8 -23.5q-2 -4 -9.5 -23.5t-23.5 -32.5q-10 -10 -22.5 -15 t-24.5 -13q-37 -25 -69.5 -66t-55.5 -78q-23 -39 -43 -86t-35.5 -98t-24 -103.5t-8.5 -97.5z" />
<glyph unicode="R" d="M207 106q0 10 6 48l254 911q-29 -10 -59.5 -21.5t-65.5 -11.5q-16 2 -34.5 9.5t-18.5 48.5q0 35 16.5 88t44.5 131q16 29 28.5 39t43.5 22q68 18 114 29.5t88 18.5t89 10.5t116 7.5q23 0 58 -2t77 -9.5t90 -25t99 -49.5q61 -41 97 -89.5t54.5 -94.5t23.5 -87t5 -67 q0 -117 -53 -223.5t-145 -180.5q-31 -27 -65 -47t-101 -57l229 -393q4 -6 15.5 -31t11.5 -47q0 -23 -11.5 -37t-17.5 -21q-16 -18 -37.5 -32.5t-41 -24.5t-34 -16t-18.5 -8t-31.5 -13.5t-52.5 -11.5q-39 0 -53.5 22.5t-20.5 34.5l-270 492l-84 -338q-4 -10 -7 -22.5 t-7 -22.5q-14 -20 -37 -26.5t-45 -6.5q-8 0 -29.5 1t-49.5 5t-59.5 12.5t-58.5 20.5t-40 25.5t-13 39.5zM567 1081q49 -12 94.5 -22t63.5 -19q37 -16 45 -34.5t8 -38.5q0 -33 -14 -83t-39 -130q8 2 39 5t57 13q29 10 57.5 29.5t51 46t37 57.5t14.5 66q0 16 -7 41.5t-38 54.5 q-23 18 -46.5 29.5t-46 15.5t-41 5t-26.5 1q-55 0 -105 -11t-104 -26z" />
<glyph unicode="S" horiz-adv-x="894" d="M109 129q0 43 9 94t29 137q0 2 7.5 33t21.5 49q12 18 29.5 28.5t34 14.5t31 5.5t20.5 1.5q23 0 44 -2.5t42 -6.5q35 -4 54.5 -10t19.5 -45q0 -10 -2.5 -33.5t-4.5 -46.5q6 0 28 -2t45.5 4t42 24.5t18.5 59.5q0 27 -23 84q-29 76 -73 141.5t-83 137.5q-27 47 -44 92 t-17 98q0 31 12 88.5t60 122.5q45 63 104 107.5t129 72t143.5 41t145.5 13.5q31 0 60.5 -1t60.5 -6q10 -2 45 -8t61 -35q16 -16 18.5 -33.5t2.5 -27.5q0 -18 -3 -42t-7.5 -47.5t-8.5 -46t-8 -36.5q0 -2 -3 -14.5t-9 -30t-15.5 -33.5t-21.5 -29q-23 -20 -68 -25t-73 -5 q-16 0 -33 1t-33 1t-28.5 1t-20.5 7t-11 20.5t-3 42.5q-51 -2 -73 -10t-32 -31q-4 -4 -8 -17t-4 -30q0 -29 12 -47t39 -61q14 -23 26.5 -46.5t26.5 -45.5q47 -84 81 -167t34 -184q0 -27 -5 -75.5t-32 -110.5q-27 -63 -66.5 -107t-81.5 -73t-80 -44.5t-61 -21.5 q-59 -16 -112.5 -18t-73.5 -2q-98 0 -168 7t-104 32q-35 23 -39 51.5t-4 44.5z" />
<glyph unicode="T" horiz-adv-x="980" d="M287 1159q0 45 9 85t13 50q8 29 17.5 54.5t29.5 46.5q23 20 46.5 24t54.5 6h250.5t248.5 -4l179 -6q14 -2 30.5 -4t29.5 -10t23.5 -26.5t10.5 -53.5q0 -18 -5 -41t-10.5 -41t-10.5 -31.5t-5 -15.5q-10 -27 -20 -59q-20 -47 -49 -52.5t-52 -5.5l-344 10q23 -8 43.5 -16 t40.5 -16q10 -4 18.5 -6.5t16.5 -6.5q2 0 14.5 -6t25.5 -16t24.5 -26.5t11.5 -39.5q0 -8 -2 -17t-8 -28q-27 -100 -52.5 -198.5t-50.5 -198.5q-27 -104 -50.5 -205.5t-47.5 -206.5q-4 -10 -6 -19t-6 -20q-10 -20 -24.5 -31.5t-29 -16.5t-28 -6t-19.5 -1q-18 0 -63 4t-95 15 q-2 0 -13 3t-26.5 10t-31 17t-21.5 27q-2 4 -4 10t-2 19q0 16 8 51q29 115 58.5 226.5t60.5 223.5q33 119 66.5 236t68.5 235h-217q-20 0 -49 3t-43 20q-14 20 -14 55z" />
<glyph unicode="U" d="M217 395q0 47 7 84t20 84l207 778q6 29 25.5 54.5t80.5 25.5q76 0 120 -9t75 -23q23 -10 37 -21.5t12 -38.5q0 -18 -4 -32.5t-6 -18.5l-205 -772q-4 -10 -6 -22.5t-2 -32.5v-13.5t4 -19.5q10 -23 33.5 -41.5t48.5 -18.5q20 2 34.5 10.5t20.5 12.5q35 27 49 62.5t25 70.5 l239 797q10 31 29.5 54.5t83.5 23.5q61 -2 117.5 -15.5t68.5 -19.5q18 -10 27.5 -29.5t9.5 -40.5q0 -16 -5 -36.5t-5 -24.5q-27 -86 -52.5 -173t-48.5 -173q-16 -53 -30.5 -108.5t-30.5 -109.5q-16 -55 -33.5 -109t-36.5 -110q-57 -143 -101 -225t-99 -131 q-16 -14 -41 -31.5t-59.5 -33t-80 -25.5t-102.5 -10q-23 0 -77 5t-113 31q-115 47 -175.5 150.5t-60.5 224.5z" />
<glyph unicode="V" horiz-adv-x="1024" d="M328 1309v33t4 22q6 23 27.5 39t80.5 16q23 0 47.5 -3t69.5 -11q41 -6 59.5 -12.5t34.5 -20.5q20 -18 24.5 -40.5t2.5 -49.5q4 -114 5 -226v-74q0 -74 -1 -148q-2 -63 -4 -125t-6 -123q39 98 75.5 194.5t71.5 194.5q33 90 63.5 178t59.5 180q18 53 40 81t81 28 q6 0 26.5 -1t46 -5t55.5 -10.5t54 -16.5q25 -10 40 -23.5t15 -39.5q0 -16 -3 -31t-11 -41q-23 -63 -44 -125t-46 -123q-25 -59 -50.5 -119.5t-51.5 -120.5q-23 -51 -43.5 -100t-42.5 -98q-31 -61 -64 -124t-65 -124q-37 -68 -72 -135.5t-70 -136.5q-18 -33 -36.5 -50.5 t-55.5 -17.5q-18 0 -53 5t-72 15.5t-69.5 22.5t-47.5 29q-10 10 -15 28.5t-9 55.5q-10 182 -20.5 363t-18.5 364q-10 213 -12 426z" />
<glyph unicode="W" horiz-adv-x="1622" d="M331 526v55q0 163 5 328q6 207 18 422q2 20 4 37.5t13.5 30t33 19.5t62.5 7q37 0 65.5 -4t63.5 -12q8 -4 33.5 -10t44.5 -27q16 -16 19 -33.5t1 -40.5v-76.5t-2 -76.5q-4 -53 -7 -103.5t-7 -101.5q-11 -139 -19 -270q35 88 69 176t71 174q33 78 66.5 153.5t68.5 153.5 q18 37 32.5 56.5t29 28.5t33 11t46.5 2q16 0 43 -2t54.5 -6t52 -12t37.5 -23q12 -14 15 -36.5t3 -47.5v-188t-4 -188q-4 -59 -5 -120t-5 -120q35 84 69.5 166t69.5 164q35 84 66.5 163.5t66.5 161.5q12 35 18 43q16 29 35 37t51 8q25 0 76 -6t111 -30q27 -12 42 -26.5 t15 -41.5q0 -14 -4 -30.5t-4 -20.5q-23 -59 -44.5 -117.5t-45.5 -118.5q-27 -61 -54.5 -122.5t-54.5 -123.5q-39 -86 -75.5 -172t-77.5 -170q-45 -96 -92.5 -186t-94.5 -182q-27 -41 -50 -57.5t-77 -16.5q-27 0 -49 2t-67 12q-35 8 -52.5 16.5t-27.5 20.5q-14 16 -18.5 39 t-6.5 49q-6 129 -6 256q0 92 4 185.5t10 185.5q-37 -90 -73.5 -178t-77.5 -174q-41 -88 -85 -174t-91 -172q-23 -35 -42.5 -52.5t-60.5 -17.5q-23 0 -53.5 3t-61 11.5t-58 20.5t-42.5 29q-10 10 -14 26.5t-4 48.5q-4 195 -5 385z" />
<glyph unicode="X" horiz-adv-x="1110" d="M172 92q0 18 8 38t19 36l342 582l-199 534q-6 16 -10 29.5t-4 34.5q0 14 3 22t5 12q31 47 139 47q14 0 28.5 -1t31.5 -1q35 -2 62.5 -5t53.5 -25q33 -25 43.5 -53.5t14.5 -41.5l67 -215l115 228q16 31 30.5 51t32 32.5t41 18.5t60.5 6q23 0 83 -5t119 -32q20 -10 34 -20 t14 -29q0 -16 -8.5 -33.5t-18.5 -31.5l-342 -559l184 -564q2 -4 7.5 -25.5t5.5 -41.5q0 -31 -17.5 -46.5t-39 -23.5t-41 -9t-23.5 -1q-20 0 -60.5 3t-91.5 15q-35 8 -52 16.5t-28 18.5q-12 12 -17 26.5t-11 31.5l-68 260l-141 -275q-35 -61 -56.5 -77.5t-56.5 -16.5 q-12 0 -30.5 2t-30.5 4q-66 10 -97.5 18.5t-60.5 22.5q-25 12 -32 22.5t-7 20.5z" />
<glyph unicode="Y" horiz-adv-x="980" d="M291 109q0 25 22 71l158 334q-10 72 -22.5 140.5t-24.5 138.5q-12 63 -24.5 124.5t-22.5 124.5q-10 66 -19.5 131.5t-19.5 133.5q-4 26 -4 46q0 27 8 42q12 20 42 26t54 6q20 0 53 -3t54 -7q29 -4 56.5 -12t45.5 -31q10 -14 13.5 -29.5t7.5 -33.5q10 -68 16 -112t9 -85 t4 -87t1 -116q27 68 54.5 134.5t58.5 132.5q18 41 37.5 83t40.5 82q20 39 42.5 60.5t69.5 21.5q31 0 51.5 -1t36 -3t27.5 -5t27 -7q10 -2 24.5 -6t22.5 -8q10 -4 30.5 -22.5t20.5 -51.5q0 -18 -7 -39.5t-17 -42.5q-29 -63 -60 -126.5t-63 -129.5q-49 -100 -99.5 -199.5 t-101.5 -199.5q-121 -246 -242 -496q-16 -29 -29.5 -45t-25.5 -25.5t-25.5 -12.5t-29.5 -3q-23 0 -80.5 9t-114.5 38q-35 16 -45 28.5t-10 31.5z" />
<glyph unicode="Z" horiz-adv-x="894" d="M115 240q0 29 15 52t20 30l520 686q12 14 20 25t19.5 22.5t28 26t40.5 34.5l-387 -14q-41 -2 -56.5 7t-15.5 48q0 31 9.5 60.5t29.5 87.5q10 29 25.5 62.5t40.5 47.5q10 4 23.5 6t23.5 2h424q16 -2 30.5 -2h30.5q4 0 19.5 -1t28.5 -5q25 -8 41 -30.5t28 -50t20.5 -56.5 t14.5 -49q8 -29 13 -51.5t5 -51.5q0 -43 -13 -67.5t-23 -38.5l-484 -633l-76 -90h297q10 2 21.5 3t21.5 1q8 0 12.5 -1t6.5 -1q16 -6 21 -27.5t5 -40.5q0 -29 -7 -56.5t-17 -53.5q-2 -4 -6 -16.5t-12.5 -28t-19.5 -30.5t-26 -28q-25 -16 -51 -18t-37 -2h-438q-53 0 -73.5 8 t-37.5 29q-10 12 -23 39.5t-24.5 58.5t-19.5 59.5t-8 47.5z" />
<glyph unicode="[" horiz-adv-x="598" d="M147 -61q0 8 1.5 16t5.5 25l399 1499q14 35 27.5 45t50.5 14h270q2 -2 12.5 -2t18.5 -2q6 -4 15 -11t9 -30q0 -6 -1 -15.5t-7 -21.5q-10 -25 -28.5 -30t-45.5 -5h-129l-370 -1409h145q14 -2 31.5 -5t17.5 -32q0 -6 -2 -17t-8 -26q-8 -20 -21.5 -28t-56.5 -8h-266h-17.5 t-22.5 4t-19.5 13t-8.5 26z" />
<glyph unicode="\" horiz-adv-x="724" d="M100 1446h262l467 -1483h-262z" />
<glyph unicode="]" horiz-adv-x="598" d="M16 -59q0 8 1 19t10 28q8 14 20 20t47 6h139l373 1411h-129h-17.5t-25.5 5q-10 4 -18 12t-8 18q0 4 3 13.5t7 23.5q8 23 18 33t51 10h281h20.5t23.5 -6t16.5 -19.5t-1.5 -39.5l-397 -1502q-10 -43 -24.5 -56t-57.5 -17h-285q-16 2 -31.5 6t-15.5 35z" />
<glyph unicode="_" horiz-adv-x="1024" d="M76 -231h1065v-261h-1065v261z" />
<glyph unicode="`" horiz-adv-x="641" d="M246 1743q0 23 13 34t30 23q23 18 39 32.5t47 14.5q18 0 30.5 -7t30.5 -36l127 -207q0 -2 8.5 -17t8.5 -30q0 -14 -9 -26q-10 -16 -20 -23.5t-27 -13.5q-16 -6 -23 -9t-18 -1q-10 0 -18 4t-25 18l-178 201q-10 14 -13 23.5t-3 19.5z" />
<glyph unicode="a" horiz-adv-x="1067" d="M123 125q0 20 9 42.5t18 43.5l43 104q-12 4 -30 16.5t-18 47.5q0 10 4.5 36.5t10.5 57.5q0 2 3 17.5t8 37t12 44t18 40.5q4 6 13 23.5t26 30.5q18 14 43.5 15t70.5 3q35 78 70 153.5t72 153.5q39 78 78.5 158t80.5 158q8 12 14.5 25.5t14.5 25.5q27 39 52.5 53t72.5 14 q29 -2 58.5 -5t82.5 -13q23 -4 56.5 -13.5t50.5 -27.5q18 -23 22 -54.5t6 -41.5q8 -59 14.5 -115.5t10.5 -116.5q6 -98 7 -194t3 -195q1 -86 1 -170v-84q-1 -125 -3 -252q-2 -27 -5 -47t-13 -39q-33 -53 -164 -53h-14.5t-28.5 2t-35.5 6t-34.5 15q-18 12 -26.5 28.5 t-11.5 32.5t-4 29.5t-1 17.5v330q-12 -33 -23.5 -52.5t-21.5 -33.5q-27 -31 -59.5 -37t-104.5 -6l-114 -270q-4 -10 -17 -33q-8 -12 -27.5 -28.5t-58.5 -16.5q-23 0 -44 6t-66 18q-35 10 -66 24.5t-47 49.5q-2 4 -5 14.5t-3 24.5zM686 670h127l23 422z" />
<glyph unicode="b" horiz-adv-x="1110" d="M229 252.5q0 19.5 4 52.5q20 86 41 169t43 167q27 100 55.5 197.5t57.5 195.5q-12 -4 -24.5 -7t-22.5 -9q-4 -2 -22.5 -9.5t-43.5 -7.5q-14 0 -28.5 5.5t-14.5 33.5q0 14 4.5 39t10.5 50.5t12 48t10 34.5q16 51 27.5 79t30.5 44q25 23 60.5 34t70.5 22q31 8 112.5 25.5 t182.5 17.5q20 0 71.5 -3.5t114.5 -19.5t129 -51t119 -96q20 -25 48 -77t28 -138q0 -78 -34 -144.5t-89 -120.5q-27 -25 -56.5 -46t-58.5 -44q47 -61 78 -117.5t31 -134.5q0 -45 -11.5 -84t-27 -70.5t-31.5 -54t-27 -34.5q-53 -66 -114.5 -105t-129 -60.5t-139 -28.5 t-145.5 -7q-51 0 -84 3t-57.5 15.5t-46 36t-52.5 64.5q-29 39 -46 60.5t-26.5 38.5t-9.5 36.5zM553 1075q43 -6 84 -12t82 -25q23 -10 35 -21t12 -36q0 -16 -9 -46t-14 -46l-8 -32l-8 -32q10 2 30.5 6.5t45.5 14.5q6 2 27.5 12t45 29.5t43 48.5t19.5 68q0 8 -4 27.5 t-21 37.5q-27 31 -63.5 41t-75.5 10q-45 0 -91 -9t-130 -36zM590 311q6 0 30 -2q8 -1 17 -1q16 0 33 3q25 4 51.5 15.5t48 30t35.5 42t14 54.5q0 6 -1 18t-9 27q-14 23 -30.5 30t-33.5 25q-8 10 -11 26.5t-7 45.5q-6 29 -12 56.5t-13 55.5z" />
<glyph unicode="c" horiz-adv-x="980" d="M201 446v20q1 114 21 215q22 110 54.5 199t67.5 153.5t57 99.5q12 18 51.5 69t94.5 98q51 45 105.5 72t103.5 41t89 18.5t64 4.5q23 0 66 -5.5t92 -33.5q51 -29 86 -88.5t35 -186.5q0 -70 -16.5 -105.5t-38.5 -58.5q-23 -23 -44.5 -34t-31.5 -15t-31.5 -9t-50.5 -5 q-41 0 -71 5t-42 15q-8 4 -15 14.5t-7 33.5t9 44t9 42v6q-2 6 -10 24.5t-33 18.5q-12 0 -21.5 -4t-13.5 -9q-27 -14 -40 -34.5t-27 -42.5q-25 -45 -42.5 -82t-29.5 -74t-23.5 -76t-25.5 -88q-8 -29 -15.5 -57.5t-11.5 -59.5q-6 -43 -6 -90q-2 -10 -2 -32q0 -41 23.5 -57.5 t37.5 -16.5q10 0 22.5 5t27.5 26q18 23 25 43t18 40q10 20 18 30.5t16 19.5q29 29 68 41t82 12q55 0 89 -13.5t48 -31.5q4 -6 7 -13.5t3 -23.5q0 -25 -8 -64q-4 -18 -15 -56t-32.5 -86t-55.5 -99t-83 -94q-20 -18 -50 -39t-83 -45q-66 -29 -106 -37t-79 -8q-23 0 -68.5 7 t-94.5 40q-66 43 -115 144t-51 273z" />
<glyph unicode="d" horiz-adv-x="1193" d="M221 279q0 20 3 39.5t5 25.5q10 53 21.5 104.5t25.5 102.5q16 59 33 119.5t33 120.5q16 61 33.5 121.5t34.5 121.5l8 41q-29 -10 -62 -24q-2 -2 -20.5 -10.5t-32.5 -8.5q-16 0 -22.5 14.5t-6.5 32.5q0 14 2.5 22.5t6.5 20.5l55 195q14 33 26.5 44t45.5 28 q86 20 158.5 33.5t160.5 13.5q23 0 71 -3t107.5 -16.5t125 -42t124.5 -78.5q25 -23 55.5 -58.5t57 -89.5t45 -125t18.5 -159q0 -76 -24.5 -185.5t-110.5 -256.5q-23 -35 -61.5 -90.5t-100 -112.5t-147.5 -109.5t-201 -82.5q-6 -2 -26.5 -7.5t-49 -9.5t-61.5 -8t-64 -4 q-29 0 -56.5 8t-68.5 49q-35 35 -65 72q-43 53 -59.5 85t-16.5 67zM539 1114q61 -14 101 -25.5t65 -27.5q33 -18 42 -40t9 -38q0 -10 -2 -22.5t-6 -22.5l-142 -559h31t20 4q18 4 51 20.5t72 47.5q61 47 98 104t57.5 112.5t27 100.5t6.5 70q0 47 -10.5 81.5t-20.5 51.5 q-27 55 -68 88t-81.5 48t-76.5 19t-55 4q-27 0 -49 -3t-69 -13z" />
<glyph unicode="e" horiz-adv-x="1024" d="M213 573q0 20 7 62.5t22 93.5q0 2 3 14.5t9 28.5t14 33.5t21 28.5q16 16 39.5 18t50.5 2l61 215q-51 2 -80.5 15.5t-29.5 41.5q0 16 5 34t13 46q4 20 9 41t12 41q31 98 63 121q22 16 56 15h25q27 0 65 1q35 0 68.5 1t68.5 1q92 0 185 -2t185 -4h36t50.5 -2t50 -7 t35.5 -17q8 -10 10.5 -23.5t2.5 -17.5q0 -16 -9.5 -62.5t-21.5 -89.5q-10 -43 -24.5 -72.5t-28.5 -44.5q-16 -16 -33.5 -18t-58.5 -2t-83 2t-83 4q-29 1 -57 1h-28h-17q-34 0 -68 3q-16 0 -31.5 1t-32.5 1q-16 0 -35.5 -2t-21.5 -2q18 -10 37.5 -20.5t42.5 -20.5t37 -21.5 t14 -33.5q0 -12 -5 -31.5t-9 -32.5q-4 -16 -6.5 -29.5t-4.5 -27.5q74 0 146 -1t149 -3q12 0 27.5 -1t28 -8t20.5 -23.5t8 -47.5q0 -33 -9 -59.5t-28 -81.5q-10 -25 -25.5 -62t-39.5 -53q-8 -6 -17.5 -9t-31.5 -3q-14 0 -28.5 1t-29.5 3q-14 0 -26.5 1t-24.5 1 q-55 0 -111.5 1t-113.5 1l-47 -182q66 1 133 1l133 -1q47 -2 76 -2t45 -15q6 -6 13 -21.5t7 -43.5q0 -10 -1 -15.5t-1 -13.5q-4 -23 -9 -43t-11 -43q0 -2 -3 -14.5t-9.5 -27.5t-14.5 -31.5t-20 -28.5q-29 -29 -75 -29h-130q-59 0 -117 -2q-29 -1 -58.5 -1t-60.5 1h-23.5 t-40 3t-47 10t-44.5 20q-16 10 -31.5 27.5t-38.5 52.5q-27 41 -35 67.5t-8 46.5q0 23 6 45.5t11 42.5q10 47 21 96.5t22 96.5q-43 16 -54.5 29.5t-11.5 35.5z" />
<glyph unicode="f" horiz-adv-x="937" d="M178 117q0 10 4 23.5t4 15.5l95 348q-37 6 -56.5 17t-19.5 46t14 81t25 71q8 27 15 55.5t26 44.5q12 12 32.5 17.5t61.5 9.5l63 237h-61q-12 0 -25.5 -1t-25.5 3q-20 4 -23.5 24.5t-3.5 25.5q0 18 7 39.5t7 23.5q6 16 11.5 30.5t9.5 31.5q14 51 25.5 81.5t27 46 t35.5 20.5t55 9q66 4 129.5 6t128.5 2q88 0 175 -5t176 -9l49 -6q23 -2 39 -13.5t16 -58.5q0 -29 -8 -51t-19 -72q-4 -14 -9 -32.5t-13 -36t-19.5 -32.5t-25.5 -22q-14 -6 -53 -4l-359 9h-123q59 -14 90 -24.5t56 -23.5q25 -12 39 -23t14 -40q0 -12 -8 -50t-17 -73h242h19.5 t17.5 -2q20 -4 34.5 -16.5t14.5 -59.5q0 -45 -12.5 -81.5t-22.5 -75.5q-6 -25 -14 -45q-8 -18 -20.5 -35t-28.5 -25q-10 -4 -22.5 -5t-26.5 -1h-275q-10 -51 -21.5 -101.5t-23.5 -101.5q-12 -47 -25.5 -94t-29.5 -94q-4 -12 -9.5 -25.5t-11.5 -25.5q-16 -39 -35.5 -51.5 t-62.5 -12.5q-29 0 -66.5 6t-95.5 27q-35 10 -51 19.5t-27 25.5q-2 4 -5 12t-3 21z" />
<glyph unicode="g" horiz-adv-x="1110" d="M199 487q0 31 3 77t15 112q6 29 23.5 93.5t51.5 146t84 172t122 169.5q8 8 26.5 27t43 39t55 41.5t67.5 38.5q27 10 80 24.5t131 14.5q82 0 142.5 -20.5t101.5 -50.5t66.5 -65.5t39.5 -66.5q2 -4 9.5 -20.5t14.5 -39t11 -50t4 -54.5q0 -10 -1 -29.5t-15 -41.5 q-14 -25 -34.5 -38.5t-74.5 -25.5q-39 -8 -74.5 -11t-111.5 -3h-12.5t-18.5 4q-12 4 -24.5 19.5t-12.5 43.5q0 10 1 17.5t1 17.5q0 8 -1 20.5t-7 24.5t-18.5 22.5t-34.5 10.5q-66 -2 -121 -66.5t-102 -181.5q-10 -20 -23.5 -57t-28 -85t-23.5 -107.5t-9 -127.5 q0 -70 25.5 -103.5t60.5 -33.5q41 2 67.5 32t59.5 89q-35 -2 -59.5 0t-36.5 12q-10 6 -11 29q2 31 10.5 78t16.5 75q6 25 16.5 49.5t28.5 41.5q20 16 46 22t79 12q57 8 108.5 13.5t106.5 5.5q23 0 44 -1t44 -1q8 -2 33.5 -3t52.5 -18q10 -4 20.5 -13t10.5 -32 q0 -27 -9.5 -63.5t-15.5 -59.5q-16 -76 -49 -100q-14 -12 -55 -14q-14 -47 -25.5 -82t-27 -67t-35 -63.5t-47.5 -70.5q-12 -16 -44 -55t-82.5 -79t-118 -69.5t-153.5 -29.5q-113 0 -207 63q-74 49 -114.5 114.5t-60 130t-22.5 119t-3 78.5z" />
<glyph unicode="h" horiz-adv-x="1236" d="M186 109q0 16 8.5 45.5t18.5 68.5q18 68 34.5 135.5t33.5 137.5q-35 16 -53.5 31.5t-18.5 52.5q0 47 13.5 96t29.5 92q2 4 11 30.5t26 43.5q16 16 36.5 21t59.5 3q16 66 33.5 129.5t38.5 128.5q10 35 22.5 68t22.5 68q12 35 19 65.5t20.5 52t38 33.5t67.5 12q47 0 84 -12 t51 -16q8 -4 21.5 -9.5t27 -16.5t22.5 -28.5t9 -42.5q0 -20 -7 -42.5t-15 -43.5l-19 -61q-23 -72 -42 -142.5t-42 -142.5l238 2q29 119 60.5 238t66.5 235q6 23 10 35.5t10 22.5q8 10 22.5 18t47.5 8q49 0 145 -30q59 -18 78 -40t19 -57q0 -41 -16.5 -101t-39.5 -142 q-18 -72 -36.5 -146.5t-36.5 -148.5q-20 -78 -41 -155t-43 -154q-4 -14 -20.5 -73t-35 -126.5t-35 -124.5t-24.5 -72q-8 -12 -31.5 -32.5t-64.5 -20.5q-23 0 -46.5 3t-45.5 7q-39 4 -57.5 7.5t-37.5 13.5q-8 4 -28.5 21.5t-20.5 51.5q0 23 12.5 66t26.5 98q12 45 23.5 89 t23.5 90q16 59 33.5 117.5t34.5 117.5q-14 -25 -28.5 -49.5t-31.5 -48.5q-16 -29 -26.5 -40t-20.5 -22q-14 -10 -31.5 -16t-52.5 -6q-29 0 -55.5 1t-52.5 -1q-10 -53 -22.5 -105.5t-24.5 -105.5q-10 -41 -21.5 -83t-21.5 -87q-2 -8 -6.5 -25.5t-14.5 -38.5q-16 -33 -46 -42 t-71 -9q-23 0 -59.5 5t-91.5 28q-41 16 -52.5 34.5t-11.5 35.5z" />
<glyph unicode="i" horiz-adv-x="641" d="M156 156l10 49q37 152 73.5 301t77.5 301q35 127 73 251t77 251q12 31 22.5 52t24.5 35.5t34.5 20.5t53.5 6q16 0 51 -3t76 -11l13 -2q12 -2 29 -7t34.5 -14.5t30.5 -23.5q4 -8 9 -17.5t5 -29.5q0 -12 -2 -23.5t-6 -36.5q-41 -152 -82 -301t-80 -301q-35 -137 -66.5 -273 t-64.5 -274q-2 -8 -11.5 -36.5t-27.5 -44.5q-12 -10 -27.5 -14.5t-30 -6.5t-25.5 -2h-13q-25 0 -55.5 3t-84.5 18q-6 2 -38.5 13t-55.5 34q-20 20 -23 40q-2 12 -2 26q0 9 1 20z" />
<glyph unicode="j" horiz-adv-x="980" d="M131 332q0 23 1 44t4 45.5t10.5 55.5t19.5 74q6 20 15 46t26 40q12 12 30.5 18.5t37 9.5t31.5 3h16q23 -2 47 -4t47 -7q63 -8 82 -34q8 -10 9 -20.5t1 -14.5q0 -16 -5 -34.5t-9 -35.5q-12 -45 -19.5 -76.5t-7.5 -58.5q0 -8 3 -27.5t26 -29.5q2 0 9 -3.5t15 -3.5 q6 0 16.5 2.5t20.5 10.5q23 16 31 39.5t16 50.5l219 895q2 10 6 18t6.5 16.5t6.5 14.5q10 23 29.5 40t68.5 17q72 0 113 -10t69 -22q14 -8 36 -23.5t22 -56.5q0 -14 -11 -60q-25 -106 -49 -211.5t-51 -212.5q-16 -74 -33.5 -147.5t-34.5 -149.5q-4 -27 -10 -52l-12 -50 q-10 -41 -22.5 -79t-26.5 -79q-18 -45 -31.5 -67.5t-28.5 -42.5q-43 -59 -94 -93t-100 -51.5t-92 -22.5t-70 -5q-55 0 -110.5 12t-103.5 36.5t-86 61.5t-58 88q-12 29 -17.5 57.5t-7.5 88.5z" />
<glyph unicode="k" horiz-adv-x="1110" d="M131 117q0 4 2 14t6 23l322 1185q2 4 5 18.5t12 30t24.5 27.5t42.5 12q14 0 27.5 -1t27.5 -3q41 -4 82 -7t82 -19q35 -14 46 -28.5t11 -31.5q0 -16 -3 -31.5t-7 -29.5l-119 -387q74 39 113 62.5t67 52.5q63 57 99.5 116.5t70.5 134.5q10 23 21.5 45.5t21.5 45.5 q16 35 28.5 56t55.5 21q41 0 86 -15t78 -30q31 -12 53.5 -24.5t22.5 -46.5q0 -27 -11.5 -61t-26.5 -68.5t-31.5 -65.5t-26.5 -49q-41 -74 -84 -135.5t-85 -108.5t-78 -79.5t-60 -49.5q-37 -27 -78 -45t-82 -35q33 -55 65.5 -109.5t63.5 -109.5q29 -47 54.5 -96t53.5 -98 q10 -23 22.5 -46.5t24.5 -46.5q2 -4 12.5 -24.5t10.5 -40.5q0 -29 -16.5 -44t-20.5 -20q-14 -10 -58 -36.5t-93 -44.5q-2 -2 -23.5 -9.5t-42.5 -7.5q-14 0 -24.5 4t-14.5 6q-16 10 -24.5 25.5t-18.5 36.5q-20 37 -38.5 73.5t-39.5 73.5q-18 39 -36.5 78t-38.5 78 q-23 49 -47.5 97t-49.5 97l-49 -241q-6 -23 -12 -45.5t-12 -44.5q-4 -16 -8.5 -37t-12.5 -37q-4 -10 -19.5 -25.5t-43.5 -15.5q-4 0 -19.5 3t-33 6t-32 6t-18.5 3q-29 4 -61.5 11.5t-59.5 21.5q-2 0 -11 5t-18.5 13.5t-17.5 20.5t-8 27z" />
<glyph unicode="l" horiz-adv-x="894" d="M203 297q0 35 12 84t29 121q10 47 21 92t24 92q20 78 40.5 152.5t43.5 150.5q18 68 36.5 134.5t41.5 133.5q16 53 24 83t29 51q25 23 57.5 26.5t42.5 3.5q29 0 61.5 -7t90.5 -23q41 -10 58 -26.5t17 -39.5q0 -10 -6 -36.5t-14 -56.5t-15.5 -56.5t-9.5 -34.5 q-12 -43 -25 -87t-26 -87q-41 -152 -78.5 -302.5t-74.5 -302.5q53 0 106 1.5t107 1.5h38.5t63.5 4q2 0 13.5 2t21.5 2q35 0 45 -23.5t10 -38.5q0 -12 -4 -28.5t-10 -42.5q-4 -23 -11.5 -52.5t-17.5 -61.5t-25.5 -59.5t-35.5 -41.5q-18 -14 -43 -17.5t-72 -3.5 q-27 -2 -51.5 -2h-48.5q-35 0 -72 1t-74 1q-23 0 -46 -2q-8 -1 -15 -1l-31 3q-37 4 -65.5 25.5t-51 50.5t-41 60.5t-34.5 60.5q-14 25 -24.5 46t-10.5 50z" />
<glyph unicode="m" horiz-adv-x="1579" d="M133 115q0 12 3 26.5t5 16.5q33 127 67 250.5t73 246.5q53 166 109 331t116 331q16 39 27.5 57.5t25.5 28.5q10 8 30.5 14t53.5 6q23 0 59.5 -5t90.5 -19q2 0 13 -3t25.5 -9.5t30 -14.5t25.5 -18q20 -18 25.5 -48t7.5 -61q4 -80 7 -159.5t3 -159.5q0 -84 -3 -165t-7 -163 q35 74 69.5 147.5t71.5 145.5t75 143.5t76 143.5q12 20 24.5 40.5t27.5 43.5q20 37 49 73q39 53 67.5 68.5t57.5 15.5q18 0 39.5 -3t41 -8t33.5 -8l13 -3q31 -10 57.5 -20.5t44.5 -35.5q19 -23 21 -44q0 -6 1 -12q0 -17 -3 -38l-117 -1112q-4 -39 -13.5 -64.5t-27 -41 t-45 -21.5t-66.5 -6q-41 0 -72.5 6t-44.5 10q-6 2 -32.5 9.5t-42.5 29.5q-14 20 -15 45q0 8 1 15.5t6 23.5q10 74 21 147.5t24 147.5q16 86 33.5 168t35.5 166q-29 -53 -57.5 -104.5t-56.5 -104.5q-31 -59 -61 -116.5t-60 -116.5q-29 -55 -57.5 -110.5t-57.5 -111.5 q-14 -29 -27 -43q-12 -20 -38.5 -40.5t-86.5 -20.5q-23 0 -61 8q-23 4 -63.5 17.5t-57.5 33.5q-14 18 -16 47t-2 33v204.5t4 203.5q4 59 5 115.5t5 113.5q-45 -168 -89 -335t-89 -337q-14 -47 -36.5 -75.5t-76.5 -28.5q-29 0 -70.5 9t-64.5 18q-35 10 -59.5 27.5t-24.5 58.5 z" />
<glyph unicode="n" horiz-adv-x="1280" d="M145 117q0 18 3.5 35.5t13.5 52.5q39 141 75.5 282.5t77.5 282.5q39 135 78 270.5t80 270.5q23 66 43.5 88t63.5 22q33 0 83 -10t117 -43q10 -4 35 -17.5t43 -37.5q16 -23 30.5 -63t35.5 -99q14 -57 24 -100t18.5 -91.5t15.5 -113t17 -162.5q14 92 29.5 180t36.5 176 q16 72 34.5 140.5t37.5 140.5q18 59 35.5 76.5t56.5 17.5q59 0 103 -16.5t63 -22.5q35 -16 55 -31.5t20 -58.5q0 -14 -6 -51q-33 -131 -64.5 -261t-66.5 -261q-37 -135 -75.5 -267.5t-79.5 -267.5q-2 -6 -6.5 -21.5t-4.5 -35.5q0 -14 4.5 -28.5t4.5 -31.5q0 -10 -2.5 -14 t-4.5 -8q-8 -12 -32.5 -25.5t-63.5 -13.5q-18 0 -32.5 2t-45.5 6q-20 2 -46.5 7t-53.5 13.5t-50.5 20.5t-37.5 31q-10 10 -17.5 26.5t-13.5 49.5q-16 94 -33.5 188t-31.5 188q-12 78 -21.5 158t-19.5 158q-10 -63 -20.5 -124.5t-24.5 -125.5q-14 -66 -32 -130.5t-34 -129.5 q-16 -59 -30.5 -119.5t-30.5 -120.5q-2 -10 -7.5 -27.5t-17.5 -32.5t-32.5 -26.5t-53.5 -11.5q-14 0 -68.5 7t-107.5 30q-29 14 -47.5 30.5t-18.5 49.5z" />
<glyph unicode="o" d="M207 502q0 63 9 122.5t21.5 109.5t25.5 88t20 57q8 25 31.5 82t64.5 126.5t101.5 141t144.5 127.5q53 35 96 51t65 25q31 10 56.5 14t36.5 4q4 0 28.5 -4t38.5 -21q4 -4 6 -10t2 -20q0 -18 -5 -52t-13 -75q27 23 52.5 43t49.5 43q29 25 56.5 48t66.5 23q41 0 60.5 -30.5 t33.5 -67.5q18 -45 37 -113.5t19 -181.5q0 -78 -12.5 -166t-34 -177t-51 -173t-64.5 -151q-37 -74 -71 -118t-58 -73l-50 -50t-85 -66.5t-118 -57.5t-149 -25q-23 0 -52 3.5t-64 15.5t-73 35.5t-77 64.5q-23 25 -48 62t-46.5 88t-36 114.5t-14.5 143.5zM575 522 q0 -33 7.5 -64.5t29.5 -62.5q25 -35 58 -35q27 0 50 15.5t40.5 34t27.5 34.5l11 15q35 57 61.5 125.5t44 140.5t25.5 145.5t8 139.5q0 49 -5.5 84t-19.5 80q-10 -25 -16 -40.5t-12 -26.5t-14.5 -19.5t-20.5 -16.5q-20 -12 -43 -25.5t-53 -48.5q-39 -43 -67 -91t-48 -101 q-10 -25 -21.5 -61.5t-20.5 -76.5t-15.5 -79t-6.5 -66z" />
<glyph unicode="p" horiz-adv-x="1110" d="M225 109q0 14 2 22t6 25q25 104 50.5 207.5t54.5 207.5q31 115 62.5 226.5t62.5 224.5q-20 -8 -40 -15.5t-42 -15.5q-10 -4 -21 -8q-10 -4 -19 -6t-15 -2q-16 0 -33 9t-17 44q0 12 1.5 25.5t3.5 25.5q10 92 40.5 160t53.5 96q10 14 29.5 29.5t56.5 28.5q10 4 46 12 t83 17.5t102.5 16.5t104.5 7q16 0 53 -2t85 -11.5t101.5 -29t100.5 -53.5q29 -20 45 -40t26 -30q25 -31 60 -105.5t35 -189.5q0 -16 -2.5 -48t-12.5 -71t-29.5 -81t-44 -81.5t-53 -75.5t-55.5 -63q-47 -45 -97.5 -76.5t-96.5 -51t-83.5 -28t-62.5 -8.5q-4 0 -16.5 1 t-22.5 12q-10 12 -16 43.5t-9.5 68.5t-3.5 71v48l-135 -559q-2 -10 -6 -25.5t-13 -29t-26.5 -23.5t-46.5 -10q-16 0 -37.5 3t-44 7t-43 8t-33.5 9q-2 0 -12 4t-23.5 11t-26.5 17.5t-20 24.5q-4 8 -5 15t-1 12zM586 1065q2 0 15 -3t31.5 -8t41 -11.5t41.5 -14.5 q47 -20 59 -40.5t12 -41.5q0 -23 -7 -44t-19 -66q-6 -23 -12.5 -43t-10.5 -43q8 4 33 12t47 22q6 2 27.5 16.5t44 38t40 55.5t17.5 73q0 14 -5 38.5t-34 47.5q-31 29 -65.5 35t-73.5 6q-41 0 -77 -4.5t-105 -24.5z" />
<glyph unicode="q" d="M209 512q0 20 3 69.5t13 108.5q6 33 22.5 99.5t48.5 147.5t84 168t130 163q49 49 101.5 81.5t100.5 54t88 32t64 10.5q53 -2 67.5 -18.5t14.5 -38.5q0 -16 -6 -53t-16 -74q29 23 55.5 46t52.5 48q27 23 56.5 48.5t70.5 25.5q25 0 47 -19q20 -16 35.5 -48t26 -66.5 t16.5 -67.5t10 -51q4 -43 6.5 -87t2.5 -87q0 -37 -2.5 -70t-7.5 -71t-13 -87t-23 -117q-27 -86 -48 -144t-47.5 -107.5t-64.5 -99.5t-96 -120q14 -18 27.5 -35.5t30.5 -39.5q14 -16 25.5 -37t11.5 -39q0 -6 -2 -14.5t-13 -22.5q-10 -14 -37.5 -43t-62.5 -57 q-10 -8 -27.5 -21.5t-37 -26t-38 -20.5t-32.5 -8q-20 0 -35.5 9t-28 22.5t-22.5 30t-21 30.5q-12 18 -24.5 34.5t-26.5 33.5q-18 -2 -37.5 -3t-40.5 1q-25 0 -77 8t-113 45q-20 14 -42 31.5t-38 35.5q-43 49 -87 150.5t-44 259.5zM575 524q0 -61 14.5 -92t31.5 -55 q14 16 27.5 30.5t27.5 30.5q14 18 28.5 32.5t38.5 14.5q18 0 31.5 -11t18.5 -15q18 29 32.5 54.5t26.5 56t24.5 71.5t28.5 102q6 33 11.5 59.5t8.5 57.5t5 71t2 99q0 33 -2 54.5t-5 37t-7.5 30t-10.5 30.5q-14 -39 -22 -62.5t-25 -38.5q-10 -8 -23.5 -14t-25.5 -14 q-23 -14 -53.5 -47t-65.5 -86q-37 -59 -59.5 -120t-34.5 -115t-17.5 -96t-5.5 -65z" />
<glyph unicode="r" d="M207 106q0 10 6 48l254 911q-27 -10 -55.5 -20.5t-65.5 -10.5q-41 0 -49 17.5t-8 35.5q0 37 16.5 90.5t44.5 131.5q16 29 28.5 39t43.5 22q66 18 112 29.5t89 18.5t91 10.5t115 7.5q35 -2 69 -3t69 -8q76 -16 149.5 -54t124.5 -97q27 -29 59.5 -92.5t32.5 -165.5 q0 -47 -19.5 -135t-92.5 -185q-29 -35 -56.5 -61.5t-58.5 -49t-64.5 -42t-72.5 -39.5l229 -393q16 -33 21.5 -47.5t5.5 -30.5q0 -10 -6.5 -25.5t-28.5 -38.5q-35 -35 -75 -53t-48 -22q-33 -14 -50.5 -19.5t-35.5 -5.5q-39 0 -53.5 23.5t-20.5 33.5l-270 492l-84 -338 q-2 -6 -4 -14q-2 -6 -4 -13.5t-4 -11.5q-8 -16 -27.5 -27.5t-54.5 -11.5q-8 0 -29.5 1t-49.5 5t-59.5 12.5t-58.5 20.5q-37 16 -46 30.5t-9 34.5zM567 1081q29 -6 56.5 -13t58.5 -15q43 -10 69.5 -26.5t26.5 -57.5q0 -18 -4 -40t-9 -41.5t-9 -32.5l-4 -13q-6 -23 -12.5 -44 t-14.5 -44q25 4 65.5 10t92.5 41q6 6 22.5 19.5t33.5 34t29.5 49t12.5 63.5q0 16 -6 40.5t-35 51.5q-35 33 -78 44t-88 11q-55 0 -104 -11t-103 -26z" />
<glyph unicode="s" horiz-adv-x="894" d="M109 127q0 41 7 88t27 131q4 18 11.5 46t17.5 44q10 20 38 38t79 18q23 0 45 -2.5t45 -6.5q35 -4 53.5 -11t18.5 -44q0 -23 -2.5 -41.5t-4.5 -38.5q6 0 28 -2t45.5 4t42 24.5t18.5 59.5q0 16 -4.5 33.5t-16.5 48.5q-29 72 -68.5 134.5t-78.5 127.5q-29 49 -50.5 100.5 t-21.5 108.5q0 25 5 57.5t20.5 70.5t43 79t72.5 82q27 25 68 52.5t96 50t126 38t159 15.5q25 0 49 -1t49 -4q8 0 44 -4t67 -24t37 -41t6 -37q0 -6 -2 -23.5t-5.5 -42t-7.5 -52t-10 -50.5q-12 -47 -24.5 -72.5t-30.5 -40.5q-10 -8 -19.5 -12t-31.5 -8q-42 -8 -82 -8h-15 q-46 2 -61 2q-41 0 -48 13t-9 58q-47 -2 -68 -9t-33 -25q-10 -16 -13 -31.5t-3 -24.5q0 -29 16.5 -52t30.5 -46t26.5 -46.5t26.5 -45.5q47 -86 83 -170t36 -189q0 -18 -4 -60t-21 -95q-23 -70 -60.5 -118t-78.5 -79t-79 -48t-62 -26q-31 -10 -79 -18t-124 -8q-96 0 -165.5 6 t-104.5 27q-37 23 -43 53.5t-6 46.5z" />
<glyph unicode="t" horiz-adv-x="980" d="M287 1161q0 47 10 88t14 51q8 29 18.5 54.5t32.5 44.5q23 18 44.5 22t50.5 4h239.5t239.5 -4q49 -2 98 -3t101 -3q14 -2 30.5 -4t30.5 -11t23.5 -27.5t9.5 -55.5q-2 -35 -11.5 -63.5t-19.5 -59.5l-18 -55q-10 -27 -22.5 -40.5t-27 -18.5t-27.5 -5h-26l-344 10 q29 -10 59.5 -21t59.5 -24q29 -10 52.5 -30.5t23.5 -55.5q0 -12 -2 -20t-8 -27q-27 -104 -53.5 -204.5t-53.5 -204.5q-25 -100 -48.5 -199.5t-45.5 -200.5l-9.5 -28.5t-16.5 -30.5t-31.5 -24.5t-53.5 -10.5q-16 0 -64 4t-96 15q-23 6 -52 19t-40 38q-2 4 -4 10t-2 19 q0 18 8 51q33 129 67 257t71 257q29 104 58.5 204.5t57.5 202.5h-217q-25 0 -44 2t-32.5 9.5t-21.5 24t-8 44.5z" />
<glyph unicode="u" d="M217 395q0 18 1 34.5t4 35t8.5 42t13.5 56.5l207 778q6 29 14 41q20 31 53 35t41 4q76 0 121 -10t76 -25q10 -4 28.5 -15t16.5 -42q0 -12 -2 -21.5t-8 -29.5l-205 -772q-2 -4 -5 -21.5t-3 -33.5q0 -6 1 -14.5t5 -18.5q10 -25 32.5 -42.5t47.5 -17.5q10 0 23 4.5t32 18.5 q35 29 49 63.5t25 69.5l239 797q10 33 17 39q8 14 23 22t30.5 11t27 4.5t13.5 1.5q12 0 55 -5.5t84 -15.5q25 -4 44.5 -11t31.5 -32q4 -4 7 -14.5t3 -26.5q0 -18 -5 -37.5t-5 -23.5q-25 -82 -49.5 -163t-46.5 -163q-16 -59 -33 -118.5t-33 -119.5q-16 -53 -33.5 -108 t-36.5 -111q-16 -41 -34.5 -86t-41 -91t-49 -88t-57.5 -75q-16 -16 -47 -40.5t-84 -45.5q-59 -23 -104 -26.5t-70 -3.5t-81 6t-118 35q-109 49 -166 150t-57 220z" />
<glyph unicode="v" horiz-adv-x="1024" d="M328 1309q0 6 1 33.5t13 46.5q8 12 23.5 18t31 9t27.5 3h16q16 0 27.5 -1t24 -2t29 -4t40.5 -7q41 -6 60.5 -13.5t33.5 -23.5q18 -20 21.5 -39.5t1.5 -46.5q4 -104 5 -204v-68q0 -68 -1 -138q0 -72 -3 -143t-7 -143q39 98 76.5 197.5t74.5 199.5q61 174 119 350 q20 55 41 82t78 27q43 0 97 -9.5t91 -25.5q35 -16 43 -30.5t8 -33.5q0 -18 -5 -35.5t-9 -33.5q-23 -68 -46 -133.5t-50 -130.5q-23 -55 -47.5 -109.5t-46.5 -109.5q-23 -51 -43.5 -101.5t-44.5 -99.5q-29 -61 -62 -122.5t-65 -121.5q-37 -70 -73 -138.5t-71 -139.5 q-29 -45 -46 -56.5t-44 -11.5q-18 0 -53 5t-72 14.5t-69.5 22.5t-46.5 28q-18 20 -21.5 48.5t-5.5 37.5q-10 182 -20.5 362t-18.5 365q-10 213 -12 426z" />
<glyph unicode="w" horiz-adv-x="1622" d="M331 526v54q0 164 5 329q6 207 18 422q4 35 11.5 56.5t40.5 31.5q23 4 40 5t23 1q31 0 59.5 -4t57.5 -10q37 -10 56.5 -17.5t31.5 -21.5q20 -20 20 -41.5v-32.5v-76.5t-2 -76.5q-4 -51 -7 -102.5t-7 -104.5q-4 -68 -9.5 -135t-9.5 -133q35 88 69 175t69 175 q33 78 67.5 153.5t69.5 153.5q8 14 15 27.5t18 27.5q23 33 45 38t63 5q66 0 117 -11t70 -32q14 -16 16 -36.5t2 -47.5v-187t-4 -189q-4 -59 -5 -120t-5 -120q25 57 49 113.5t47 113.5q45 109 88 214.5t88 213.5q18 47 36.5 67.5t70.5 20.5q25 0 72.5 -5t107.5 -31 q41 -16 51 -32t10 -36q0 -12 -4 -30.5t-4 -20.5q-20 -55 -40.5 -110.5t-43.5 -108.5q-29 -66 -57.5 -130.5t-57.5 -129.5q-35 -84 -70.5 -166t-76.5 -164q-45 -98 -94 -192.5t-101 -190.5q-27 -41 -49 -58.5t-74 -17.5q-16 0 -50 4t-74 14q-35 8 -50.5 16.5t-23.5 18.5 q-10 12 -15.5 30.5t-9.5 57.5q-6 129 -6 256q0 92 4 185.5t10 185.5q-39 -92 -76.5 -183t-80.5 -184q-41 -84 -84 -165.5t-86 -165.5q-23 -35 -42.5 -52.5t-60.5 -17.5q-20 0 -51 4t-61.5 11.5t-58 18.5t-42.5 27q-10 10 -14 26.5t-6 51.5q-4 193 -5 385z" />
<glyph unicode="x" horiz-adv-x="1110" d="M172 92q0 25 27 74l342 582l-199 534q-10 27 -12 37t-2 27q0 6 1 13t5 17q27 51 135 51h23.5t23.5 -2q27 0 53.5 -1t51.5 -11t41 -26.5t26 -33t14.5 -31.5t6.5 -22l67 -215l115 228q16 31 30.5 51t32 32.5t41 18.5t58.5 6q25 0 79 -4t113 -28q23 -8 41.5 -19.5 t18.5 -34.5q-2 -23 -14.5 -43t-12.5 -22l-342 -559l184 -564q4 -16 8.5 -32.5t4.5 -36.5v-9.5t-5 -15.5q-12 -31 -48 -42t-64 -11q-12 0 -55 3t-89 11q-27 6 -51 13.5t-41 25.5q-8 8 -13 19.5t-15 38.5l-68 260l-141 -275q-35 -61 -56.5 -77.5t-56.5 -16.5q-4 0 -23.5 2 t-46 6t-54 9.5t-50.5 13.5q-20 6 -25.5 8t-17.5 8q-4 2 -22.5 12.5t-18.5 30.5z" />
<glyph unicode="y" horiz-adv-x="980" d="M291 109q0 23 11 46t11 25l158 334q-12 72 -24.5 145.5t-26.5 145.5q-10 59 -21.5 118.5t-21.5 118.5q-10 66 -19.5 132.5t-19.5 132.5q-4 32 -4 52q0 14 2 23q4 21 37 35q29 10 67 10q25 0 50.5 -3t52.5 -7q43 -4 65.5 -14t36.5 -27q12 -14 16.5 -29.5t6.5 -35.5 q10 -68 16 -113t9 -86t4 -87t1 -114q29 70 56.5 138.5t58.5 136.5q18 41 37.5 79t38.5 78q29 53 53.5 67.5t58.5 14.5q29 0 59 -1t83 -15q18 -4 29.5 -7t19.5 -7q10 -6 30.5 -24.5t20.5 -51.5q0 -23 -12 -48.5t-14 -31.5q-31 -66 -62 -131.5t-63 -130.5 q-49 -100 -100.5 -199.5t-100.5 -199.5q-61 -123 -120.5 -245t-119.5 -245q-23 -41 -44 -63.5t-66 -22.5q-10 0 -32 2t-48.5 7t-56 14.5t-56.5 23.5q-35 16 -46 27.5t-11 32.5z" />
<glyph unicode="z" horiz-adv-x="894" d="M115 240q0 18 6 33.5t29 48.5l520 686q16 20 27.5 33.5t22.5 24.5t24.5 22.5t33.5 27.5l-387 -14q-39 -2 -55.5 7t-16.5 52q0 35 13.5 72t23.5 65q16 47 30.5 76t35.5 39q12 8 23.5 8t25.5 2h424q10 -2 22.5 -2h22.5q2 0 22.5 -1t36.5 -5q25 -6 43.5 -28.5t30.5 -51 t20.5 -57.5t14.5 -49q4 -6 12 -39t8 -64q0 -43 -14 -67.5t-24 -38.5l-484 -633l-76 -90h256h22.5t25.5 2q10 0 18 1t18 1q4 0 12.5 -1t14.5 -5q10 -10 15.5 -30.5t5.5 -37.5q0 -23 -6.5 -43t-20.5 -61q-10 -29 -23.5 -56.5t-38.5 -46.5q-16 -12 -33.5 -16t-56.5 -6h-438 q-53 0 -72.5 7t-35.5 28q-12 14 -25.5 41.5t-25 58.5t-19.5 59.5t-8 47.5z" />
<glyph unicode="{" horiz-adv-x="724" d="M166 504v14q43 10 73.5 32.5t53.5 63.5q23 45 28 94.5t5 139.5v252v55.5t2 54.5q2 94 32.5 169t122.5 116q33 14 65 21.5t70.5 10.5t88 4t114.5 1v-16q-33 -6 -71 -19q-12 -4 -32 -12t-40.5 -24.5t-37.5 -42t-28 -62.5q-10 -35 -11 -74t-3 -111v-194q0 -72 -1 -126 t-5 -97t-14.5 -78t-30.5 -66q-31 -45 -72 -65.5t-92 -34.5q20 -4 62 -20.5t83 -59.5q29 -31 43.5 -63.5t20.5 -74.5t7 -97.5t1 -128.5v-297q0 -10 1 -35t9 -54.5t24.5 -62.5t49.5 -57q23 -18 52.5 -29.5t84.5 -28.5v-14h-94q-78 2 -156.5 11t-144.5 61q-39 31 -59.5 70.5 t-28.5 83.5t-9 90t-1 90v350q0 12 -2 39.5t-11.5 62.5t-31 71t-60.5 62q-16 10 -28.5 15.5t-28.5 9.5z" />
<glyph unicode="}" horiz-adv-x="724" d="M96 -498q55 12 100.5 29.5t79.5 67.5q16 25 25.5 47t12.5 50t4 64.5t1 87.5v195q0 70 1.5 125t5.5 98t15 78t34 66q31 45 70.5 65.5t89.5 32.5q-20 6 -62.5 21.5t-83.5 58.5q-29 31 -43 63.5t-20.5 74.5t-7.5 97.5t-1 128.5v222q0 57 -3 121.5t-35 117.5q-35 53 -81 69.5 t-102 33.5v16q25 0 48.5 -1t45.5 -1q78 0 157 -10.5t145 -59.5q39 -31 59 -70.5t29.5 -83.5t10.5 -90.5t1 -89.5v-350q0 -12 1 -40.5t10 -63.5t30.5 -71t62.5 -62q16 -10 27.5 -14.5t28.5 -8.5v-16q-43 -10 -74 -33t-51 -64q-12 -23 -18.5 -44t-10.5 -47.5t-5 -61.5t-1 -80 v-358q-2 -96 -35 -173t-127 -118q-31 -12 -62.5 -19.5t-70.5 -10.5t-87 -3h-114v14z" />
<glyph unicode="&#xa1;" horiz-adv-x="598" d="M70 59q0 27 9 59t11 36q31 86 61.5 169t61.5 169q35 94 68.5 186t70.5 182q6 12 12.5 24.5t18.5 24t31.5 17.5t48.5 6q16 0 31.5 -1t31.5 -1q53 -2 70.5 -15.5t17.5 -37.5q0 -10 -1 -19.5t-3 -19.5q-18 -109 -36.5 -215.5t-38.5 -212.5l-68 -338q-4 -14 -15.5 -33 t-45.5 -29q-16 -4 -60.5 -6t-97.5 -2q-27 0 -51.5 1t-51.5 1q-23 2 -32 1t-17 3q-10 4 -18 16.5t-8 34.5zM395 1235q0 14 3 32.5t16 47.5q20 49 63 85t101 36q61 -2 100 -44t39 -104q0 -37 -14.5 -77t-39 -72.5t-59.5 -54t-74 -21.5q-6 0 -23.5 3t-37.5 13q-25 12 -51.5 48 t-22.5 108z" />
<glyph unicode="&#xa3;" horiz-adv-x="980" d="M111 217q0 4 1 10t5 13q6 12 27.5 27.5t48.5 33.5q51 31 106 74q2 2 13.5 10t25.5 20.5t29.5 26.5t25.5 29q12 16 20.5 32.5t20.5 51.5h-40.5t-41.5 -4q-14 0 -27.5 -2t-27.5 -2q-2 0 -10 1t-17.5 5t-16.5 12t-7 25q0 14 4 28.5t8 28.5q14 43 29 57q16 20 39.5 20.5 t52.5 2.5q39 0 76 6q-10 18 -19.5 37.5t-19.5 38.5q-10 16 -18.5 31.5t-18.5 31.5q-12 25 -29.5 69t-17.5 113q0 51 12 92.5t28.5 73t36 53t31.5 35.5q51 51 105.5 80t104.5 43.5t92 17.5t69 3q49 0 109.5 -8.5t152.5 -38.5q2 0 35 -11.5t57 -27.5q4 -4 26.5 -22.5 t22.5 -41.5q0 -16 -10 -33.5t-30 -46.5q-10 -16 -19.5 -29.5t-19.5 -27.5q-6 -10 -17.5 -26.5t-27 -34t-32 -29.5t-32.5 -12q-23 2 -39 14t-53 37q-47 31 -79 40t-58 9q-12 0 -32 -3t-39 -15.5t-33.5 -34t-14.5 -58.5t14.5 -66.5t46.5 -84.5q29 -53 38 -90t16 -64q23 2 45 3 t45 3q10 2 20 2h23q16 0 31.5 -7t15.5 -42q0 -14 -2 -28.5t-6 -30.5q-2 -8 -8.5 -29.5t-22.5 -32.5q-10 -8 -22.5 -10t-41.5 -2q-59 0 -110 -6q-14 -33 -29.5 -59.5t-39 -54t-57.5 -58.5t-85 -74q14 -4 41.5 -10t66.5 -6q2 0 21.5 1t45.5 4t54.5 9t50.5 17q16 8 30.5 15 t29.5 7q10 -2 17 -7t12 -9q14 -14 29.5 -44t28.5 -62.5t22.5 -64.5t9.5 -52q0 -18 -7.5 -30.5t-39.5 -31.5q-37 -23 -86.5 -36t-145.5 -13q-18 0 -55 2t-84 12q-39 10 -79 20.5t-81 10.5q-20 0 -41.5 -4t-56.5 -27q-27 -16 -40 -26.5t-28 -10.5q-4 0 -12 2.5t-19 12.5 q-29 27 -48 62.5t-35 66.5q-12 16 -21 35q-8 16 -13 31.5t-5 31.5z" />
<glyph unicode="&#xa7;" horiz-adv-x="980" d="M188 96q0 12 4.5 26.5t14.5 41.5q4 12 8 23.5t8 23.5q20 53 40 70.5t46 17.5q23 0 45.5 -7t44.5 -11q47 -12 81 -16.5t52 -4.5q51 0 73 24.5t22 43.5q-2 12 -6.5 21t-8.5 13q-20 29 -51 45.5t-59 30.5q-29 16 -55.5 33.5t-55.5 34.5q-14 8 -41.5 24.5t-55.5 45 t-48.5 69.5t-20.5 98q0 14 4 42t16.5 60t36 64.5t62.5 57.5q29 20 59.5 29.5t40.5 13.5q-10 18 -30.5 52t-20.5 91q2 78 41 142.5t103 99.5q37 20 86 30.5t94 15.5t78.5 6t38.5 1q37 0 77.5 -3t114.5 -13q41 -6 70.5 -17.5t29.5 -60.5q-2 -10 -3 -18.5t-1 -10.5 q-4 -18 -10 -35.5t-12 -34.5q-16 -49 -34.5 -66.5t-45.5 -17.5q-20 0 -39.5 5.5t-40.5 9.5q-8 2 -38 8t-62 6q-47 0 -69.5 -21.5t-22.5 -41.5t22.5 -42t63.5 -46q29 -16 57.5 -32t56.5 -32q51 -31 98.5 -72t69.5 -100q16 -39 17 -88q0 -18 -4.5 -47t-16.5 -63.5t-36.5 -70.5 t-65.5 -67q-16 -10 -37 -22.5t-55 -28.5q14 -31 22 -55.5t8 -59.5q0 -20 -5 -49t-18.5 -61.5t-38 -67.5t-63.5 -65q-41 -33 -84 -50.5t-82 -25.5t-70.5 -10t-47.5 -2q-39 0 -76 4t-69 9t-55.5 10t-33.5 7q-29 6 -59.5 14.5t-46.5 32.5q-8 12 -9.5 22.5t-1.5 16.5zM543 774 q0 -10 4 -24.5t20 -30.5q6 -6 27.5 -20.5t52.5 -33t67 -40t70 -41.5q27 18 45.5 36.5t18.5 53.5q0 29 -14 45q-14 23 -47 42t-80 48l-99 55q-29 -16 -47 -34.5t-18 -55.5z" />
<glyph unicode="&#xa8;" horiz-adv-x="641" d="M255 1605.5q-1 20.5 1 32.5q8 61 54 106.5t108 45.5q41 0 65.5 -29.5t24.5 -68.5q0 -18 -4 -36t-6 -22q-4 -8 -13.5 -27.5t-27 -40t-44 -35.5t-65.5 -15q-37 0 -56.5 15t-27.5 34.5t-9 40zM551 1608.5q0 21.5 2 31.5q10 59 55 104.5t105 45.5q31 0 48 -13.5t26.5 -29.5 t12.5 -31.5t3 -23.5q0 -10 -1 -21.5t-7 -30.5q-16 -51 -53 -89t-97 -38q-37 0 -57.5 15.5t-28.5 37t-8 43z" />
<glyph unicode="&#xa9;" horiz-adv-x="1705" d="M221 725q0 90 17.5 165t43 133t55.5 100t52 69q27 33 75 78t117.5 85t162 68.5t208.5 28.5q174 0 327 -74.5t259 -218.5q72 -98 107.5 -208.5t33.5 -231.5q-2 -123 -42 -240t-117 -215q-74 -90 -157 -144t-161 -82t-145.5 -36t-106.5 -8q-145 0 -284 57 q-104 43 -186.5 111.5t-139.5 157t-88 191.5t-31 214zM287 723q0 -133 49 -252q37 -94 100.5 -170t144.5 -130t175 -83t196 -29q31 0 99.5 8.5t150.5 41.5q94 37 170 100t129 143t83 174.5t30 194.5q0 29 -4 75t-18.5 101t-43 117.5t-78.5 124.5q-25 31 -68.5 73.5 t-108 81.5t-149.5 65.5t-192 26.5q-27 0 -68.5 -3t-94 -16t-112 -38.5t-118.5 -68.5q-33 -25 -80 -69t-90 -110.5t-72.5 -155.5t-29.5 -202zM461 754q0 20 2 63t15.5 96.5t46 107.5t93.5 95q45 31 99.5 47.5t101.5 23.5t84 8t49 1q41 0 84 -2t84 -6l58 -2q82 -4 165 0v-172 t5 -172h-86q-10 53 -23.5 108.5t-39 99.5t-69 71.5t-112.5 27.5q-86 0 -139 -55q-45 -45 -61.5 -115t-16.5 -193q0 -309 88 -417q16 -23 52 -44.5t106 -21.5q47 0 85.5 15.5t65.5 54.5q35 47 45 102t17 107h83q2 -152 0 -301q-35 -4 -70.5 -6.5t-70.5 -6.5l-59 -4 q-51 -4 -102.5 -7t-104.5 -3q-12 0 -53 1t-93.5 11t-108.5 33t-99 68q-47 47 -84 141t-37 246z" />
<glyph unicode="&#xab;" horiz-adv-x="1024" d="M199 604q0 16 9 32.5t13 20.5l176 252q16 20 27.5 31.5t24 18t28 9.5t39.5 3h105q33 0 57 -5t24 -40q0 -10 -4 -19.5t-16 -25.5l-166 -242q-4 -4 -14 -22.5t-10 -41.5q0 -14 5 -27t11 -30l104 -229q2 -4 8.5 -15.5t6.5 -27.5q0 -23 -15.5 -27t-38.5 -6h-106 q-29 2 -46.5 7t-30.5 14.5t-25.5 24.5t-26.5 40l-55 104q-18 35 -36 73t-34 75q-2 4 -8 20.5t-6 32.5zM635 598q0 18 12 38.5t15 25.5l163 239q29 39 48.5 50.5t66.5 17.5h143q6 0 20.5 -2t24.5 -17q6 -10 7 -20q0 -16 -17 -47l-162 -238q-16 -29 -22 -44t-6 -28 q0 -14 5 -27.5t15 -39.5l105 -213q4 -4 12 -17.5t8 -33.5v-6q-4 -16 -19.5 -19.5t-37.5 -5.5h-135q-41 10 -58.5 24.5t-42.5 53.5l-125 248q-2 2 -12 23.5t-8 37.5z" />
<glyph unicode="&#xad;" horiz-adv-x="1110" d="M217 563q0 29 11.5 73t33.5 62q12 10 29.5 14.5t54.5 6.5h782q35 -2 57.5 -7t35.5 -36q8 -16 8 -29.5v-21.5q0 -25 -5 -47.5t-10 -30.5q-8 -27 -14 -39t-16 -21q-10 -8 -25.5 -13t-48.5 -9h-797q-33 2 -48 6t-25 14q-14 12 -18.5 34t-4.5 44z" />
<glyph unicode="&#xae;" horiz-adv-x="1705" d="M221 725q0 90 17.5 165t43 133t55.5 100t52 69q27 33 75 78t117.5 85t162 68.5t208.5 28.5q174 0 327 -74.5t259 -218.5q72 -98 107.5 -208.5t33.5 -231.5q-2 -123 -42 -240t-117 -215q-74 -90 -157 -144t-161 -82t-145.5 -36t-106.5 -8q-145 0 -284 57 q-104 43 -186.5 111.5t-139.5 157t-88 191.5t-31 214zM287 723q0 -133 49 -252q37 -94 100.5 -170t144.5 -130t175 -83t196 -29q31 0 99.5 8.5t150.5 41.5q94 37 170 100t129 143t83 174.5t30 194.5q0 29 -4 75t-18.5 101t-43 117.5t-78.5 124.5q-25 31 -68.5 73.5 t-108 81.5t-149.5 65.5t-192 26.5q-27 0 -68.5 -3t-94 -16t-112 -38.5t-118.5 -68.5q-33 -25 -80 -69t-90 -110.5t-72.5 -155.5t-29.5 -202zM563 256v121l45 5t39 19q4 6 6 16.5t2 18.5v568v31.5t-4 21.5q-6 14 -31.5 16t-56.5 4v125q53 -2 107.5 -4t107.5 -2q80 0 141.5 2 t110.5 2t90 -5t80 -17q72 -25 117 -82.5t45 -134.5q0 -49 -16.5 -84t-39 -59.5t-47 -38t-38.5 -19.5q-23 -10 -41.5 -13.5t-28.5 -7.5q6 -6 12 -10t11 -8q29 -23 44 -57.5t25 -69.5l19 -78q6 -31 14 -53q4 -8 9 -16.5t13 -6.5q14 0 23 17q8 14 13 46t7 46l105 -19 q-12 -53 -20.5 -86.5t-18.5 -56.5q-4 -12 -15.5 -34.5t-32 -45t-52 -40t-76.5 -17.5q-84 0 -135 69q-16 25 -29.5 65t-24.5 69q-6 27 -13 52t-15 54q-14 47 -23.5 70.5t-29.5 40.5q-20 16 -40 17t-26 3h-16v-211v-40t4 -27q6 -20 33.5 -24.5t66.5 -10.5v-121q-104 6 -211 6 q-104 0 -209 -6zM879 840h32q63 0 95 2t63 18q41 23 51 54.5t10 48.5q0 6 -3 24.5t-15 34.5q-25 37 -61.5 43t-75.5 6q-27 0 -48.5 -2t-29.5 -6q-14 -10 -16 -32.5t-2 -55.5v-135z" />
<glyph unicode="&#xb4;" horiz-adv-x="641" d="M383 1577q0 12 14.5 26.5t32.5 30.5q23 23 45.5 42.5t44.5 41.5q29 25 59.5 50.5t61.5 50.5q4 4 25.5 18t44.5 14q6 0 24 -6q10 -4 40 -23.5t50 -54.5q4 -4 9.5 -16t5.5 -27q0 -18 -15.5 -30.5t-33.5 -22.5l-259 -164q-14 -10 -26 -15t-29 -5q-16 0 -29.5 11t-25.5 22 q-12 10 -21 18q-18 18 -18 39z" />
<glyph unicode="&#xb7;" horiz-adv-x="382" d="M174 621q10 66 62.5 108.5t117.5 42.5q8 0 27.5 -2t42.5 -12q51 -23 79.5 -66t28.5 -96q0 -10 -2 -27.5t-12 -40.5q-4 -12 -15 -30.5t-31.5 -37t-49.5 -30.5t-70 -12t-76.5 16.5t-60.5 44t-36 64.5t-5 78z" />
<glyph unicode="&#xb8;" horiz-adv-x="641" d="M-96 -322q0 16 8 28.5t35 31.5l176 166q16 10 33.5 19t33.5 9h14.5t14.5 -4q4 -2 35 -14t53 -35q29 -27 25 -47q0 -10 -5 -19.5t-22 -25.5q-29 -27 -57.5 -52.5t-57.5 -47.5q-29 -23 -55 -44.5t-55 -43.5q-12 -8 -23.5 -13.5t-27.5 -5.5q-20 0 -32.5 7t-41.5 24 q-6 4 -28.5 18.5t-22.5 48.5z" />
<glyph unicode="&#xbb;" horiz-adv-x="1024" d="M178 250q0 23 10.5 39t14.5 20l155 230q4 6 15.5 25.5t11.5 41.5q0 12 -3 24.5t-13 35.5l-113 233q-2 4 -7 16.5t-5 24.5q0 31 65 31h109q27 -4 43 -10.5t28.5 -15.5t23.5 -23.5t26 -36.5l125 -252q0 -2 7 -19.5t7 -31.5q0 -16 -21 -56l-174 -252q-14 -18 -24 -30.5 t-22.5 -18.5t-28 -9t-39.5 -5h-133q-25 4 -41.5 10t-16.5 29zM608 250q0 12 5 24.5t22 32.5l156 223q12 16 21 35t9 39q0 18 -8 40t-10 26q-18 47 -31.5 77.5t-25 53t-22.5 43t-26 47.5q-4 6 -8 15t-4 26q0 18 10.5 25.5t44.5 11.5h101q31 -4 49 -9.5t32.5 -15.5t28 -26.5 t29.5 -43.5l121 -251q14 -35 14 -52q0 -10 -5 -23t-21 -36l-175 -242q-16 -20 -27 -32.5t-23.5 -18.5t-28 -9t-39.5 -3h-125q-27 4 -45.5 10t-18.5 33z" />
<glyph unicode="&#xbf;" horiz-adv-x="980" d="M121 332q0 37 16.5 100.5t75.5 140.5q43 55 93 97.5t104 85.5q8 8 29.5 26.5t49 44t56 57t51.5 66.5q16 27 26.5 40.5t41.5 19.5q12 4 46.5 7t71.5 3q29 0 49.5 -3t30.5 -5q4 0 20.5 -4t26.5 -17q4 -4 8.5 -13t4.5 -30q0 -25 -7.5 -49.5t-15.5 -44.5t-16.5 -35.5 t-10.5 -21.5q-37 -66 -83 -114t-90 -83t-81.5 -58.5t-60.5 -37.5q-4 -2 -19.5 -12.5t-32 -29t-29.5 -42t-13 -53.5q0 -33 22.5 -54.5t55.5 -21.5q23 0 53.5 14t56.5 62q14 29 27.5 60.5t44.5 37.5l11 1t25.5 1t30 1t27.5 1q27 0 69 -6t62 -25q16 -14 18.5 -33.5t2.5 -25.5 q0 -18 -5.5 -39t-11.5 -38t-12 -28.5t-6 -13.5q-31 -72 -72 -118t-84 -73.5t-82 -41t-67 -19.5q-49 -12 -84 -14t-58 -2q-102 0 -165.5 28.5t-92.5 55.5q-53 47 -81.5 115.5t-26.5 140.5zM676 1243q2 37 17.5 72t40 61.5t58 43t70.5 16.5q72 -2 115 -48.5t43 -111.5 q0 -39 -14.5 -76t-41 -65.5t-61.5 -46t-74 -17.5q-6 0 -27.5 2t-41.5 12q-31 14 -48.5 37t-25.5 46.5t-9 44t-1 30.5z" />
<glyph unicode="&#xc0;" horiz-adv-x="1067" d="M123 125q0 23 12 51.5t23 50.5q10 23 18 44.5t17 43.5q-14 4 -31 15.5t-17 46.5q0 14 4.5 36.5t8.5 47t9 47t9 35.5q0 2 4 16t12.5 33.5t18.5 38t25 31.5q16 16 43.5 18t74.5 4q29 66 57.5 128t57.5 124q45 94 92 186t94 185q8 14 15.5 28.5t17.5 26.5q25 39 50.5 51 t68.5 12q29 -2 59.5 -5t83.5 -13l12 -2q13 -2 30.5 -6t33.5 -11.5t27 -17.5q12 -14 19 -34.5t13 -65.5q8 -68 14.5 -128.5t10.5 -129t7 -157.5t3 -216v-247t-2 -249q0 -6 -2 -34.5t-14 -49.5q-23 -39 -74 -47t-90 -8h-16.5t-28.5 2t-33.5 6t-32.5 13q-31 18 -38 46.5 t-9 63.5v330q-8 -23 -19 -46.5t-28 -39.5q-25 -31 -58.5 -36t-103.5 -7l-114 -270q-14 -35 -26.5 -48.5t-31.5 -19.5q-14 -6 -26.5 -8t-16.5 -2q-25 0 -44 6t-64 18q-35 8 -63.5 21.5t-47.5 42.5q-10 16 -12 29.5t-2 19.5zM649 1743q2 20 14.5 32.5t28.5 24.5 q23 16 42.5 32.5t45.5 16.5q16 0 28.5 -8t33.5 -37l127 -207q0 -2 8 -17t6 -28q0 -6 -1 -12t-5 -16q-10 -16 -22.5 -23.5t-26.5 -13.5q-12 -4 -19.5 -8t-19.5 -2q-14 0 -27.5 10t-15.5 12l-178 201q-18 25 -19 43zM686 670h127l23 422z" />
<glyph unicode="&#xc1;" horiz-adv-x="1067" d="M123 125q0 23 12 51.5t23 50.5q10 23 18 44.5t17 43.5q-14 4 -31 15.5t-17 46.5q0 14 4.5 36.5t8.5 47t9 47t9 35.5q0 2 4 16t12.5 33.5t18.5 38t25 31.5q16 16 43.5 18t74.5 4q29 66 57.5 128t57.5 124q45 94 92 186t94 185q8 14 15.5 28.5t17.5 26.5q25 39 50.5 51 t68.5 12q29 -2 59.5 -5t83.5 -13l12 -2q13 -2 30.5 -6t33.5 -11.5t27 -17.5q12 -14 19 -34.5t13 -65.5q8 -68 14.5 -128.5t10.5 -129t7 -157.5t3 -216v-247t-2 -249q0 -6 -2 -34.5t-14 -49.5q-23 -39 -74 -47t-90 -8h-16.5t-28.5 2t-33.5 6t-32.5 13q-31 18 -38 46.5 t-9 63.5v330q-8 -23 -19 -46.5t-28 -39.5q-25 -31 -58.5 -36t-103.5 -7l-114 -270q-14 -35 -26.5 -48.5t-31.5 -19.5q-14 -6 -26.5 -8t-16.5 -2q-25 0 -44 6t-64 18q-35 8 -63.5 21.5t-47.5 42.5q-10 16 -12 29.5t-2 19.5zM686 670h127l23 422zM788 1575q0 12 13.5 26.5 t34.5 32.5q29 27 55.5 51.5t54.5 49.5q25 23 49.5 42t51.5 42q27 18 39 25t28 7q20 -2 38.5 -13t23.5 -13q37 -27 53 -55.5t16 -45.5q0 -14 -10 -25t-39 -28l-258 -164q-6 -4 -22.5 -12t-32.5 -8t-27.5 9t-26.5 22q-14 10 -27.5 25.5t-13.5 31.5z" />
<glyph unicode="&#xc2;" horiz-adv-x="1067" d="M123 125q0 23 12 51.5t23 50.5q10 23 18 44.5t17 43.5q-14 4 -31 15.5t-17 46.5q0 14 4.5 36.5t8.5 47t9 47t9 35.5q0 2 4 16t12.5 33.5t18.5 38t25 31.5q16 16 43.5 18t74.5 4q29 66 57.5 128t57.5 124q45 94 92 186t94 185q8 14 15.5 28.5t17.5 26.5q25 39 50.5 51 t68.5 12q29 -2 59.5 -5t83.5 -13l12 -2q13 -2 30.5 -6t33.5 -11.5t27 -17.5q12 -14 19 -34.5t13 -65.5q8 -68 14.5 -128.5t10.5 -129t7 -157.5t3 -216v-247t-2 -249q0 -6 -2 -34.5t-14 -49.5q-23 -39 -74 -47t-90 -8h-16.5t-28.5 2t-33.5 6t-32.5 13q-31 18 -38 46.5 t-9 63.5v330q-8 -23 -19 -46.5t-28 -39.5q-25 -31 -58.5 -36t-103.5 -7l-114 -270q-14 -35 -26.5 -48.5t-31.5 -19.5q-14 -6 -26.5 -8t-16.5 -2q-25 0 -44 6t-64 18q-35 8 -63.5 21.5t-47.5 42.5q-10 16 -12 29.5t-2 19.5zM582 1559q0 12 13 25t34 30l243 186 q23 16 45.5 28.5t49.5 12.5q25 0 42 -11t35 -28l152 -223q6 -8 11 -17.5t5 -19.5q0 -8 -3 -13t-5 -7q-14 -20 -32.5 -25.5t-41.5 -5.5h-43q-45 2 -57 7t-33 22l-73 88l-140 -95q-6 -4 -22.5 -13t-38.5 -9q-4 0 -26.5 2t-26.5 2q-20 4 -32.5 7t-21.5 7q-4 2 -20 14.5 t-14 35.5zM686 670h127l23 422z" />
<glyph unicode="&#xc3;" horiz-adv-x="1067" d="M123 125q0 23 12 51.5t23 50.5q10 23 18 44.5t17 43.5q-14 4 -31 15.5t-17 46.5q0 14 4.5 36.5t8.5 47t9 47t9 35.5q0 2 4 16t12.5 33.5t18.5 38t25 31.5q16 16 43.5 18t74.5 4q29 66 57.5 128t57.5 124q45 94 92 186t94 185q8 14 15.5 28.5t17.5 26.5q25 39 50.5 51 t68.5 12q29 -2 59.5 -5t83.5 -13l12 -2q13 -2 30.5 -6t33.5 -11.5t27 -17.5q12 -14 19 -34.5t13 -65.5q8 -68 14.5 -128.5t10.5 -129t7 -157.5t3 -216v-247t-2 -249q0 -6 -2 -34.5t-14 -49.5q-23 -39 -74 -47t-90 -8h-16.5t-28.5 2t-33.5 6t-32.5 13q-31 18 -38 46.5 t-9 63.5v330q-8 -23 -19 -46.5t-28 -39.5q-25 -31 -58.5 -36t-103.5 -7l-114 -270q-14 -35 -26.5 -48.5t-31.5 -19.5q-14 -6 -26.5 -8t-16.5 -2q-25 0 -44 6t-64 18q-35 8 -63.5 21.5t-47.5 42.5q-10 16 -12 29.5t-2 19.5zM657 1583q1 13 11 33q29 59 84 97t114 38 q14 0 41 -4t64 -21q23 -10 44 -19t44 -9q29 0 53 18q16 10 25.5 19.5t23.5 9.5q10 0 20.5 -5t30.5 -22q23 -20 27 -39q-2 -25 -39 -67q-8 -8 -21.5 -23.5t-34 -31t-48 -26.5t-62.5 -11q-12 0 -34.5 3t-51.5 15q-27 12 -50.5 23.5t-53.5 11.5q-23 0 -36 -7t-22 -12 q-14 -10 -28.5 -21t-26.5 -11q-10 0 -26.5 12t-18.5 12q-6 4 -17.5 13.5t-11.5 23.5zM686 670h127l23 422z" />
<glyph unicode="&#xc4;" horiz-adv-x="1067" d="M123 123q0 23 13.5 55.5t21.5 54.5q10 20 18 40t17 42q-25 10 -36.5 22.5t-11.5 41.5q0 25 7.5 59.5t11.5 53.5q12 57 23.5 88.5t27.5 58.5q16 23 27.5 29t21.5 10q12 4 36 4t56 4q39 88 78 174t82 172q35 72 71 141.5t70 141.5q39 68 64 88q20 16 42.5 18t33.5 2 q16 0 58 -3t91 -11q31 -6 59.5 -14.5t47.5 -26.5q20 -23 25 -54.5t7 -41.5q10 -84 17.5 -165t11.5 -165q6 -152 6 -307q2 -123 1 -246t-3 -248q-6 -57 -14 -78q-20 -43 -71.5 -50t-96.5 -7q-55 0 -85 9.5t-44 25.5t-19.5 39.5t-7.5 54.5v338q-18 -47 -34.5 -73.5t-39 -42 t-54 -19.5t-83.5 -4l-112 -271l-10.5 -21t-17.5 -25.5t-28.5 -20.5t-44.5 -8q-29 2 -55.5 10t-54.5 16q-35 10 -64.5 24.5t-46.5 43.5q-4 6 -8 15t-4 26zM668 1620q0 25 11 53.5t29.5 53t43 42t53.5 21.5q12 2 32.5 1t39 -10t32 -30.5t13.5 -58.5q0 -10 -3.5 -31t-13.5 -45 q-14 -31 -32.5 -50.5t-39 -30.5t-38 -16.5t-29.5 -5.5t-28.5 4.5t-32 16.5t-26.5 32.5t-11 53.5zM686 670h127l21 420zM961 1620q0 53 38 106.5t95 63.5q12 2 31.5 1t39 -10t32.5 -29.5t13 -57.5q0 -16 -6 -49t-35 -66q-20 -27 -51 -45t-65 -18q-12 0 -27.5 4t-30 16 t-24.5 32.5t-10 51.5z" />
<glyph unicode="&#xc5;" horiz-adv-x="1067" d="M123 123q0 18 6 36.5t21 51.5q10 29 21 53.5t22 50.5q-25 10 -36.5 22.5t-11.5 41.5q0 23 8.5 61.5t12.5 57.5q2 10 11 51t32 80q4 8 18.5 25.5t36.5 23.5q12 4 35 4t55 4q70 160 148 320q76 156 160 313q39 66 63.5 86t69.5 20q16 0 64 -5t95 -13q80 -16 105 -43 q10 -14 16 -33.5t10 -60.5q8 -78 15.5 -146.5t11.5 -147.5t6 -180.5t2 -246.5v-203.5t-2 -204.5q0 -6 -3 -34.5t-17 -51.5q-23 -37 -74 -44t-98 -7q-49 0 -78 11.5t-43 29.5t-18.5 42t-4.5 50v336q-10 -23 -19 -45t-26 -43q-12 -18 -26.5 -27.5t-33 -13.5t-45 -5t-63.5 -1 l-114 -275q-4 -8 -10.5 -20t-16.5 -24.5t-27.5 -21.5t-42.5 -9q-23 0 -39 5t-53 15q-8 2 -35.5 9.5t-50.5 19.5q-35 18 -46 43.5t-11 42.5zM686 670h127l21 417zM756 1679q0 37 12 74t34.5 67.5t52.5 53.5t67 31q8 2 18 4t29 2q29 0 51 -7.5t33 -11.5q14 -6 31.5 -19 t33 -33.5t25.5 -50.5t10 -71q0 -16 -2 -39.5t-18 -58.5q-27 -59 -78 -96t-115 -37q-41 0 -75 15.5t-58.5 42t-37.5 61t-13 73.5zM891 1714q-10 -35 2 -65.5t51 -32.5q12 0 21.5 4t11.5 4q18 10 30.5 36t12.5 48q0 27 -15.5 46.5t-41.5 21.5q-16 -2 -39 -13.5t-33 -48.5z" />
<glyph unicode="&#xc6;" horiz-adv-x="1536" d="M102 141q0 23 10.5 43.5t32.5 63.5q10 23 18.5 42t16.5 40q-23 16 -32 30.5t-9 42.5q0 29 7.5 54.5t15.5 54.5q0 2 2 12.5t6 24.5t9 30.5t11 28.5q18 39 42 58.5t48.5 26.5t48 6t40.5 -1q27 49 53.5 99.5t52.5 99.5q25 45 49.5 90t48.5 90q35 61 71 123t73 123 q10 12 19 25.5t20 27.5q23 31 43 38t55 11h838q4 -2 18 -2t29 -4q23 -8 37 -27.5t14 -43.5q0 -14 -5 -39t-13.5 -51.5t-15.5 -51t-11 -37.5q-16 -39 -27.5 -60.5t-25.5 -29.5q-16 -10 -38 -10h-26l-469 6q16 -10 30.5 -18t31.5 -19q41 -20 51 -32.5t10 -34.5q0 -16 -6 -47 t-16 -70h278q68 -2 82 -20q8 -10 9 -19.5t1 -23.5q0 -29 -9 -64t-26 -94q0 -4 -5 -19.5t-14 -35t-22.5 -38t-33.5 -26.5q-16 -6 -37 -5t-23 1h-307l-45 -182h285q25 0 47 -3t37 -14q16 -10 22 -31.5t6 -41.5q0 -31 -9 -61t-19 -60q0 -4 -3.5 -15.5t-9.5 -26t-15 -29.5 t-22 -28q-14 -10 -26 -14t-47 -6h-279q-88 4 -140 9t-87 28q-16 10 -28.5 26.5t-24.5 34.5q-20 27 -32.5 45.5t-19 37t-6.5 40t4 55.5l35 170l-12 -24t-14 -23q-23 -35 -47.5 -44t-67.5 -9h-42.5t-39.5 2l-113 -260q-4 -10 -10 -23.5t-18.5 -28t-31 -23.5t-46.5 -9 q-25 0 -63 11.5t-85 33.5q-33 16 -58.5 36.5t-25.5 57.5zM735 694h123l127 471z" />
<glyph unicode="&#xc7;" horiz-adv-x="980" d="M201 446q-2 129 21.5 242t58 203t71.5 156.5t64 103.5q14 20 52 69.5t95 94.5q72 59 162 90t184 31q18 0 61.5 -4.5t90.5 -30.5q27 -14 49.5 -34.5t39.5 -52.5t27.5 -78t10.5 -112q0 -12 -1 -32.5t-7 -45t-20.5 -51t-41.5 -51.5q-8 -6 -25.5 -17.5t-43.5 -21.5 q-10 -4 -29 -7t-47 -3q-80 0 -111 20q-8 4 -15 14.5t-7 33.5t8 44t10 42q-2 18 -13 33.5t-30 15.5q-10 0 -26.5 -6.5t-32.5 -24.5q-25 -25 -61 -91.5t-64 -154.5q-6 -20 -16.5 -53t-19.5 -67.5t-17.5 -67.5t-12.5 -53q-2 -18 -4 -40t-3 -42.5t-1 -33.5v-15q0 -41 23.5 -57.5 t37.5 -16.5q6 0 14.5 2t20.5 12q29 25 37 52.5t25 56.5q4 10 12 20t18 21q18 20 41 30.5t43.5 15.5t37 6t26.5 1h17.5t30.5 -3t35.5 -9.5t35.5 -16.5q2 0 9 -6t11 -12q10 -10 10 -35q0 -14 -2 -30.5t-8 -43.5q-4 -16 -14 -50t-30.5 -78t-49.5 -92t-70 -89q-23 -20 -53.5 -43 t-87.5 -51q-70 -33 -113 -42t-84 -9q-20 0 -63 5t-90 33q-70 41 -122 145.5t-54 280.5zM287 -322q0 16 9 28.5t34 31.5l178 166q16 10 32.5 19t34.5 9h13.5t13.5 -4q6 -2 37 -14t53 -35q14 -14 19.5 -26.5t5.5 -20.5q0 -10 -6 -19.5t-23 -25.5q-29 -27 -56.5 -52.5 t-56.5 -47.5q-53 -43 -112 -88q-10 -8 -21.5 -13.5t-27.5 -5.5q-23 0 -34 7t-40 24q-4 2 -12.5 7t-17.5 12.5t-16 19.5t-7 28z" />
<glyph unicode="&#xc8;" horiz-adv-x="1024" d="M213 573q0 16 8 62.5t21 93.5q8 29 19 59.5t30 47.5q14 12 30.5 15t57.5 3l61 215q-59 4 -84.5 16.5t-25.5 40.5q0 14 11 55.5t21 82.5q8 33 21.5 72.5t36.5 62.5q18 18 39.5 21t72.5 5h70q27 0 52.5 1t52.5 1q98 0 194 -2t191 -4q61 -2 105 -6t60 -22q4 -4 7.5 -13.5 t3.5 -25.5q0 -20 -8.5 -66.5t-22.5 -93.5q-25 -84 -53 -111q-18 -16 -42 -17t-48 -1q-47 0 -97.5 3t-97.5 3q-35 2 -69.5 2t-71.5 2q-16 0 -31.5 1t-32.5 1h-23.5t-33.5 -4q39 -23 86 -43q20 -10 32.5 -21.5t12.5 -31.5q0 -2 -1 -11.5t-3 -19.5q-6 -23 -11 -45t-10 -45 q59 0 117 -1t117 -3q35 0 65.5 -1t42.5 -5q23 -6 30 -26.5t7 -43.5q0 -29 -9 -62.5t-32 -88.5q-35 -92 -67 -113q-12 -8 -23.5 -8h-19.5q-14 0 -28.5 1t-31.5 3q-14 0 -26.5 1t-24.5 1q-53 0 -109.5 1t-113.5 1l-47 -182q137 2 274 0q29 0 53.5 -1t42 -7.5t27.5 -22.5 t10 -49q0 -14 -3 -33.5t-7 -37t-7 -29.5l-3 -13q-12 -45 -23.5 -68.5t-25.5 -37.5q-29 -29 -75 -29h-132q-59 0 -116.5 -1t-117.5 -1q-47 0 -78.5 5t-54 15.5t-39 24.5t-30.5 35q-39 51 -52.5 88t-13.5 59q0 8 2 23.5t5 32t7.5 31t6.5 22.5q10 43 19 86t20 86 q-31 10 -48.5 21.5t-17.5 43.5zM649 1743q2 20 14.5 32.5t28.5 24.5q23 16 42.5 32.5t45.5 16.5q16 0 28.5 -8t33.5 -37l127 -207q0 -2 8 -17t6 -28q0 -6 -1 -12t-5 -16q-10 -16 -22.5 -23.5t-26.5 -13.5q-12 -4 -19.5 -8t-19.5 -2q-14 0 -27.5 10t-15.5 12l-178 201 q-18 25 -19 43z" />
<glyph unicode="&#xc9;" horiz-adv-x="1024" d="M213 573q0 16 8 62.5t21 93.5q8 29 19 59.5t30 47.5q14 12 30.5 15t57.5 3l61 215q-59 4 -84.5 16.5t-25.5 40.5q0 14 11 55.5t21 82.5q8 33 21.5 72.5t36.5 62.5q18 18 39.5 21t72.5 5h70q27 0 52.5 1t52.5 1q98 0 194 -2t191 -4q61 -2 105 -6t60 -22q4 -4 7.5 -13.5 t3.5 -25.5q0 -20 -8.5 -66.5t-22.5 -93.5q-25 -84 -53 -111q-18 -16 -42 -17t-48 -1q-47 0 -97.5 3t-97.5 3q-35 2 -69.5 2t-71.5 2q-16 0 -31.5 1t-32.5 1h-23.5t-33.5 -4q39 -23 86 -43q20 -10 32.5 -21.5t12.5 -31.5q0 -2 -1 -11.5t-3 -19.5q-6 -23 -11 -45t-10 -45 q59 0 117 -1t117 -3q35 0 65.5 -1t42.5 -5q23 -6 30 -26.5t7 -43.5q0 -29 -9 -62.5t-32 -88.5q-35 -92 -67 -113q-12 -8 -23.5 -8h-19.5q-14 0 -28.5 1t-31.5 3q-14 0 -26.5 1t-24.5 1q-53 0 -109.5 1t-113.5 1l-47 -182q137 2 274 0q29 0 53.5 -1t42 -7.5t27.5 -22.5 t10 -49q0 -14 -3 -33.5t-7 -37t-7 -29.5l-3 -13q-12 -45 -23.5 -68.5t-25.5 -37.5q-29 -29 -75 -29h-132q-59 0 -116.5 -1t-117.5 -1q-47 0 -78.5 5t-54 15.5t-39 24.5t-30.5 35q-39 51 -52.5 88t-13.5 59q0 8 2 23.5t5 32t7.5 31t6.5 22.5q10 43 19 86t20 86 q-31 10 -48.5 21.5t-17.5 43.5zM788 1575q0 12 13.5 26.5t34.5 32.5q29 27 55.5 51.5t54.5 49.5q25 23 49.5 42t51.5 42q27 18 39 25t28 7q20 -2 38.5 -13t23.5 -13q37 -27 53 -55.5t16 -45.5q0 -14 -10 -25t-39 -28l-258 -164q-6 -4 -22.5 -12t-32.5 -8t-27.5 9t-26.5 22 q-14 10 -27.5 25.5t-13.5 31.5z" />
<glyph unicode="&#xca;" horiz-adv-x="1024" d="M213 573q0 16 8 62.5t21 93.5q8 29 19 59.5t30 47.5q14 12 30.5 15t57.5 3l61 215q-59 4 -84.5 16.5t-25.5 40.5q0 14 11 55.5t21 82.5q8 33 21.5 72.5t36.5 62.5q18 18 39.5 21t72.5 5h70q27 0 52.5 1t52.5 1q98 0 194 -2t191 -4q61 -2 105 -6t60 -22q4 -4 7.5 -13.5 t3.5 -25.5q0 -20 -8.5 -66.5t-22.5 -93.5q-25 -84 -53 -111q-18 -16 -42 -17t-48 -1q-47 0 -97.5 3t-97.5 3q-35 2 -69.5 2t-71.5 2q-16 0 -31.5 1t-32.5 1h-23.5t-33.5 -4q39 -23 86 -43q20 -10 32.5 -21.5t12.5 -31.5q0 -2 -1 -11.5t-3 -19.5q-6 -23 -11 -45t-10 -45 q59 0 117 -1t117 -3q35 0 65.5 -1t42.5 -5q23 -6 30 -26.5t7 -43.5q0 -29 -9 -62.5t-32 -88.5q-35 -92 -67 -113q-12 -8 -23.5 -8h-19.5q-14 0 -28.5 1t-31.5 3q-14 0 -26.5 1t-24.5 1q-53 0 -109.5 1t-113.5 1l-47 -182q137 2 274 0q29 0 53.5 -1t42 -7.5t27.5 -22.5 t10 -49q0 -14 -3 -33.5t-7 -37t-7 -29.5l-3 -13q-12 -45 -23.5 -68.5t-25.5 -37.5q-29 -29 -75 -29h-132q-59 0 -116.5 -1t-117.5 -1q-47 0 -78.5 5t-54 15.5t-39 24.5t-30.5 35q-39 51 -52.5 88t-13.5 59q0 8 2 23.5t5 32t7.5 31t6.5 22.5q10 43 19 86t20 86 q-31 10 -48.5 21.5t-17.5 43.5zM582 1559q0 12 13 25t34 30l243 186q23 16 45.5 28.5t49.5 12.5q25 0 42 -11t35 -28l152 -223q6 -8 11 -17.5t5 -19.5q0 -8 -3 -13t-5 -7q-14 -20 -32.5 -25.5t-41.5 -5.5h-43q-45 2 -57 7t-33 22l-73 88l-140 -95q-6 -4 -22.5 -13t-38.5 -9 q-4 0 -26.5 2t-26.5 2q-20 4 -32.5 7t-21.5 7q-4 2 -20 14.5t-14 35.5z" />
<glyph unicode="&#xcb;" horiz-adv-x="1024" d="M213 573q0 16 8 62.5t21 93.5q8 29 19 59.5t30 47.5q14 12 30.5 15t57.5 3l61 215q-59 4 -84.5 16.5t-25.5 40.5q0 14 11 55.5t21 82.5q8 33 21.5 72.5t36.5 62.5q18 18 39.5 21t72.5 5h70q27 0 52.5 1t52.5 1q98 0 194 -2t191 -4q61 -2 105 -6t60 -22q4 -4 7.5 -13.5 t3.5 -25.5q0 -20 -8.5 -66.5t-22.5 -93.5q-25 -84 -53 -111q-18 -16 -42 -17t-48 -1q-47 0 -97.5 3t-97.5 3q-35 2 -69.5 2t-71.5 2q-16 0 -31.5 1t-32.5 1h-23.5t-33.5 -4q39 -23 86 -43q20 -10 32.5 -21.5t12.5 -31.5q0 -2 -1 -11.5t-3 -19.5q-6 -23 -11 -45t-10 -45 q59 0 117 -1t117 -3q35 0 65.5 -1t42.5 -5q23 -6 30 -26.5t7 -43.5q0 -29 -9 -62.5t-32 -88.5q-35 -92 -67 -113q-12 -8 -23.5 -8h-19.5q-14 0 -28.5 1t-31.5 3q-14 0 -26.5 1t-24.5 1q-53 0 -109.5 1t-113.5 1l-47 -182q137 2 274 0q29 0 53.5 -1t42 -7.5t27.5 -22.5 t10 -49q0 -14 -3 -33.5t-7 -37t-7 -29.5l-3 -13q-12 -45 -23.5 -68.5t-25.5 -37.5q-29 -29 -75 -29h-132q-59 0 -116.5 -1t-117.5 -1q-47 0 -78.5 5t-54 15.5t-39 24.5t-30.5 35q-39 51 -52.5 88t-13.5 59q0 8 2 23.5t5 32t7.5 31t6.5 22.5q10 43 19 86t20 86 q-31 10 -48.5 21.5t-17.5 43.5zM661 1607.5q-1 20.5 1 30.5q0 10 5 30t19 40q23 35 58.5 58.5t78.5 23.5q41 0 65.5 -28.5t24.5 -69.5q0 -20 -4 -37t-8 -23q-16 -47 -54 -81.5t-91 -34.5q-37 0 -57.5 15t-28.5 35.5t-9 41zM956 1608.5q0 21.5 2 31.5q8 59 53.5 104.5 t106.5 45.5q31 0 48.5 -13.5t26.5 -29.5t12 -31.5t3 -23.5q0 -10 -2 -23.5t-8 -34.5q-4 -8 -13 -28.5t-26.5 -41t-44.5 -36t-63 -15.5q-37 0 -57.5 16.5t-29 37t-8.5 42z" />
<glyph unicode="&#xcc;" horiz-adv-x="641" d="M156 156l10 49q39 160 78 315.5t82 310.5q33 121 68.5 240t72.5 238q20 61 45 87.5t92 26.5q18 0 56 -4t85 -14q63 -14 84 -38t21 -52q0 -20 -8 -60q-84 -295 -160 -589q-35 -141 -67.5 -279.5t-65.5 -280.5q-6 -25 -15.5 -47t-25.5 -36q-16 -12 -44 -16.5t-50 -4.5 q-20 0 -54 3t-81 18q-2 0 -13.5 3t-27 8t-30.5 13t-26 21q-16 16 -22 33.5t-4 54.5zM459 1743q0 20 12 32.5t29 24.5q23 16 43 32.5t45 16.5q16 0 29.5 -8t33.5 -37l125 -207q2 -2 9.5 -17t7.5 -28q0 -6 -1 -12t-8 -16q-10 -16 -22 -23.5t-27 -13.5q-12 -4 -19 -8t-20 -2 q-14 0 -26.5 10t-16.5 12l-178 201q-16 25 -16 43z" />
<glyph unicode="&#xcd;" horiz-adv-x="641" d="M156 156l10 49q39 160 78 315.5t82 310.5q33 121 68.5 240t72.5 238q20 61 45 87.5t92 26.5q18 0 56 -4t85 -14q63 -14 84 -38t21 -52q0 -20 -8 -60q-84 -295 -160 -589q-35 -141 -67.5 -279.5t-65.5 -280.5q-6 -25 -15.5 -47t-25.5 -36q-16 -12 -44 -16.5t-50 -4.5 q-20 0 -54 3t-81 18q-2 0 -13.5 3t-27 8t-30.5 13t-26 21q-16 16 -22 33.5t-4 54.5zM596 1575q2 12 14.5 26.5t32.5 32.5q29 27 55.5 51.5t55.5 49.5q25 23 49 42t51 42q27 18 39 25t29 7q20 -2 38.5 -13t22.5 -13q37 -27 53.5 -55.5t16.5 -45.5q0 -14 -10.5 -25t-38.5 -28 l-256 -164q-8 -4 -23.5 -12t-34.5 -8q-16 0 -27.5 9t-25.5 22q-12 10 -26.5 25.5t-14.5 31.5z" />
<glyph unicode="&#xce;" horiz-adv-x="641" d="M156 156l10 49q39 160 78 315.5t82 310.5q33 121 68.5 240t72.5 238q20 61 45 87.5t92 26.5q18 0 56 -4t85 -14q63 -14 84 -38t21 -52q0 -20 -8 -60q-84 -295 -160 -589q-35 -141 -67.5 -279.5t-65.5 -280.5q-6 -25 -15.5 -47t-25.5 -36q-16 -12 -44 -16.5t-50 -4.5 q-20 0 -54 3t-81 18q-2 0 -13.5 3t-27 8t-30.5 13t-26 21q-16 16 -22 33.5t-4 54.5zM389 1559q0 12 13.5 25t33.5 30l244 186q23 16 46.5 28.5t47.5 12.5q27 0 43.5 -11t34.5 -28l154 -223q4 -8 10 -17.5t6 -19.5q0 -8 -4 -13t-6 -7q-14 -20 -32.5 -25.5t-41.5 -5.5h-43 q-43 2 -55.5 7t-32.5 22l-74 88l-139 -95q-8 -4 -23.5 -13t-38.5 -9q-4 0 -26.5 2t-26.5 2q-23 4 -35 7t-18 7q-4 2 -20.5 14.5t-16.5 35.5z" />
<glyph unicode="&#xcf;" horiz-adv-x="641" d="M156 156l10 49q39 160 78 315.5t82 310.5q33 121 68.5 240t72.5 238q20 61 45 87.5t92 26.5q18 0 56 -4t85 -14q63 -14 84 -38t21 -52q0 -20 -8 -60q-84 -295 -160 -589q-35 -141 -67.5 -279.5t-65.5 -280.5q-6 -25 -15.5 -47t-25.5 -36q-16 -12 -44 -16.5t-50 -4.5 q-20 0 -54 3t-81 18q-2 0 -13.5 3t-27 8t-30.5 13t-26 21q-16 16 -22 33.5t-4 54.5zM468 1607.5q-1 20.5 1 30.5t7 30t18 40q23 35 58.5 58.5t78.5 23.5q41 0 65.5 -28.5t24.5 -69.5q0 -20 -4 -37t-6 -23q-16 -47 -55.5 -81.5t-92.5 -34.5q-37 0 -57.5 15t-28.5 35.5t-9 41z M765 1608.5q-1 21.5 1 31.5q8 59 53 104.5t107 45.5q31 0 49 -13.5t27.5 -29.5t12.5 -31.5t3 -23.5q-2 -10 -3 -23.5t-9 -34.5q-4 -8 -13.5 -28.5t-27 -41t-44 -36t-63.5 -15.5t-56.5 16.5t-27.5 37t-9 42z" />
<glyph unicode="&#xd1;" horiz-adv-x="1280" d="M145 117q0 23 6.5 44t10.5 44q41 147 80 292.5t80 293.5q37 131 74.5 260t76.5 260q25 68 44.5 89t62.5 21q55 0 106 -15t96 -38q23 -12 42.5 -23.5t33.5 -31.5q14 -23 30.5 -64t35.5 -98q18 -76 29.5 -129t19.5 -101.5t14 -102.5t12 -134q14 88 28.5 174t35.5 172 q16 72 35.5 144.5t38.5 146.5q18 59 34.5 76.5t57.5 17.5q57 0 102 -16.5t62 -22.5q35 -16 56 -31.5t21 -58.5q0 -16 -3 -32.5t-3 -18.5q-33 -129 -63.5 -258t-65.5 -258q-37 -135 -76.5 -270.5t-80.5 -270.5q-6 -23 -8.5 -33t-2.5 -24q0 -16 4.5 -30.5t4.5 -29.5 q-2 -35 -36 -48t-67 -13q-14 0 -35.5 2t-43 6t-42 7t-34.5 8q-4 0 -16.5 3t-29 9t-34 16t-29.5 23q-12 14 -18.5 29.5t-14.5 52.5q-18 98 -35.5 195.5t-31.5 197.5q-10 74 -19.5 148.5t-19.5 150.5q-10 -68 -21.5 -135.5t-27.5 -132.5q-12 -59 -27.5 -114.5t-32.5 -115.5 q-16 -61 -31.5 -123.5t-31.5 -128.5q-4 -10 -9.5 -27.5t-16.5 -32.5t-31.5 -26.5t-53.5 -11.5q-18 0 -71.5 8t-106.5 31q-41 18 -52.5 36.5t-11.5 41.5zM764 1583q2 6 3 13.5t7 19.5q31 59 85 97t114 38q16 0 41.5 -4t62.5 -21q23 -10 44.5 -19t43.5 -9q29 0 54 18 q16 10 25 19.5t26 9.5q10 0 19 -5t30 -22q10 -10 18.5 -19t8.5 -20q-2 -25 -39 -67q-6 -8 -20.5 -23.5t-35 -31t-48 -26.5t-62.5 -11q-12 0 -35 3t-51 15q-27 12 -50.5 23.5t-54.5 11.5q-23 0 -36 -7t-21 -12q-14 -10 -27.5 -21t-27.5 -11q-10 0 -26.5 12t-18.5 12 q-4 4 -15.5 13.5t-13.5 23.5z" />
<glyph unicode="&#xd2;" d="M207 504q0 23 1 55.5t11 83.5q8 53 24.5 111.5t37 117t46 113.5t52.5 102q16 27 48 74t82 98.5t118.5 97.5t158.5 75q20 6 46 12t47 6q29 0 46 -9t23 -18q2 -4 4 -11t2 -17q0 -12 -2 -29.5t-5 -36t-6 -35t-5 -26.5q29 23 56.5 47t56.5 49q27 23 51 42t61 19 q33 0 52.5 -19.5t41.5 -78.5q16 -41 36 -111.5t20 -183.5q0 -80 -12.5 -171t-36 -181t-54 -175t-67.5 -155q-29 -53 -60.5 -99t-72.5 -89q-16 -18 -49 -49t-82.5 -60.5t-115 -52.5t-143.5 -23q-23 0 -51 2.5t-61 13.5t-69 31.5t-72 57.5q-25 25 -52.5 61.5t-51 89t-39 120 t-15.5 151.5zM575 522q0 -20 2.5 -36.5t4.5 -22.5q8 -33 30.5 -68t57.5 -35q14 0 26.5 5.5t16.5 7.5q27 14 52.5 40.5t53.5 80.5q16 29 37 79t39 116.5t30.5 147.5t12.5 173q0 49 -5.5 84t-19.5 80q-16 -37 -24 -54.5t-15.5 -27t-19.5 -17.5t-37 -22q-10 -8 -29.5 -24.5 t-42.5 -41.5q-29 -33 -62.5 -89t-64.5 -150q-6 -20 -13 -49t-14 -61t-11.5 -61.5t-4.5 -54.5zM715 1743q0 20 12 32.5t29 24.5q23 16 43 32.5t45 16.5q16 0 29.5 -8t33.5 -37l125 -207q2 -2 9.5 -17t7.5 -28q0 -6 -1 -12t-8 -16q-10 -16 -22 -23.5t-27 -13.5q-12 -4 -19 -8 t-20 -2q-14 0 -26.5 10t-16.5 12l-178 201q-16 25 -16 43z" />
<glyph unicode="&#xd3;" d="M207 504q0 23 1 55.5t11 83.5q8 53 24.5 111.5t37 117t46 113.5t52.5 102q16 27 48 74t82 98.5t118.5 97.5t158.5 75q20 6 46 12t47 6q29 0 46 -9t23 -18q2 -4 4 -11t2 -17q0 -12 -2 -29.5t-5 -36t-6 -35t-5 -26.5q29 23 56.5 47t56.5 49q27 23 51 42t61 19 q33 0 52.5 -19.5t41.5 -78.5q16 -41 36 -111.5t20 -183.5q0 -80 -12.5 -171t-36 -181t-54 -175t-67.5 -155q-29 -53 -60.5 -99t-72.5 -89q-16 -18 -49 -49t-82.5 -60.5t-115 -52.5t-143.5 -23q-23 0 -51 2.5t-61 13.5t-69 31.5t-72 57.5q-25 25 -52.5 61.5t-51 89t-39 120 t-15.5 151.5zM575 522q0 -20 2.5 -36.5t4.5 -22.5q8 -33 30.5 -68t57.5 -35q14 0 26.5 5.5t16.5 7.5q27 14 52.5 40.5t53.5 80.5q16 29 37 79t39 116.5t30.5 147.5t12.5 173q0 49 -5.5 84t-19.5 80q-16 -37 -24 -54.5t-15.5 -27t-19.5 -17.5t-37 -22q-10 -8 -29.5 -24.5 t-42.5 -41.5q-29 -33 -62.5 -89t-64.5 -150q-6 -20 -13 -49t-14 -61t-11.5 -61.5t-4.5 -54.5zM852 1575q0 12 13.5 26.5t33.5 32.5q29 27 55.5 51.5t55.5 49.5q25 23 49 42t51 42q27 18 39 25t29 7q20 -2 38.5 -13t22.5 -13q37 -27 53.5 -55.5t16.5 -45.5q0 -14 -10.5 -25 t-38.5 -28l-256 -164q-8 -4 -23.5 -12t-34.5 -8q-16 0 -27.5 9t-25.5 22q-12 10 -26.5 25.5t-14.5 31.5z" />
<glyph unicode="&#xd4;" d="M207 504q0 23 1 55.5t11 83.5q8 53 24.5 111.5t37 117t46 113.5t52.5 102q16 27 48 74t82 98.5t118.5 97.5t158.5 75q20 6 46 12t47 6q29 0 46 -9t23 -18q2 -4 4 -11t2 -17q0 -12 -2 -29.5t-5 -36t-6 -35t-5 -26.5q29 23 56.5 47t56.5 49q27 23 51 42t61 19 q33 0 52.5 -19.5t41.5 -78.5q16 -41 36 -111.5t20 -183.5q0 -80 -12.5 -171t-36 -181t-54 -175t-67.5 -155q-29 -53 -60.5 -99t-72.5 -89q-16 -18 -49 -49t-82.5 -60.5t-115 -52.5t-143.5 -23q-23 0 -51 2.5t-61 13.5t-69 31.5t-72 57.5q-25 25 -52.5 61.5t-51 89t-39 120 t-15.5 151.5zM575 522q0 -20 2.5 -36.5t4.5 -22.5q8 -33 30.5 -68t57.5 -35q14 0 26.5 5.5t16.5 7.5q27 14 52.5 40.5t53.5 80.5q16 29 37 79t39 116.5t30.5 147.5t12.5 173q0 49 -5.5 84t-19.5 80q-16 -37 -24 -54.5t-15.5 -27t-19.5 -17.5t-37 -22q-10 -8 -29.5 -24.5 t-42.5 -41.5q-29 -33 -62.5 -89t-64.5 -150q-6 -20 -13 -49t-14 -61t-11.5 -61.5t-4.5 -54.5zM645 1559q0 12 13.5 25t33.5 30l244 186q23 16 46.5 28.5t47.5 12.5q27 0 43.5 -11t34.5 -28l154 -223q4 -8 10 -17.5t6 -19.5q0 -8 -4 -13t-6 -7q-14 -20 -32.5 -25.5 t-41.5 -5.5h-43q-43 2 -56.5 7t-33.5 22l-72 88l-139 -95q-8 -4 -23.5 -13t-38.5 -9q-4 0 -26.5 2t-26.5 2q-23 4 -35 7t-20 7q-4 2 -19.5 14.5t-15.5 35.5z" />
<glyph unicode="&#xd5;" d="M207 504q0 23 1 55.5t11 83.5q8 53 24.5 111.5t37 117t46 113.5t52.5 102q16 27 48 74t82 98.5t118.5 97.5t158.5 75q20 6 46 12t47 6q29 0 46 -9t23 -18q2 -4 4 -11t2 -17q0 -12 -2 -29.5t-5 -36t-6 -35t-5 -26.5q29 23 56.5 47t56.5 49q27 23 51 42t61 19 q33 0 52.5 -19.5t41.5 -78.5q16 -41 36 -111.5t20 -183.5q0 -80 -12.5 -171t-36 -181t-54 -175t-67.5 -155q-29 -53 -60.5 -99t-72.5 -89q-16 -18 -49 -49t-82.5 -60.5t-115 -52.5t-143.5 -23q-23 0 -51 2.5t-61 13.5t-69 31.5t-72 57.5q-25 25 -52.5 61.5t-51 89t-39 120 t-15.5 151.5zM575 522q0 -20 2.5 -36.5t4.5 -22.5q8 -33 30.5 -68t57.5 -35q14 0 26.5 5.5t16.5 7.5q27 14 52.5 40.5t53.5 80.5q16 29 37 79t39 116.5t30.5 147.5t12.5 173q0 49 -5.5 84t-19.5 80q-16 -37 -24 -54.5t-15.5 -27t-19.5 -17.5t-37 -22q-10 -8 -29.5 -24.5 t-42.5 -41.5q-29 -33 -62.5 -89t-64.5 -150q-6 -20 -13 -49t-14 -61t-11.5 -61.5t-4.5 -54.5zM700 1583q1 13 11 33q29 59 83 97t113 38q16 0 43 -4t64 -21q23 -10 44 -19t44 -9q25 0 53 18q14 10 24.5 19.5t24.5 9.5q16 0 49 -27q27 -20 27 -39q0 -14 -10 -29.5t-27 -37.5 q-8 -8 -21.5 -23.5t-34 -31t-48 -26.5t-62.5 -11q-12 0 -34.5 3t-51.5 15q-27 12 -50 23.5t-54 11.5q-23 0 -36 -7t-22 -12q-14 -10 -28.5 -21t-26.5 -11q-10 0 -26.5 12t-18.5 12q-6 4 -17.5 13.5t-11.5 23.5z" />
<glyph unicode="&#xd6;" d="M207 504q0 23 1 55.5t11 83.5q8 53 24.5 111.5t37 117t46 113.5t52.5 102q16 27 48 74t82 98.5t118.5 97.5t158.5 75q20 6 46 12t47 6q29 0 46 -9t23 -18q2 -4 4 -11t2 -17q0 -12 -2 -29.5t-5 -36t-6 -35t-5 -26.5q29 23 56.5 47t56.5 49q27 23 51 42t61 19 q33 0 52.5 -19.5t41.5 -78.5q16 -41 36 -111.5t20 -183.5q0 -80 -12.5 -171t-36 -181t-54 -175t-67.5 -155q-29 -53 -60.5 -99t-72.5 -89q-16 -18 -49 -49t-82.5 -60.5t-115 -52.5t-143.5 -23q-23 0 -51 2.5t-61 13.5t-69 31.5t-72 57.5q-25 25 -52.5 61.5t-51 89t-39 120 t-15.5 151.5zM575 522q0 -20 2.5 -36.5t4.5 -22.5q8 -33 30.5 -68t57.5 -35q14 0 26.5 5.5t16.5 7.5q27 14 52.5 40.5t53.5 80.5q16 29 37 79t39 116.5t30.5 147.5t12.5 173q0 49 -5.5 84t-19.5 80q-16 -37 -24 -54.5t-15.5 -27t-19.5 -17.5t-37 -22q-10 -8 -29.5 -24.5 t-42.5 -41.5q-29 -33 -62.5 -89t-64.5 -150q-6 -20 -13 -49t-14 -61t-11.5 -61.5t-4.5 -54.5zM748 1638q6 27 20 53.5t34.5 47t46 34t54.5 13.5q41 -2 66.5 -32t25.5 -71q0 -16 -4 -33.5t-4 -21.5q-16 -49 -54 -86t-91 -35q-18 0 -31.5 3t-17.5 8q-20 10 -38.5 39.5 t-6.5 80.5zM1038 1603.5q0 22.5 2 32.5q10 59 53.5 102.5t104.5 43.5q41 0 66.5 -29t25.5 -70q0 -33 -12 -63q-4 -8 -13.5 -27.5t-26.5 -39t-43 -34t-60 -14.5q-39 0 -59.5 16.5t-29 38t-8.5 44z" />
<glyph unicode="&#xd8;" d="M219 500q0 74 13.5 157.5t38 166.5t57 160t71.5 138q43 66 113 135.5t135 112.5q29 20 63.5 35.5t69.5 26.5q4 2 32 9t54 7q4 0 29 -4t37 -23q6 -8 7 -15t1 -17q0 -27 -4 -52.5t-14 -72.5q61 49 116 104q25 25 49.5 44.5t57.5 19.5q6 0 17.5 -1t25.5 -10 q16 -10 26.5 -26.5t20.5 -36.5l55 67q20 25 39 42.5t49 17.5q37 0 70 -24.5t33 -59.5q0 -16 -11 -33q-4 -8 -16 -23.5t-27 -33.5q-31 -41 -63.5 -82t-65.5 -82q2 -43 4.5 -87t2.5 -87q0 -37 -5.5 -107.5t-25.5 -163.5q-4 -18 -15.5 -64t-32 -105.5t-49 -127t-65.5 -129.5 q-33 -51 -60.5 -82.5t-45.5 -50.5q-102 -102 -194.5 -134t-156.5 -32q-29 0 -57.5 5.5t-81.5 17.5q-12 -16 -24.5 -31.5t-24.5 -31.5q-27 -35 -48.5 -59.5t-66.5 -24.5q-10 0 -37.5 6t-48.5 35q-4 10 -8 18t-2 18q0 10 3 19.5t5 13.5q6 14 19.5 33.5t28 38t27.5 36t21 29.5 q-25 31 -49 66t-44.5 81t-34 107.5t-13.5 145.5zM588 518q0 -78 30.5 -119t65.5 -41q10 0 29.5 6.5t42.5 22.5q25 20 52.5 61t51.5 105q8 23 21.5 64.5t26 99t21.5 126t9 144.5q0 31 -1 53.5t-5 44t-11.5 43t-17.5 50.5q-12 -41 -19 -63.5t-28 -39.5q-10 -8 -23.5 -14 t-23.5 -17q-10 -6 -29.5 -23t-40.5 -44q-66 -84 -89 -160t-34 -119q-6 -29 -12 -54.5t-10 -51.5q0 -6 -3 -28.5t-3 -45.5z" />
<glyph unicode="&#xd9;" d="M217 395q0 47 7 84t20 84l207 778q6 29 25.5 54.5t80.5 25.5q76 0 120 -9t75 -23q23 -10 37 -21.5t12 -38.5q0 -18 -4 -32.5t-6 -18.5l-205 -772q-4 -10 -6 -22.5t-2 -32.5v-13.5t4 -19.5q10 -23 33.5 -41.5t48.5 -18.5q20 2 34.5 10.5t20.5 12.5q35 27 49 62.5t25 70.5 l239 797q10 31 29.5 54.5t83.5 23.5q61 -2 117.5 -15.5t68.5 -19.5q18 -10 27.5 -29.5t9.5 -40.5q0 -16 -5 -36.5t-5 -24.5q-27 -86 -52.5 -173t-48.5 -173q-16 -53 -30.5 -108.5t-30.5 -109.5q-16 -55 -33.5 -109t-36.5 -110q-57 -143 -101 -225t-99 -131 q-16 -14 -41 -31.5t-59.5 -33t-80 -25.5t-102.5 -10q-23 0 -77 5t-113 31q-115 47 -175.5 150.5t-60.5 224.5zM715 1743q0 20 12 32.5t29 24.5q23 16 43 32.5t45 16.5q16 0 29.5 -8t33.5 -37l125 -207q2 -2 9.5 -17t7.5 -28q0 -6 -1 -12t-8 -16q-10 -16 -22 -23.5t-27 -13.5 q-12 -4 -19 -8t-20 -2q-14 0 -26.5 10t-16.5 12l-178 201q-16 25 -16 43z" />
<glyph unicode="&#xda;" d="M217 395q0 47 7 84t20 84l207 778q6 29 25.5 54.5t80.5 25.5q76 0 120 -9t75 -23q23 -10 37 -21.5t12 -38.5q0 -18 -4 -32.5t-6 -18.5l-205 -772q-4 -10 -6 -22.5t-2 -32.5v-13.5t4 -19.5q10 -23 33.5 -41.5t48.5 -18.5q20 2 34.5 10.5t20.5 12.5q35 27 49 62.5t25 70.5 l239 797q10 31 29.5 54.5t83.5 23.5q61 -2 117.5 -15.5t68.5 -19.5q18 -10 27.5 -29.5t9.5 -40.5q0 -16 -5 -36.5t-5 -24.5q-27 -86 -52.5 -173t-48.5 -173q-16 -53 -30.5 -108.5t-30.5 -109.5q-16 -55 -33.5 -109t-36.5 -110q-57 -143 -101 -225t-99 -131 q-16 -14 -41 -31.5t-59.5 -33t-80 -25.5t-102.5 -10q-23 0 -77 5t-113 31q-115 47 -175.5 150.5t-60.5 224.5zM852 1575q0 12 13.5 26.5t33.5 32.5q29 27 55.5 51.5t55.5 49.5q25 23 49 42t51 42q27 18 39 25t29 7q20 -2 38.5 -13t22.5 -13q37 -27 53.5 -55.5t16.5 -45.5 q0 -14 -10.5 -25t-38.5 -28l-256 -164q-8 -4 -23.5 -12t-34.5 -8q-16 0 -27.5 9t-25.5 22q-12 10 -26.5 25.5t-14.5 31.5z" />
<glyph unicode="&#xdb;" d="M217 395q0 47 7 84t20 84l207 778q6 29 25.5 54.5t80.5 25.5q76 0 120 -9t75 -23q23 -10 37 -21.5t12 -38.5q0 -18 -4 -32.5t-6 -18.5l-205 -772q-4 -10 -6 -22.5t-2 -32.5v-13.5t4 -19.5q10 -23 33.5 -41.5t48.5 -18.5q20 2 34.5 10.5t20.5 12.5q35 27 49 62.5t25 70.5 l239 797q10 31 29.5 54.5t83.5 23.5q61 -2 117.5 -15.5t68.5 -19.5q18 -10 27.5 -29.5t9.5 -40.5q0 -16 -5 -36.5t-5 -24.5q-27 -86 -52.5 -173t-48.5 -173q-16 -53 -30.5 -108.5t-30.5 -109.5q-16 -55 -33.5 -109t-36.5 -110q-57 -143 -101 -225t-99 -131 q-16 -14 -41 -31.5t-59.5 -33t-80 -25.5t-102.5 -10q-23 0 -77 5t-113 31q-115 47 -175.5 150.5t-60.5 224.5zM645 1559q0 12 13.5 25t33.5 30l244 186q23 16 46.5 28.5t47.5 12.5q27 0 43.5 -11t34.5 -28l154 -223q4 -8 10 -17.5t6 -19.5q0 -8 -4 -13t-6 -7 q-14 -20 -32.5 -25.5t-41.5 -5.5h-43q-43 2 -56.5 7t-33.5 22l-72 88l-139 -95q-8 -4 -23.5 -13t-38.5 -9q-4 0 -26.5 2t-26.5 2q-23 4 -35 7t-20 7q-4 2 -19.5 14.5t-15.5 35.5z" />
<glyph unicode="&#xdc;" d="M217 387q0 55 9.5 99t21.5 96l203 757q18 51 37.5 66.5t74.5 15.5q39 0 65.5 -2t46 -7t36 -11t34.5 -12q37 -12 47.5 -23.5t8.5 -34.5q0 -16 -3 -26.5l-7 -24.5l-199 -741q-6 -35 -10 -56.5t-4 -38.5q0 -35 24.5 -60.5t61.5 -25.5q31 2 51 17q18 12 31.5 33.5t24.5 45 t18.5 47t13.5 42.5l229 764q4 18 10 36q10 16 33 31t66 15q18 0 45.5 -3.5t56.5 -7.5t54.5 -11t37.5 -15q10 -8 20.5 -24.5t12.5 -45.5q0 -10 -3 -23.5t-7 -35.5q-27 -90 -53.5 -178.5t-51.5 -178.5q-16 -59 -32.5 -117.5t-32.5 -117.5q-16 -53 -33.5 -103.5t-34.5 -103.5 q-16 -41 -35.5 -87t-44 -93t-54.5 -90t-62 -74q-55 -51 -126 -74.5t-147 -23.5q-25 0 -85 7t-126 38q-106 47 -164.5 144t-58.5 216zM739 1647q4 29 23 59q4 6 15 19.5t28.5 27.5t41 25.5t52.5 11.5q31 0 48.5 -12.5t26.5 -28.5t12 -33.5t3 -25.5q0 -33 -11 -65t-31.5 -56.5 t-49.5 -40t-63 -15.5q-57 0 -81 39.5t-14 94.5zM1031 1616q1 14 1 20q4 14 8 26.5t7 16.5q2 6 13 24.5t29.5 37t44 34t58.5 15.5q43 0 66.5 -29.5t23.5 -70.5q0 -10 -1 -22.5t-7 -33.5q-16 -47 -56 -86t-94 -39q-18 0 -30.5 5.5t-18.5 9.5q-18 12 -27.5 28.5t-13.5 33 t-3 30.5z" />
<glyph unicode="&#xdf;" horiz-adv-x="1792" d="M106 129q0 6 1.5 24.5t5.5 41.5q2 14 7 39.5t11 53t11 53.5t10 40q4 16 11 34.5t21.5 35t40 27.5t66.5 11q2 0 15 -1t31.5 -2t39 -4t37.5 -5q23 -4 30 -15t7 -36q0 -20 -2.5 -39t-2.5 -37q23 -4 37.5 -4t24.5 2q33 4 54.5 28.5t21.5 57.5q0 23 -10.5 53.5t-26 60.5 t-30.5 56.5t-23 42.5q-41 59 -60.5 91t-36.5 67q-10 20 -33.5 70.5t-23.5 117.5q0 23 8 67t37 97q25 43 68 91t110.5 90t158.5 69t212 27q31 0 61.5 -2t61.5 -7q8 0 37.5 -6t52.5 -22q10 -10 21.5 -24.5t11.5 -47.5q0 -25 -3 -54.5t-8.5 -55t-8.5 -43t-3 -19.5 q-8 -29 -18.5 -59.5t-32.5 -49.5q-37 -31 -145 -30q-16 0 -29.5 1t-30.5 1q-16 0 -27.5 1t-19.5 8t-12 21.5t-6 43.5q-51 -6 -72 -15.5t-31 -32.5q-10 -20 -10 -45q0 -33 15.5 -57.5t31.5 -50.5q14 -23 26.5 -43.5t24.5 -42.5q47 -84 82 -168t35 -186q0 -23 -5 -77.5 t-32 -113.5q-27 -63 -65.5 -107.5t-78.5 -72t-77 -43t-59 -21.5q-59 -16 -113.5 -18t-75.5 -2q-41 0 -84 2t-84 6t-64.5 9t-39.5 16q-39 23 -46.5 54.5t-7.5 47.5zM997 131q0 33 7.5 77t21.5 109q20 109 61 144q14 14 39 19t72 5q23 0 41 -1t41 -5q4 0 21.5 -4t27.5 -14 q4 -4 6 -12.5t2 -24.5q0 -20 -1 -39.5t-1 -36.5q23 -4 34 -5t22 1q8 2 21 6t25.5 14.5t21.5 26t9 39.5q0 35 -15 73t-32 66l-50 82t-48 82q-12 25 -25.5 48.5t-25.5 47.5q-16 43 -28.5 80t-12.5 86q0 23 6 61t29 85q23 45 66.5 96t113.5 94t165 71t222 28q49 0 90 -3.5 t55 -7.5q31 -6 46.5 -13t25.5 -17q23 -23 26 -51.5t3 -39.5q0 -16 -3 -39.5t-8.5 -49t-11.5 -49t-10 -38.5q-16 -53 -37.5 -73.5t-46.5 -26.5q-10 -4 -42 -7t-73 -3h-65h-17.5t-23.5 8q-16 10 -18.5 27.5t-0.5 37.5q-6 0 -25.5 -1t-40 -9t-36.5 -25.5t-16 -48.5q0 -23 8 -41 t18 -34l135 -240q16 -33 37 -89t21 -146q0 -25 -5.5 -75t-29.5 -114q-39 -96 -112.5 -159.5t-176.5 -92.5q-33 -8 -75 -13t-113 -5q-45 0 -90 1t-91 7q-10 2 -44.5 9t-61.5 34q-10 10 -18.5 30.5t-8.5 57.5z" />
<glyph unicode="&#xe0;" horiz-adv-x="1067" d="M123 125q0 20 9 42.5t18 43.5l43 104q-12 4 -30 16.5t-18 47.5q0 10 4.5 36.5t10.5 57.5q0 2 3 17.5t8 37t12 44t18 40.5q4 6 13 23.5t26 30.5q18 14 43.5 15t70.5 3q35 78 70 153.5t72 153.5q39 78 78.5 158t80.5 158q8 12 14.5 25.5t14.5 25.5q27 39 52.5 53t72.5 14 q29 -2 58.5 -5t82.5 -13q23 -4 56.5 -13.5t50.5 -27.5q18 -23 22 -54.5t6 -41.5q8 -59 14.5 -115.5t10.5 -116.5q6 -98 7 -194t3 -195q2 -129 1 -254t-3 -252q-2 -27 -5 -47t-13 -39q-33 -53 -164 -53h-14.5t-28.5 2t-35.5 6t-34.5 15q-18 12 -26.5 28.5t-11.5 32.5t-4 29.5 t-1 17.5v330q-12 -33 -23.5 -52.5t-21.5 -33.5q-27 -31 -59.5 -37t-104.5 -6l-114 -270q-4 -10 -17 -33q-8 -12 -27.5 -28.5t-58.5 -16.5q-23 0 -44 6t-66 18q-35 10 -66 24.5t-47 49.5q-2 4 -5 14.5t-3 24.5zM651 1743q0 23 13.5 34t29.5 23q23 18 39.5 32.5t46.5 14.5 q18 0 30.5 -7t31.5 -36l127 -207q0 -2 8 -17t6 -30q0 -6 -1 -14t-5 -12q-10 -16 -20.5 -23.5t-26.5 -13.5t-23.5 -9t-17.5 -1q-10 0 -18.5 4t-24.5 18l-178 201q-10 14 -13.5 23.5t-3.5 19.5zM686 670h127l23 422z" />
<glyph unicode="&#xe1;" horiz-adv-x="1067" d="M123 125q0 20 9 42.5t18 43.5l43 104q-12 4 -30 16.5t-18 47.5q0 10 4.5 36.5t10.5 57.5q0 2 3 17.5t8 37t12 44t18 40.5q4 6 13 23.5t26 30.5q18 14 43.5 15t70.5 3q35 78 70 153.5t72 153.5q39 78 78.5 158t80.5 158q8 12 14.5 25.5t14.5 25.5q27 39 52.5 53t72.5 14 q29 -2 58.5 -5t82.5 -13q23 -4 56.5 -13.5t50.5 -27.5q18 -23 22 -54.5t6 -41.5q8 -59 14.5 -115.5t10.5 -116.5q6 -98 7 -194t3 -195q2 -129 1 -254t-3 -252q-2 -27 -5 -47t-13 -39q-33 -53 -164 -53h-14.5t-28.5 2t-35.5 6t-34.5 15q-18 12 -26.5 28.5t-11.5 32.5t-4 29.5 t-1 17.5v330q-12 -33 -23.5 -52.5t-21.5 -33.5q-27 -31 -59.5 -37t-104.5 -6l-114 -270q-4 -10 -17 -33q-8 -12 -27.5 -28.5t-58.5 -16.5q-23 0 -44 6t-66 18q-35 10 -66 24.5t-47 49.5q-2 4 -5 14.5t-3 24.5zM686 670h127l23 422zM788 1577q0 12 14.5 26.5t33.5 30.5 q23 23 45 42.5t45 41.5q29 25 59.5 50.5t61.5 50.5q4 4 25.5 18t43.5 14q6 0 25 -6q10 -4 39.5 -23.5t50.5 -54.5l8 -16t6 -27q0 -18 -15.5 -30.5t-33.5 -22.5l-258 -164q-31 -20 -55 -20q-16 0 -29.5 11t-26.5 22q-12 10 -20 18q-18 18 -19 39z" />
<glyph unicode="&#xe2;" horiz-adv-x="1067" d="M123 125q0 20 9 42.5t18 43.5l43 104q-12 4 -30 16.5t-18 47.5q0 10 4.5 36.5t10.5 57.5q0 2 3 17.5t8 37t12 44t18 40.5q4 6 13 23.5t26 30.5q18 14 43.5 15t70.5 3q35 78 70 153.5t72 153.5q39 78 78.5 158t80.5 158q8 12 14.5 25.5t14.5 25.5q27 39 52.5 53t72.5 14 q29 -2 58.5 -5t82.5 -13q23 -4 56.5 -13.5t50.5 -27.5q18 -23 22 -54.5t6 -41.5q8 -59 14.5 -115.5t10.5 -116.5q6 -98 7 -194t3 -195q2 -129 1 -254t-3 -252q-2 -27 -5 -47t-13 -39q-33 -53 -164 -53h-14.5t-28.5 2t-35.5 6t-34.5 15q-18 12 -26.5 28.5t-11.5 32.5t-4 29.5 t-1 17.5v330q-12 -33 -23.5 -52.5t-21.5 -33.5q-27 -31 -59.5 -37t-104.5 -6l-114 -270q-4 -10 -17 -33q-8 -12 -27.5 -28.5t-58.5 -16.5q-23 0 -44 6t-66 18q-35 10 -66 24.5t-47 49.5q-2 4 -5 14.5t-3 24.5zM582 1559q0 10 4 14t16 16.5t27 24.5l243 186q23 16 45.5 28.5 t49.5 12.5q33 0 50 -15.5t27 -23.5l152 -223q10 -14 13 -20.5t3 -16.5q0 -4 -2 -10t-6 -10q-8 -12 -25.5 -22.5t-45.5 -10.5q-10 0 -21.5 1t-21.5 1q-23 0 -36.5 1t-21.5 4t-15 8t-20 16l-73 88l-140 -95q-16 -10 -28.5 -16t-30.5 -6q-12 0 -24.5 1t-26.5 3q-4 0 -22.5 2 t-33.5 10q-12 6 -24 20.5t-12 31.5zM686 670h127l23 422z" />
<glyph unicode="&#xe3;" horiz-adv-x="1067" d="M123 125q0 20 9 42.5t18 43.5l43 104q-12 4 -30 16.5t-18 47.5q0 10 4.5 36.5t10.5 57.5q0 2 3 17.5t8 37t12 44t18 40.5q4 6 13 23.5t26 30.5q18 14 43.5 15t70.5 3q35 78 70 153.5t72 153.5q39 78 78.5 158t80.5 158q8 12 14.5 25.5t14.5 25.5q27 39 52.5 53t72.5 14 q29 -2 58.5 -5t82.5 -13q23 -4 56.5 -13.5t50.5 -27.5q18 -23 22 -54.5t6 -41.5q8 -59 14.5 -115.5t10.5 -116.5q6 -98 7 -194t3 -195q2 -129 1 -254t-3 -252q-2 -27 -5 -47t-13 -39q-33 -53 -164 -53h-14.5t-28.5 2t-35.5 6t-34.5 15q-18 12 -26.5 28.5t-11.5 32.5t-4 29.5 t-1 17.5v330q-12 -33 -23.5 -52.5t-21.5 -33.5q-27 -31 -59.5 -37t-104.5 -6l-114 -270q-4 -10 -17 -33q-8 -12 -27.5 -28.5t-58.5 -16.5q-23 0 -44 6t-66 18q-35 10 -66 24.5t-47 49.5q-2 4 -5 14.5t-3 24.5zM659 1583q1 10 9 33q29 61 83 98t113 37q33 0 62.5 -9t38.5 -13 q23 -10 46 -20.5t48 -10.5q8 0 21.5 3t31.5 15q12 8 24.5 18.5t24.5 10.5q14 0 45 -23q4 -4 18.5 -15t14.5 -28q-2 -16 -14.5 -35.5t-22.5 -29.5q-6 -8 -20.5 -24.5t-35 -32t-48 -26.5t-64.5 -11q-29 0 -50 7t-32 11q-29 10 -52 22.5t-56 12.5q-23 0 -36 -6t-22 -13 q-14 -10 -26 -21t-27 -11q-10 0 -18 6t-29 18q-12 10 -19.5 17.5t-7.5 19.5zM686 670h127l23 422z" />
<glyph unicode="&#xe4;" horiz-adv-x="1067" d="M123 125q0 18 10 43t27 65l16 40t17 42q-12 4 -30 16.5t-18 47.5l3 23q4 24 10 58t14 69.5t21 62.5q20 49 39.5 66.5t43.5 21.5q20 4 40 4t40 2q35 78 70 155t72 154q39 80 78.5 160t80.5 160q20 33 36 54.5t30 33.5t31.5 16t42.5 4q31 0 80 -6t77 -10q29 -4 55.5 -12.5 t43.5 -26.5q12 -14 18 -33.5t14 -62.5q10 -78 16.5 -158t10.5 -158q4 -80 6 -158.5t2 -156.5q2 -125 1 -250t-3 -250q0 -4 -3 -31.5t-13 -48.5q-10 -20 -28.5 -31.5t-41 -17.5t-48.5 -7t-48 -1q-8 0 -29.5 1t-50.5 9q-49 12 -60.5 41t-15.5 80v338q-18 -47 -35.5 -74.5 t-39 -42t-54.5 -18.5t-82 -4l-112 -271q-4 -8 -10.5 -20t-17.5 -24.5t-29.5 -21.5t-45.5 -9q-14 0 -24.5 2t-20.5 6t-25.5 9t-39.5 11q-4 0 -16.5 3.5t-29 9.5t-32.5 16t-27 27q-10 16 -13 31.5t-3 21.5zM668 1620q0 25 10 49q2 6 11 23.5t24.5 38t38 37t53.5 22.5 q14 2 33.5 1t38 -10t31 -29.5t12.5 -59.5q0 -25 -12.5 -69t-59.5 -79q-8 -4 -31.5 -16t-52.5 -12q-10 0 -26.5 4t-32 15t-26.5 31.5t-11 53.5zM686 670h127l21 420zM961 1620q0 53 38 106.5t95 63.5q12 2 31.5 1t39 -10t32.5 -29.5t13 -57.5q0 -12 -3 -30.5t-12 -41.5 t-26.5 -44.5t-44.5 -39.5q-25 -16 -42 -19t-29 -3t-27.5 4t-30 16t-24.5 32.5t-10 51.5z" />
<glyph unicode="&#xe5;" horiz-adv-x="1067" d="M123 125q0 20 12 51t21 49q10 23 18 45.5t19 44.5q-12 4 -30 16.5t-18 47.5q0 12 4.5 38.5t10.5 56.5t12 56.5t10 36.5q6 23 13.5 35t11.5 23q10 20 24.5 34.5t36.5 18.5q8 4 33 5t53 3q33 72 64 142.5t65 142.5q43 88 88 174t91 174q18 33 33.5 53.5t29.5 31.5t31.5 15 t40.5 4q51 0 102 -8t62 -10q18 -2 36 -8q33 -10 56 -29q18 -16 23 -43t9 -55q10 -86 17.5 -171t11.5 -171q8 -244 6 -486v-150.5t-2 -150.5q0 -10 -3 -37.5t-17 -50.5q-12 -18 -31.5 -28.5t-43.5 -14.5t-49.5 -5t-47.5 -1q-29 0 -46.5 3t-31.5 7q-29 10 -42 27.5t-18.5 36 t-5.5 35v24.5v336q-23 -51 -39 -77.5t-37.5 -39t-53 -15.5t-83.5 -3l-114 -275q-10 -23 -21 -38q-18 -25 -43.5 -31t-34.5 -6q-23 0 -53.5 9t-50.5 15q-6 0 -20.5 4t-32 11.5t-35 20.5t-29.5 32q-12 20 -12 45zM686 670h127l21 417zM758 1673q0 37 12 74t33.5 69.5 t52.5 55.5t66 33q27 6 49 6q12 0 37.5 -3t54.5 -20q33 -18 50 -42.5t26.5 -49t11.5 -46t2 -32.5q0 -12 -3 -36.5t-15 -55.5q-25 -59 -77 -99t-118 -40q-12 0 -33.5 3t-48.5 15q-10 6 -27.5 18.5t-34 32t-27.5 49t-11 68.5zM891 1714q-10 -35 4 -66.5t49 -31.5t55.5 30.5 t20.5 59.5q0 27 -14.5 48.5t-42.5 21.5q-14 -2 -38 -13.5t-34 -48.5z" />
<glyph unicode="&#xe6;" horiz-adv-x="1536" d="M102 143q0 23 11.5 42.5t29.5 60.5q10 23 19.5 42t17.5 42q-16 10 -28.5 23.5t-12.5 52.5q0 33 9.5 62.5t17.5 59.5q2 6 6 24.5t13.5 41t24.5 46.5t40 40q29 16 57.5 18t61.5 0q23 41 43 79t43 79q29 51 54.5 102.5t53.5 102.5q39 66 77 131t77 131q23 33 37 52.5 t28.5 29.5t30.5 13t41 7h842q4 0 15 -1t26 -5q10 -4 31.5 -20.5t21.5 -50.5q0 -4 -3 -21.5t-7 -34.5q0 -4 -4 -21.5t-12.5 -43t-18.5 -54t-23 -53.5q-14 -33 -34 -43q-10 -6 -26.5 -7t-33.5 -1l-469 6q16 -10 31.5 -18t32.5 -19q27 -14 44 -26.5t17 -40.5q0 -8 -3 -25.5 t-7 -36t-8 -34t-6 -21.5h278h20.5t20.5 -2q31 -6 41 -18.5t10 -45.5q0 -20 -2 -34.5t-7 -29.5t-11 -35.5t-15 -51.5l-4 -17q-4 -16 -13 -35.5t-23.5 -40t-34.5 -28.5q-16 -8 -29.5 -8t-30.5 2h-307l-45 -182h285q47 0 66.5 -6.5t31.5 -26.5q4 -10 9 -23.5t5 -38.5 q0 -4 -1 -15t-3 -25q-2 -6 -7 -24.5t-11 -38t-13.5 -38t-9.5 -24.5q-23 -51 -51.5 -59.5t-54.5 -10.5h-279q-84 4 -139 9t-88 28q-16 12 -30.5 30.5t-29.5 36.5q-18 27 -29 44.5t-16.5 35t-5.5 38t4 54.5l35 170q-29 -57 -53.5 -78.5t-85.5 -21.5h-42.5t-41.5 2l-113 -260 q-4 -10 -10 -23.5t-18.5 -28t-32 -23.5t-47.5 -9q-20 0 -43 6t-42.5 13.5t-32.5 13.5t-15 8q-41 16 -59.5 29.5t-28.5 36.5q-2 4 -5.5 14t-3.5 20zM735 694h123l127 471z" />
<glyph unicode="&#xe7;" horiz-adv-x="980" d="M201 446q-2 125 20.5 235t55 199t67.5 153.5t57 99.5q12 18 51.5 69t94.5 98q51 45 105.5 72t103.5 41t89 18.5t64 4.5q23 0 66 -5.5t92 -33.5q51 -29 86 -88.5t35 -186.5q0 -70 -16.5 -105.5t-38.5 -58.5q-23 -23 -44.5 -34t-31.5 -15t-31.5 -9t-50.5 -5q-41 0 -71 5 t-42 15q-8 4 -15 14.5t-7 33.5t9 44t9 42v6q-2 6 -10 24.5t-33 18.5q-12 0 -21.5 -4t-13.5 -9q-27 -14 -40 -34.5t-27 -42.5q-25 -45 -42.5 -82t-29.5 -74t-23.5 -76t-25.5 -88q-8 -29 -15.5 -57.5t-11.5 -59.5q-6 -43 -6 -90q-2 -10 -2 -32q0 -41 23.5 -57.5t37.5 -16.5 q10 0 22.5 5t27.5 26q18 23 25 43t18 40q10 20 18 30.5t16 19.5q29 29 68 41t82 12q55 0 89 -13.5t48 -31.5q4 -6 7 -13.5t3 -23.5q0 -25 -8 -64q-4 -18 -15 -56t-32.5 -86t-55.5 -99t-83 -94q-20 -18 -50 -39t-83 -45q-66 -29 -106 -37t-79 -8q-23 0 -68.5 7t-94.5 40 q-66 43 -115 144t-51 273zM287 -322q0 16 9 28.5t34 31.5l178 166q16 10 32.5 19t34.5 9h13.5t13.5 -4q6 -2 37 -14t53 -35q14 -14 19.5 -26.5t5.5 -20.5q0 -10 -6 -19.5t-23 -25.5q-29 -27 -56.5 -52.5t-56.5 -47.5q-53 -43 -112 -88q-10 -8 -21.5 -13.5t-27.5 -5.5 q-23 0 -34 7t-40 24q-4 2 -12.5 7t-17.5 12.5t-16 19.5t-7 28z" />
<glyph unicode="&#xe8;" horiz-adv-x="1024" d="M213 573q0 20 7 62.5t22 93.5q0 2 3 14.5t9 28.5t14 33.5t21 28.5q16 16 39.5 18t50.5 2l61 215q-51 2 -80.5 15.5t-29.5 41.5q0 16 5 34t13 46q4 20 9 41t12 41q31 98 63 121q23 16 56.5 15t89.5 1q35 0 68.5 1t68.5 1q92 0 185 -2t185 -4h36t50.5 -2t50 -7t35.5 -17 q8 -10 10.5 -23.5t2.5 -17.5q0 -16 -9.5 -62.5t-21.5 -89.5q-10 -43 -24.5 -72.5t-28.5 -44.5q-16 -16 -33.5 -18t-58.5 -2t-83 2t-83 4q-43 2 -85 1t-85 3q-16 0 -31.5 1t-32.5 1q-16 0 -35.5 -2t-21.5 -2q18 -10 37.5 -20.5t42.5 -20.5t37 -21.5t14 -33.5q0 -12 -5 -31.5 t-9 -32.5q-4 -16 -6.5 -29.5t-4.5 -27.5q74 0 146 -1t149 -3q12 0 27.5 -1t28 -8t20.5 -23.5t8 -47.5q0 -33 -9 -59.5t-28 -81.5q-10 -25 -25.5 -62t-39.5 -53q-8 -6 -17.5 -9t-31.5 -3q-14 0 -28.5 1t-29.5 3q-14 0 -26.5 1t-24.5 1q-55 0 -111.5 1t-113.5 1l-47 -182 q133 2 266 0q47 -2 76 -2t45 -15q6 -6 13 -21.5t7 -43.5q0 -10 -1 -15.5t-1 -13.5q-4 -23 -9 -43t-11 -43q0 -2 -3 -14.5t-9.5 -27.5t-14.5 -31.5t-20 -28.5q-29 -29 -75 -29h-130q-59 0 -116.5 -2t-119.5 0h-23.5t-40 3t-47 10t-44.5 20q-16 10 -31.5 27.5t-38.5 52.5 q-27 41 -35 67.5t-8 46.5q0 23 6 45.5t11 42.5q10 47 21 96.5t22 96.5q-43 16 -54.5 29.5t-11.5 35.5zM651 1743q0 23 13.5 34t29.5 23q23 18 39.5 32.5t46.5 14.5q18 0 30.5 -7t31.5 -36l127 -207q0 -2 8 -17t6 -30q0 -6 -1 -14t-5 -12q-10 -16 -20.5 -23.5t-26.5 -13.5 t-23.5 -9t-17.5 -1q-10 0 -18.5 4t-24.5 18l-178 201q-10 14 -13.5 23.5t-3.5 19.5z" />
<glyph unicode="&#xe9;" horiz-adv-x="1024" d="M213 573q0 20 7 62.5t22 93.5q0 2 3 14.5t9 28.5t14 33.5t21 28.5q16 16 39.5 18t50.5 2l61 215q-51 2 -80.5 15.5t-29.5 41.5q0 16 5 34t13 46q4 20 9 41t12 41q31 98 63 121q23 16 56.5 15t89.5 1q35 0 68.5 1t68.5 1q92 0 185 -2t185 -4h36t50.5 -2t50 -7t35.5 -17 q8 -10 10.5 -23.5t2.5 -17.5q0 -16 -9.5 -62.5t-21.5 -89.5q-10 -43 -24.5 -72.5t-28.5 -44.5q-16 -16 -33.5 -18t-58.5 -2t-83 2t-83 4q-43 2 -85 1t-85 3q-16 0 -31.5 1t-32.5 1q-16 0 -35.5 -2t-21.5 -2q18 -10 37.5 -20.5t42.5 -20.5t37 -21.5t14 -33.5q0 -12 -5 -31.5 t-9 -32.5q-4 -16 -6.5 -29.5t-4.5 -27.5q74 0 146 -1t149 -3q12 0 27.5 -1t28 -8t20.5 -23.5t8 -47.5q0 -33 -9 -59.5t-28 -81.5q-10 -25 -25.5 -62t-39.5 -53q-8 -6 -17.5 -9t-31.5 -3q-14 0 -28.5 1t-29.5 3q-14 0 -26.5 1t-24.5 1q-55 0 -111.5 1t-113.5 1l-47 -182 q133 2 266 0q47 -2 76 -2t45 -15q6 -6 13 -21.5t7 -43.5q0 -10 -1 -15.5t-1 -13.5q-4 -23 -9 -43t-11 -43q0 -2 -3 -14.5t-9.5 -27.5t-14.5 -31.5t-20 -28.5q-29 -29 -75 -29h-130q-59 0 -116.5 -2t-119.5 0h-23.5t-40 3t-47 10t-44.5 20q-16 10 -31.5 27.5t-38.5 52.5 q-27 41 -35 67.5t-8 46.5q0 23 6 45.5t11 42.5q10 47 21 96.5t22 96.5q-43 16 -54.5 29.5t-11.5 35.5zM788 1577q0 12 14.5 26.5t33.5 30.5q23 23 45 42.5t45 41.5q29 25 59.5 50.5t61.5 50.5q4 4 25.5 18t43.5 14q6 0 25 -6q10 -4 39.5 -23.5t50.5 -54.5l8 -16t6 -27 q0 -18 -15.5 -30.5t-33.5 -22.5l-258 -164q-31 -20 -55 -20q-16 0 -29.5 11t-26.5 22q-12 10 -20 18q-18 18 -19 39z" />
<glyph unicode="&#xea;" horiz-adv-x="1024" d="M213 573q0 20 7 62.5t22 93.5q0 2 3 14.5t9 28.5t14 33.5t21 28.5q16 16 39.5 18t50.5 2l61 215q-51 2 -80.5 15.5t-29.5 41.5q0 16 5 34t13 46q4 20 9 41t12 41q31 98 63 121q23 16 56.5 15t89.5 1q35 0 68.5 1t68.5 1q92 0 185 -2t185 -4h36t50.5 -2t50 -7t35.5 -17 q8 -10 10.5 -23.5t2.5 -17.5q0 -16 -9.5 -62.5t-21.5 -89.5q-10 -43 -24.5 -72.5t-28.5 -44.5q-16 -16 -33.5 -18t-58.5 -2t-83 2t-83 4q-43 2 -85 1t-85 3q-16 0 -31.5 1t-32.5 1q-16 0 -35.5 -2t-21.5 -2q18 -10 37.5 -20.5t42.5 -20.5t37 -21.5t14 -33.5q0 -12 -5 -31.5 t-9 -32.5q-4 -16 -6.5 -29.5t-4.5 -27.5q74 0 146 -1t149 -3q12 0 27.5 -1t28 -8t20.5 -23.5t8 -47.5q0 -33 -9 -59.5t-28 -81.5q-10 -25 -25.5 -62t-39.5 -53q-8 -6 -17.5 -9t-31.5 -3q-14 0 -28.5 1t-29.5 3q-14 0 -26.5 1t-24.5 1q-55 0 -111.5 1t-113.5 1l-47 -182 q133 2 266 0q47 -2 76 -2t45 -15q6 -6 13 -21.5t7 -43.5q0 -10 -1 -15.5t-1 -13.5q-4 -23 -9 -43t-11 -43q0 -2 -3 -14.5t-9.5 -27.5t-14.5 -31.5t-20 -28.5q-29 -29 -75 -29h-130q-59 0 -116.5 -2t-119.5 0h-23.5t-40 3t-47 10t-44.5 20q-16 10 -31.5 27.5t-38.5 52.5 q-27 41 -35 67.5t-8 46.5q0 23 6 45.5t11 42.5q10 47 21 96.5t22 96.5q-43 16 -54.5 29.5t-11.5 35.5zM582 1559q0 10 4 14t16 16.5t27 24.5l243 186q23 16 45.5 28.5t49.5 12.5q33 0 50 -15.5t27 -23.5l152 -223q10 -14 13 -20.5t3 -16.5q0 -4 -2 -10t-6 -10 q-8 -12 -25.5 -22.5t-45.5 -10.5q-10 0 -21.5 1t-21.5 1q-23 0 -36.5 1t-21.5 4t-15 8t-20 16l-73 88l-140 -95q-16 -10 -28.5 -16t-30.5 -6q-12 0 -24.5 1t-26.5 3q-4 0 -22.5 2t-33.5 10q-12 6 -24 20.5t-12 31.5z" />
<glyph unicode="&#xeb;" horiz-adv-x="1024" d="M213 573q0 20 7 62.5t22 93.5q0 2 3 14.5t9 28.5t14 33.5t21 28.5q16 16 39.5 18t50.5 2l61 215q-51 2 -80.5 15.5t-29.5 41.5q0 16 5 34t13 46q4 20 9 41t12 41q31 98 63 121q23 16 56.5 15t89.5 1q35 0 68.5 1t68.5 1q92 0 185 -2t185 -4h36t50.5 -2t50 -7t35.5 -17 q8 -10 10.5 -23.5t2.5 -17.5q0 -16 -9.5 -62.5t-21.5 -89.5q-10 -43 -24.5 -72.5t-28.5 -44.5q-16 -16 -33.5 -18t-58.5 -2t-83 2t-83 4q-43 2 -85 1t-85 3q-16 0 -31.5 1t-32.5 1q-16 0 -35.5 -2t-21.5 -2q18 -10 37.5 -20.5t42.5 -20.5t37 -21.5t14 -33.5q0 -12 -5 -31.5 t-9 -32.5q-4 -16 -6.5 -29.5t-4.5 -27.5q74 0 146 -1t149 -3q12 0 27.5 -1t28 -8t20.5 -23.5t8 -47.5q0 -33 -9 -59.5t-28 -81.5q-10 -25 -25.5 -62t-39.5 -53q-8 -6 -17.5 -9t-31.5 -3q-14 0 -28.5 1t-29.5 3q-14 0 -26.5 1t-24.5 1q-55 0 -111.5 1t-113.5 1l-47 -182 q133 2 266 0q47 -2 76 -2t45 -15q6 -6 13 -21.5t7 -43.5q0 -10 -1 -15.5t-1 -13.5q-4 -23 -9 -43t-11 -43q0 -2 -3 -14.5t-9.5 -27.5t-14.5 -31.5t-20 -28.5q-29 -29 -75 -29h-130q-59 0 -116.5 -2t-119.5 0h-23.5t-40 3t-47 10t-44.5 20q-16 10 -31.5 27.5t-38.5 52.5 q-27 41 -35 67.5t-8 46.5q0 23 6 45.5t11 42.5q10 47 21 96.5t22 96.5q-43 16 -54.5 29.5t-11.5 35.5zM661 1605.5q-1 20.5 1 32.5q8 61 54 106.5t107 45.5q41 0 65.5 -29.5t24.5 -68.5q0 -18 -4 -36t-6 -22q-4 -8 -13 -27.5t-26.5 -40t-44 -35.5t-65.5 -15q-37 0 -56.5 15 t-27.5 34.5t-9 40zM956 1608.5q0 21.5 2 31.5q10 59 55.5 104.5t104.5 45.5q31 0 48.5 -13.5t26.5 -29.5t12 -31.5t3 -23.5q0 -10 -1 -21.5t-7 -30.5q-16 -51 -53 -89t-96 -38q-37 0 -57.5 15.5t-29 37t-8.5 43z" />
<glyph unicode="&#xec;" horiz-adv-x="641" d="M156 156l10 49q39 160 78 315.5t82 310.5q33 121 68.5 240t72.5 238q20 61 45 87.5t92 26.5q18 0 56 -4t85 -14q63 -14 84 -38t21 -52q0 -20 -8 -60q-84 -295 -160 -589q-35 -141 -67.5 -279.5t-65.5 -280.5q-6 -25 -15.5 -47t-25.5 -36q-16 -12 -44 -16.5t-50 -4.5 q-20 0 -54 3t-81 18q-2 0 -13.5 3t-27 8t-30.5 13t-26 21q-16 16 -22 33.5t-4 54.5zM459 1743q0 23 13 34t30 23q23 18 39 32.5t47 14.5q18 0 31.5 -7t31.5 -36l125 -207q2 -2 9.5 -17t7.5 -30q0 -14 -9 -26q-8 -16 -19 -23.5t-26 -13.5q-18 -6 -25 -9t-18 -1q-10 0 -18 4 t-25 18l-178 201q-10 14 -13 23.5t-3 19.5z" />
<glyph unicode="&#xed;" horiz-adv-x="641" d="M156 156l10 49q39 160 78 315.5t82 310.5q33 121 68.5 240t72.5 238q20 61 45 87.5t92 26.5q18 0 56 -4t85 -14q63 -14 84 -38t21 -52q0 -20 -8 -60q-84 -295 -160 -589q-35 -141 -67.5 -279.5t-65.5 -280.5q-6 -25 -15.5 -47t-25.5 -36q-16 -12 -44 -16.5t-50 -4.5 q-20 0 -54 3t-81 18q-2 0 -13.5 3t-27 8t-30.5 13t-26 21q-16 16 -22 33.5t-4 54.5zM596 1577q2 12 15.5 26.5t31.5 30.5q23 23 45.5 42.5t44.5 41.5q31 25 60.5 50.5t60.5 50.5q4 4 25.5 18t44.5 14q8 0 24 -6q12 -4 41 -23.5t49 -54.5q4 -4 9.5 -16t5.5 -27 q0 -18 -14.5 -30.5t-34.5 -22.5l-256 -164q-16 -10 -28.5 -15t-27.5 -5q-16 0 -30.5 11t-26.5 22q-12 10 -21 18q-18 18 -18 39z" />
<glyph unicode="&#xee;" horiz-adv-x="641" d="M156 156l10 49q39 160 78 315.5t82 310.5q33 121 68.5 240t72.5 238q20 61 45 87.5t92 26.5q18 0 56 -4t85 -14q63 -14 84 -38t21 -52q0 -20 -8 -60q-84 -295 -160 -589q-35 -141 -67.5 -279.5t-65.5 -280.5q-6 -25 -15.5 -47t-25.5 -36q-16 -12 -44 -16.5t-50 -4.5 q-20 0 -54 3t-81 18q-2 0 -13.5 3t-27 8t-30.5 13t-26 21q-16 16 -22 33.5t-4 54.5zM389 1559q0 6 1 8l3 6l16.5 16.5t26.5 24.5l244 186q23 16 46.5 28.5t47.5 12.5q35 0 52.5 -15.5t25.5 -23.5l154 -223q10 -14 13 -20.5t3 -16.5q0 -8 -8 -20q-10 -12 -26.5 -22.5 t-45.5 -10.5q-10 0 -21.5 1t-21.5 1q-23 0 -36 1t-21 4t-15.5 8t-19.5 16l-74 88l-139 -95q-16 -10 -29.5 -16t-32.5 -6q-12 0 -24 1t-27 3q-4 0 -21.5 2t-33.5 10q-12 6 -24.5 20.5t-12.5 31.5z" />
<glyph unicode="&#xef;" horiz-adv-x="641" d="M156 156l10 49q39 160 78 315.5t82 310.5q33 121 68.5 240t72.5 238q20 61 45 87.5t92 26.5q18 0 56 -4t85 -14q63 -14 84 -38t21 -52q0 -20 -8 -60q-84 -295 -160 -589q-35 -141 -67.5 -279.5t-65.5 -280.5q-6 -25 -15.5 -47t-25.5 -36q-16 -12 -44 -16.5t-50 -4.5 q-20 0 -54 3t-81 18q-2 0 -13.5 3t-27 8t-30.5 13t-26 21q-16 16 -22 33.5t-4 54.5zM468 1605.5q-1 20.5 1 32.5q8 61 54 106.5t108 45.5q41 0 65.5 -29.5t24.5 -68.5q0 -18 -4 -36t-6 -22q-4 -8 -13.5 -27.5t-27 -40t-44 -35.5t-63.5 -15t-57.5 15t-28.5 34.5t-9 40z M765 1608.5q-1 21.5 1 31.5q10 59 56 104.5t106 45.5q31 0 48 -13.5t26.5 -29.5t12.5 -31.5t3 -23.5q0 -10 -2 -21.5t-8 -30.5q-16 -51 -53 -89t-97 -38q-37 0 -56.5 15.5t-27.5 37t-9 43z" />
<glyph unicode="&#xf1;" horiz-adv-x="1280" d="M145 117q0 18 3.5 35.5t13.5 52.5q39 141 75.5 282.5t77.5 282.5q39 135 78 270.5t80 270.5q23 66 43.5 88t63.5 22q33 0 83 -10t117 -43q10 -4 35 -17.5t43 -37.5q16 -23 30.5 -63t35.5 -99q14 -57 24 -100t18.5 -91.5t15.5 -113t17 -162.5q14 92 29.5 180t36.5 176 q16 72 34.5 140.5t37.5 140.5q18 59 35.5 76.5t56.5 17.5q59 0 103 -16.5t63 -22.5q35 -16 55 -31.5t20 -58.5q0 -14 -6 -51q-33 -131 -64.5 -261t-66.5 -261q-37 -135 -75.5 -267.5t-79.5 -267.5q-2 -6 -6.5 -21.5t-4.5 -35.5q0 -14 4.5 -28.5t4.5 -31.5q0 -10 -2.5 -14 t-4.5 -8q-8 -12 -32.5 -25.5t-63.5 -13.5q-18 0 -32.5 2t-45.5 6q-20 2 -46.5 7t-53.5 13.5t-50.5 20.5t-37.5 31q-10 10 -17.5 26.5t-13.5 49.5q-16 94 -33.5 188t-31.5 188q-12 78 -21.5 158t-19.5 158q-10 -63 -20.5 -124.5t-24.5 -125.5q-14 -66 -32 -130.5t-34 -129.5 q-16 -59 -30.5 -119.5t-30.5 -120.5q-2 -10 -7.5 -27.5t-17.5 -32.5t-32.5 -26.5t-53.5 -11.5q-14 0 -68.5 7t-107.5 30q-29 14 -47.5 30.5t-18.5 49.5zM766 1583q0 10 8 33q29 61 83 98t114 37q33 0 62.5 -9t37.5 -13q25 -10 47.5 -20.5t46.5 -10.5q8 0 21.5 3t32.5 15 q14 8 25 18.5t24 10.5q14 0 45 -23q6 -4 19.5 -15t13.5 -28q-2 -16 -14.5 -35.5t-22.5 -29.5q-6 -8 -20.5 -24.5t-35 -32t-48 -26.5t-64.5 -11q-29 0 -50.5 7t-31.5 11q-29 10 -52.5 22.5t-56.5 12.5q-23 0 -36 -6t-21 -13q-14 -10 -26.5 -21t-26.5 -11q-10 0 -18.5 6 t-26.5 18q-14 10 -21.5 17.5t-7.5 19.5z" />
<glyph unicode="&#xf2;" d="M207 502q0 63 9 122.5t21.5 109.5t25.5 88t20 57q8 25 31.5 82t64.5 126.5t101.5 141t144.5 127.5q53 35 96 51t65 25q31 10 56.5 14t36.5 4q4 0 28.5 -4t38.5 -21q4 -4 6 -10t2 -20q0 -18 -5 -52t-13 -75q27 23 52.5 43t49.5 43q29 25 56.5 48t66.5 23q41 0 60.5 -30.5 t33.5 -67.5q18 -45 37 -113.5t19 -181.5q0 -78 -12.5 -166t-34 -177t-51 -173t-64.5 -151q-37 -74 -71 -118t-58 -73l-50 -50t-85 -66.5t-118 -57.5t-149 -25q-23 0 -52 3.5t-64 15.5t-73 35.5t-77 64.5q-23 25 -48 62t-46.5 88t-36 114.5t-14.5 143.5zM575 522 q0 -33 7.5 -64.5t29.5 -62.5q25 -35 58 -35q27 0 50 15.5t40.5 34t27.5 34.5l11 15q35 57 61.5 125.5t44 140.5t25.5 145.5t8 139.5q0 49 -5.5 84t-19.5 80q-10 -25 -16 -40.5t-12 -26.5t-14.5 -19.5t-20.5 -16.5q-20 -12 -43 -25.5t-53 -48.5q-39 -43 -67 -91t-48 -101 q-10 -25 -21.5 -61.5t-20.5 -76.5t-15.5 -79t-6.5 -66zM715 1743q0 23 13 34t30 23q23 18 39 32.5t47 14.5q18 0 31.5 -7t31.5 -36l125 -207q2 -2 9.5 -17t7.5 -30q0 -14 -9 -26q-8 -16 -19 -23.5t-26 -13.5q-18 -6 -25 -9t-18 -1q-10 0 -18 4t-25 18l-178 201 q-10 14 -13 23.5t-3 19.5z" />
<glyph unicode="&#xf3;" d="M207 502q0 63 9 122.5t21.5 109.5t25.5 88t20 57q8 25 31.5 82t64.5 126.5t101.5 141t144.5 127.5q53 35 96 51t65 25q31 10 56.5 14t36.5 4q4 0 28.5 -4t38.5 -21q4 -4 6 -10t2 -20q0 -18 -5 -52t-13 -75q27 23 52.5 43t49.5 43q29 25 56.5 48t66.5 23q41 0 60.5 -30.5 t33.5 -67.5q18 -45 37 -113.5t19 -181.5q0 -78 -12.5 -166t-34 -177t-51 -173t-64.5 -151q-37 -74 -71 -118t-58 -73l-50 -50t-85 -66.5t-118 -57.5t-149 -25q-23 0 -52 3.5t-64 15.5t-73 35.5t-77 64.5q-23 25 -48 62t-46.5 88t-36 114.5t-14.5 143.5zM575 522 q0 -33 7.5 -64.5t29.5 -62.5q25 -35 58 -35q27 0 50 15.5t40.5 34t27.5 34.5l11 15q35 57 61.5 125.5t44 140.5t25.5 145.5t8 139.5q0 49 -5.5 84t-19.5 80q-10 -25 -16 -40.5t-12 -26.5t-14.5 -19.5t-20.5 -16.5q-20 -12 -43 -25.5t-53 -48.5q-39 -43 -67 -91t-48 -101 q-10 -25 -21.5 -61.5t-20.5 -76.5t-15.5 -79t-6.5 -66zM852 1577q2 12 15.5 26.5t31.5 30.5q23 23 45.5 42.5t44.5 41.5q31 25 60.5 50.5t60.5 50.5q4 4 25.5 18t44.5 14q8 0 24 -6q10 -4 40 -23.5t50 -54.5q4 -4 9.5 -16t5.5 -27q0 -18 -14.5 -30.5t-34.5 -22.5l-256 -164 q-16 -10 -28.5 -15t-27.5 -5q-16 0 -30.5 11t-26.5 22q-12 10 -21 18q-18 18 -18 39z" />
<glyph unicode="&#xf4;" d="M207 502q0 63 9 122.5t21.5 109.5t25.5 88t20 57q8 25 31.5 82t64.5 126.5t101.5 141t144.5 127.5q53 35 96 51t65 25q31 10 56.5 14t36.5 4q4 0 28.5 -4t38.5 -21q4 -4 6 -10t2 -20q0 -18 -5 -52t-13 -75q27 23 52.5 43t49.5 43q29 25 56.5 48t66.5 23q41 0 60.5 -30.5 t33.5 -67.5q18 -45 37 -113.5t19 -181.5q0 -78 -12.5 -166t-34 -177t-51 -173t-64.5 -151q-37 -74 -71 -118t-58 -73l-50 -50t-85 -66.5t-118 -57.5t-149 -25q-23 0 -52 3.5t-64 15.5t-73 35.5t-77 64.5q-23 25 -48 62t-46.5 88t-36 114.5t-14.5 143.5zM575 522 q0 -33 7.5 -64.5t29.5 -62.5q25 -35 58 -35q27 0 50 15.5t40.5 34t27.5 34.5l11 15q35 57 61.5 125.5t44 140.5t25.5 145.5t8 139.5q0 49 -5.5 84t-19.5 80q-10 -25 -16 -40.5t-12 -26.5t-14.5 -19.5t-20.5 -16.5q-20 -12 -43 -25.5t-53 -48.5q-39 -43 -67 -91t-48 -101 q-10 -25 -21.5 -61.5t-20.5 -76.5t-15.5 -79t-6.5 -66zM645 1559q0 6 1 8l3 6l16.5 16.5t26.5 24.5l244 186q23 16 45.5 28.5t48.5 12.5q35 0 52.5 -15.5t25.5 -23.5l154 -223q10 -14 13 -20.5t3 -16.5q0 -8 -8 -20q-10 -12 -26.5 -22.5t-45.5 -10.5q-10 0 -21.5 1t-21.5 1 q-23 0 -36 1t-22.5 4t-16.5 8t-19 16l-72 88l-139 -95q-16 -10 -29.5 -16t-32.5 -6q-12 0 -24 1t-27 3q-4 0 -21.5 2t-33.5 10q-12 6 -24.5 20.5t-12.5 31.5z" />
<glyph unicode="&#xf5;" d="M207 502q0 63 9 122.5t21.5 109.5t25.5 88t20 57q8 25 31.5 82t64.5 126.5t101.5 141t144.5 127.5q53 35 96 51t65 25q31 10 56.5 14t36.5 4q4 0 28.5 -4t38.5 -21q4 -4 6 -10t2 -20q0 -18 -5 -52t-13 -75q27 23 52.5 43t49.5 43q29 25 56.5 48t66.5 23q41 0 60.5 -30.5 t33.5 -67.5q18 -45 37 -113.5t19 -181.5q0 -78 -12.5 -166t-34 -177t-51 -173t-64.5 -151q-37 -74 -71 -118t-58 -73l-50 -50t-85 -66.5t-118 -57.5t-149 -25q-23 0 -52 3.5t-64 15.5t-73 35.5t-77 64.5q-23 25 -48 62t-46.5 88t-36 114.5t-14.5 143.5zM575 522 q0 -33 7.5 -64.5t29.5 -62.5q25 -35 58 -35q27 0 50 15.5t40.5 34t27.5 34.5l11 15q35 57 61.5 125.5t44 140.5t25.5 145.5t8 139.5q0 49 -5.5 84t-19.5 80q-10 -25 -16 -40.5t-12 -26.5t-14.5 -19.5t-20.5 -16.5q-20 -12 -43 -25.5t-53 -48.5q-39 -43 -67 -91t-48 -101 q-10 -25 -21.5 -61.5t-20.5 -76.5t-15.5 -79t-6.5 -66zM700 1583q2 4 3.5 12.5t7.5 20.5q29 61 83 98t113 37q33 0 62.5 -9t38.5 -13q23 -10 46 -20.5t48 -10.5q6 0 20.5 3t32.5 15q12 8 24.5 18.5t24.5 10.5q14 0 45 -23q4 -4 17.5 -15t13.5 -28q0 -16 -13.5 -35.5 t-21.5 -29.5q-6 -8 -20.5 -24.5t-35 -32t-48 -26.5t-64.5 -11q-29 0 -50 7t-32 11q-29 10 -52 22.5t-56 12.5q-23 0 -36 -6t-22 -13q-14 -10 -27.5 -21t-27.5 -11q-8 0 -17 6t-28 18q-12 10 -20.5 17.5t-8.5 19.5z" />
<glyph unicode="&#xf6;" d="M207 502q0 63 9 122.5t21.5 109.5t25.5 88t20 57q8 25 31.5 82t64.5 126.5t101.5 141t144.5 127.5q53 35 96 51t65 25q31 10 56.5 14t36.5 4q4 0 28.5 -4t38.5 -21q4 -4 6 -10t2 -20q0 -18 -5 -52t-13 -75q27 23 52.5 43t49.5 43q29 25 56.5 48t66.5 23q41 0 60.5 -30.5 t33.5 -67.5q18 -45 37 -113.5t19 -181.5q0 -78 -12.5 -166t-34 -177t-51 -173t-64.5 -151q-37 -74 -71 -118t-58 -73l-50 -50t-85 -66.5t-118 -57.5t-149 -25q-23 0 -52 3.5t-64 15.5t-73 35.5t-77 64.5q-23 25 -48 62t-46.5 88t-36 114.5t-14.5 143.5zM575 522 q0 -33 7.5 -64.5t29.5 -62.5q25 -35 58 -35q27 0 50 15.5t40.5 34t27.5 34.5l11 15q35 57 61.5 125.5t44 140.5t25.5 145.5t8 139.5q0 49 -5.5 84t-19.5 80q-10 -25 -16 -40.5t-12 -26.5t-14.5 -19.5t-20.5 -16.5q-20 -12 -43 -25.5t-53 -48.5q-39 -43 -67 -91t-48 -101 q-10 -25 -21.5 -61.5t-20.5 -76.5t-15.5 -79t-6.5 -66zM748 1638q4 23 13 41.5t13 22.5q4 6 14.5 20.5t26.5 27.5t39 23.5t51 10.5q41 0 65.5 -30t24.5 -71q0 -8 -2 -24.5t-10 -38.5q-16 -47 -52 -80t-87 -33q-59 0 -83.5 39t-12.5 92zM1040 1636q10 59 54.5 102.5 t103.5 43.5q41 0 66.5 -29t25.5 -70q0 -23 -4 -37t-6 -22q-16 -47 -54 -83t-91 -36q-57 0 -81 39t-14 92z" />
<glyph unicode="&#xf8;" d="M219 502q0 57 5 98t9 62q14 86 37 161.5t48.5 137t50 106.5t43.5 72q20 31 48.5 63.5t60.5 64t66 59.5t64 46q20 12 49 26.5t78 31.5q31 10 51.5 14t34.5 4q4 0 31 -4t41 -27q4 -10 4 -28q0 -41 -8 -79t-10 -46q29 25 57.5 49t56.5 53q25 25 48.5 45.5t58.5 20.5 q25 0 41 -9.5t26.5 -21.5t15.5 -24.5t9 -18.5q14 16 27.5 33.5t27.5 35.5q18 23 37 40.5t51 17.5q39 0 70 -24.5t31 -59.5q0 -25 -13.5 -42.5t-27.5 -33.5q-10 -14 -21.5 -28.5t-21.5 -28.5q-23 -31 -47.5 -60.5t-49.5 -60.5q2 -43 4.5 -86t2.5 -86q0 -33 -2.5 -75 t-12.5 -109q-4 -20 -15 -79t-33.5 -135.5t-58.5 -161.5t-85 -159q-16 -23 -53 -70t-97 -94q-94 -76 -166.5 -95.5t-126.5 -19.5q-29 0 -57.5 5.5t-81.5 17.5q-16 -18 -30.5 -36.5t-28.5 -39.5q-23 -29 -43.5 -50t-61.5 -21q-35 0 -65.5 21.5t-30.5 57.5q0 16 8 33t21 33 q18 27 37.5 51.5t37.5 50.5q-25 31 -49 66t-44.5 81t-34 108.5t-13.5 146.5zM588 516q0 -76 30.5 -117t65.5 -41q16 0 29.5 5.5t17.5 7.5q23 12 41.5 30.5t42.5 61.5q31 51 53.5 116.5t38 135t23.5 138.5t8 130q0 39 -3 67.5t-7 50t-11.5 40.5t-13.5 37q-14 -47 -21.5 -69 t-29.5 -38q-23 -14 -40 -23.5t-46 -41.5q-23 -23 -57.5 -73t-61.5 -128q0 -2 -10 -33t-20.5 -74t-19.5 -93t-9 -89z" />
<glyph unicode="&#xf9;" d="M217 395q0 18 1 34.5t4 35t8.5 42t13.5 56.5l207 778q6 29 14 41q20 31 53 35t41 4q76 0 121 -10t76 -25q10 -4 28.5 -15t16.5 -42q0 -12 -2 -21.5t-8 -29.5l-205 -772q-2 -4 -5 -21.5t-3 -33.5q0 -6 1 -14.5t5 -18.5q10 -25 32.5 -42.5t47.5 -17.5q10 0 23 4.5t32 18.5 q35 29 49 63.5t25 69.5l239 797q10 33 17 39q8 14 23 22t30.5 11t27 4.5t13.5 1.5q12 0 55 -5.5t84 -15.5q25 -4 44.5 -11t31.5 -32q4 -4 7 -14.5t3 -26.5q0 -18 -5 -37.5t-5 -23.5q-25 -82 -49.5 -163t-46.5 -163q-16 -59 -33 -118.5t-33 -119.5q-16 -53 -33.5 -108 t-36.5 -111q-16 -41 -34.5 -86t-41 -91t-49 -88t-57.5 -75q-16 -16 -47 -40.5t-84 -45.5q-59 -23 -104 -26.5t-70 -3.5t-81 6t-118 35q-109 49 -166 150t-57 220zM715 1743q0 23 13 34t30 23q23 18 39 32.5t47 14.5q18 0 31.5 -7t31.5 -36l125 -207q2 -2 9.5 -17t7.5 -30 q0 -14 -9 -26q-8 -16 -19 -23.5t-26 -13.5q-18 -6 -25 -9t-18 -1q-10 0 -18 4t-25 18l-178 201q-10 14 -13 23.5t-3 19.5z" />
<glyph unicode="&#xfa;" d="M217 395q0 18 1 34.5t4 35t8.5 42t13.5 56.5l207 778q6 29 14 41q20 31 53 35t41 4q76 0 121 -10t76 -25q10 -4 28.5 -15t16.5 -42q0 -12 -2 -21.5t-8 -29.5l-205 -772q-2 -4 -5 -21.5t-3 -33.5q0 -6 1 -14.5t5 -18.5q10 -25 32.5 -42.5t47.5 -17.5q10 0 23 4.5t32 18.5 q35 29 49 63.5t25 69.5l239 797q10 33 17 39q8 14 23 22t30.5 11t27 4.5t13.5 1.5q12 0 55 -5.5t84 -15.5q25 -4 44.5 -11t31.5 -32q4 -4 7 -14.5t3 -26.5q0 -18 -5 -37.5t-5 -23.5q-25 -82 -49.5 -163t-46.5 -163q-16 -59 -33 -118.5t-33 -119.5q-16 -53 -33.5 -108 t-36.5 -111q-16 -41 -34.5 -86t-41 -91t-49 -88t-57.5 -75q-16 -16 -47 -40.5t-84 -45.5q-59 -23 -104 -26.5t-70 -3.5t-81 6t-118 35q-109 49 -166 150t-57 220zM852 1577q2 12 15.5 26.5t31.5 30.5q23 23 45.5 42.5t44.5 41.5q31 25 60.5 50.5t60.5 50.5q4 4 25.5 18 t44.5 14q8 0 24 -6q10 -4 40 -23.5t50 -54.5q4 -4 9.5 -16t5.5 -27q0 -18 -14.5 -30.5t-34.5 -22.5l-256 -164q-16 -10 -28.5 -15t-27.5 -5q-16 0 -30.5 11t-26.5 22q-12 10 -21 18q-18 18 -18 39z" />
<glyph unicode="&#xfb;" d="M217 395q0 18 1 34.5t4 35t8.5 42t13.5 56.5l207 778q6 29 14 41q20 31 53 35t41 4q76 0 121 -10t76 -25q10 -4 28.5 -15t16.5 -42q0 -12 -2 -21.5t-8 -29.5l-205 -772q-2 -4 -5 -21.5t-3 -33.5q0 -6 1 -14.5t5 -18.5q10 -25 32.5 -42.5t47.5 -17.5q10 0 23 4.5t32 18.5 q35 29 49 63.5t25 69.5l239 797q10 33 17 39q8 14 23 22t30.5 11t27 4.5t13.5 1.5q12 0 55 -5.5t84 -15.5q25 -4 44.5 -11t31.5 -32q4 -4 7 -14.5t3 -26.5q0 -18 -5 -37.5t-5 -23.5q-25 -82 -49.5 -163t-46.5 -163q-16 -59 -33 -118.5t-33 -119.5q-16 -53 -33.5 -108 t-36.5 -111q-16 -41 -34.5 -86t-41 -91t-49 -88t-57.5 -75q-16 -16 -47 -40.5t-84 -45.5q-59 -23 -104 -26.5t-70 -3.5t-81 6t-118 35q-109 49 -166 150t-57 220zM645 1559q0 6 1 8l3 6l16.5 16.5t26.5 24.5l244 186q23 16 45.5 28.5t48.5 12.5q35 0 52.5 -15.5t25.5 -23.5 l154 -223q10 -14 13 -20.5t3 -16.5q0 -8 -8 -20q-10 -12 -26.5 -22.5t-45.5 -10.5q-10 0 -21.5 1t-21.5 1q-23 0 -36 1t-22.5 4t-16.5 8t-19 16l-72 88l-139 -95q-16 -10 -29.5 -16t-32.5 -6q-12 0 -24 1t-27 3q-4 0 -21.5 2t-33.5 10q-12 6 -24.5 20.5t-12.5 31.5z" />
<glyph unicode="&#xfc;" d="M217 387q0 20 1 39.5t5 41t9.5 49.5t15.5 65l203 757q18 51 37.5 66.5t72.5 15.5q39 0 65.5 -2t46 -7t36 -11t36.5 -12q25 -8 40.5 -18.5t15.5 -39.5q0 -14 -3 -25.5t-7 -25.5l-199 -741q-6 -33 -10 -56.5t-4 -38.5q0 -33 26.5 -59.5t61.5 -26.5q33 0 55 21.5t38.5 50.5 t27 60.5t16.5 52.5l229 764q6 27 10 36q10 16 34 31t65 15q14 0 41.5 -3.5t57.5 -7.5t55.5 -11t37.5 -15q10 -8 22.5 -24.5t12.5 -45.5q-2 -10 -3 -23.5t-7 -35.5q-25 -84 -49.5 -165t-46.5 -165q-18 -66 -36 -129.5t-38 -128.5q-29 -102 -68 -211q-16 -39 -35.5 -86 t-44 -93t-52 -88t-58.5 -73q-16 -14 -41 -31.5t-60.5 -33t-82 -25.5t-103.5 -10q-76 0 -145.5 20.5t-126.5 63.5q-20 14 -47 40.5t-50.5 66.5t-40 92t-16.5 120zM737 1615q0 22 2 32q6 27 20.5 53t36 45.5t49 32t56.5 12.5q31 0 48.5 -13.5t26.5 -29.5t12 -32.5t3 -24.5 q0 -10 -2 -24.5t-10 -37.5q-4 -8 -13.5 -27.5t-25.5 -39t-43 -34t-63 -14.5q-41 0 -60.5 17.5t-28 40t-8.5 44.5zM1032 1636q2 27 21 56q2 4 12 20.5t28.5 33.5t43 30.5t55.5 13.5q45 -2 67.5 -30.5t22.5 -69.5q0 -31 -12.5 -64t-34 -58.5t-50 -42t-61.5 -16.5 q-51 0 -74.5 40t-17.5 87z" />
<glyph unicode="&#xff;" horiz-adv-x="980" d="M291 109q0 23 11 46t11 25l158 334q-12 72 -24.5 145.5t-26.5 145.5q-10 59 -21.5 118.5t-21.5 118.5q-10 66 -19.5 132.5t-19.5 132.5q-6 53 -2 74.5t37 35.5q29 10 67 10q25 0 50.5 -3t52.5 -7q43 -4 65.5 -14t36.5 -27q12 -14 16.5 -29.5t6.5 -35.5q10 -68 16 -113 t9 -86t4 -87t1 -114q29 70 56.5 138.5t58.5 136.5q18 41 37.5 79t38.5 78q29 53 53.5 67.5t58.5 14.5q29 0 59 -1t83 -15q18 -4 29.5 -7t19.5 -7q10 -6 30.5 -24.5t20.5 -51.5q0 -23 -12 -48.5t-14 -31.5q-31 -66 -62 -131.5t-63 -130.5q-49 -100 -100.5 -199.5 t-100.5 -199.5q-61 -123 -120.5 -245t-119.5 -245q-23 -41 -44 -63.5t-66 -22.5q-10 0 -32 2t-48.5 7t-56 14.5t-56.5 23.5q-35 16 -46 27.5t-11 32.5zM607 1605.5q-1 20.5 1 32.5q8 61 54.5 106.5t107.5 45.5q41 0 65.5 -29.5t24.5 -68.5q0 -18 -4 -36t-6 -22 q-4 -8 -13.5 -27.5t-26.5 -40t-44 -35.5t-66 -15q-37 0 -56 15t-27.5 34.5t-9.5 40zM903 1608.5q0 21.5 2 31.5q10 59 55.5 104.5t104.5 45.5q31 0 48 -13.5t26.5 -29.5t12.5 -31.5t3 -23.5q0 -10 -1 -21.5t-7 -30.5q-16 -51 -53 -89t-97 -38q-37 0 -57 15.5t-28.5 37 t-8.5 43z" />
<glyph unicode="&#x152;" horiz-adv-x="1579" d="M231 520.5q0 57.5 2 118.5q10 70 19.5 118t23 91t32 89t46.5 112q12 23 24.5 44t27.5 44q12 20 37.5 57t64.5 77t93 79t124 65q2 0 17.5 5t37 11.5t45 10.5t45.5 4q53 0 66.5 -19.5t13.5 -44.5q0 -29 -8 -61.5t-8 -34.5q16 14 33.5 28.5t33.5 31.5q27 25 39.5 36t28.5 21 q18 10 43 15t29 7h561q47 -2 66.5 -9t29.5 -25q4 -6 7 -15.5t3 -25.5q0 -18 -5 -38t-9 -38q-8 -31 -12 -53.5t-25 -67.5q-4 -14 -11 -28.5t-17 -24.5q-12 -10 -33 -14.5t-25 -4.5q-78 2 -156.5 3t-156.5 -3q-47 0 -92 -2t-90 -6q16 -8 32.5 -14t32.5 -15q33 -14 52.5 -28.5 t19.5 -48.5q0 -6 -2 -22.5t-5 -33t-6.5 -32t-5.5 -21.5h279q29 0 50.5 -4t33.5 -23q8 -12 9 -23t1 -15q0 -8 -2 -17.5t-4 -19.5t-4 -23q-6 -33 -11.5 -53.5t-10.5 -35.5t-10 -27.5t-13 -30.5q-16 -37 -27.5 -48.5t-46.5 -23.5h-342l-39 -186l293 6q51 0 75.5 -13.5 t24.5 -68.5q0 -31 -6 -60.5t-16 -60.5q-12 -47 -22.5 -67.5t-28.5 -36.5q-16 -16 -34 -18.5t-44 -2.5q-61 -4 -124 -6t-126 -2q-39 0 -76 1t-76 3q-23 2 -38 4t-28 7t-26.5 13.5t-32.5 20.5q-29 -16 -80 -41.5t-135 -25.5q-29 0 -72.5 7t-92 29.5t-97.5 63.5t-88 110 q-31 55 -47 108.5t-22.5 109t-6.5 113zM594 545q0 -39 5 -61.5t11 -39.5l7.5 -15t15.5 -23.5t25.5 -21.5t33.5 -9q14 0 29.5 6t28.5 16q37 25 73.5 83.5t65.5 156.5q6 14 15 48t19.5 79t17.5 98t7 109q0 61 -9.5 113.5t-23.5 113.5q-12 -49 -24 -69.5t-31 -36.5 q-14 -10 -27.5 -19.5t-25.5 -19.5q-18 -16 -47 -46t-58 -79q-23 -39 -42 -87t-34.5 -98.5t-23.5 -101.5t-8 -96z" />
<glyph unicode="&#x153;" horiz-adv-x="1579" d="M233 639q10 70 19.5 118t23 91t32 89t46.5 112q14 25 27.5 49t30.5 47q14 20 38.5 56t62.5 75t90 77t122 62q2 0 17.5 5t36 11.5t44 10.5t45.5 4q53 0 70 -21q4 -4 8 -14t4 -29q-2 -31 -9 -62.5t-7 -33.5q18 16 35.5 30.5t34.5 31.5q12 10 26 24t29 25q23 16 48.5 21 t33.5 7h561q29 0 53.5 -4t40.5 -26q4 -8 8 -19.5t4 -27.5t-4 -32l-8 -32q-8 -29 -13 -56.5t-26 -76.5q-20 -43 -28 -49q-10 -10 -25.5 -13.5t-32.5 -7.5q-78 2 -157.5 3t-157.5 -3q-45 -2 -90 -3t-90 -5q16 -6 31.5 -13t31.5 -13q33 -14 53.5 -30t20.5 -50q0 -12 -5 -43 t-14 -66h279q37 2 54.5 -3t27.5 -21q10 -14 11 -25.5t1 -17.5q0 -16 -2 -24.5t-8 -35.5q-6 -29 -14.5 -62.5t-32.5 -88.5q-14 -33 -26.5 -43.5t-45.5 -22.5h-342l-39 -186l293 6q51 0 75.5 -13.5t24.5 -74.5v-15.5t-2 -21.5q-2 -8 -6 -26.5t-10 -40t-12.5 -40t-8.5 -24.5 q-23 -55 -54.5 -63.5t-57.5 -8.5q-61 -4 -124 -6t-126 -2q-37 0 -75 1t-77 3q-23 2 -38 4t-28 7t-26.5 13.5t-32.5 20.5q-27 -16 -79 -41.5t-136 -25.5q-74 0 -146.5 28.5t-125.5 79.5q-49 49 -84 111q-57 109 -64.5 217t-3.5 223zM594 547q0 -8 1 -35t11 -55 q10 -29 30.5 -55.5t53.5 -26.5q18 0 35.5 8t22.5 12q39 25 65.5 70t42.5 82q8 16 23.5 58t31 100.5t26.5 126t11 137.5q0 63 -9.5 115.5t-23.5 113.5q-14 -51 -25 -70.5t-32 -35.5q-14 -10 -27.5 -20.5t-25.5 -20.5q-20 -16 -49 -46t-58 -83q-23 -39 -41 -86.5t-32.5 -96.5 t-22.5 -99t-8 -93z" />
<glyph unicode="&#x178;" horiz-adv-x="980" d="M291 109q0 25 22 71l158 334q-10 72 -22.5 140.5t-24.5 138.5q-12 63 -24.5 124.5t-22.5 124.5q-10 66 -19.5 131.5t-19.5 133.5q-10 63 4 88q12 20 42 26t54 6q20 0 53 -3t54 -7q29 -4 56.5 -12t45.5 -31q10 -14 13.5 -29.5t7.5 -33.5q10 -68 16 -112t9 -85t4 -87 t1 -116q27 68 54.5 134.5t58.5 132.5q18 41 37.5 83t40.5 82q20 39 42.5 60.5t69.5 21.5q31 0 51.5 -1t36 -3t27.5 -5t27 -7q10 -2 24.5 -6t22.5 -8q10 -4 30.5 -22.5t20.5 -51.5q0 -18 -7 -39.5t-17 -42.5q-29 -63 -60 -126.5t-63 -129.5q-49 -100 -99.5 -199.5 t-101.5 -199.5q-121 -246 -242 -496q-16 -29 -29.5 -45t-25.5 -25.5t-25.5 -12.5t-29.5 -3q-23 0 -80.5 9t-114.5 38q-35 16 -45 28.5t-10 31.5zM607 1607.5q-1 20.5 1 30.5q0 10 5 30t20 40q23 35 58.5 58.5t78.5 23.5q41 0 65.5 -28.5t24.5 -69.5q0 -20 -4 -37t-8 -23 q-16 -47 -54 -81.5t-92 -34.5q-37 0 -57 15t-28.5 35.5t-9.5 41zM903 1608.5q0 21.5 2 31.5q8 59 52 104.5t108 45.5q31 0 48 -13.5t26.5 -29.5t12.5 -31.5t3 -23.5q0 -10 -2 -23.5t-8 -34.5q-4 -8 -13.5 -28.5t-27 -41t-44 -36t-65.5 -15.5q-37 0 -56 16.5t-27.5 37 t-8.5 42z" />
<glyph unicode="&#x2c6;" horiz-adv-x="641" d="M176 1559q0 6 1 8l3 6l16.5 16.5t26.5 24.5l244 186q23 16 45.5 28.5t48.5 12.5q33 0 50.5 -15.5t27.5 -23.5l152 -223q10 -14 13 -20.5t3 -16.5q0 -4 -1 -10t-5 -10q-10 -12 -26.5 -22.5t-45.5 -10.5q-10 0 -22.5 1t-22.5 1q-23 0 -36 1t-21.5 4t-15.5 8t-19 16l-74 88 l-139 -95q-16 -10 -28.5 -16t-31.5 -6q-12 0 -24 1t-27 3q-4 0 -21.5 2t-33.5 10q-12 6 -24.5 20.5t-12.5 31.5z" />
<glyph unicode="&#x2dc;" horiz-adv-x="641" d="M231 1583q1 13 11 33q29 61 83 98t113 37q33 0 62.5 -9t38.5 -13q23 -10 46 -20.5t46 -10.5q8 0 22.5 3t32.5 15q12 8 23.5 18.5t25.5 10.5q10 0 45 -23q4 -4 17.5 -15t13.5 -28q0 -16 -13.5 -35.5t-21.5 -29.5q-6 -8 -20.5 -24.5t-35 -32t-48 -26.5t-64.5 -11 q-29 0 -51 7t-33 11q-29 10 -52 22.5t-56 12.5q-20 0 -33.5 -6t-22.5 -13q-16 -10 -28.5 -21t-26.5 -11q-8 0 -17 6t-28 18q-12 10 -20.5 17.5t-8.5 19.5z" />
<glyph unicode="&#x2000;" horiz-adv-x="955" />
<glyph unicode="&#x2001;" horiz-adv-x="1911" />
<glyph unicode="&#x2002;" horiz-adv-x="955" />
<glyph unicode="&#x2003;" horiz-adv-x="1911" />
<glyph unicode="&#x2004;" horiz-adv-x="637" />
<glyph unicode="&#x2005;" horiz-adv-x="477" />
<glyph unicode="&#x2006;" horiz-adv-x="318" />
<glyph unicode="&#x2007;" horiz-adv-x="318" />
<glyph unicode="&#x2008;" horiz-adv-x="238" />
<glyph unicode="&#x2009;" horiz-adv-x="382" />
<glyph unicode="&#x200a;" horiz-adv-x="106" />
<glyph unicode="&#x2010;" horiz-adv-x="937" d="M182 512q2 31 10.5 60.5t30.5 86.5q10 23 21.5 43.5t27.5 36.5q25 23 49.5 26t36.5 3h590q47 -4 69.5 -16.5t22.5 -63.5q0 -53 -16 -93t-23 -50q-10 -25 -22 -51q0 -2 -6 -12.5t-15.5 -23t-22.5 -24.5t-28 -18q-8 -2 -19 -3t-32 -3h-569q-10 2 -18.5 2t-18.5 4 q-23 4 -45.5 21.5t-22.5 74.5z" />
<glyph unicode="&#x2011;" horiz-adv-x="937" d="M182 512q2 31 10.5 60.5t30.5 86.5q10 23 21.5 43.5t27.5 36.5q25 23 49.5 26t36.5 3h590q47 -4 69.5 -16.5t22.5 -63.5q0 -53 -16 -93t-23 -50q-10 -25 -22 -51q0 -2 -6 -12.5t-15.5 -23t-22.5 -24.5t-28 -18q-8 -2 -19 -3t-32 -3h-569q-10 2 -18.5 2t-18.5 4 q-23 4 -45.5 21.5t-22.5 74.5z" />
<glyph unicode="&#x2012;" horiz-adv-x="937" d="M182 512q2 31 10.5 60.5t30.5 86.5q10 23 21.5 43.5t27.5 36.5q25 23 49.5 26t36.5 3h590q47 -4 69.5 -16.5t22.5 -63.5q0 -53 -16 -93t-23 -50q-10 -25 -22 -51q0 -2 -6 -12.5t-15.5 -23t-22.5 -24.5t-28 -18q-8 -2 -19 -3t-32 -3h-569q-10 2 -18.5 2t-18.5 4 q-23 4 -45.5 21.5t-22.5 74.5z" />
<glyph unicode="&#x2013;" horiz-adv-x="1067" d="M193 578q2 10 4 27.5t16 35.5q18 29 47 35t66 6h764q25 0 43 -3t28 -24q10 -25 6 -37q0 -10 -2 -22t-8 -33q-16 -41 -38.5 -51t-67.5 -12h-750h-20.5t-20.5 2q-8 0 -19.5 3t-22.5 11t-18 22.5t-7 39.5z" />
<glyph unicode="&#x2014;" horiz-adv-x="1110" d="M217 563q0 29 11.5 73t33.5 62q12 10 29.5 14.5t54.5 6.5h782q35 -2 57.5 -7t35.5 -36q8 -16 8 -29.5v-21.5q0 -25 -5 -47.5t-10 -30.5q-8 -27 -14 -39t-16 -21q-10 -8 -25.5 -13t-48.5 -9h-797q-33 2 -48 6t-25 14q-14 12 -18.5 34t-4.5 44z" />
<glyph unicode="&#x2018;" horiz-adv-x="425" d="M307 863q-2 9 4 36q31 82 53.5 136.5t41 95t36 76.5t39.5 79q16 31 36 62.5t44 54.5q12 10 25.5 17t29.5 5q4 0 21.5 -5t28.5 -25q4 -8 4 -16.5v-12.5v-27.5t-2 -29.5q-6 -51 -13.5 -101.5t-15.5 -99.5q-8 -41 -15.5 -82t-17.5 -82q-6 -29 -12 -50.5t-23.5 -36.5 t-47 -23.5t-81.5 -8.5q-49 0 -77.5 3t-45.5 16q-10 10 -12 19z" />
<glyph unicode="&#x2019;" horiz-adv-x="425" d="M337 867q-3 19 1 42q4 45 9 88t13 88q10 59 22.5 120t27.5 122q18 57 35.5 73.5t46.5 20.5q4 0 20 1t33.5 2t32 1h18.5h22.5t36.5 -4q20 -4 33.5 -12t13.5 -29q0 -16 -6 -31.5t-8 -19.5q-33 -88 -57.5 -147.5t-46 -104.5t-44 -83t-48.5 -85l-3.5 -7t-5.5 -7 q0 -2 -7 -13.5t-19.5 -24.5t-28.5 -23.5t-37 -10.5q-16 0 -31 11q-20 14 -23 33z" />
<glyph unicode="&#x201a;" horiz-adv-x="425" d="M47 -219q6 53 13.5 106.5t15.5 106.5l20 98t21 98q4 23 7 32t9 20q12 23 29.5 34t36 15t34 4h21.5q16 0 29.5 1t27.5 1q10 0 33 -1t47 -11q6 -4 16.5 -10.5t10.5 -22.5q0 -14 -7.5 -31.5t-9.5 -21.5q-16 -41 -31.5 -80t-33.5 -80q-23 -47 -46.5 -96t-47.5 -97 q-14 -27 -29.5 -51t-32.5 -49q-14 -20 -30.5 -33.5t-40.5 -13.5q-6 0 -15.5 1t-19.5 7q-20 10 -23.5 30.5t-3.5 43.5z" />
<glyph unicode="&#x201c;" horiz-adv-x="854" d="M315 877q0 8 3.5 17t5.5 11q12 33 24 64.5t27 66.5q10 27 22.5 52.5t24.5 52.5q16 33 32.5 64.5t32.5 62.5q10 16 19.5 33.5t19.5 35.5q12 23 26.5 44.5t39.5 35.5q4 4 15 8.5t26 4.5q25 -2 38 -23t13 -45q0 -12 -1 -19.5t-5 -27.5q-4 -45 -10 -90t-17 -90 q-8 -45 -16 -89.5t-19 -89.5q-4 -31 -8 -46t-12 -27q-12 -23 -44 -38.5t-93 -15.5q-35 0 -62.5 2.5t-38.5 6.5q-25 4 -34 16t-9 23zM729 872v10.5t4 16.5q16 41 29.5 79t30.5 77l61 135q35 66 58.5 108.5t39.5 67.5q16 23 36 42t50 19q16 0 36 -9t20 -48q0 -16 -1 -30.5 t-3 -28.5l-66 -363q-8 -35 -15.5 -55.5t-17.5 -32.5q-23 -23 -56.5 -27t-62.5 -4q-55 0 -86.5 2.5t-46.5 18.5q-10 8 -10 22z" />
<glyph unicode="&#x201d;" horiz-adv-x="854" d="M372.5 884q0.5 28 2.5 36q12 111 31 213q8 47 17 92t19 92q4 8 12.5 35.5t30.5 48.5q18 16 48 20t83 4q16 0 37 -2t39.5 -7t30.5 -15t12 -27q0 -14 -6 -30.5t-8 -20.5q-29 -74 -48.5 -124t-41 -95t-48 -92t-65.5 -117q-2 -4 -8 -15.5t-17.5 -22.5t-27.5 -20.5t-37 -9.5 q-12 0 -19.5 3.5t-11.5 7.5q-25 18 -24.5 46zM779 896q1 9 1 13q6 51 12.5 101.5t16.5 101.5t19.5 100.5t19.5 100.5q8 33 18.5 54.5t25.5 33.5t37.5 17t57.5 7h47q104 0 105 -47q0 -20 -13 -59q-29 -72 -50 -121t-42.5 -94t-47 -93t-62.5 -118q-16 -23 -37 -44.5t-53 -21.5 q-4 0 -10.5 1t-16.5 6q-12 8 -18.5 19t-8.5 22.5t-1 20.5z" />
<glyph unicode="&#x201e;" horiz-adv-x="854" d="M61 -254.5q-2 20.5 2 45.5q6 49 11.5 98.5t15.5 98.5q8 45 16.5 89t18.5 89q8 29 13 45t14 33q14 33 40.5 44t92.5 11h41t41 -2q41 -4 50 -13.5t9 -29.5q0 -10 -2 -22.5t-10 -32.5q-27 -66 -46.5 -113t-39 -88t-43 -86t-56.5 -107q-2 -4 -12 -22.5t-20 -32.5 q-4 -4 -27 -25.5t-53 -21.5q-4 0 -12.5 1t-18.5 7q-23 14 -25 34.5zM471 -213q6 47 12 92t15 92q10 53 19 104.5t20 104.5q16 63 33.5 85t54.5 28q6 0 19 1t28.5 2t29 2t19.5 1t24.5 -1t38.5 -5q23 -4 36.5 -11.5t13.5 -29.5q0 -16 -11 -45q-25 -68 -44 -114t-37.5 -88 t-42 -86t-56.5 -107q-8 -14 -20.5 -34t-26.5 -36t-31.5 -28.5t-38.5 -12.5q-4 0 -13 1t-19 9q-20 12 -22.5 30.5t-0.5 45.5z" />
<glyph unicode="&#x2022;" horiz-adv-x="681" d="M121 723q0 68 25.5 125t69.5 100t102.5 67.5t123.5 24.5q49 0 84 -10t52 -18q23 -10 53.5 -32t58 -56.5t47 -84.5t19.5 -118q0 -18 -4 -55t-23 -78q-37 -90 -113.5 -137.5t-171.5 -47.5q-51 0 -86.5 10.5t-52.5 18.5q-84 39 -134 119t-50 172z" />
<glyph unicode="&#x2026;" horiz-adv-x="2048" d="M274 152q0 68 48.5 115.5t117.5 47.5q68 0 114 -46.5t46 -114.5q0 -70 -45 -118t-115 -48q-10 0 -24.5 1t-34.5 9q-12 4 -29.5 14.5t-35 28.5t-30 46t-12.5 65zM958 152q0 25 5.5 42t9.5 27q20 45 61 69.5t88 24.5q68 0 114 -46.5t48 -114.5q0 -70 -46 -118t-116 -48 q-20 0 -33.5 3t-21.5 7q-51 16 -80 57t-29 97zM1640 152q0 68 48.5 115.5t117.5 47.5q66 0 113 -46.5t47 -114.5q0 -70 -46 -118t-116 -48q-10 0 -23.5 1t-33.5 9q-12 4 -30.5 14.5t-35 28.5t-29 46t-12.5 65z" />
<glyph unicode="&#x202f;" horiz-adv-x="382" />
<glyph unicode="&#x205f;" horiz-adv-x="477" />
<glyph unicode="&#x2122;" horiz-adv-x="1579" d="M154 1249q4 49 6 98.5t4 98.5q92 -2 181 -3t181 -1q55 2 111.5 2t112.5 2q2 -49 4 -98.5t6 -98.5h-92q-2 8 -6.5 21.5t-10.5 28t-13 26.5t-15 18q-10 6 -23.5 8.5t-24.5 2.5h-36v-414q0 -27 -1 -43t9 -27q4 -8 13 -9t26 -3l41 -4v-88q-53 2 -103.5 3t-103.5 1 q-35 0 -66.5 -1t-66.5 -3v88l32 4q23 0 39 6q16 8 17.5 35t1.5 41v414h-39q-27 -2 -38 -6.5t-19 -16.5q-16 -23 -24.5 -51.5t-10.5 -30.5h-92zM780 766v86l33 6q8 0 16 4q18 10 19.5 31.5t3.5 44.5v405l-6 7q-16 4 -23.5 6t-31.5 2v88q35 -2 67.5 -3t67.5 1q20 0 39.5 1 t38.5 1l184 -455l190 455q106 -4 215 0v-88l-18 -2q-23 0 -40 -5t-17 -51v-397q0 -16 4 -30.5t41 -16.5l18 -2v-88q-43 2 -85 3t-85 1q-29 0 -56.5 -1t-56.5 -3v88h13q37 0 44 13.5t7 31.5v266l-162 -399h-70l-161 401v-270q0 -10 1 -15t9 -14q6 -8 18.5 -9t30.5 -5h19v-88 q-135 2 -267 0z" />
<glyph unicode="&#x25fc;" horiz-adv-x="1423" d="M0 0v1423h1423v-1423h-1423z" />
</font>
</defs>
</svg>
