<?xml version="1.0" standalone="no"?>
<!DOCTYPE svg PUBLIC "-//W3C//DTD SVG 1.1//EN" "http://www.w3.org/Graphics/SVG/1.1/DTD/svg11.dtd" >
<svg xmlns="http://www.w3.org/2000/svg">
<metadata></metadata>
<defs>
<font id="churchward_mariannashadow" horiz-adv-x="1024" >
<font-face units-per-em="2048" ascent="1638" descent="-410" />
<missing-glyph horiz-adv-x="716" />
<glyph unicode="&#xfb01;" horiz-adv-x="1988" d="M-61 911q0 109 49.5 169.5t134.5 76.5q4 117 33.5 202.5t79 140t126 87.5t164.5 45.5t205 12.5q135 0 249.5 -35.5t170.5 -118.5q15 98 97 156.5t210 58.5q109 0 186 -43.5t107 -118.5q85 -28 132.5 -89.5t47.5 -145.5q0 -95 -60 -160.5t-163 -85.5q9 -13 16 -29 q38 -12 69.5 -34.5t54.5 -49.5t41 -64t30 -70.5t20.5 -78.5t12.5 -79.5t6.5 -80.5t3 -74t0.5 -69q0 -47 -0.5 -78.5t-4 -86.5t-9 -94t-17.5 -91t-28.5 -88.5t-43 -75.5t-59 -62.5t-78.5 -39t-100 -15.5q-181 0 -264 160q-49 15 -88 48t-64 72t-43 94t-27.5 101.5t-14.5 108 t-6 100.5t-1 91v8q-39 -45 -90.5 -64.5t-87.5 -19.5q-1 -135 -6 -230t-19 -177.5t-37 -134t-60 -89t-87.5 -53t-120.5 -15.5q-121 0 -185 36t-95 120q-32 7 -58 20t-46 29t-35 43t-26 52t-18 67.5t-11 78.5t-6 95t-2.5 107t-0.5 124v80q-184 41 -184 256zM-16 911 q0 -196 184 -219q0 -326 7 -413q14 -167 75 -228q59 -59 192 -59q63 0 107.5 15t76.5 52.5t51.5 87.5t30.5 134t15 178t4 233q5 -1 13.5 -1.5t34 0.5t48 6.5t50.5 20.5t48 37.5t34 63t14 92.5q0 65 -26 110t-63 63t-74 26.5t-63 7.5l-26 -2v43q0 26 22.5 42t59.5 16 t82.5 -17.5t83.5 -17.5q87 0 136.5 49.5t49.5 116.5q-2 60 -29 105.5t-68.5 72.5t-98.5 44t-110.5 23t-113.5 6q-112 0 -195 -12t-155.5 -44t-117 -86t-70 -139t-25.5 -202q-84 -6 -134 -56t-50 -149zM1159 578q0 -56 1 -96.5t7.5 -106t17.5 -113t33.5 -101.5t53 -88.5 t78.5 -57.5t108 -23q47 0 86.5 14t68 36t51 58t37 70t25 82.5t15.5 84.5t8 87.5t3.5 80.5t0.5 73t-0.5 73t-3.5 79t-8 85t-15.5 82t-25 80t-37 67.5t-51 56t-68 35t-86.5 13.5q-60 0 -108 -22t-78.5 -55t-53 -86t-33.5 -99t-17.5 -110t-7.5 -104t-1 -95zM1194 1452 q0 -94 71.5 -150.5t192.5 -56.5t192.5 56.5t71.5 150.5t-71.5 151.5t-192.5 57.5t-192.5 -57.5t-71.5 -151.5z" />
<glyph unicode="&#xfb02;" horiz-adv-x="2080" d="M-61 911q0 109 49.5 169.5t134.5 76.5q4 117 33.5 202.5t79 140t126 87.5t164.5 45.5t205 12.5q69 0 131.5 -8.5t125 -28.5t111 -59t72.5 -93q46 -19 82 -45q36 120 106 177t187 57q182 0 262 -156q141 -39 192.5 -216t51.5 -540v-143q0 -166 -8.5 -284t-31 -218 t-61 -160t-98 -92.5t-143.5 -32.5q-180 0 -258 156q-74 20 -123 77.5t-76.5 159t-38 228t-10.5 309.5v144v127q-42 -11 -76 -11q-51 0 -137 31q1 -3 4 -8t4 -8q179 -50 179 -240q0 -63 -20.5 -112.5t-49.5 -77t-64.5 -46t-62 -24.5t-45.5 -6q-1 -135 -6 -230t-19 -177.5 t-37 -134t-60 -89t-87.5 -53t-120.5 -15.5q-121 0 -185 36t-95 120q-32 7 -58 20t-46 29t-35 43t-26 52t-18 67.5t-11 78.5t-6 95t-2.5 107t-0.5 124v80q-184 41 -184 256zM-16 911q0 -196 184 -219q0 -326 7 -413q14 -167 75 -228q59 -59 192 -59q63 0 107.5 15t76.5 52.5 t51.5 87.5t30.5 134t15 178t4 233q5 -1 13.5 -1.5t34 0.5t48 6.5t50.5 20.5t48 37.5t34 63t14 92.5q0 65 -26 110t-63 63t-74 26.5t-63 7.5l-26 -2v43q0 26 22.5 42t59.5 16t82.5 -17.5t83.5 -17.5q87 0 136.5 49.5t49.5 116.5q-2 60 -29 105.5t-68.5 72.5t-98.5 44 t-110.5 23t-113.5 6q-112 0 -195 -12t-155.5 -44t-117 -86t-70 -139t-25.5 -202q-84 -6 -134 -56t-50 -149zM1249 733q0 -156 7.5 -267.5t27 -205.5t52.5 -150.5t85 -87t125 -30.5t125 30.5t85 87t52.5 150.5t27 205.5t7.5 267.5v144q0 156 -7.5 265.5t-26.5 201t-53 145 t-85.5 82t-124.5 28.5t-124.5 -28.5t-85.5 -82t-53 -145t-26.5 -201t-7.5 -265.5v-144z" />
<glyph unicode="&#xfb03;" horiz-adv-x="3092" d="M-61 911q0 109 49.5 169.5t134.5 76.5q4 117 33.5 202.5t79 140t126 87.5t164.5 45.5t205 12.5q69 0 131.5 -8.5t125 -28.5t111 -59t72.5 -93q65 -28 103 -61q60 140 197 195t364 55q135 0 249.5 -35.5t170.5 -118.5q15 98 97 156.5t210 58.5q109 0 186 -43.5t107 -118.5 q85 -28 132.5 -89.5t47.5 -145.5q0 -95 -60 -160.5t-163 -85.5q9 -13 16 -29q38 -12 69.5 -34.5t54.5 -49.5t41 -64t30 -70.5t20.5 -78.5t12.5 -79.5t6.5 -80.5t3 -74t0.5 -69q0 -47 -0.5 -78.5t-4 -86.5t-9 -94t-17.5 -91t-28.5 -88.5t-43 -75.5t-59 -62.5t-78.5 -39 t-100 -15.5q-181 0 -264 160q-49 15 -88 48t-64 72t-43 94t-27.5 101.5t-14.5 108t-6 100.5t-1 91v8q-39 -45 -90.5 -64.5t-87.5 -19.5q-1 -135 -6 -230t-19 -177.5t-37 -134t-60 -89t-87.5 -53t-120.5 -15.5q-121 0 -185 36t-95 120q-32 7 -58 20t-46 29t-35 43t-26 52 t-18 67.5t-11 78.5t-6 95t-2.5 107t-0.5 124v80q-35 6 -62 21q-15 -50 -46.5 -87t-68 -54.5t-65 -25t-49.5 -7.5q-1 -135 -6 -230t-19 -177.5t-37 -134t-60 -89t-87.5 -53t-120.5 -15.5q-121 0 -185 36t-95 120q-32 7 -58 20t-46 29t-35 43t-26 52t-18 67.5t-11 78.5t-6 95 t-2.5 107t-0.5 124v80q-184 41 -184 256zM-16 911q0 -196 184 -219q0 -326 7 -413q14 -167 75 -228q59 -59 192 -59q63 0 107.5 15t76.5 52.5t51.5 87.5t30.5 134t15 178t4 233q5 -1 13.5 -1.5t34 0.5t48 6.5t50.5 20.5t48 37.5t34 63t14 92.5q0 65 -26 110t-63 63t-74 26.5 t-63 7.5l-26 -2v43q0 26 22.5 42t59.5 16t82.5 -17.5t83.5 -17.5q87 0 136.5 49.5t49.5 116.5q-2 60 -29 105.5t-68.5 72.5t-98.5 44t-110.5 23t-113.5 6q-112 0 -195 -12t-155.5 -44t-117 -86t-70 -139t-25.5 -202q-84 -6 -134 -56t-50 -149zM1087 911q0 -196 185 -219 q0 -326 7 -413q14 -167 75 -228q59 -59 192 -59q63 0 107.5 15t76.5 52.5t51.5 87.5t30.5 134t15 178t4 233q5 -1 13.5 -1.5t34 0.5t48 6.5t50.5 20.5t48 37.5t34 63t14 92.5q0 65 -26 110t-63 63t-74 26.5t-63 7.5l-26 -2v43q0 26 22.5 42t59.5 16t82 -17.5t83 -17.5 q87 0 137 49.5t50 116.5q-2 60 -29 105.5t-68.5 72.5t-98.5 44t-110.5 23t-113.5 6q-112 0 -195 -12t-155.5 -44t-117 -86t-70 -139t-25.5 -202q-84 -6 -134.5 -56t-50.5 -149zM2263 578q0 -56 1 -96.5t7.5 -106t17.5 -113t33.5 -101.5t53 -88.5t78.5 -57.5t108 -23 q47 0 86.5 14t68 36t51 58t37 70t25 82.5t15.5 84.5t8 87.5t3.5 80.5t0.5 73t-0.5 73t-3.5 79t-8 85t-15.5 82t-25 80t-37 67.5t-51 56t-68 35t-86.5 13.5q-60 0 -108 -22t-78.5 -55t-53 -86t-33.5 -99t-17.5 -110t-7.5 -104t-1 -95zM2298 1452q0 -94 71.5 -150.5 t192.5 -56.5t192.5 56.5t71.5 150.5t-71.5 151.5t-192.5 57.5t-192.5 -57.5t-71.5 -151.5z" />
<glyph unicode="&#xfb04;" horiz-adv-x="3184" d="M-61 911q0 109 49.5 169.5t134.5 76.5q4 117 33.5 202.5t79 140t126 87.5t164.5 45.5t205 12.5q69 0 131.5 -8.5t125 -28.5t111 -59t72.5 -93q65 -28 103 -61q60 140 197 195t364 55q69 0 131.5 -8.5t125 -28.5t111 -59t72.5 -93q46 -19 82 -45q36 120 106 177t187 57 q182 0 262 -156q141 -39 192.5 -216t51.5 -540v-143q0 -166 -8.5 -284t-31 -218t-61 -160t-98 -92.5t-143.5 -32.5q-180 0 -258 156q-74 20 -123 77.5t-76.5 159t-38 228t-10.5 309.5v271q-42 -11 -76 -11q-51 0 -137 31q1 -3 4 -8t4 -8q178 -50 178 -240q0 -63 -20 -112.5 t-49 -77t-64.5 -46t-62 -24.5t-45.5 -6q-1 -135 -6 -230t-19 -177.5t-37 -134t-60 -89t-87.5 -53t-120.5 -15.5q-121 0 -185 36t-95 120q-32 7 -58 20t-46 29t-35 43t-26 52t-18 67.5t-11 78.5t-6 95t-2.5 107t-0.5 124v80q-35 6 -62 21q-15 -50 -46.5 -87t-68 -54.5 t-65 -25t-49.5 -7.5q-1 -135 -6 -230t-19 -177.5t-37 -134t-60 -89t-87.5 -53t-120.5 -15.5q-121 0 -185 36t-95 120q-32 7 -58 20t-46 29t-35 43t-26 52t-18 67.5t-11 78.5t-6 95t-2.5 107t-0.5 124v80q-184 41 -184 256zM-16 911q0 -196 184 -219q0 -326 7 -413 q14 -167 75 -228q59 -59 192 -59q63 0 107.5 15t76.5 52.5t51.5 87.5t30.5 134t15 178t4 233q5 -1 13.5 -1.5t34 0.5t48 6.5t50.5 20.5t48 37.5t34 63t14 92.5q0 65 -26 110t-63 63t-74 26.5t-63 7.5l-26 -2v43q0 26 22.5 42t59.5 16t82.5 -17.5t83.5 -17.5q87 0 136.5 49.5 t49.5 116.5q-2 60 -29 105.5t-68.5 72.5t-98.5 44t-110.5 23t-113.5 6q-112 0 -195 -12t-155.5 -44t-117 -86t-70 -139t-25.5 -202q-84 -6 -134 -56t-50 -149zM1087 911q0 -196 185 -219q0 -326 7 -413q14 -167 75 -228q59 -59 192 -59q63 0 107.5 15t76.5 52.5t51.5 87.5 t30.5 134t15 178t4 233q5 -1 13.5 -1.5t34 0.5t48 6.5t50.5 20.5t48 37.5t34 63t14 92.5q0 65 -26 110t-63 63t-74 26.5t-63 7.5l-26 -2v43q0 26 22.5 42t59.5 16t82 -17.5t83 -17.5q87 0 137 49.5t50 116.5q-2 60 -29 105.5t-68.5 72.5t-98.5 44t-110.5 23t-113.5 6 q-112 0 -195 -12t-155.5 -44t-117 -86t-70 -139t-25.5 -202q-84 -6 -134.5 -56t-50.5 -149zM2353 733q0 -156 7.5 -267.5t27 -205.5t52.5 -150.5t85 -87t125 -30.5t125 30.5t85 87t52.5 150.5t27 205.5t7.5 267.5v144q0 156 -7.5 265.5t-26.5 201t-53 145t-85.5 82 t-124.5 28.5t-124.5 -28.5t-85.5 -82t-53 -145t-26.5 -201t-7.5 -265.5v-144z" />
<glyph horiz-adv-x="2048" />
<glyph horiz-adv-x="2048" />
<glyph unicode="&#xd;" horiz-adv-x="2048" />
<glyph unicode=" "  horiz-adv-x="716" />
<glyph unicode="&#x09;" horiz-adv-x="716" />
<glyph unicode="&#xa0;" horiz-adv-x="716" />
<glyph unicode="!" horiz-adv-x="878" d="M31 1081q0 48 1.5 84.5t8 96t19 103.5t36.5 94t57 82t84.5 53.5t116.5 21.5q179 0 258 -158q46 -14 82 -42.5t59.5 -62t40 -81t25 -86t13 -91t5.5 -83.5t1 -74q0 -46 -1 -79t-6 -89t-14.5 -98t-28.5 -92t-45 -84.5t-67 -62.5t-92 -38q4 -7 12 -20.5t12 -20.5 q85 -30 139 -103.5t54 -164.5q0 -117 -83 -200t-200 -83q-82 0 -151 44t-103 114q-86 30 -139 102.5t-53 165.5q0 99 61 175t154 100q-21 31 -25 41q-46 14 -83 43.5t-60.5 64t-41 83t-26 90t-13.5 94.5t-6 86t-1 75zM76 1081q0 -44 1 -78.5t7 -89.5t16.5 -97t31.5 -89 t49.5 -77.5t73 -51t99.5 -20.5t99.5 20.5t72.5 51t48.5 78t30.5 88.5t16 97t7 89.5t1 78.5q0 35 -0.5 59t-3 66t-7.5 73t-15 71t-23.5 69t-34.5 59.5t-47.5 49.5t-63 31t-80.5 12q-56 0 -100.5 -19.5t-73 -49t-49 -75.5t-31 -86t-16.5 -94.5t-7 -88t-1 -77.5zM117 229 q0 -98 69.5 -167.5t167.5 -69.5t168 69.5t70 167.5t-70 168t-168 70t-167.5 -70t-69.5 -168z" />
<glyph unicode="&#x22;" horiz-adv-x="1320" d="M20 1169q0 57 3 102t12 100.5t27.5 95.5t47 76t74.5 54.5t105 18.5q162 0 227 -150q46 -10 88 -41q59 191 242 191q162 0 227 -150q54 -12 93 -45.5t60.5 -75t34 -100.5t16 -108t3.5 -111q0 -57 -3 -102t-12 -100t-28 -95.5t-47.5 -76t-74.5 -54t-105 -18.5 q-165 0 -228 149q-44 8 -88 39q-59 -188 -241 -188q-165 0 -228 149q-54 11 -93 44.5t-60 75t-33 101t-15.5 108.5t-3.5 111zM66 1169q0 -43 1.5 -78t7 -78t14.5 -76t26 -66t40 -54.5t57 -35t77 -13.5t77 13.5t57 35t40.5 54.5t27 66t15 76t7 78t1.5 78t-1.5 78t-7 78 t-15 76.5t-27 66.5t-40.5 54.5t-57 35t-77 13.5q-49 0 -87.5 -17t-62 -49t-39 -68t-22.5 -86t-9.5 -90.5t-2.5 -91.5zM623 1169q0 -43 1.5 -78t7 -78t14.5 -76t26 -66t40 -54.5t57 -35t77 -13.5t77 13.5t57 35t40.5 54.5t27 66t15 76t7 78t1.5 78t-1.5 78t-7 78t-15 76.5 t-27 66.5t-40.5 54.5t-57 35t-77 13.5q-49 0 -87.5 -17t-62 -49t-39 -68t-22.5 -86t-9.5 -90.5t-2.5 -91.5z" />
<glyph unicode="#" horiz-adv-x="1536" d="M43 565q-6 79 53 126t205 57l2 16q-43 32 -49 94q-151 34 -162 135q-7 80 55 127.5t218 57.5q75 413 208 413q95 0 123 -153q20 10 41 10q79 0 113 -111q68 254 174 254q95 0 123 -153q20 10 41 10q37 0 64.5 -24.5t42.5 -67.5t21.5 -93t6.5 -110q0 -40 -2 -63 q26 -30 29 -72q149 -33 163 -135q3 -34 -11 -62t-37.5 -47t-55.5 -33t-63 -21.5t-62 -10.5q-4 -36 -8 -52q22 -33 24 -67q151 -38 164 -135q4 -43 -18 -77.5t-59.5 -54.5t-78 -31t-81.5 -13q-16 -107 -32 -181.5t-41 -144t-61 -104.5t-83 -35q-112 0 -136 147q-20 -4 -28 -4 q-82 0 -117 78q-59 -221 -170 -221q-57 0 -90 36t-45 111q-20 -4 -29 -4q-76 0 -109.5 65t-33.5 205q0 70 2 107q-41 33 -49 96q-151 30 -162 135zM88 569q6 -51 63.5 -75t159.5 -31q-14 -120 -14 -236q0 -117 23 -171t75 -54q36 0 64 34.5t48.5 103.5t34 142t27.5 179 q73 0 129.5 -1t61.5 -1q-12 -126 -12 -232q0 -117 23 -171t75 -54q30 0 54.5 25.5t41.5 64t32.5 104t25.5 124t22 145.5q233 18 233 129q-11 84 -202 108l26 193q226 18 226 127q-11 84 -199 108q8 122 8 166q0 250 -90 250q-57 0 -96.5 -107t-71.5 -294q-21 1 -81.5 1 t-119.5 1q9 124 9 149q0 69 -7.5 122t-29 90.5t-54.5 37.5q-102 0 -170 -409q-84 -5 -139.5 -17.5t-83 -32t-36.5 -40.5t-7 -50q6 -52 65 -75.5t165 -30.5l-25 -182q-149 -10 -204 -45.5t-50 -94.5zM604 719l23 170l190 -2l-24 -170z" />
<glyph unicode="$" horiz-adv-x="1566" d="M27 389q0 128 74.5 222t207.5 94q7 0 17 -1.5t12 -1.5q12 0 12 9q0 13 -43 32q-92 39 -154.5 128t-62.5 233q0 427 500 487q2 25 8.5 47t21 45t43.5 36.5t70 13.5q42 0 72 -13.5t44.5 -37t20.5 -45.5t7 -48q334 -20 452 -209q201 -91 201 -295q0 -126 -63.5 -208.5 t-188.5 -88.5q25 -25 43 -55q218 -104 223 -387q1 -115 -37 -207.5t-107.5 -154t-160 -99.5t-199.5 -51q-1 -19 -4 -37t-13 -38t-25 -34.5t-41 -24t-60 -9.5q-42 0 -71.5 13t-43.5 36t-20 44.5t-8 47.5q-161 12 -304 70.5t-210 165.5q-213 109 -213 321zM72 389 q0 -66 24.5 -121t68 -93.5t97 -68t119.5 -47.5t127.5 -28.5t126.5 -14.5l-1 -10v-18t1.5 -22t5 -24.5t11 -23t17.5 -20.5t26.5 -13.5t37.5 -5.5t37.5 6t26.5 14.5t17.5 21.5t11 24.5t5 26.5t1.5 23.5v18.5l-1 11q85 5 160 25t139 58t109.5 91t71 127t24.5 163q-1 93 -28 164 t-68.5 111t-92 67t-100 41t-91 25.5t-66.5 27t-25 38.5q0 19 15.5 33t44.5 14q33 0 81.5 -16.5t92.5 -16.5q111 0 167 71t56 181q0 69 -30 124t-77.5 89.5t-113.5 58t-131.5 33.5t-137.5 12l1 10v19t-1.5 22.5t-5 25.5t-11 24t-17.5 21.5t-26.5 14t-37.5 5.5t-37.5 -5.5 t-26.5 -14.5t-17.5 -21.5t-11 -24t-5 -26t-1.5 -23v-19.5l1 -10q-238 -16 -369 -123.5t-131 -316.5q0 -83 25 -147t65 -101t88.5 -63.5t97.5 -41t89 -26.5t65 -26.5t25 -34.5q0 -24 -15 -39t-36 -15q-33 0 -106 24.5t-124 24.5q-112 0 -174.5 -80t-62.5 -190z" />
<glyph unicode="%" horiz-adv-x="2441" d="M0 1118q0 117 43 213t115 155.5t162.5 91.5t187.5 30q128 0 229.5 -51t165.5 -144q152 -76 213 -239q251 434 406 434q116 0 116 -142v-12q27 10 48 10q116 0 116 -141q0 -128 -110 -393q62 12 123 12q128 0 229.5 -50.5t165.5 -143.5q119 -59 185.5 -177t66.5 -278 q0 -151 -66 -264t-176.5 -169.5t-249.5 -56.5q-292 0 -418 197q-143 65 -204 223q-110 -190 -214.5 -305t-185.5 -115q-127 0 -127 146v4q-18 -6 -37 -6q-127 0 -127 145q0 119 115 387q-58 -10 -108 -10q-291 0 -418 195q-122 59 -184 175.5t-62 278.5zM45 1118 q0 -212 117.5 -336.5t337.5 -124.5q195 0 320.5 119t125.5 326q0 211 -121 336t-317 125q-89 0 -171 -28.5t-147.5 -82.5t-105 -140.5t-39.5 -193.5zM410 1217q0 46 24.5 78t59.5 32t59.5 -32t24.5 -78q0 -47 -24.5 -80t-59.5 -33t-59.5 33t-24.5 80zM776 373 q-140 -372 8 -381q65 0 156 101t176.5 246.5t167.5 322.5q206 409 271 615q91 286 -33 286q-49 0 -112 -56.5t-131 -156.5t-131.5 -213t-129.5 -248q-181 -363 -242 -516zM1352 453q0 -212 117.5 -336.5t336.5 -124.5q195 0 321 118.5t126 325.5q0 211 -121 336t-317 125 q-89 0 -171 -28.5t-147.5 -82t-105 -140t-39.5 -193.5zM1716 551q0 46 24.5 78.5t59.5 32.5t59.5 -32.5t24.5 -78.5q0 -47 -24.5 -80t-59.5 -33t-59.5 33t-24.5 80z" />
<glyph unicode="&#x26;" horiz-adv-x="1687" d="M41 442q0 149 74.5 244t208.5 133q-207 91 -207 338q0 98 35 177t93 131t137.5 86.5t165 49.5t179.5 15q436 0 522 -197q187 -74 187 -250q0 -36 -14 -77.5t-40.5 -81.5t-74.5 -66t-107 -26t-117 14q17 -27 25 -64q140 -26 164 -141q192 -3 250 -156q91 -23 138.5 -95 t47.5 -183q0 -48 -8.5 -87t-20 -66.5t-33.5 -50t-39.5 -35.5t-47 -25t-47 -17.5t-48.5 -13.5q-58 -16 -67 -23q-118 -91 -238 -131.5t-260 -40.5q-94 0 -179.5 11t-171 36.5t-156.5 73.5t-116 115q-235 127 -235 403zM86 442q0 -106 40 -187.5t103 -130t151 -79.5t173.5 -42 t181.5 -11q133 0 246 38t225 124q17 13 57 24t77.5 23t75 35t60.5 73.5t23 126.5q0 116 -59 181t-172 65q-52 0 -101 -24.5t-88.5 -59.5t-78 -70t-86 -59.5t-97.5 -24.5q-121 0 -121 93q0 75 82 86q24 1 54.5 1.5t63 -2t63.5 6.5t55.5 26t39.5 57t15 99q0 29 -7 52.5 t-16 39.5t-27.5 29t-32 20t-38.5 13t-38.5 8t-41 5.5t-37.5 4.5q-39 5 -57 26.5t-18 47.5q0 37 21 58.5t61 21.5q30 0 89.5 -15.5t108.5 -15.5q63 0 108.5 37.5t64 82.5t18.5 87q0 258 -500 258q-87 0 -166 -13.5t-153 -45t-128 -78t-86 -117.5t-32 -160q0 -291 319 -338 q31 -5 83 -9l9 -1v-14q-33 2 -65 2q-191 2 -306.5 -89t-115.5 -266z" />
<glyph unicode="'" horiz-adv-x="763" d="M20 1169q0 57 3 102t12 100.5t27.5 95.5t47 76t74.5 54.5t105 18.5q162 0 227 -150q54 -12 93 -45.5t60.5 -75t34 -100.5t16 -108t3.5 -111q0 -57 -3 -102t-12 -100t-28 -95.5t-47.5 -76t-74.5 -54t-105 -18.5q-165 0 -228 149q-54 11 -93 44.5t-60 75t-33 101 t-15.5 108.5t-3.5 111zM66 1169q0 -43 1.5 -78t7 -78t14.5 -76t26 -66t40 -54.5t57 -35t77 -13.5t77 13.5t57 35t40.5 54.5t27 66t15 76t7 78t1.5 78t-1.5 78t-7 78t-15 76.5t-27 66.5t-40.5 54.5t-57 35t-77 13.5q-49 0 -87.5 -17t-62 -49t-39 -68t-22.5 -86t-9.5 -90.5 t-2.5 -91.5z" />
<glyph unicode="(" horiz-adv-x="915" d="M61 512q0 61 4.5 140t17.5 187t33 212t54.5 207.5t78.5 181t108 126t139 48.5q71 0 122.5 -41t75.5 -107q82 -13 131 -80t49 -153q0 -78 -28 -246q-19 -109 -29.5 -177t-21.5 -194.5t-11 -246.5q0 -265 60 -607q30 -184 30 -256q0 -98 -58 -166.5t-154 -68.5 q-137 0 -238 156q-73 24 -132.5 98t-97.5 177t-65.5 216t-41.5 231.5t-20 206.5t-6 156zM106 512q0 -59 4 -135t16 -179t30 -202.5t49 -198t70.5 -172.5t97 -120t125.5 -46q75 0 121.5 56.5t46.5 134.5q0 57 -14 149.5t-31.5 184t-31.5 236t-14 292.5t14 294.5t31.5 239 t31.5 185t14 145.5q0 78 -47.5 135.5t-122.5 57.5q-67 0 -124.5 -46.5t-96.5 -121t-70 -173.5t-49 -198.5t-30 -203t-16 -179.5t-4 -135z" />
<glyph unicode=")" horiz-adv-x="915" d="M41 -350q0 66 31 256q59 337 59 606q0 266 -61 618q-29 174 -29 246q0 97 59.5 167.5t155.5 70.5q135 0 233 -156q73 -24 132.5 -98.5t98 -178t66 -217.5t42 -232.5t20.5 -207t6 -155.5q0 -62 -4.5 -141t-17.5 -186.5t-33 -211t-54.5 -206.5t-78.5 -180t-108 -125 t-140 -48q-72 0 -124 40.5t-75 106.5q-82 12 -130 78t-48 154zM86 -350q0 -78 46.5 -134.5t121.5 -56.5q68 0 125.5 46t96.5 120t70 173t49 197.5t30 202t16 179.5t4 135q0 70 -6.5 162.5t-21 217t-44 240t-70.5 216t-105 161t-142 60.5q-75 0 -122.5 -57.5t-47.5 -135.5 q0 -63 22.5 -190t45 -306t22.5 -368t-22.5 -365.5t-45 -303t-22.5 -193.5z" />
<glyph unicode="*" horiz-adv-x="1165" d="M2 1219q0 68 48.5 120t119.5 52q83 0 166 -66q-14 61 -14 100q0 74 47.5 132.5t132.5 58.5q70 0 112 -41t54 -102q96 -3 143 -84q6 2 23 2q60 0 107 -41t58 -103q67 -2 116.5 -52t49.5 -120q0 -92 -78 -146t-190 -57q58 -52 91.5 -103t33.5 -114q0 -67 -51 -115t-121 -48 q-61 0 -110.5 38.5t-73.5 100.5q-15 -57 -68.5 -98t-116.5 -41q-62 0 -112.5 40t-59.5 103q-65 2 -114.5 49t-49.5 115q0 84 66 159q-31 34 -39 72q-68 13 -119 66.5t-51 122.5zM47 1219q0 -41 25 -75t63 -52q11 -5 23 -9.5t27.5 -7.5t28 -6t31.5 -5t29 -3.5t31.5 -3 t28.5 -1.5t29 -1.5t24 -1.5q-41 -29 -65.5 -48.5t-60 -54t-53.5 -72.5t-18 -79q0 -51 39 -85t88 -34q28 0 52 10.5t40.5 25t31 40.5t23 46.5t17 54t12 52.5t9.5 52q6 -39 11.5 -68.5t19.5 -72.5t32 -71t49.5 -48.5t71.5 -20.5q51 0 89 35t38 84q0 23 -7.5 47t-16.5 41.5 t-29 40t-31.5 34.5t-39 34t-37 29t-38.5 28q9 1 41.5 2.5t49.5 3t49 5t51 9t46 13.5t43 20t32 27.5t23 37.5t7 48q0 53 -36 90t-86 37q-20 0 -40.5 -5.5t-36.5 -11t-38 -20.5t-33.5 -23.5t-35 -30.5t-31 -29.5t-33.5 -34.5t-31 -32q74 190 74 266q0 58 -32.5 102t-94.5 44 q-63 0 -99 -44.5t-36 -101.5q0 -46 19.5 -108.5t39.5 -108t20 -49.5q-3 3 -31.5 34t-37 38.5t-34.5 32.5t-41 34t-39.5 23.5t-47 19.5t-45.5 5q-53 0 -88 -38t-35 -89z" />
<glyph unicode="+" horiz-adv-x="1294" d="M20 780q0 49 17 86.5t45 60.5t71 39t86.5 23.5t100.5 11.5q32 324 225 324q132 0 191 -145q135 -16 182 -201q140 -38 166 -143q170 -46 170 -199q0 -59 -25.5 -102t-72.5 -67.5t-99 -37.5t-121 -20q-7 -68 -21 -120t-39 -99.5t-67 -73t-100 -25.5q-137 0 -190 144 q-137 16 -181 198q-137 42 -165 144q-82 27 -127.5 74.5t-45.5 127.5zM66 780q0 -40 18 -71.5t46.5 -51t71.5 -33.5t85.5 -20.5t95.5 -9.5q3 -53 9 -94.5t19.5 -84t32.5 -71t50 -46t71 -17.5q49 0 85 25.5t56 72t30.5 98t15.5 117.5q67 5 117.5 15t98 30t72.5 55.5t25 85.5 q0 40 -17.5 71t-45.5 49.5t-70.5 31t-84 18t-93.5 8.5q-5 68 -15.5 120t-31 100.5t-56.5 75t-86 26.5q-41 0 -73 -18.5t-51 -47.5t-31.5 -73t-18 -86.5t-8.5 -96.5q-68 -3 -119 -12t-99 -27.5t-73.5 -53.5t-25.5 -85z" />
<glyph unicode="," horiz-adv-x="757" d="M20 236q0 129 84 209.5t213 80.5q93 0 164.5 -43.5t110.5 -117.5q95 -35 151 -124t56 -200q0 -162 -111 -281.5t-276 -119.5q-41 0 -77.5 12.5t-63.5 43t-27 73.5v14q-65 2 -114.5 34.5t-49.5 94.5q0 48 16.5 73t48.5 38q-125 64 -125 213zM66 236q0 -56 23.5 -98.5 t59.5 -63.5t70.5 -31t65.5 -10q-25 -18 -69.5 -31.5t-67.5 -31t-23 -58.5t38 -62.5t85 -21.5q146 0 244 106.5t98 249.5q0 124 -75.5 210.5t-197.5 86.5q-109 0 -180 -68t-71 -177z" />
<glyph unicode="-" horiz-adv-x="1077" d="M20 569q0 65 18.5 115t54.5 80.5t75.5 50t96 28.5t100 12t102.5 3q74 0 129.5 -5t120 -21.5t109.5 -53.5t67 -94q184 -58 184 -258q0 -65 -18.5 -115t-54 -81t-76 -52t-95 -30.5t-100 -13t-102.5 -3.5q-73 0 -129 6t-119 22.5t-108.5 54t-69.5 93.5q-185 62 -185 262z M66 569q0 -55 17 -97t48.5 -68.5t68 -44.5t86 -26t90 -11t91.5 -3t91.5 3t90 11t86 26t68 44.5t48.5 68.5t17 97q0 47 -13.5 85t-35 63t-54.5 43.5t-65.5 28t-76.5 15.5t-78 7.5t-78 1.5t-78 -1.5t-78 -7.5t-76.5 -15.5t-65.5 -28t-54.5 -43.5t-35 -63t-13.5 -85z" />
<glyph unicode="." horiz-adv-x="720" d="M20 238q0 120 85.5 203t205.5 83q84 0 153 -43.5t103 -115.5q87 -28 141 -102t54 -169q0 -120 -83.5 -205.5t-203.5 -85.5q-83 0 -152.5 44t-107.5 116q-86 30 -140.5 105.5t-54.5 169.5zM66 238q0 -101 72 -173.5t173 -72.5t171.5 72t70.5 174q0 101 -70.5 171 t-171.5 70q-102 0 -173.5 -70t-71.5 -171z" />
<glyph unicode="/" horiz-adv-x="1343" d="M-20 164q0 55 33.5 140.5t104.5 207.5t118.5 197.5t136.5 212.5q30 46 74 116t75.5 121t74.5 115t77 109.5t76.5 92t80.5 75.5t81 47t85 18q60 0 115.5 -38.5t77.5 -107.5q70 -10 122 -66.5t52 -150.5q0 -51 -35 -138t-101.5 -203t-121.5 -204.5t-135 -211.5 q-31 -47 -77 -119.5t-77.5 -123t-75.5 -115t-78 -109t-76.5 -91t-79.5 -74t-79 -45.5t-82 -18q-60 0 -116 38.5t-76 107.5q-71 10 -122.5 66t-51.5 151zM25 164q0 -84 48.5 -129t108.5 -45q27 0 54 9t51.5 22.5t53 40.5t52 51.5t55 66.5t55.5 76t60.5 89.5t62.5 96.5t69 108 t73 114q18 29 61.5 96.5t63.5 99t57.5 92t56.5 93.5t47 83.5t42.5 82.5t30 69t22 65.5t6.5 51.5q0 84 -49 129t-109 45q-30 0 -58.5 -9t-59 -31.5t-57 -46t-60.5 -66.5t-60 -77.5t-66 -95t-67.5 -104t-76 -119t-80.5 -125.5q-18 -29 -61.5 -96.5t-63.5 -99t-57.5 -92 t-56.5 -93.5t-47 -83.5t-42.5 -82.5t-30 -69t-22 -65.5t-6.5 -51.5z" />
<glyph unicode="0" horiz-adv-x="1949" d="M27 793q0 162 49 298.5t133 231.5t197.5 160.5t241.5 96t265 28.5q210 0 378.5 -70.5t281.5 -204.5q167 -105 258.5 -286t91.5 -424q0 -196 -66 -353t-182 -258.5t-272 -155t-338 -53.5q-469 0 -696 275q-169 105 -255.5 287t-86.5 428zM72 793q0 -376 213 -588.5 t616 -212.5q173 0 320.5 50.5t257.5 146t172.5 244t62.5 333.5q0 187 -58.5 337.5t-164 251t-253 154.5t-325.5 54q-130 2 -251.5 -26.5t-229 -91t-187.5 -152t-126.5 -218.5t-46.5 -282zM743 954q0 78 43 131.5t105 53.5q61 0 103 -53.5t42 -131.5t-42 -132t-103 -54 q-62 0 -105 54t-43 132z" />
<glyph unicode="1" horiz-adv-x="1069" d="M57 778q0 82 1 139.5t5.5 134t12 129.5t22 115.5t34.5 104.5t50.5 84.5t68.5 67t90 40t114 15.5q206 0 299 -166q46 -17 82.5 -45t62.5 -69t45.5 -84.5t31.5 -104t19.5 -112.5t11 -126.5t4.5 -129.5t1 -136q0 -110 -1.5 -180t-10 -167t-23.5 -158.5t-44 -130t-70 -107 t-103 -64t-142 -25.5q-205 0 -301 166q-46 17 -82.5 45t-63 69.5t-46 85t-31.5 104t-20 113.5t-11.5 126.5t-4.5 129.5t-1 136zM102 778q0 -102 1.5 -170t9.5 -158t21.5 -149t39.5 -123t63 -101t92 -61t126 -24q55 0 101 15t79.5 38t60 63.5t44 79.5t29.5 99.5t18.5 109.5 t10 123t4.5 126t1 132q0 105 -1.5 170t-8.5 157.5t-20.5 150t-39 122t-61.5 101t-91 60.5t-126 24t-126 -24t-92 -61t-63 -100.5t-39.5 -122.5t-21.5 -149t-9.5 -158t-1.5 -170z" />
<glyph unicode="2" horiz-adv-x="1548" d="M41 358q0 71 19 132t47 104.5t75.5 86.5t87.5 70t101 64q-83 41 -125 127q-89 28 -140 102.5t-51 176.5q0 88 35 156.5t92.5 111t138 70t163 38.5t175.5 11q401 0 553 -224q250 -128 250 -462q0 -263 -184 -398q51 -39 76 -94q98 -38 146 -111.5t48 -166.5 q0 -84 -23 -144t-76 -105.5t-147 -68t-231 -22.5h-371q-328 0 -444 196q-111 51 -163 143.5t-52 206.5zM86 358q0 -72 24 -134t74.5 -113.5t141 -81t211.5 -29.5h370q124 0 209 19.5t133.5 59.5t69 92t20.5 124q0 115 -86.5 190.5t-267.5 75.5q-102 0 -192 -5.5t-129 -11.5 l-39 -5l-2 12q323 35 476.5 162.5t153.5 351.5q0 111 -31 197t-84.5 142t-130 92.5t-162 51.5t-186.5 15q-86 0 -162.5 -9.5t-150.5 -34t-127.5 -62t-86 -98t-32.5 -138.5q0 -107 66.5 -176.5t173.5 -69.5q64 0 109.5 19.5t68.5 19.5q24 0 40.5 -16t16.5 -46 q0 -66 -143 -153q-140 -85 -186 -121q-126 -99 -152 -232q-8 -41 -8 -88z" />
<glyph unicode="3" horiz-adv-x="1529" d="M20 332q0 125 81 200.5t208 75.5q15 0 39 -4q-61 55 -61 189q0 94 43 143q-31 35 -47 70q-84 29 -135.5 95.5t-51.5 160.5q0 62 18 113t48 86.5t74 62t90 42.5t101.5 25.5t104 13t101.5 3.5q431 0 571 -222q223 -114 223 -374q0 -219 -143 -316q3 -3 5.5 -6.5t5.5 -8 l5 -7.5q109 -48 164.5 -143.5t55.5 -215.5q0 -116 -36.5 -206t-98.5 -147t-151 -93.5t-186 -51t-212 -14.5q-81 0 -162 9.5t-172 32.5t-165.5 71.5t-113.5 116.5q-203 99 -203 299zM66 332q0 -70 29.5 -126t80.5 -92t111.5 -61t132.5 -37.5t132 -18t120 -5.5q107 0 197.5 13 t174 46.5t141 85.5t92 134t34.5 188q0 76 -25.5 141t-75.5 115t-132.5 76t-188.5 22v12q113 0 188.5 44.5t108.5 117t33 168.5t-35.5 170t-91.5 118t-135.5 72t-157 38t-166.5 10q-492 0 -492 -301q0 -102 73 -165t175 -63q29 0 84 15.5t82 15.5q74 0 74 -47q0 -46 -66 -55 q-12 -2 -35.5 -4t-39 -3.5t-38 -6.5t-37 -11.5t-31.5 -19t-27 -29t-16.5 -41t-6.5 -55.5q0 -32 5.5 -58.5t12.5 -46t22.5 -34.5t28 -24.5t37 -16t40.5 -10t48.5 -5.5t50.5 -2h56h3.5h3h3.5q27 0 50.5 -13.5t23.5 -45.5t-20.5 -49t-55.5 -17q-59 0 -166 46t-166 46 q-107 0 -175 -63t-68 -168z" />
<glyph unicode="4" horiz-adv-x="1613" d="M27 688q0 91 36.5 197.5t98 207.5t146 195.5t176 165.5t192.5 113.5t192 42.5q253 0 359 -178q75 -32 126.5 -90.5t76.5 -138t35 -158.5t10 -177q0 -38 -9 -231q72 -32 110 -89t38 -161q0 -101 -49 -176t-138 -98q-14 -310 -311 -310q-136 0 -203.5 41t-93.5 117 q-125 31 -162 137q-297 47 -405 217q-225 115 -225 373zM72 688q-2 -97 32.5 -171t89.5 -118t138 -73t163.5 -40.5t180.5 -15.5q3 -41 5.5 -63t10 -57t18.5 -53.5t31.5 -41.5t48 -34.5t68.5 -20t94 -8.5q270 0 267 303q86 9 136 75.5t50 159.5q0 94 -38.5 143t-109.5 75 q1 25 3 79q0 98 5 199t-15.5 198t-57.5 173t-120 122t-204 46q-129 0 -273.5 -87.5t-257 -217t-188 -285.5t-77.5 -287zM526 745q48 48 84 126.5t52.5 141t35.5 150.5q1 7 2 11.5t2 9.5h15l-10.5 -84t-16 -169.5t-6.5 -185.5h-158z" />
<glyph unicode="5" horiz-adv-x="1468" d="M10 313q0 118 69 194.5t183 76.5q17 0 17 8q0 10 -31 20q-107 33 -157 129.5t-50 292.5q0 87 2 137.5t11.5 119.5t28 108t53 84t84.5 67.5t125 38t173 15.5h328q152 0 231.5 -41t108.5 -123q101 -28 141.5 -97t40.5 -182q0 -108 -58 -179.5t-169 -78.5q44 -37 69 -78 q116 -57 182 -170.5t66 -255.5q0 -125 -35 -225t-97 -168t-150 -113t-190.5 -65.5t-221.5 -20.5q-78 0 -152 9t-155.5 30.5t-147 66t-100.5 107.5q-199 90 -199 293zM55 313q0 -65 25.5 -117.5t70.5 -86t98.5 -57t118 -35t119.5 -16.5t113 -5q141 0 256 31t204.5 94.5 t139 171t49.5 250.5q0 187 -119 309.5t-309 122.5q-43 0 -78.5 -4.5t-50.5 -9.5l-14 -5v136h276q100 0 152.5 59.5t52.5 153.5q0 63 -13.5 107t-47.5 78.5t-96.5 51.5t-155.5 17h-328q-89 0 -157 -14.5t-113.5 -35t-76.5 -62t-48 -77.5t-25.5 -100t-10 -110t-1.5 -126 q0 -78 9 -138t25.5 -103t45.5 -73t61.5 -48t82 -27t99 -12t119.5 -2q32 0 58 -14t26 -48q0 -77 -98 -77q-41 0 -120 23.5t-120 23.5q-99 0 -159 -63.5t-60 -162.5z" />
<glyph unicode="6" horiz-adv-x="1710" d="M41 745q0 258 104 454t295.5 302.5t444.5 106.5q76 0 156.5 -11.5t166.5 -37t159.5 -74t113.5 -113.5q209 -107 209 -311q0 -121 -78.5 -204.5t-202.5 -84.5q2 -3 7 -9t7 -9q113 -58 177.5 -166t64.5 -248q0 -132 -52 -236t-142.5 -169t-207.5 -98.5t-253 -33.5 q-207 0 -368 68.5t-265 196.5q-163 100 -249.5 274t-86.5 403zM86 745q0 -344 203.5 -548.5t556.5 -204.5q127 0 236 30.5t193 90t132.5 154.5t48.5 216q0 194 -128.5 311t-332.5 117q-49 0 -97 -10t-82 -24.5t-60.5 -29t-39.5 -24.5l-14 -10q2 55 30.5 95.5t72 61.5 t87.5 30.5t87 9.5q68 0 149 -24.5t115 -24.5q105 0 171.5 70.5t66.5 172.5q0 83 -42 148t-105.5 103.5t-146.5 64t-157 34.5t-145 9q-239 0 -420.5 -100.5t-280 -286t-98.5 -431.5zM735 453q0 35 27.5 62.5t62.5 27.5t62.5 -27.5t27.5 -62.5t-27.5 -61.5t-62.5 -26.5 t-62.5 26.5t-27.5 61.5z" />
<glyph unicode="7" horiz-adv-x="1447" d="M-31 1241q0 57 14 105.5t36.5 83.5t58.5 63t71.5 46.5t85 32t90 20t94.5 10.5t90.5 5t86.5 1q103 0 184.5 -8.5t162 -30.5t142.5 -66t101 -108q231 -110 231 -418q0 -121 -85 -330t-204 -381q-46 -67 -73.5 -105.5t-71 -94.5t-75 -88t-76 -70t-84.5 -58t-89.5 -33.5 t-101.5 -13.5q-81 0 -153.5 45t-116.5 119q-92 36 -151.5 123t-59.5 193q0 231 272 516q-131 44 -182 149q-91 36 -144 109t-53 184zM14 1241q0 -71 27 -125.5t73.5 -87t104 -49t123.5 -16.5q68 0 138 11.5t106 23.5l37 12l2 -4q-170 -156 -238 -228q-266 -283 -266 -495 q0 -118 82 -204.5t190 -86.5q47 0 92 13t82 32t78.5 55t71.5 67.5t72 85t68.5 90.5t70.5 101q116 167 198 368t82 316q0 80 -17 144.5t-46.5 110t-75 79.5t-95.5 54.5t-114.5 33t-126.5 17t-137 4.5q-61 0 -104 -1.5t-108.5 -8t-112 -19t-98.5 -36.5t-84 -57t-53.5 -84.5 t-21.5 -115.5z" />
<glyph unicode="8" horiz-adv-x="1673" d="M41 457q0 265 215 358q-184 90 -184 328q0 91 30.5 165.5t85 124t121 85t147 54.5t154 27.5t150.5 8.5q91 0 176 -11.5t172 -36.5t159.5 -74t116.5 -116q228 -122 228 -371q0 -235 -185 -327q215 -93 215 -359q0 -118 -44.5 -210t-115 -147t-167.5 -91t-192 -49t-199 -13 q-92 0 -180 12t-177 39t-164.5 77.5t-123.5 119.5q-238 132 -238 406zM86 457q0 -107 43 -191t110 -134.5t158.5 -83t180 -44.5t182.5 -12q68 0 132.5 6t132.5 21t126.5 38.5t111.5 60t90 84t59 112.5t22 143q0 73 -19 132t-49.5 94.5t-68 61.5t-74.5 37t-67.5 17t-49.5 6 h-19v10q7 0 18 0.5t44 7t63 18t66.5 36t62.5 58t44 87.5t18 121q0 83 -28 150t-78 111.5t-111.5 76.5t-136.5 49.5t-145 25t-144 7.5q-72 0 -140.5 -7.5t-143.5 -25t-137.5 -49.5t-113.5 -76.5t-79.5 -112t-28.5 -149.5q0 -67 17.5 -121t45 -87.5t61 -58t67.5 -36t61.5 -18 t44.5 -6.5l18 -1v-10h-19.5t-48.5 -6t-68.5 -17.5t-72.5 -37t-69 -61t-48.5 -94.5t-19.5 -132zM670 578q0 35 27.5 62.5t62.5 27.5t62.5 -27.5t27.5 -62.5t-27.5 -62t-62.5 -27t-62.5 27t-27.5 62zM670 1075q0 35 27.5 62.5t62.5 27.5t62.5 -27.5t27.5 -62.5t-27.5 -61.5 t-62.5 -26.5t-62.5 26.5t-27.5 61.5z" />
<glyph unicode="9" horiz-adv-x="1685" d="M20 1071q0 162 90 286t238.5 187.5t327.5 63.5q206 0 366.5 -68.5t266.5 -196.5q162 -102 249 -276.5t87 -400.5q0 -258 -104 -454t-295.5 -302.5t-444.5 -106.5q-62 0 -121 4.5t-129.5 19t-127.5 37t-109 62.5t-81 92q-202 92 -202 306q0 119 76 202.5t190 83.5 q14 0 14 11t-49 36q-115 60 -178.5 166t-63.5 248zM66 1071q0 -194 128.5 -311t331.5 -117q49 0 97 10t82 24.5t60.5 29t40.5 24.5l13 10q-3 -73 -42 -125.5t-91.5 -75t-107.5 -22.5q-68 0 -149.5 24.5t-115.5 24.5q-105 0 -171 -70.5t-66 -172.5q0 -69 26 -124.5 t72.5 -90.5t101 -59t121.5 -36t123 -17t117 -5q239 0 420.5 100.5t280 285.5t98.5 431q0 344 -203.5 549t-556.5 205q-167 0 -305 -58.5t-221.5 -172t-83.5 -261.5zM606 1102q0 35 27.5 61.5t62.5 26.5t62.5 -26.5t27.5 -61.5t-27.5 -62.5t-62.5 -27.5t-62.5 27.5 t-27.5 62.5z" />
<glyph unicode=":" horiz-adv-x="823" d="M41 238q0 120 85.5 203t205.5 83q-58 38 -96 109q-86 30 -140.5 105t-54.5 169q0 120 85.5 203.5t205.5 83.5q83 0 152.5 -44t103.5 -116q87 -28 140.5 -101.5t53.5 -168.5q0 -120 -83 -205.5t-203 -85.5q64 -47 92 -108q87 -28 140.5 -102t53.5 -169q0 -120 -83 -205.5 t-203 -85.5q-83 0 -152.5 44t-107.5 116q-86 30 -140.5 105.5t-54.5 169.5zM86 238q0 -101 72.5 -173.5t173.5 -72.5t171 72t70 174q0 101 -70 171t-171 70q-102 0 -174 -70t-72 -171zM86 907q0 -101 72.5 -173t173.5 -72t171 71.5t70 173.5q0 101 -70 171.5t-171 70.5 q-102 0 -174 -70.5t-72 -171.5z" />
<glyph unicode=";" horiz-adv-x="870" d="M51 236q0 129 84 209.5t213 80.5h10q-55 38 -92 107q-86 30 -140 105t-54 169q0 120 85 203.5t205 83.5q83 0 152.5 -44t103.5 -116q87 -28 141 -102t54 -168q0 -120 -83.5 -205.5t-203.5 -85.5q60 -45 97 -108q95 -35 150.5 -124t55.5 -200q0 -162 -111 -281.5 t-276 -119.5q-69 0 -118.5 32.5t-49.5 110.5q-65 2 -114 34.5t-49 94.5q0 48 16.5 73t48.5 38q-125 64 -125 213zM96 236q0 -56 23.5 -98.5t59.5 -63.5t70.5 -31t65.5 -10q-25 -18 -69.5 -31.5t-67 -31t-22.5 -58.5t38 -62.5t85 -21.5q146 0 244 106.5t98 249.5 q0 124 -75.5 210.5t-197.5 86.5q-109 0 -180.5 -68t-71.5 -177zM117 907q0 -101 72 -173t173 -72t171.5 71.5t70.5 173.5q0 101 -70.5 171.5t-171.5 70.5q-102 0 -173.5 -70.5t-71.5 -171.5z" />
<glyph unicode="&#x3c;" horiz-adv-x="1294" d="M61 788q0 78 58.5 156t149 138t195 107.5t202 73t163.5 25.5q106 0 163.5 -41.5t70.5 -107.5q87 -16 127.5 -66.5t40.5 -118.5q0 -26 -11 -51t-26.5 -44.5t-43.5 -40t-50 -34.5t-60 -32t-59.5 -27t-61 -25t-53.5 -22q145 -76 178 -146q46 -24 71 -39.5t52.5 -40t39.5 -53 t12 -65.5q0 -31 -5 -58t-20.5 -56t-39.5 -49t-65.5 -33t-95.5 -13q-87 0 -218 44.5t-266 126.5t-210 173q-108 72 -173 154.5t-65 164.5zM106 788q0 -86 83.5 -175.5t200.5 -153.5t238.5 -105t200.5 -41q54 0 92 15t56 41t25.5 52.5t7.5 57.5q0 50 -59.5 99.5t-145 84 t-171 61.5t-144.5 40l-60 14q12 3 33.5 8.5t83 23.5t117.5 37.5t124 49t117.5 59.5t83 67.5t33.5 74.5q0 62 -46.5 103.5t-146.5 41.5q-63 0 -154.5 -23.5t-189.5 -67.5t-183.5 -99t-140.5 -125.5t-55 -139.5z" />
<glyph unicode="=" horiz-adv-x="1294" d="M20 530q0 171 218 215q-33 33 -45 76q-173 57 -173 207q0 38 11.5 69.5t28 54.5t47.5 41t56.5 29.5t70.5 19.5t73 12t80.5 6t77 2h77.5h25q207 0 292 -13q207 -33 243 -162q172 -51 172 -202q0 -92 -57.5 -143.5t-157.5 -75.5q33 -36 43 -76q172 -51 172 -203 q0 -35 -8.5 -65t-27 -52.5t-39 -40.5t-53 -31t-60 -22t-69 -15t-70.5 -9.5t-74.5 -4.5t-71.5 -1.5t-70 -0.5q-57 0 -92.5 0.5t-93 4t-96 10.5t-86 20t-78 31.5t-56 47t-36.5 65.5q-173 57 -173 206zM66 530q0 -32 11 -58t28 -45t46.5 -34t55.5 -25t67.5 -16.5t71 -10 t76.5 -5t73 -2t72 -0.5t72 0.5t73 2t76 5t70.5 10t67 16.5t55 25t46 34t27.5 45t11 58q0 35 -11 62.5t-35.5 47t-49 33.5t-67 22.5t-71.5 13.5t-82 7t-79 2.5t-80 0.5h-23h-23q-60 0 -92 -0.5t-90.5 -4t-92.5 -10t-77.5 -20.5t-67.5 -33.5t-41 -50.5t-17 -70zM66 1028 q0 -36 12 -64.5t38 -48.5t53.5 -35t71 -24t77 -14.5t85.5 -7.5t82.5 -2.5t81.5 -0.5t81.5 0.5t82 2.5t85 7.5t76.5 14.5t70.5 24t53 35t37.5 48.5t12 64.5q0 35 -11 62.5t-35.5 47t-49 33.5t-67 22.5t-71.5 13.5t-82 7t-79 2.5t-80 0.5h-23h-23q-60 0 -92 -0.5t-90.5 -4 t-92.5 -10t-77.5 -20.5t-67.5 -33.5t-41 -50.5t-17 -70z" />
<glyph unicode="&#x3e;" horiz-adv-x="1294" d="M63 1098q0 81 57.5 135.5t180.5 54.5q143 0 369.5 -101.5t333.5 -236.5q229 -150 229 -305q0 -75 -58.5 -154.5t-149.5 -143t-195 -115t-201.5 -79.5t-163.5 -28q-188 0 -219 145q-51 7 -86.5 29t-52.5 52t-24 57.5t-7 56.5q0 95 85 161.5t267 121.5q-73 38 -118.5 71 t-65.5 74q-181 92 -181 205zM109 1098q0 -43 40 -85t95 -72.5t133.5 -61.5t133.5 -47.5t119 -34.5t68 -19q-11 -3 -75 -18.5t-118.5 -29.5t-129.5 -41.5t-127 -56.5t-89.5 -71.5t-37.5 -89.5q0 -158 180 -158q79 0 200.5 41t238.5 105t200.5 153.5t83.5 175.5 q0 69 -55 139.5t-140.5 125.5t-183.5 99t-189.5 67.5t-154.5 23.5q-100 0 -146 -41.5t-46 -103.5z" />
<glyph unicode="?" horiz-adv-x="1472" d="M-20 1202q0 72 24.5 132t65.5 101.5t97.5 74.5t116 52.5t127 32t125 17t113.5 4.5q185 0 331 -59t226 -173q246 -134 246 -423q0 -55 -7 -103.5t-17.5 -85.5t-30 -70t-37 -56.5t-47 -46t-51.5 -36.5t-58 -31t-59.5 -26.5t-63.5 -25.5t-63 -25q-57 -24 -134 -77t-132 -71 q82 -25 134 -94.5t52 -157.5q0 -111 -75.5 -181.5t-186.5 -70.5q-84 0 -151.5 42.5t-96.5 113.5q-82 24 -132 87.5t-50 152.5q0 75 39.5 137.5t105.5 95.5q-1 2 -2 7t-2 7q-84 24 -134 90t-50 162q0 75 37 131q-46 40 -66 89q-93 28 -143.5 106t-50.5 178zM25 1202 q0 -107 66.5 -180.5t182.5 -73.5q57 0 100.5 15.5t68.5 38t45 45t43 38t49 15.5q12 0 24 -3.5t25.5 -19t13.5 -41.5q0 -35 -26 -58t-59 -32.5t-87.5 -24.5t-87.5 -30q-135 -61 -135 -193q0 -100 65 -159.5t164 -59.5q56 0 110 18.5t89.5 41.5t83 54.5t76.5 45.5t84.5 36 t93 37.5t85 49t76 74t48.5 110t20 158.5q0 116 -46 206.5t-127 146.5t-188 85t-233 29q-53 0 -106 -4t-116 -15t-118.5 -28.5t-108.5 -46.5t-91 -66.5t-61 -91t-23 -117.5zM291 199q0 -91 63.5 -149t157.5 -58q92 0 154.5 58t62.5 149t-63 154t-154 63q-92 0 -156.5 -63 t-64.5 -154z" />
<glyph unicode="@" horiz-adv-x="2131" d="M41 694q0 189 69 356t193 290.5t306.5 195.5t398.5 72q227 0 420.5 -81t318.5 -227q162 -107 253 -268t91 -356q0 -270 -116.5 -423t-362.5 -159q1 -3 2 -9t2 -9h8q72 0 115 -51t43 -115q0 -61 -43.5 -110.5t-109.5 -79.5t-148 -50.5t-154 -28.5t-133 -8 q-233 0 -430 85.5t-332 236.5q-184 124 -287.5 317.5t-103.5 421.5zM86 694q0 -181 71 -342t195 -277.5t300.5 -184.5t377.5 -68q73 0 158.5 12t176 36.5t149.5 72t59 110.5q0 47 -30.5 84t-82.5 37q-30 0 -68.5 -14t-75.5 -30t-112.5 -30t-171.5 -14q-128 0 -247 47.5 t-207 128.5t-140.5 194t-52.5 238q0 182 83 320t225.5 210t322.5 72q151 0 280.5 -60t209 -172.5t79.5 -252.5q0 -40 -5 -78t-16 -74.5t-32 -58.5t-49 -22q-10 0 -17.5 1.5t-12.5 6t-8 10t-4.5 16t-1.5 20.5v28t1 34.5t1.5 42.5t0.5 51v29.5t-1.5 37t-4.5 46t-10 46 t-16.5 48t-25 40.5t-35.5 36t-48 22t-62 9q-58 0 -100.5 -39.5t-57.5 -110.5q-19 67 -75 108.5t-129 41.5q-64 0 -116.5 -22t-89 -59.5t-61 -89.5t-36 -111t-11.5 -124q0 -87 17.5 -160t54 -130.5t98.5 -90t144 -32.5q92 0 155 47.5t86 140.5q24 -86 99.5 -137t212.5 -51 q233 0 342.5 141t109.5 395q0 162 -68.5 301.5t-186 236t-278.5 151.5t-341 55q-206 0 -380 -68.5t-292 -185.5t-184 -276t-66 -339zM911 717q0 38 28 64t67 26q38 0 65 -26t27 -64q0 -36 -27 -63t-65 -27t-66.5 27.5t-28.5 62.5z" />
<glyph unicode="A" horiz-adv-x="1611" d="M20 451q0 115 9.5 224.5t33 227.5t59.5 219.5t94.5 194t132.5 157.5t177 103.5t226 38.5q285 0 454 -217q96 -54 168.5 -150t115 -205t69.5 -243t36 -251t9 -243q0 -69 -4.5 -123.5t-16 -115.5t-35.5 -106t-60 -82.5t-92.5 -57t-129.5 -19.5q-193 5 -275 162 q-104 32 -157 131q-26 -137 -100.5 -215t-223.5 -78q-183 0 -264 158q-69 20 -116 70.5t-70 122.5t-31.5 142t-8.5 155zM66 451q0 -59 4 -108t14 -104t30.5 -97t50 -77t76 -54t105.5 -19q64 0 113.5 19.5t80.5 51.5t52.5 80t31.5 97t15 110h170q13 -81 30 -136.5t49 -109.5 t85.5 -82.5t128.5 -29.5q54 0 98 14t74 37.5t52.5 59.5t35.5 73.5t20.5 86.5t10 92t2.5 96q0 107 -6.5 206.5t-25 214.5t-48.5 212t-80 189t-115.5 156.5t-159.5 103t-208 38.5q-115 0 -212 -37t-166 -100t-123.5 -151.5t-88.5 -186.5t-56.5 -211.5t-31 -218.5t-8.5 -215z M678 729q25 225 41 428h29q5 -86 14 -193t16 -171l6 -64h-106z" />
<glyph unicode="B" horiz-adv-x="1632" d="M43 717v67v160v-2q1 76 5.5 134.5t14.5 120t26 107t42 90.5t61.5 76.5t84.5 59t111.5 44t142 25.5t176.5 9q473 0 630 -236q234 -123 234 -393q0 -100 -34 -180t-99 -125q178 -88 178 -336q0 -119 -39.5 -212t-105 -151.5t-157.5 -96t-188 -52t-206 -14.5 q-278 0 -421.5 43.5t-209.5 158.5q-76 33 -124.5 87t-75.5 143.5t-36.5 198t-9.5 274.5zM87 876q0 -41 0.5 -90.5t0.5 -68.5q0 -118 4.5 -202t18.5 -160t35.5 -126t59 -92.5t85 -66.5t117.5 -41t153 -23t195 -6q103 0 192.5 13.5t176 47.5t147.5 87.5t98 138.5t37 194 q0 150 -73 231t-199 101q112 13 169.5 97t57.5 212q0 209 -161 325t-494 116q-116 0 -205.5 -14.5t-154 -39t-110.5 -67t-74 -89.5t-44.5 -116t-22.5 -135.5t-8 -159.5q-1 -25 -1 -66zM641 547q0 38 29 67t67 29t67.5 -29t29.5 -67t-29 -66t-68 -28q-38 0 -67 28t-29 66z M641 1075q0 38 29 67t67 29t67.5 -29t29.5 -67t-29 -66t-68 -28q-38 0 -67 28t-29 66z" />
<glyph unicode="C" horiz-adv-x="1556" d="M25 774q0 180 50.5 333t146 266.5t244.5 178t335 64.5q100 0 192 -19t180.5 -69t133.5 -127q213 -102 213 -330q0 -69 -18.5 -126.5t-48 -95t-67.5 -64.5t-74.5 -39t-70.5 -13q74 -41 115 -121q53 -20 94.5 -53.5t73.5 -101.5t32 -160q0 -109 -33 -195t-88.5 -141 t-132.5 -91.5t-160 -51.5t-177 -15q-190 0 -339.5 67t-252.5 189q-168 105 -258 292t-90 423zM70 774q0 -167 49 -309.5t140 -248t230.5 -165t311.5 -59.5q87 0 163.5 13.5t148 46.5t123 83t82 128t30.5 177q0 68 -19.5 121t-48 83.5t-64.5 50.5t-66 27t-56 7q-38 0 -75 -6 t-58 -6q-51 0 -83 25.5t-32 82.5q0 103 115 103q5 0 36 -3t74 -3q37 0 76.5 16.5t77.5 49.5t62 92t24 134q0 79 -32 142t-83 102.5t-119.5 65.5t-136.5 36.5t-139 10.5q-141 0 -259.5 -39.5t-205 -111t-147 -170.5t-90 -219.5t-29.5 -256.5z" />
<glyph unicode="D" horiz-adv-x="1898" d="M41 717v225q0 110 9.5 195t31.5 153t52.5 117t80 85t105.5 58t136.5 35t166.5 18t202 5q266 0 449.5 -58t290.5 -200q153 -88 231 -256.5t78 -440.5q0 -180 -41.5 -321.5t-117.5 -238.5t-187 -160.5t-244 -92t-295 -28.5q-305 0 -463 44.5t-231 168.5q-146 66 -200 221.5 t-54 470.5zM86 717q0 -118 6.5 -205.5t24 -162.5t42.5 -126.5t68.5 -92t96 -64.5t130 -39.5t165 -21t206.5 -5.5q193 0 343.5 44t263.5 137t173 248.5t60 367.5q0 182 -39.5 316.5t-108.5 220t-177 137.5t-231 72t-284 20q-110 0 -190.5 -4.5t-157 -17t-129 -33t-99 -54 t-75.5 -79t-50 -109t-29.5 -143t-8.5 -181.5v-225zM766 578q0 6 8 68t8 136q0 73 -8 133.5t-8 71.5q0 33 16 52.5t29.5 23.5t26.5 4q35 0 60 -30t37 -77t17.5 -91t5.5 -87q0 -42 -6 -87t-19 -92t-38.5 -77t-60.5 -30q-23 0 -45.5 18t-22.5 64z" />
<glyph unicode="E" horiz-adv-x="1386" d="M41 803q0 171 10 287t38.5 211t73.5 150t121.5 92.5t175 51t242.5 13.5q45 0 74 -0.5t76 -4t79.5 -10.5t73 -20t68 -31t53 -46t39.5 -64q183 -63 183 -252q0 -118 -47.5 -179t-135.5 -83q2 -5 6.5 -14.5t6.5 -14.5q84 -21 131 -82.5t47 -161.5q0 -110 -53.5 -162 t-149.5 -67q2 -3 5 -11.5t5 -11.5q185 -47 185 -276q0 -50 -11.5 -91t-28 -70.5t-47 -53t-57 -38.5t-69.5 -25.5t-72.5 -15.5t-79.5 -7.5t-76.5 -3t-75.5 -0.5h-8q-205 0 -328.5 50.5t-187.5 153.5q-51 24 -91 58.5t-68 74.5t-47.5 96.5t-31 111.5t-18 132t-8.5 147t-2 167z M86 803q0 -126 4 -210.5t17 -176.5t37.5 -150t66.5 -113.5t102.5 -86t146.5 -48.5t199 -18q184 0 266 18q202 44 213 220q1 11 1 22q0 244 -242 244q-43 0 -79.5 -4t-51.5 -8l-16 -3v107q61 -3 102 -3q21 0 37 1q47 2 80.5 6.5t69 17t57.5 33t36.5 55t14.5 82.5 q0 103 -60.5 156t-164.5 53q-25 0 -68 -3t-74 -6l-30 -3v109l145 -2q57 3 97.5 14.5t75.5 36t53 70t18 110.5q0 49 -16 87.5t-39.5 63.5t-63 42.5t-73 26.5t-84.5 13.5t-82 5.5t-79 1q-134 0 -226 -13t-163.5 -48t-113 -87t-68.5 -142t-36 -199t-9 -271z" />
<glyph unicode="F" horiz-adv-x="1357" d="M41 694v76q0 116 3.5 193.5t18 173.5t40.5 158.5t73.5 127t115 101.5t167 60.5t227.5 23.5q62 0 109 -2.5t106 -13.5t102 -29.5t82 -53t60 -82.5q91 -34 141.5 -101.5t50.5 -186.5q0 -257 -233 -295q5 -14 8 -19q40 -11 72.5 -33t52 -45t33.5 -54t20 -52t9.5 -48t3.5 -33 v-15q0 -140 -75 -215.5t-204 -75.5l-74 2q-5 -78 -15 -137.5t-35 -121.5t-63 -102.5t-101.5 -66t-147.5 -25.5q-200 0 -295 166q-44 16 -80 43t-61.5 66t-44.5 79.5t-31 96.5t-19 103t-10.5 112t-4.5 111.5t-1 113.5zM86 770q0 -260 11 -364q32 -299 182 -380 q62 -34 145 -34q79 0 136.5 27t90.5 68t53.5 106t28 122.5t10.5 137.5q56 -11 117 -11q108 0 171 63.5t63 182.5v14t-3.5 34.5t-11 49t-25 52t-42 49t-65 35t-91.5 14.5q-17 1 -45.5 -1t-48.5 -5l-19 -2v106q39 -8 105 -8h6q274 0 274 256q0 55 -14.5 98t-38 72t-60 50.5 t-72 32.5t-84 18t-86.5 8.5t-87 1.5q-119 0 -211.5 -22t-155.5 -57t-107 -96.5t-68.5 -120.5t-37.5 -149.5t-16.5 -164.5t-3.5 -183z" />
<glyph unicode="G" horiz-adv-x="1822" d="M25 805q0 195 69 350.5t190.5 255.5t284.5 152.5t355 52.5q82 0 157.5 -10t153 -32.5t139 -66t94.5 -104.5q201 -91 201 -291q0 -179 -121 -248q26 -30 39 -53q223 -102 223 -385q0 -121 -39.5 -223.5t-108 -175t-161.5 -124t-200 -76t-224 -24.5q-483 0 -712 277 q-340 210 -340 725zM70 805q0 -403 219.5 -608t623.5 -205q109 0 210 23t188 70.5t152 114.5t102 162t37 207q0 187 -110.5 287t-317.5 100q-61 0 -109.5 -8t-95 -27.5t-73.5 -61t-28 -101.5q0 -47 17.5 -75t42 -38t49 -16.5t42 -19t17.5 -36.5q0 -55 -78 -55q-84 0 -139 74 t-55 182q0 113 67.5 191.5t186.5 78.5q34 0 100 -15t103 -15q118 0 178.5 65t60.5 176q0 74 -34.5 131.5t-88 91.5t-126.5 55.5t-142.5 29.5t-144.5 8q-183 0 -337.5 -49.5t-270 -143.5t-181 -241t-65.5 -332z" />
<glyph unicode="H" horiz-adv-x="1826" d="M37 780q0 64 1.5 118t6.5 123.5t13.5 126t23.5 119.5t35.5 112t51 95t68 76t88.5 48t111 18q209 0 299 -164q93 -34 148 -117q33 136 114.5 208.5t233.5 72.5q181 0 280 -164q47 -17 86.5 -49t67 -76.5t49 -93.5t34.5 -111t22 -118t13 -125t5.5 -121t1.5 -117 q0 -67 -1 -118.5t-6 -123t-12 -126.5t-21.5 -120t-34.5 -112.5t-50 -94.5t-68 -76.5t-89.5 -48t-112.5 -18.5q-215 0 -305 166q-91 33 -146 113q-35 -134 -116 -206.5t-228 -72.5q-186 0 -285 164q-54 20 -97 60.5t-72 90t-49.5 117.5t-32 130t-18 141.5t-8 139t-1.5 134.5z M82 780q0 -82 2 -145t10 -149.5t22 -150.5t40.5 -132t63 -111.5t92 -71.5t124.5 -28q59 0 107 15t82 40t59 65t40.5 83.5t26 103t15 115t6.5 127.5h123q2 -72 6.5 -127.5t14.5 -115t25.5 -103t41 -83.5t59.5 -65t82 -40t107 -15q54 0 100 17.5t79 45.5t60 72.5t44.5 89.5 t30.5 106t19.5 113t10.5 120t5 116.5t1 111.5q0 81 -2 145t-10 149.5t-22 150t-40.5 132t-62.5 111t-90.5 71.5t-122.5 28q-60 0 -108 -15t-82 -40t-59.5 -65.5t-41 -84t-25.5 -103.5t-14 -115.5t-6 -127.5h-123q-2 72 -7 127.5t-15 115.5t-26 103.5t-41 84t-59 65.5 t-81.5 40t-106.5 15q-68 0 -122.5 -28t-91 -72t-63.5 -111.5t-41.5 -133t-23 -151t-10.5 -150.5t-2 -145z" />
<glyph unicode="I" horiz-adv-x="1036" d="M41 782q0 83 1 140t5.5 134t12 130t21.5 116t34.5 105.5t50.5 85t68 67.5t90 40.5t114 15.5q206 0 299 -166q52 -19 92.5 -56t67.5 -80.5t46 -108.5t29 -122.5t15.5 -142t6.5 -146t0 -155.5q0 -111 -1 -180.5t-9 -167.5t-23.5 -159t-44 -130.5t-69.5 -108t-103 -64.5 t-142 -26q-205 0 -301 166q-52 19 -92.5 55.5t-67.5 80.5t-46.5 109t-29.5 123t-15.5 142.5t-7 147t-1.5 155.5zM86 782q0 -78 1 -132t4.5 -127t10.5 -123t19.5 -110t30.5 -100t44.5 -80.5t60.5 -64t80 -38.5t101 -15q71 0 126 24.5t91 61t61.5 102t39 123.5t20.5 150.5 t8.5 158t1.5 170.5t-1.5 170.5t-8.5 158t-20.5 150.5t-39 123t-61.5 101.5t-91 61t-126 24.5q-50 0 -92 -11t-74.5 -33.5t-58.5 -50t-45 -69.5t-33 -81t-22.5 -95t-14 -102.5t-8 -112.5t-3.5 -115t-1 -119z" />
<glyph unicode="J" horiz-adv-x="1398" d="M0 362q0 134 70 219t190 85q51 0 90 -13t58 -26t24 -13q8 0 9.5 13t-1.5 48t-7.5 79.5t-8.5 123.5q-2 62 -2 128v38q3 194 18 276q39 208 194 269q71 27 167 27q209 0 307 -168q41 -16 75 -42.5t58.5 -56t44 -72t31.5 -78t21 -87.5t13 -87t6 -89.5t2.5 -82.5t0.5 -78v-5 v-37q0 -130 -7 -231.5t-26 -201.5t-51.5 -173t-84.5 -136.5t-123.5 -103t-170.5 -62t-223 -22.5q-141 0 -264.5 53.5t-188.5 153.5q-102 52 -161.5 141t-59.5 211zM45 362q0 -90 40 -162.5t106.5 -117t148 -67.5t170.5 -23q116 0 208 21t159 58.5t115.5 98.5t79 130.5 t48.5 164.5t24.5 191.5t6.5 220.5q0 199 -7 274q-35 366 -268 413q-35 7 -75 7q-69 0 -123.5 -18.5t-89 -44t-59 -73t-36.5 -84.5t-18 -102t-7 -101t-1 -104q0 -81 3.5 -157.5t8 -126.5t9 -94.5t6.5 -70t0 -44.5t-10.5 -26t-24.5 -7q-11 0 -22 12t-27 31.5t-35 32.5 q-42 27 -115 27q-99 0 -157 -73t-58 -186z" />
<glyph unicode="K" horiz-adv-x="1695" d="M41 782q0 93 0.5 140.5t4 132.5t10 131t19.5 115t32 107t48 84t66.5 69t88.5 39t114 16q201 0 291 -164q52 -16 108 -72q106 236 324 236q93 0 161 -43t103 -117q94 -30 146.5 -111.5t52.5 -187.5q0 -153 -119 -391q106 -157 165.5 -300t59.5 -294q0 -164 -94.5 -266.5 t-257.5 -102.5q-168 0 -283 166q-91 41 -153 123q-35 -141 -113.5 -215t-226.5 -74q-205 0 -295 164q-37 13 -68 33.5t-55 51t-42.5 60t-32 76t-23 82t-15.5 94.5t-9.5 96.5t-4.5 106t-1.5 105.5t-0.5 110zM86 782q0 -113 1 -171t7 -157t18.5 -152t37 -122t60 -103.5 t89.5 -59.5t125 -25q66 0 118 20t87 52.5t60.5 86.5t39.5 107.5t22 132t10.5 143t2.5 156.5h8q9 -50 16 -85t20.5 -94.5t27 -104t34.5 -101.5t43 -98t53 -84t65 -70t77.5 -44t91.5 -17q142 0 224.5 89.5t82.5 233.5q0 150 -61.5 290.5t-171.5 301.5q36 73 54.5 111.5 t45.5 126.5t27 155q0 116 -68.5 193.5t-185.5 77.5q-45 0 -84.5 -13t-70 -33t-57.5 -54t-46 -65t-36.5 -78t-28 -80.5t-22 -86t-17 -81t-13.5 -76.5h-8q-3 101 -12.5 178.5t-32.5 153.5t-59.5 125t-96 79.5t-139.5 30.5q-71 0 -125 -25t-89.5 -59.5t-60 -103.5t-37 -121.5 t-18.5 -151.5t-7 -157t-1 -171z" />
<glyph unicode="L" horiz-adv-x="1255" d="M39 760v13q0 80 1 129.5t9 148t23 164t46.5 148.5t75.5 133t113.5 85t157.5 35q213 0 295 -162q223 -73 223 -473q0 -245 -35 -403q65 -14 113 -56t69 -96q187 -54 187 -281q0 -333 -524 -333q-201 0 -319.5 46.5t-178.5 149.5q-80 35 -131 95t-78.5 158t-37 212 t-9.5 287zM84 760q0 -111 4 -193t14.5 -160.5t28.5 -132.5t47 -102.5t69 -78.5t95.5 -52t126 -31.5t160.5 -9.5q479 0 479 289q0 254 -277 254q-28 0 -58.5 -3.5t-46.5 -7.5l-17 -4q65 152 65 596q0 105 -16 184.5t-42.5 129t-67 80t-84.5 42t-99 11.5q-79 0 -141 -33 t-101.5 -80t-67.5 -125.5t-41.5 -140.5t-20.5 -155.5t-8 -140t-1 -122.5v-14z" />
<glyph unicode="M" horiz-adv-x="2019" d="M39 676v65q0 88 3.5 163t16.5 168t34 166.5t58.5 146.5t88.5 121.5t126.5 79t168.5 30.5q115 0 202 -48.5t137 -129.5q52 -22 97 -64q91 242 364 242q229 0 348 -180q57 -26 102.5 -70t76 -96t53 -121t35 -132t19.5 -142.5t9 -140.5t2 -136q0 -235 -14 -348 q-55 -447 -352 -447q-90 0 -151.5 35t-98.5 117q-44 12 -80 35q-32 -96 -78.5 -133t-115.5 -37q-66 0 -111.5 31.5t-77.5 113.5q-47 3 -88 33q-36 -107 -102.5 -151t-165.5 -44q-162 0 -248 156q-51 15 -91.5 52t-67 82t-46 108.5t-29.5 119.5t-15.5 127.5t-7 119.5 t-1.5 108zM84 741q0 -227 13 -337q48 -412 284 -412q63 0 110.5 20.5t86.5 69t59.5 140t21.5 224.5l3 431h12q5 -217 19.5 -373.5t35.5 -251.5t52.5 -150.5t65 -74.5t79.5 -19q57 0 95.5 32.5t71.5 124t52.5 266t28.5 446.5h12l-8 -431q0 -107 13.5 -187t36.5 -130.5 t58.5 -81.5t74.5 -43t89 -12q67 0 119.5 29.5t86 70.5t57 112t35 126t17.5 141.5t6.5 129t0.5 117.5v23q0 87 -2.5 155.5t-13 158.5t-28 158t-50.5 138.5t-78 116t-112.5 74.5t-152.5 29q-74 0 -132.5 -22.5t-98 -57.5t-68.5 -91t-45 -108.5t-25.5 -125.5t-12.5 -126.5 t-5 -126.5h-12q0 67 -3.5 126t-14.5 128t-28.5 124.5t-48.5 109t-72 90t-100.5 58.5t-133.5 22q-85 0 -153.5 -28.5t-114.5 -75t-80.5 -115.5t-53.5 -139t-30.5 -158t-15 -159t-3.5 -155z" />
<glyph unicode="N" horiz-adv-x="1781" d="M41 782q0 110 2 180t11.5 167.5t26.5 159t50.5 130t80.5 107t118 64.5t162 26q235 0 352 -182q48 -21 90 -60q29 107 102.5 174.5t192.5 67.5q187 0 266 -158q51 -16 90.5 -51.5t65 -75t43 -108t26.5 -119.5t13.5 -143.5t5 -146t0.5 -158.5v-9v-8q0 -109 -2 -180 t-11.5 -168t-27.5 -159t-51.5 -130.5t-81 -107.5t-119 -65t-162.5 -26q-207 0 -319 174q-64 25 -109 70q-33 -119 -103 -181.5t-194 -62.5q-183 0 -270 160q-51 16 -91 52t-66 77t-44 110.5t-27 123.5t-14 146t-5.5 149t-0.5 161zM86 782q0 -109 1 -170.5t7 -157.5 t17.5 -151.5t34 -122.5t55 -102.5t81.5 -60.5t113 -25q83 0 141 36.5t88 101.5t47 153.5t17 192.5q0 34 1 70q0 72 -1 148h12q5 -91 15.5 -169.5t29.5 -161.5t51 -147t75.5 -116t107 -80t141.5 -28q65 0 118 15t93 38.5t71 64t51.5 80.5t35.5 100t22.5 110t12 123t5.5 126.5 t1 132.5v22q0 78 -0.5 117.5t-2 111t-5.5 110t-11 98.5t-18.5 93.5t-27.5 77.5t-38.5 68t-50.5 47.5t-65.5 33.5t-81.5 10q-52 0 -94 -17.5t-71.5 -44t-51.5 -70t-35 -84t-21 -99t-10 -101.5q-2 -31 -2 -71v-34q1 -62 2.5 -94.5t5.5 -85t4 -65.5h-12q-23 231 -36 302 q-51 295 -196 399q-91 65 -220 65q-82 0 -146 -24.5t-106.5 -61t-72 -101.5t-45.5 -123t-24.5 -150.5t-10 -158.5t-1.5 -170z" />
<glyph unicode="O" horiz-adv-x="1906" d="M27 797v7q1 158 47 292q48 137 129 232.5t191 161.5q111 68 237 98q118 29 245 28h17q191 0 352 -72t273 -203q171 -110 267.5 -296t96.5 -418q0 -184 -66.5 -338.5t-182.5 -261t-278.5 -165.5t-350.5 -59q-193 0 -351.5 70t-267.5 197q-170 110 -264 298.5t-94 428.5z M72 797q0 -235 94.5 -417.5t269.5 -285t404 -102.5q239 0 428 95.5t297 273.5t108 409q0 172 -58.5 321t-160.5 254.5t-247.5 165.5t-313.5 60h-16q-119 0 -231 -27q-120 -29 -225 -92t-183 -153q-77 -89 -122 -219q-44 -127 -44 -276v-7zM713 958q0 58 41 99t100 41 q58 0 98.5 -40.5t40.5 -99.5t-40.5 -100t-98.5 -41t-99.5 41.5t-41.5 99.5z" />
<glyph unicode="P" horiz-adv-x="1658" d="M43 751v31q0 117 5.5 206t20.5 172.5t39.5 143.5t63.5 112.5t92 86.5t125.5 58.5t164 35.5t206.5 11q227 0 384 -49.5t240 -176.5q121 -61 185.5 -179t64.5 -310q0 -130 -32.5 -237.5t-95 -188.5t-163 -125.5t-229.5 -44.5q-71 0 -129 10q2 -25 2 -71q0 -91 -17.5 -164.5 t-56.5 -136t-112 -97.5t-174 -35q-223 0 -324 172q-63 25 -109.5 69.5t-74 113.5t-44 128.5t-23 156t-8 151t-1.5 157.5zM88 782q0 -261 14 -374q38 -304 207 -384q66 -32 154 -32q72 0 127 21t90 56.5t57.5 86t31.5 105t9 118.5q0 72 -8 129q76 -23 180 -23 q118 0 209.5 41.5t149 116t87 174t29.5 219.5q0 129 -34 224t-91 152.5t-145 92t-181 46.5t-214 12q-108 0 -193.5 -10t-153.5 -33.5t-117.5 -55.5t-86 -82t-60 -107t-37 -135.5t-19 -163t-5.5 -194.5zM702 1071q0 38 29.5 67t67.5 29t67 -29t29 -67t-29 -66t-67 -28 q-39 0 -68 28t-29 66z" />
<glyph unicode="Q" horiz-adv-x="1906" d="M27 797v7q0 158 47 292q47 137 128.5 232.5t192 162t236.5 97.5q118 28 245 28h17q191 0 352 -72t273 -203q171 -110 267.5 -296t96.5 -418q0 -246 -129 -449q34 -34 43 -92q79 -6 123.5 -55.5t44.5 -128.5q0 -71 -54.5 -131t-135.5 -98t-179 -64.5t-181.5 -37.5 t-145.5 -11q-30 0 -47 0.5t-53.5 3t-60 8t-54.5 17t-50 27.5t-34 41.5t-17 57.5q-131 22 -157 111q-251 58 -410 244q-170 110 -264 298.5t-94 428.5zM72 797q0 -235 94.5 -417.5t269.5 -285t404 -102.5q76 0 133 8l2 -8q-30 -5 -48 -10t-43 -16.5t-37.5 -32t-12.5 -50.5 q0 -32 13.5 -56.5t39.5 -38.5t50.5 -23t61 -12t56 -4t49.5 -1q58 0 136 9.5t169.5 33t167.5 56t127 84.5t51 114q0 70 -43.5 116t-114.5 46q-65 0 -125 -26t-133.5 -68.5t-134.5 -63.5l-2 8q214 82 342.5 274.5t128.5 438.5q0 172 -58.5 321t-160.5 254.5t-247.5 165.5 t-313.5 60h-16q-120 0 -231 -27q-120 -29 -225 -92t-182.5 -153t-122.5 -219q-44 -127 -44 -276v-7zM713 958q0 58 41 99t100 41q58 0 98.5 -40.5t40.5 -99.5t-40.5 -100t-98.5 -41t-99.5 41.5t-41.5 99.5z" />
<glyph unicode="R" horiz-adv-x="1716" d="M41 692q0 185 9 304.5t37 232t78.5 176.5t136.5 114t208 69.5t295 19.5q215 0 382.5 -59t252.5 -183q241 -133 241 -414q0 -130 -35.5 -222.5t-123.5 -156.5q76 -92 130 -203q51 -105 50 -207v-11q0 -147 -98 -248t-250 -101q-189 0 -291 164q-74 30 -119 80 q-34 -114 -111.5 -179t-218.5 -65q-227 0 -325 170q-52 20 -92 56.5t-66 76t-44 102t-26.5 109.5t-13.5 125.5t-5.5 122.5t-0.5 127zM86 692q0 -92 1 -140.5t7.5 -135t20 -135t40 -111.5t64.5 -96.5t97 -57.5t135 -24q67 0 120 21t86.5 50.5t57.5 83t35.5 95t17.5 112t7 109 t1 109.5v6h21q39 -298 133.5 -442t259.5 -144q132 0 217.5 87.5t85.5 215.5v12q0 56 -17 114q-19 65 -53 122.5t-65.5 100t-67.5 81.5q98 57 140.5 149.5t42.5 221.5q0 101 -36 181.5t-97 133.5t-147.5 87.5t-182 49.5t-205.5 15q-98 0 -177 -6.5t-145.5 -22.5t-117.5 -37 t-91.5 -55.5t-70 -72.5t-50.5 -93t-34 -111.5t-20.5 -135t-10 -156.5t-2.5 -181zM672 1085q0 38 29 67.5t67 29.5t67 -29.5t29 -67.5t-29 -66t-67 -28t-67 28t-29 66z" />
<glyph unicode="S" horiz-adv-x="1538" d="M12 389q0 128 75 222t208 94q24 0 24 6q0 7 -28 18q-215 92 -215 375q0 110 31 196.5t86.5 145t136.5 97.5t177 56t212 17q466 0 590 -217q207 -97 207 -314q0 -122 -60 -204.5t-178 -92.5q13 -16 27 -40q220 -100 225 -402v-7q0 -114 -34 -204q-35 -93 -95.5 -154.5 t-147.5 -102t-185 -58t-212 -17.5q-85 0 -170 12t-173 38t-162.5 75t-117.5 115q-221 116 -221 346zM57 389q0 -91 42.5 -162.5t108 -114.5t153 -71t168.5 -38.5t163 -10.5q106 0 197.5 16t172.5 52.5t138 93.5q58 56 90 142q32 83 31 187v6q-1 104 -28 180.5t-68.5 116.5 t-92 65t-100 35t-91 17t-66.5 19.5t-25 35.5q0 37 59 37q24 0 76 -16t98 -16q110 0 167 77t57 189q0 65 -22.5 117.5t-58 87.5t-87.5 61t-102.5 40t-112.5 22.5t-108 11t-97 2.5q-135 0 -241.5 -25.5t-188 -80t-125 -146t-43.5 -215.5q0 -91 25 -160t65 -107t88.5 -63.5 t97 -38t88.5 -22t65 -22.5t25 -34q0 -41 -51 -41q-33 0 -105.5 21.5t-123.5 21.5q-112 0 -175 -80t-63 -190z" />
<glyph unicode="T" horiz-adv-x="1382" d="M-41 1305q0 156 103.5 229.5t324.5 73.5h426q323 0 401 -178q189 -69 189 -269q0 -78 -28.5 -138.5t-77 -95t-105 -52t-119.5 -17.5h-2l-4 -1q1 -1 4 -1q57 -268 57 -438q0 -50 -1 -86t-4.5 -89.5t-10.5 -93t-20.5 -88t-32.5 -83t-47.5 -69.5t-64.5 -57t-85 -35.5 t-108 -13.5q-207 0 -299 166q-48 17 -86 48t-62.5 67t-42.5 86.5t-27.5 94t-14.5 102.5t-6 98.5t-1 95.5q0 108 45 348q-78 45 -113 121q-188 67 -188 275zM4 1305q0 -62 20.5 -109t54 -75.5t79.5 -45.5q44 -17 90 -22q28 -3 59 -3q18 0 37 1q-9 -30 -23 -81t-37.5 -181.5 t-23.5 -227.5q0 -61 1.5 -103.5t8.5 -106.5t19.5 -109t37 -95.5t58.5 -82t86.5 -52t118.5 -20.5t118.5 20.5t86.5 52t58.5 82t37 95.5t19.5 109t8.5 106.5t1.5 103.5q0 97 -18 219.5t-36 196.5l-18 74q36 -4 73 -4q11 1 21 1q48 2 93.5 20.5t80.5 47.5t56.5 78t21.5 111 q0 258 -381 258h-426q-197 0 -290 -63t-93 -195zM1071 856v2h2q4 -1 4 -1.5t-6 -0.5z" />
<glyph unicode="U" horiz-adv-x="1755" d="M37 872q0 88 1.5 142t10 141.5t24 143t47.5 122t76.5 104.5t113.5 64.5t157 26.5q109 0 189 -44t122 -124q24 -8 45 -21q30 94 108.5 141.5t217.5 47.5q204 0 305 -168q50 -20 90.5 -56t67.5 -78.5t47 -98t31 -106.5t17.5 -113t8.5 -109t2 -101q0 -119 -9 -220 t-32 -203.5t-59.5 -184t-95.5 -153t-136 -119.5t-184 -75.5t-237 -27.5q-416 0 -600 240q-94 55 -159.5 138.5t-101.5 193t-51.5 229t-15.5 268.5zM82 872q0 -161 18 -286.5t66.5 -240.5t128 -190t207 -119t299.5 -44q123 0 223 26t173 72t128 114.5t89.5 146t56 175 t30 194.5t8.5 210q0 61 -2 112t-11 119.5t-23.5 122.5t-42 109.5t-64 93t-92.5 61t-125 23.5q-166 0 -237.5 -79.5t-71.5 -238.5q0 -122 16 -303t16 -250q0 -5 -0.5 -18.5t-1 -19.5t-1.5 -18.5t-2.5 -18.5t-4.5 -15.5t-7.5 -14.5t-11 -10.5t-15 -7.5t-19.5 -2 q-21 0 -34 12.5t-18 36t-6 38.5t-1 38q0 78 15 261t15 292q0 151 -83.5 234.5t-229.5 83.5q-79 0 -140.5 -24.5t-101.5 -60.5t-68.5 -98t-42.5 -114.5t-21.5 -134.5t-9 -133t-1.5 -134z" />
<glyph unicode="V" horiz-adv-x="1687" d="M6 1176q0 117 39 214.5t124.5 161.5t205.5 64q190 0 284 -164q78 -26 136 -98q92 262 333 262q101 0 176.5 -45.5t122.5 -124.5q76 -30 130 -95.5t79 -146.5t25 -172q0 -92 -11 -196.5t-37 -225t-64.5 -233.5t-99 -219t-135 -184.5t-177.5 -125.5t-222 -47 q-258 0 -440 219q-102 61 -185 170.5t-134.5 233t-86.5 264t-49 261t-14 227.5zM51 1176q0 -89 10 -189.5t34.5 -216.5t60.5 -225t93 -211t127 -177.5t167 -121t209 -45.5t209 45.5t167 121t126.5 177.5t92.5 211t60.5 225.5t34.5 216.5t10 189q0 78 -20.5 147.5t-59 125.5 t-102 89t-142.5 33q-197 0 -282.5 -217.5t-85.5 -685.5h-17q0 476 -86.5 689.5t-281.5 213.5q-79 0 -142.5 -33t-102 -89t-59 -125.5t-20.5 -147.5z" />
<glyph unicode="W" horiz-adv-x="2347" d="M18 1102q0 85 9 155t34 138.5t65.5 115.5t108 76t156.5 29q184 0 279 -162q59 -21 110 -72q100 234 344 234q109 0 188.5 -46t123.5 -124q39 -15 90 -53q83 223 286 223q203 -3 281 -160q115 -36 169 -153.5t54 -341.5q0 -66 -6.5 -149t-25 -197t-47 -222.5t-78 -217.5 t-112 -190t-154.5 -131.5t-201 -50.5q-220 0 -324 172q-81 37 -139 101q-107 -273 -408 -273q-225 0 -383 197q-97 53 -173 156t-121 221t-75 256t-40.5 252t-10.5 217zM63 1102q0 -82 7 -173t26 -201.5t48 -211.5t76 -198t107 -168t145 -114.5t185 -43.5q70 0 129 17.5 t102.5 46t78.5 74.5t58 92.5t39.5 111t25.5 119.5t14 128t6.5 127.5t1.5 125.5h12q0 -99 1 -163.5t10 -161.5t24 -161.5t45 -137.5t72 -116.5t106 -72.5t146 -29q101 0 186.5 48.5t143.5 126.5t104 182t72.5 208.5t43.5 214t23 189.5t6 143q0 250 -70.5 357.5t-224.5 109.5 q-49 0 -90.5 -18t-71.5 -45t-53.5 -73t-39 -88.5t-26 -104.5t-16 -108.5t-8.5 -113.5t-3.5 -106t-0.5 -99h-12q-12 280 -24 371q-31 229 -130 316q-80 69 -213 69q-72 0 -130 -25.5t-96.5 -67t-66.5 -100.5t-43.5 -121.5t-25.5 -134t-14 -133.5t-7 -125q0 -11 -0.5 -17 t-1 -15.5t-0.5 -16.5h-12q0 203 -9 295q-47 461 -327 461q-78 0 -137.5 -26.5t-95 -69t-57.5 -105.5t-30 -126.5t-8 -141.5z" />
<glyph unicode="X" horiz-adv-x="1722" d="M20 291q5 251 295 510q-45 41 -76.5 72.5t-70 78.5t-62.5 90.5t-40.5 100t-16.5 114.5q0 146 101.5 252.5t252.5 106.5q201 0 312 -172q62 -27 108 -76q107 248 353 248q96 0 176 -47t125 -125q98 -41 157.5 -132t59.5 -198q0 -72 -22.5 -138.5t-66 -125t-83.5 -100 t-97 -91.5q292 -255 297 -512q0 -149 -107 -246.5t-257 -97.5q-175 0 -291 170q-97 41 -162 125q-124 -295 -356 -295q-101 0 -187 47.5t-133 129.5q-94 39 -151.5 122t-57.5 189zM66 291q0 -129 94 -214t225 -85q95 0 172.5 58.5t124.5 150.5t73 193t29 198h-2h13 q3 -97 29 -198t73 -193t124.5 -150.5t172.5 -58.5q131 0 225 85t94 214q-5 249 -319 510q52 46 82.5 74.5t76 78.5t70 92t43.5 98t19 113q0 127 -89 220.5t-220 93.5q-71 0 -129 -24.5t-98 -68.5t-70 -99t-47 -122t-26 -130.5t-11 -131.5h-11q-2 68 -11 131.5t-26 130.5 t-47 122t-70 99t-98 68.5t-129 24.5q-131 0 -220 -93.5t-89 -220.5q0 -57 19 -113t43.5 -98t70 -92t76 -78.5t82.5 -74.5q-314 -261 -319 -510z" />
<glyph unicode="Y" horiz-adv-x="1554" d="M-10 1290q0 141 87.5 233.5t227.5 92.5q185 0 299 -172q73 -33 127 -96q102 268 336 268q92 0 162 -41.5t106 -118.5q92 -29 145.5 -108.5t53.5 -200.5q0 -177 -94.5 -360.5t-229.5 -327.5q17 -140 17 -303q0 -51 -13.5 -100t-42.5 -95t-71 -81t-104.5 -56t-137.5 -21 q-102 0 -188 42t-133 130q-91 35 -147 114.5t-60 207.5q-1 28 -1 55q0 125 15 246q-152 114 -253 312t-101 380zM35 1290q0 -118 47.5 -249t130 -244.5t182.5 -180.5q-3 -14 -7 -39.5t-10 -108.5q-4 -54 -4 -112q0 -28 1 -57q3 -82 31.5 -143.5t74.5 -96t99.5 -51 t113.5 -16.5q82 0 146 27.5t101.5 72.5t57 98t19.5 109q0 87 -5 166t-11 115l-5 36q134 138 231 319.5t97 354.5q0 133 -72 207t-186 74q-76 0 -136 -33.5t-98 -93.5t-63.5 -129.5t-38 -156t-17.5 -157.5t-5 -149h-11q0 65 -4.5 129t-17 137t-31 136.5t-50 122.5t-71 101 t-96 67.5t-123.5 25.5q-120 0 -195 -79.5t-75 -201.5z" />
<glyph unicode="Z" horiz-adv-x="1482" d="M41 440q0 271 231 447q-48 45 -59 106q-152 78 -152 281q0 69 23 124t55 89.5t89.5 59t101 36t117 18t109.5 7t105 0.5h9.5h8.5h9q202 0 333.5 -42t195.5 -157q221 -93 221 -401q0 -284 -254 -459q58 -39 90 -105q55 -20 94 -52t58.5 -70t27.5 -72.5t8 -69.5 q0 -56 -12 -103.5t-32 -82.5t-52 -63t-65 -47t-79 -32.5t-87 -21t-95.5 -12t-97 -5.5t-98.5 -1q-107 0 -189 8.5t-160 30.5t-135.5 63.5t-93.5 103.5q-110 50 -167.5 151t-57.5 271zM86 440q0 -79 15.5 -143t42 -109.5t68.5 -79t89.5 -54t111 -33t126 -17t141.5 -4.5 q68 0 118 2t113.5 9.5t109 20.5t92 37.5t75.5 58t47 83.5t18 113q0 27 -4 50.5t-14.5 53.5t-32.5 53.5t-54 44t-83.5 32t-116.5 11.5q-112 0 -198 -10.5t-218 -36.5l-2 10q72 18 135 37.5t136.5 50t132.5 65t115.5 83t95 103.5t61.5 127t23 153q0 74 -14.5 134t-39 102.5 t-63.5 74t-82.5 51t-101 31t-114 15.5t-126.5 4q-191 0 -273 -12q-309 -43 -309 -277q0 -127 73 -200t220 -73q158 0 287 37l2 -10q-63 -20 -108 -36t-112.5 -46t-115.5 -60t-101.5 -77t-87 -98.5t-55.5 -121.5t-22 -149z" />
<glyph unicode="[" horiz-adv-x="1161" d="M102 31v966q0 66 1 113t4.5 101t10 91.5t16.5 79t25.5 69t37 55.5t49.5 45t63.5 31t80.5 20t99 6h179q256 0 313 -162q180 -51 180 -246q0 -41 -6 -74.5t-14.5 -58.5t-26.5 -44t-34 -32t-46 -21.5t-52 -13t-63 -7t-69 -3t-78 -0.5q10 -310 10 -575q0 -222 -6 -434 q88 -8 140 -42t71 -108q88 -16 131 -71t43 -173q0 -264 -330 -264h-178q-137 0 -216.5 41t-117.5 125q-49 16 -85.5 43t-60 68.5t-38 85.5t-22 111t-9.5 127t-2 151zM147 236q0 -312 1 -348q8 -212 65 -302q70 -111 252 -118h24h179q284 0 284 219q0 61 -18.5 102 t-42.5 62.5t-80.5 31.5t-96.5 11.5t-128 1.5h-25q25 620 0 1239h38q71 0 104 1t83.5 6t73 18t48 35.5t35 59.5t9.5 88q0 220 -284 220h-179q-195 0 -270 -109q-61 -88 -70 -296q-2 -60 -2 -365v-557z" />
<glyph unicode="\" horiz-adv-x="1343" d="M-20 1397q0 105 62.5 162t139.5 57q71 0 136.5 -43t136.5 -129q43 -21 92 -67t91.5 -98t93.5 -126.5t86 -130.5t82 -132t69 -110q85 -131 137 -216t120.5 -204t103 -204t34.5 -136q0 -105 -63 -162t-140 -57q-132 0 -274 172q-41 16 -91 61.5t-90 93t-97 130.5 t-86.5 129.5t-85.5 138.5t-68 111q-14 23 -55.5 89t-60.5 97l-57 93t-57.5 97.5t-49.5 89.5t-45.5 89.5t-32.5 76.5t-24 72t-7 56zM25 1397q0 -21 6.5 -48.5t22 -64t30.5 -69t43 -82.5t48 -85t56.5 -95t57.5 -93.5t62.5 -100.5t60.5 -97q194 -312 249 -391 q139 -200 240 -255q48 -26 96 -26q60 0 109 45t49 129q0 23 -6.5 51.5t-22 65.5t-30 69t-42.5 82.5t-47 83.5t-56.5 93.5t-57.5 92t-63.5 99t-61.5 96.5q-30 47 -73 114t-69 108t-62.5 96.5t-60.5 89.5t-55.5 76t-55 66.5t-52 51.5t-53 40.5t-51.5 22.5t-54 9 q-60 0 -108.5 -45t-48.5 -129z" />
<glyph unicode="]" horiz-adv-x="1161" d="M-20 -313q0 73 19 121.5t46 75t84.5 39.5t104 15.5t135.5 2.5q-11 334 -11 573q0 293 4 436q-88 8 -139 42t-69 108q-89 16 -131.5 70.5t-42.5 172.5q0 265 329 265h178q135 0 214.5 -41t117.5 -125q43 -14 76 -37.5t56 -51.5t39 -70.5t25.5 -83.5t14.5 -101.5 t6.5 -113.5t1.5 -130v-967q0 -66 -1 -113t-4.5 -101t-10 -91.5t-16.5 -78t-25.5 -68t-37 -55t-49.5 -44.5t-63.5 -31t-80.5 -20t-99 -6h-178q-258 0 -315 162q-178 52 -178 246zM25 -313q0 -219 284 -219h178q195 0 270 108q60 87 70 295q2 60 2 365v557v111q2 274 -13 374 q-24 169 -115 232q-76 53 -214 53h-178q-284 0 -284 -220q0 -31 4 -56.5t11.5 -45.5t19 -35.5t26.5 -26.5t33 -19t39.5 -12.5t46 -7.5t52 -4t58 -1h63.5h38q-25 -619 0 -1239q-179 0 -234 -10q-107 -18 -139 -92q-18 -43 -18 -107z" />
<glyph unicode="^" horiz-adv-x="1089" d="M20 1085q0 62 20 137t59.5 149t91 135.5t120.5 100t142 38.5q163 0 295 -177q87 -42 157.5 -135t107 -197t36.5 -194q0 -74 -48 -130t-120 -56q-117 0 -211 149q-44 12 -82 47q-104 -196 -236 -196q-62 0 -107 40.5t-57 102.5q-72 0 -120 56t-48 130zM66 1085 q0 -57 34.5 -99t87.5 -42q39 0 76 23.5t65.5 60t54 84t42 91t27.5 85.5q15 -54 38 -109t56 -110.5t77.5 -90t92.5 -34.5q53 0 88 42t35 99q0 76 -29 164.5t-78.5 167t-124 130.5t-155.5 52t-155.5 -53.5t-123.5 -133t-78.5 -167.5t-29.5 -160z" />
<glyph unicode="_" d="M0 -311h1024v-172h-1024v172z" />
<glyph unicode="`" d="M190 1593q0 71 46 120.5t114 49.5q117 0 221 -153q71 -25 133.5 -103.5t94.5 -163.5t32 -145q0 -53 -34 -94t-90 -41q-42 0 -117 52t-137 126q-96 58 -179.5 161t-83.5 191zM236 1593q0 -52 37 -115t87 -111.5t102 -82t81 -33.5q35 0 57.5 28t22.5 62q0 44 -21.5 107.5 t-56 124t-87.5 103t-108 42.5q-49 0 -81.5 -36t-32.5 -89z" />
<glyph unicode="a" horiz-adv-x="1548" d="M20 575q0 100 18 190.5t56.5 169t95 136t138.5 90.5t182 33q191 0 285 -119q71 119 229 119q195 0 272 -158q41 -13 74 -35t56 -54.5t39.5 -63.5t26.5 -78t16 -80t9 -88t3 -83.5v-82.5v-18v-20q0 -229 -24 -342q-64 -287 -308 -288q-153 0 -221 115q-99 -115 -293 -115 q-255 0 -381 189q-140 66 -206.5 219.5t-66.5 363.5zM66 575q0 -99 15 -184.5t49 -159.5t84.5 -126.5t126 -82.5t169.5 -30q228 0 303 172q22 -95 74 -133.5t137 -38.5q47 0 85.5 13.5t66.5 34t50 56t36 66.5t24 81t14.5 83.5t7 89t3 83.5t0.5 80v6v5v6v17q0 76 -1.5 118.5 t-8.5 116.5t-25.5 118t-49 91t-82 69.5t-120.5 22.5q-183 0 -223 -186q-25 89 -104.5 137.5t-186.5 48.5q-113 0 -200 -46.5t-139 -127.5t-78.5 -182t-26.5 -218zM594 623q0 38 29 67t67 29t67 -29t29 -67t-29 -66.5t-67 -28.5t-67 28.5t-29 66.5z" />
<glyph unicode="b" horiz-adv-x="1624" d="M29 762v192q0 260 36 410t111 215t205 66q112 0 179 -36.5t102 -119.5q91 -23 137 -94.5t65 -210.5q33 8 74 8q247 -3 381 -195q73 -37 129.5 -99.5t89.5 -138.5t49.5 -157t16.5 -164q0 -99 -16.5 -188.5t-55 -172.5t-96 -143t-146 -95.5t-198.5 -35.5q-90 0 -172 31.5 t-134 99.5q-62 -131 -241 -131q-108 0 -175.5 37.5t-105.5 120.5q-50 13 -87 40.5t-63 76t-42.5 108t-26 150t-13 189.5t-3.5 237zM74 762q0 -153 4.5 -257.5t16.5 -196.5t33 -147.5t56 -96t82.5 -56.5t114.5 -16q58 0 101 17.5t66 42t37.5 58.5t18 58t4.5 49 q13 -60 46.5 -105t79 -70t94.5 -37.5t100 -12.5q101 0 181.5 33t133 88.5t87.5 132.5t50 160t15 176q0 81 -15.5 158.5t-51 152t-87 130t-130 89.5t-173.5 35q-39 0 -76 -9.5t-76 -30.5t-74 -62.5t-61 -98.5q8 33 12.5 82.5t4.5 83.5v33q-8 259 -68 357q-59 97 -216 97h-3 q-113 -1 -178.5 -61.5t-97 -200.5t-31.5 -383v-192zM625 610q0 38 29 66.5t67 28.5t67 -28.5t29 -66.5t-29 -67t-67 -29t-67 29t-29 67z" />
<glyph unicode="c" horiz-adv-x="1314" d="M16 578q0 286 179 451t479 165q131 0 237 -43.5t154 -138.5q91 -36 144 -107.5t53 -181.5q0 -80 -39.5 -154.5t-108.5 -103.5q2 -4 6 -13.5t6 -13.5q92 -22 140.5 -97.5t48.5 -176.5q0 -81 -29.5 -145t-77 -103.5t-111.5 -66t-128 -36.5t-131 -10q-388 0 -549 226 q-273 144 -273 549zM61 578q0 -153 42.5 -266t123 -182.5t192 -103.5t255.5 -34q61 0 118.5 9t115.5 31.5t101 57t70 90.5t27 127q0 103 -55.5 170.5t-159.5 67.5q-48 0 -87.5 -18.5t-58.5 -18.5q-31 0 -55 20.5t-24 63.5t23.5 60.5t55.5 17.5q22 0 59 -15.5t68 -15.5 q82 0 131.5 70.5t49.5 156.5q0 62 -22 111t-58 80.5t-86 53t-102.5 30t-110.5 8.5q-280 0 -446.5 -153t-166.5 -418z" />
<glyph unicode="d" horiz-adv-x="1626" d="M20 582q0 87 17 171t56 164t95.5 140.5t142.5 97t191 37.5q134 0 226 -84v37q4 145 20 236t54 153t100 87q59 24 150 24h7q99 -2 166 -39.5t109 -120.5q129 -38 185 -193.5t56 -480.5v-193q0 -162 -5 -272.5t-19 -208t-38 -156t-64 -101.5t-94.5 -60t-131.5 -17 q-180 0 -242 131q-52 -68 -133.5 -99.5t-171.5 -31.5q-262 0 -395 195q-145 71 -213 228t-68 356zM66 582q0 -93 15 -176t50 -160t87.5 -132.5t132.5 -88.5t181 -33q51 0 100 12.5t94.5 37.5t79 70t46.5 105q1 -25 4.5 -49t18 -58t37.5 -58.5t66 -42t101 -17.5 q67 0 114.5 16t82.5 56.5t56 96t33 147.5t16.5 196.5t4.5 257.5v192q0 243 -31.5 383t-97 200.5t-178.5 61.5h-7q-77 1 -128 -21q-53 -22 -85.5 -78.5t-47 -139.5t-18.5 -215v-24q0 -108 16 -175q-26 57 -61 98.5t-74 62.5t-76 30.5t-76 9.5q-95 -1 -173.5 -35t-130 -89.5 t-86.5 -130t-50.5 -152t-15.5 -158.5zM643 610q0 38 29 66.5t67 28.5t67.5 -28.5t29.5 -66.5t-29.5 -67t-67.5 -29t-67 29t-29 67z" />
<glyph unicode="e" horiz-adv-x="1458" d="M16 582q0 149 55 267t151 192.5t219.5 113.5t265.5 39q101 0 194 -20t180 -70.5t136 -126.5q102 -50 161.5 -139.5t59.5 -216.5q0 -113 -43 -183t-129 -106q81 -12 126.5 -68.5t45.5 -144.5q0 -56 -21 -103t-54.5 -79t-81 -56.5t-96 -39t-103 -23.5t-98.5 -12t-87 -3 q-191 0 -348 61.5t-252 186.5q-132 77 -206.5 210t-74.5 321zM61 582q0 -122 36 -221.5t98.5 -167t148.5 -113.5t183 -67t206 -21q47 0 95 4t107 14t109 30t93 48.5t67.5 73t24.5 100.5q0 78 -45 125t-123 47q-66 0 -154 -34.5t-131 -34.5q-154 0 -172 133q8 -3 24.5 -8 t73.5 -12q44 -5 93 -5h28q209 6 307.5 70.5t98.5 220.5q0 84 -31.5 151.5t-83 110t-120.5 71t-140 40.5t-147 12q-105 0 -200.5 -22.5t-177 -69t-141 -113t-93.5 -159.5t-34 -203zM600 788q0 35 27.5 63t62.5 28t62.5 -28t27.5 -63t-27.5 -61.5t-62.5 -26.5t-62.5 26.5 t-27.5 61.5z" />
<glyph unicode="f" horiz-adv-x="1236" d="M-61 911q0 109 49.5 169.5t134.5 76.5q4 117 33.5 202.5t79 140t126 87.5t164.5 45.5t205 12.5q69 0 131.5 -8.5t125 -28.5t111 -59t72.5 -93q184 -76 189 -252q0 -85 -61.5 -148t-170.5 -63q-51 0 -137 31q1 -3 4 -8t4 -8q179 -50 179 -240q0 -63 -20.5 -112.5 t-49.5 -77t-64.5 -46t-62 -24.5t-45.5 -6q-1 -135 -6 -230t-19 -177.5t-37 -134t-60 -89t-87.5 -53t-120.5 -15.5q-121 0 -185 36t-95 120q-32 7 -58 20t-46 29t-35 43t-26 52t-18 67.5t-11 78.5t-6 95t-2.5 107t-0.5 124v80q-184 41 -184 256zM-16 911q0 -196 184 -219 q0 -326 7 -413q14 -167 75 -228q59 -59 192 -59q63 0 107.5 15t76.5 52.5t51.5 87.5t30.5 134t15 178t4 233q5 -1 13.5 -1.5t34 0.5t48 6.5t50.5 20.5t48 37.5t34 63t14 92.5q0 65 -26 110t-63 63t-74 26.5t-63 7.5l-26 -2v43q0 26 22.5 42t59.5 16t82.5 -17.5t83.5 -17.5 q87 0 136.5 49.5t49.5 116.5q-2 60 -29 105.5t-68.5 72.5t-98.5 44t-110.5 23t-113.5 6q-112 0 -195 -12t-155.5 -44t-117 -86t-70 -139t-25.5 -202q-84 -6 -134 -56t-50 -149z" />
<glyph unicode="g" horiz-adv-x="1603" d="M20 582q0 120 30 226.5t90.5 194.5t164.5 139.5t240 51.5q85 0 161 -31t119 -94q73 125 226 125q198 0 276 -160q50 -15 88.5 -45t64 -77.5t43 -101.5t27 -131.5t13.5 -153t6 -179.5l4 -235v-30q0 -190 -35 -331q-38 -153 -124.5 -261.5t-229 -162t-344.5 -53.5 q-75 0 -147.5 9.5t-149.5 31t-140 65.5t-96 105q-201 93 -201 295q0 102 56 178.5t153 93.5q-94 40 -161.5 124t-100.5 188.5t-33 218.5zM66 582q0 -101 28.5 -194.5t82 -167.5t138.5 -118.5t189 -44.5q59 0 113 16t88.5 38.5t60.5 45t38 38.5l11 16q0 -262 -199 -262 q-59 0 -142 29.5t-128 29.5q-84 0 -139 -68t-55 -161q0 -76 35.5 -134.5t89 -92.5t127 -55.5t138.5 -28.5t134 -7q189 0 323.5 50.5t215.5 153t117 247.5q32 133 32 311v31l-4 235q-1 96 -5 167t-12.5 143.5t-23 123t-37.5 96t-54.5 72.5t-76 42.5t-100.5 15.5 q-171 0 -228 -203q-8 67 -51.5 114.5t-102 68t-124.5 20.5q-100 0 -181.5 -31.5t-136 -85t-91.5 -127t-53.5 -154t-16.5 -169.5zM625 641q0 38 29 67t67 29t67 -29t29 -67t-29 -66t-67 -28t-67 28t-29 66z" />
<glyph unicode="h" horiz-adv-x="1525" d="M29 780v152q0 74 2 133.5t10.5 136.5t22.5 135.5t40 119t61.5 99.5t88.5 64t119 25q190 0 260 -156q176 -50 205 -299q40 4 67 4q215 0 328 -174q270 -117 270 -637q0 -289 -101.5 -434.5t-291.5 -145.5q-192 0 -260 156q-27 9 -51 21q-69 -177 -264 -177 q-176 0 -256 156q-46 13 -82.5 42t-62.5 69t-45 98t-30.5 119.5t-18 145t-9 163.5t-2.5 184zM72 942l2 -162q0 -131 4 -225.5t15 -190t31.5 -158.5t53 -114.5t81 -75.5t112.5 -24q41 0 74.5 9t59.5 23.5t45.5 42t33.5 55t23.5 72t15 84t8 100t3.5 111t1 125.5v68q0 78 51 78 q47 0 47 -70q0 -55 -17.5 -171t-17.5 -234q0 -82 20.5 -141t57 -91t78.5 -46.5t92 -14.5q168 0 258 134t90 400q0 62 -4 118t-15 120.5t-29 118t-48 104t-69.5 85.5t-97 56t-126.5 21q-215 0 -278 -197q6 86 6 246q0 66 -5 118t-21.5 107.5t-44.5 92t-76 60t-113 23.5 q-57 0 -103.5 -22.5t-77.5 -59t-54 -90.5t-36 -110t-20 -125q-7 -68 -9 -126q-1 -38 -1 -81v-43z" />
<glyph unicode="i" horiz-adv-x="901" d="M27 578q0 51 1 89t6 97.5t14 104.5t26.5 98.5t41.5 91.5t61.5 70.5t84.5 48.5q-7 10 -20 41q-86 27 -133.5 87.5t-47.5 145.5q0 114 84.5 184t225.5 70q109 0 186 -43.5t107 -118.5q85 -28 132.5 -89.5t47.5 -145.5q0 -95 -60 -160.5t-163 -85.5q9 -13 16 -29 q38 -12 69.5 -34.5t54.5 -49t41 -64t29.5 -71t20 -79t13 -79t6.5 -80.5t2.5 -74.5t0.5 -68.5v-78.5t-3.5 -86.5t-9.5 -94.5t-18 -91t-28.5 -88.5t-42.5 -75t-58.5 -62.5t-78.5 -39t-100 -15.5q-182 0 -265 160q-49 15 -88 48t-64 72t-43 94t-27 101.5t-14 108.5t-6 100 t-1 91zM72 578q0 -56 1 -96.5t7.5 -106t17.5 -113t33.5 -101.5t53 -88.5t78.5 -57.5t108 -23q47 0 86.5 14t68 36t51 58t37 70t25 82.5t15.5 84.5t8 87.5t3.5 80.5t0.5 73t-0.5 73t-3.5 79t-8 85t-15.5 82t-25 80t-37 67.5t-51 56t-68 35t-86.5 13.5q-60 0 -108 -22 t-78.5 -55t-53 -86t-33.5 -99t-17.5 -110t-7.5 -104t-1 -95zM106 1452q0 -94 72 -150.5t193 -56.5t192.5 56.5t71.5 150.5t-71.5 151.5t-192.5 57.5t-193 -57.5t-72 -151.5z" />
<glyph unicode="j" horiz-adv-x="1081" d="M-205 -211q0 77 28 142.5t91 110t152 44.5q122 0 188 -82q-1 6 -5.5 57t-8.5 82q-33 304 -33 418q0 44 0.5 71.5t2.5 77t6 83t12 80.5t19 81t28.5 72.5t40 65t53 50t67.5 36.5q-7 10 -20 41q-85 26 -132.5 86.5t-47.5 146.5q0 114 84.5 184t224.5 70q109 0 186 -43.5 t107 -118.5q85 -28 132.5 -89.5t47.5 -145.5q0 -95 -59 -159.5t-162 -84.5q11 -18 16 -31q62 -20 107.5 -66.5t70.5 -102.5t39.5 -133t18.5 -141.5t4 -144.5v-159q0 -92 -1 -152t-7 -153t-17 -155.5t-33 -143t-52 -134t-77 -110.5t-106 -90t-140 -54.5t-178 -21.5 q-131 0 -254.5 50.5t-183.5 154.5q-209 98 -209 311zM-160 -211q0 -70 28.5 -127.5t73.5 -94t104 -61t117 -35t116 -10.5q90 0 165 20.5t129.5 52t97.5 86t71 105.5t48 128t30.5 137t16 148.5t6.5 146t1 145.5q0 20 0.5 77.5t0.5 90.5t-2 92.5t-7 97.5t-15 91t-24.5 87 t-38 72t-53 60t-70.5 36.5t-90 14.5q-70 0 -122.5 -27t-83 -81t-50 -105t-26.5 -131t-9 -125.5t-2 -118.5q0 -120 26.5 -353t26.5 -271q0 -79 -33 -115q-27 -32 -54 -32q-5 0 -9 1q5 3 12 10t19 31.5t12 52.5q0 68 -53.5 112t-132.5 44q-110 0 -168 -74.5t-58 -177.5z M281 1452q0 -94 71.5 -150.5t192.5 -56.5t192.5 56.5t71.5 150.5t-71.5 151.5t-192.5 57.5t-192.5 -57.5t-71.5 -151.5z" />
<glyph unicode="k" horiz-adv-x="1478" d="M29 733v144q0 137 6 239t20.5 191.5t39.5 150t62.5 104t90.5 63.5t123 20q199 0 276 -160q172 -52 209 -299q55 22 123 22q85 0 157.5 -43.5t104.5 -115.5q81 -29 133.5 -94t52.5 -150q0 -99 -56 -173t-144 -120q49 -34 78.5 -56.5t71 -62t64.5 -75.5t40.5 -87.5 t17.5 -107.5q0 -96 -52.5 -171t-129.5 -112t-158 -37q-166 0 -270 162q-43 16 -72 39q-73 -201 -282 -201q-181 0 -259 156q-143 39 -195 221.5t-52 552.5zM74 733q0 -156 7.5 -267.5t27 -205.5t52.5 -150.5t85 -87t125 -30.5q45 0 82.5 12t64 29.5t48 49t35 58t23 70.5 t14 73.5t7 79t2.5 73.5v71v18q7 -51 14 -93t21.5 -99t32 -102t44.5 -92t59.5 -78t78 -50.5t98.5 -19.5q52 0 104 19t95 53t69.5 87t26.5 115q0 61 -26 116t-61.5 92.5t-93 74.5t-101 58t-103.5 46q58 11 110.5 32.5t100 56t75.5 88t28 118.5q0 93 -71.5 154t-168.5 61 q-53 0 -97 -16.5t-75 -43.5t-55.5 -65t-40 -76.5t-27 -82.5t-18 -79.5t-12.5 -70.5q-1 -5 -1 -8l6 426q-1 62 -4.5 106.5t-13 102t-29 96.5t-50 75t-79 54t-112.5 18q-61 0 -107 -18.5t-78.5 -59.5t-54.5 -97.5t-34.5 -141t-17.5 -180.5t-5 -225v-144z" />
<glyph unicode="l" horiz-adv-x="905" d="M29 733v144q0 166 8.5 282.5t31 213.5t61 154t98 87.5t143.5 30.5q183 0 262 -156q141 -39 192.5 -216t51.5 -540v-143q0 -166 -8.5 -284t-31 -218t-61 -160t-98 -92.5t-143.5 -32.5q-181 0 -259 156q-143 39 -195 221.5t-52 552.5zM74 733q0 -156 7 -267.5t27 -205.5 t53 -150.5t85 -87t125 -30.5t125 30.5t85 87t52.5 150.5t27 205.5t7.5 267.5v144q0 156 -7.5 265.5t-26.5 201t-53 145t-85.5 82t-124.5 28.5t-124.5 -28.5t-85.5 -82t-53 -145t-26.5 -201t-7.5 -265.5v-144z" />
<glyph unicode="m" horiz-adv-x="2056" d="M31 549v6v25q0 79 0.5 121t6.5 117t17.5 118.5t35.5 99t57.5 85.5t86 51.5t119.5 21.5q177 0 240 -133q39 63 104 98t176 35q167 0 250 -129q82 129 285 129q214 0 336 -180q78 -37 136 -107.5t90 -158t47.5 -176t15.5 -177.5q0 -57 -3.5 -109.5t-14 -113.5t-27.5 -112 t-46 -100t-67 -82.5t-93 -54t-122 -20.5q-206 0 -272 158q-21 3 -35 12q-70 -170 -277 -170q-195 0 -256 154q-21 6 -39 12q-65 -166 -264 -166q-190 0 -266 158q-36 10 -65.5 29.5t-51.5 41.5t-38.5 56.5t-27.5 63t-18.5 74.5t-11.5 76.5t-5.5 83t-2 81t-0.5 82.5zM76 555 q0 -217 18 -311q39 -211 191 -245q32 -7 69 -7q43 0 78 10t60.5 25t45.5 41t32.5 49.5t21.5 60t13 62.5t6 67.5t2 64t-0.5 63t-0.5 54.5q0 5 -2 67q-2 45 -2 73v20q3 82 58 82q51 0 51 -100q0 -54 -21.5 -164t-21.5 -168q0 -145 53.5 -226t185.5 -81q131 0 197 80.5 t66 226.5q0 58 -5.5 173t-5.5 159q0 32 6.5 54t17.5 31t19 12t15 3q57 0 57 -100q0 -57 -21.5 -168t-21.5 -168q0 -303 260 -303q68 0 122 24.5t89 68.5t59 96t36 117.5t17 122t5 118.5q0 82 -12 162.5t-43 162.5t-76.5 144t-119 101.5t-165.5 39.5q-66 0 -119.5 -18 t-86 -48t-51.5 -62.5t-26 -68.5q-65 197 -252 197q-56 0 -101 -13.5t-73 -32t-51.5 -50t-35.5 -56.5t-25 -61q-10 40 -18 63.5t-26 55.5t-40.5 50t-61 31t-88.5 13q-58 0 -103 -20t-74 -47.5t-49.5 -80t-30 -92t-15 -110.5t-6 -109.5t-0.5 -111.5v-8.5v-7v-7.5z" />
<glyph unicode="n" horiz-adv-x="1529" d="M27 596q0 57 2 105t10.5 111.5t22 114t39 102.5t60 86.5t86 56.5t115.5 22q78 0 139.5 -31t96.5 -90q80 121 270 121q219 0 346 -182q79 -37 138.5 -109t91.5 -160.5t47.5 -178.5t15.5 -181q0 -289 -101.5 -434.5t-291.5 -145.5q-192 0 -260 156q-27 9 -51 21 q-72 -177 -271 -177q-168 0 -256 158q-49 15 -88.5 48.5t-65 74.5t-44 97.5t-28.5 105.5t-15.5 112t-6.5 104t-1 93zM72 596q0 -53 1.5 -96.5t8 -109t18 -116.5t34 -106t53 -91.5t77.5 -60.5t105 -24q150 0 213 117t63 352q0 84 -6 207v12q0 80 51 80q47 0 47 -70 q0 -55 -17.5 -171t-17.5 -234q0 -82 20.5 -141t57 -91t78.5 -46.5t92 -14.5q168 0 258 134t90 400q0 85 -12 167t-43.5 166t-78.5 147t-123.5 103t-172.5 40q-215 0 -278 -197q-10 94 -73 145.5t-155 51.5q-56 0 -100.5 -20.5t-74.5 -52t-52 -79.5t-33.5 -95t-18.5 -106 t-9 -103t-2 -97z" />
<glyph unicode="o" horiz-adv-x="1556" d="M16 578q0 86 22.5 169.5t75 165.5t130.5 143.5t199 99.5t270 38q176 0 315 -61.5t227 -176.5q135 -78 210 -213t75 -311q0 -191 -85 -334.5t-235 -219t-343 -75.5q-195 0 -343 61.5t-237 178.5q-135 78 -208 214t-73 321zM61 578q0 -278 174.5 -432t477.5 -154 q274 0 446 158.5t172 424.5q0 261 -170.5 417.5t-447.5 156.5q-139 0 -252.5 -35.5t-186.5 -92.5t-122 -132.5t-70 -153t-21 -157.5zM604 737q0 38 29 67.5t67 29.5t67.5 -29.5t29.5 -67.5t-29 -66t-68 -28q-38 0 -67 28t-29 66z" />
<glyph unicode="p" horiz-adv-x="1646" d="M29 100v172q0 139 3.5 242t13.5 204t27.5 170.5t45.5 130.5t67.5 97t93.5 56t123 20q92 0 152 -37t90 -94q52 68 133.5 99.5t171.5 31.5q259 0 396 -195q97 -48 162 -142t91.5 -204t26.5 -237q0 -87 -18 -171.5t-58.5 -164.5t-98.5 -140.5t-145 -97t-192 -37.5 q-62 0 -130.5 19.5t-115.5 54.5q0 -51 -2.5 -95.5t-10.5 -103t-22 -105t-39 -94t-59 -79.5t-85.5 -52t-114.5 -20q-174 0 -261 158q-125 39 -185 191.5t-60 422.5zM74 100q0 -296 72 -439t225 -144h5q63 0 111 25q50 25 80.5 67t50.5 105.5t28 129t11 148.5l7 178 q51 -178 286 -178q95 1 174.5 35t132.5 90t90 129.5t53.5 152t16.5 158.5q0 93 -15 176t-50 160t-87.5 132.5t-133 88.5t-181.5 33q-51 0 -100 -12.5t-94.5 -37.5t-78.5 -70t-46 -105q-1 25 -5 49t-18 58t-37 58.5t-66.5 42t-101.5 17.5q-53 0 -96 -13.5t-76 -43 t-57.5 -68.5t-42 -97.5t-28.5 -122.5t-17.5 -151t-9 -175.5t-2.5 -203.5v-172zM647 569q0 38 29 67.5t67 29.5t67.5 -29.5t29.5 -67.5t-29 -66t-68 -28q-38 0 -67 28t-29 66z" />
<glyph unicode="q" horiz-adv-x="1646" d="M20 557q0 99 16.5 188.5t55 172.5t96 143t146 95.5t198.5 35.5q90 0 172 -31.5t134 -99.5q30 57 89.5 94t151.5 37q190 0 271 -158q79 -25 132 -94t82.5 -188t41.5 -266.5t12 -356.5v-172q0 -318 -83 -473t-259 -156q-184 0 -264 156q-95 29 -146 114t-71 218 q-57 -13 -99 -13q-247 3 -389 197q-73 37 -129.5 99.5t-90 138t-50.5 156.5t-17 163zM66 557q0 -80 16.5 -158.5t53 -152t89.5 -129.5t132.5 -90t174.5 -35q236 0 287 178l6 -178q3 -83 11 -148.5t28 -129t51 -105.5t81 -67q48 -25 111 -25h5q153 1 225 144t72 439v172 q0 152 -5.5 265.5t-19 216t-37.5 172t-60.5 121.5t-88 76t-119.5 24q-58 0 -101 -17.5t-66 -42t-37.5 -58.5t-18 -58t-4.5 -49q-13 60 -46.5 105t-79 70t-94.5 37.5t-100 12.5q-101 0 -181 -33t-132.5 -88.5t-87.5 -132.5t-50 -160t-15 -176zM643 569q0 38 29 67.5t67 29.5 t67.5 -29.5t29.5 -67.5t-29 -66t-68 -28q-38 0 -67 28t-29 66z" />
<glyph unicode="r" horiz-adv-x="1333" d="M27 578q0 60 1.5 103t8.5 112t20 119t38.5 106.5t61 92t90.5 59.5t124 24q100 0 157 -35.5t86 -109.5q77 145 263 145q95 0 160.5 -42t99.5 -116q96 -28 146 -110t50 -193q0 -83 -30 -154t-95 -118t-155 -47q-50 0 -89 12.5t-59 31t-32.5 36.5t-18 30.5t-6.5 12.5 q-2 0 -2 -5q0 -4 4 -61t4 -104q0 -59 -2.5 -108t-10.5 -109t-21.5 -107t-38 -93.5t-57 -77.5t-81 -50t-108.5 -19q-182 0 -265 160q-49 15 -88 48t-64 72t-43 94t-27 101.5t-14 108.5t-6 100t-1 91zM72 578q0 -56 1 -96.5t7.5 -106t17.5 -113t33.5 -101.5t53 -88.5 t78.5 -57.5t108 -23q47 0 85 14.5t65.5 37.5t48.5 59.5t34 73t21.5 85t12.5 89t5 92.5q1 35 1 62v25q0 36 -1.5 81.5t-1.5 66.5q0 23 12.5 39t36.5 16q15 0 24.5 -13.5t18.5 -32.5t23.5 -38.5t48 -33t84.5 -13.5q75 0 130 41t80 102t25 132q0 119 -63 195.5t-184 76.5 q-117 0 -185 -73.5t-88 -237.5q-3 78 -14.5 131.5t-37 96t-70.5 63t-111 20.5q-60 0 -108 -22t-78.5 -55t-53 -86t-33.5 -99t-17.5 -110t-7.5 -104t-1 -95z" />
<glyph unicode="s" horiz-adv-x="1318" d="M12 279q0 96 51.5 166.5t157.5 78.5q-147 81 -147 271q0 88 31.5 158t83 114.5t122 73.5t144 41t153.5 12q74 0 141 -7.5t142.5 -26.5t133.5 -61t85 -102q186 -77 186 -252q0 -94 -46.5 -157.5t-137.5 -73.5q186 -83 186 -295q0 -92 -30 -164.5t-80.5 -119t-122 -77 t-149.5 -43t-168 -12.5q-82 0 -156.5 8.5t-154.5 29t-141.5 63.5t-92.5 104q-191 84 -191 271zM57 279q0 -71 35 -124t88 -83.5t127 -49t139.5 -24.5t137.5 -6q83 0 154.5 11t137.5 38t112.5 68.5t74 106t27.5 146.5q0 71 -21 124t-54.5 81.5t-73.5 47t-80.5 26.5t-74 14 t-54.5 15.5t-21 25.5q0 41 47 41q25 0 76.5 -18.5t78.5 -18.5q86 0 130 53t44 136q0 55 -22 98.5t-62 71t-86.5 46.5t-104 28t-105 12.5t-99.5 3.5q-74 0 -141 -10.5t-131.5 -36.5t-111.5 -65.5t-76 -101.5t-29 -140q0 -77 28.5 -132t71 -82t92 -46t92 -27.5t71 -23 t28.5 -35.5v-5t-2.5 -8t-7.5 -9.5t-15.5 -7t-25.5 -3.5q-39 0 -101 32.5t-100 32.5q-97 0 -145 -59t-48 -143z" />
<glyph unicode="t" horiz-adv-x="1093" d="M-61 899q0 58 13.5 102.5t33 70t50.5 44t55.5 25.5t58.5 14v62q0 128 82 193t212 65q60 0 111 -14t95 -50.5t63 -93.5q176 -46 176 -225v-56q1 -3 4 -12.5t4 -15.5q43 -10 70.5 -22.5t54 -39t39 -73.5t12.5 -117q0 -95 -47.5 -166t-132.5 -88v-133q0 -15 7.5 -27 t15.5 -18t24 -15q30 -17 45 -28.5t36.5 -35.5t31.5 -61t10 -88q0 -66 -24 -118.5t-62 -84.5t-89.5 -53t-100.5 -29t-101 -8q-268 0 -358 174q-49 18 -86.5 47t-61.5 68.5t-40 81.5t-23.5 98.5t-10 106t-2.5 115.5v153q-82 23 -123.5 94.5t-41.5 157.5zM-16 899 q0 -50 16 -94.5t55 -78.5t95 -40q0 -33 -1 -99q-2 -41 -2 -81q-1 -35 1 -70q4 -74 11 -140t32 -122t64 -96.5t106.5 -63t160.5 -22.5q58 0 112 11.5t106 38t83 77.5t31 121q0 49 -12.5 84t-31.5 51t-41 30t-41 24t-31.5 31t-12.5 52v174q83 1 131.5 63.5t48.5 149.5 q0 38 -5.5 68.5t-12.5 50.5t-23.5 36.5t-27.5 25t-35.5 16.5t-37.5 11t-42 9v119q0 69 -36.5 115t-87 63t-112.5 17q-111 0 -180 -54t-69 -159v-101q-82 -14 -112 -28q-99 -46 -99 -189z" />
<glyph unicode="u" horiz-adv-x="1511" d="M23 614q0 312 89.5 446t282.5 134q208 0 269 -156q4 -1 38 -12q32 92 100 130t191 38q170 0 250 -156q39 -11 72 -34.5t56 -51t41.5 -69t30 -75.5t20 -86t12 -85t6 -87t2.5 -78v-71q0 -56 -2 -104.5t-10.5 -112t-22.5 -114t-39.5 -102.5t-59.5 -86.5t-86 -56.5t-116 -22 q-43 0 -74.5 4t-66 16.5t-60.5 39t-43 67.5q-82 -127 -262 -127q-232 0 -348 181q-270 118 -270 630zM68 614q0 -98 10 -181.5t38 -167.5t72.5 -142t118 -94.5t170.5 -36.5q110 0 186.5 65t90.5 209q1 -74 14 -126t32.5 -80.5t52 -44t60.5 -19.5t70 -4q56 0 100.5 20 t74.5 52.5t52 80t34 94.5t19 105.5t9 103.5t2 97v4q0 47 -0.5 74.5t-3 81.5t-7 89.5t-14 86.5t-23.5 84.5t-35.5 71.5t-48.5 60t-65 37t-84 15q-158 0 -221 -83t-63 -304q0 -49 5 -113.5t5 -79.5q0 -21 -1.5 -35.5t-5.5 -29t-13 -22t-23 -7.5q-21 0 -32 22t-11 56 q0 31 10 139t10 185q0 272 -258 272q-169 0 -248 -123.5t-79 -411.5z" />
<glyph unicode="v" horiz-adv-x="1359" d="M-12 862q0 67 14 123.5t45 105t89 76t138 27.5q97 0 165.5 -45t103.5 -117q45 -17 63 -26q33 85 104 136.5t179 51.5q189 0 256 -154q54 -14 93 -46t60.5 -77t31 -93.5t9.5 -104.5q0 -136 -43.5 -326t-109.5 -332q-129 -258 -441 -258q-151 0 -250 46t-167 145 q-125 56 -203 211q-66 136 -101.5 317.5t-35.5 339.5zM33 862q0 -158 34 -331.5t99 -305.5q62 -125 158.5 -179t257.5 -54q143 0 241 55.5t158 177.5q67 135 108 317t41 320q0 58 -11.5 106.5t-38 90.5t-75 66t-116.5 24q-71 0 -123 -21.5t-83.5 -73t-50.5 -95.5t-28 -133.5 t-11 -139t-4 -156.5q-1 -38 -1 -57h-13q-1 26 -2 77q-2 87 -4 131t-9 119t-18 115t-33 92t-52.5 78t-77 45t-105.5 19q-68 0 -116.5 -24t-75 -66t-38 -90.5t-11.5 -106.5z" />
<glyph unicode="w" horiz-adv-x="1931" d="M-4 850q0 160 77 252t232 92q202 0 273 -156q28 -9 43 -18q21 55 50.5 91.5t66.5 53.5t70 23t77 6q154 0 223 -154q13 -2 47 -14q71 168 279 168q201 0 274 -160q99 -30 149 -115.5t50 -211.5q0 -70 -6.5 -145.5t-23 -165t-42 -172t-67.5 -160.5t-95 -135t-128.5 -91.5 t-164.5 -34.5q-213 0 -301 164q-31 9 -75 39q-83 -203 -318 -203q-210 0 -340 185q-81 39 -144.5 118t-101 170.5t-62 199.5t-33.5 198.5t-9 175.5zM41 850q0 -66 6 -138t21 -157.5t38.5 -163t61.5 -151.5t86.5 -128t117.5 -87t150 -33q60 0 107.5 14.5t83 41.5t61.5 69 t43 92t27.5 116.5t15 137t4.5 158.5h10q1 -125 9.5 -216.5t31 -173t60.5 -131.5t98.5 -79t143.5 -29q81 0 150 33t117.5 87t86.5 128t61.5 151.5t38.5 163t21 157.5t6 138q0 139 -66 219t-198 80q-56 0 -99 -15t-72.5 -39t-50.5 -67t-33 -86t-20 -110t-12 -125t-8 -144v-2 v-2h-13q0 149 -13.5 258t-34.5 172t-54 100t-65 48.5t-74 11.5q-35 0 -59.5 -3.5t-55 -16.5t-51.5 -36.5t-43 -67.5t-35 -105.5t-21 -153t-8 -207.5h-10q-5 98 -8 146t-12 124t-21 113t-33.5 84.5t-50.5 69t-72.5 37.5t-99.5 16q-132 0 -198 -80t-66 -219z" />
<glyph unicode="x" horiz-adv-x="1439" d="M10 231q0 103 56 196.5t155 154.5q-174 136 -174 350q0 113 80 187.5t184 74.5q176 0 275 -164q50 -16 94 -57q97 221 293 221q80 0 146.5 -42t97.5 -114q82 -24 134 -91.5t52 -158.5q0 -168 -184 -344q89 -52 155 -145t66 -211q0 -127 -75.5 -206t-207.5 -79 q-177 0 -285 168q-61 25 -102 66q-105 -234 -315 -234q-80 0 -147.5 44.5t-102.5 113.5q-86 29 -140.5 105t-54.5 165zM55 231q0 -95 69.5 -167t166.5 -72q67 0 123.5 30t94 77t65.5 109.5t42.5 122.5t20.5 120h8v-6q1 -75 23 -152q24 -80 66.5 -147.5t110.5 -110.5t148 -43 q112 0 175 66t63 173q0 65 -25 125t-65 103.5t-82.5 73.5t-83.5 45q219 189 219 354q0 95 -65 156t-156 61q-78 0 -140 -42.5t-98.5 -111t-56.5 -142t-23 -146.5h-8q-4 59 -17.5 118t-41 118t-64.5 104t-92.5 73.5t-120.5 28.5q-87 0 -153 -61.5t-66 -155.5 q0 -108 55.5 -200t163.5 -154q-121 -50 -188.5 -144.5t-67.5 -202.5z" />
<glyph unicode="y" horiz-adv-x="1492" d="M27 575q0 56 2 103.5t10 113.5t22 118.5t40.5 107.5t62 92t90 60.5t121.5 23.5q175 0 248 -154q26 -7 43 -16q36 88 110 129t162 41q207 0 291 -162q38 -13 69.5 -35t54 -46.5t40.5 -63.5t29.5 -69.5t19.5 -82.5t11.5 -85.5t5.5 -94.5t2.5 -93.5t0.5 -97.5v-18v-235v-10 q0 -828 -676 -828q-68 0 -133 9t-134 29.5t-124 61.5t-84 99q-192 83 -192 278q0 103 49.5 175t138.5 89q-73 30 -128.5 89.5t-88 136.5t-48 161t-15.5 174zM72 575q0 -81 12 -155t41.5 -145.5t74 -123t115 -83t158.5 -31.5q102 0 170 52t92 128h19q0 -172 -33.5 -250 t-114.5 -78q-22 0 -40 9t-33.5 22t-34 26t-50.5 22t-75 9q-98 0 -153.5 -62.5t-55.5 -164.5q0 -69 30.5 -122.5t77.5 -84t111 -50t121 -26t119 -6.5q630 0 630 783v10v235q0 244 -14 342q-32 226 -163 290q-58 28 -138 28q-48 0 -90.5 -14.5t-80.5 -45.5t-60.5 -89 t-22.5 -136q0 -84 7 -188t7 -133q0 -76 -55 -76q-19 0 -31 14.5t-15 28t-3 25.5q0 47 12 148t12 144q0 45 -6 86.5t-23 85.5t-43 76.5t-70 53t-101 20.5q-303 0 -303 -574z" />
<glyph unicode="z" horiz-adv-x="1306" d="M31 313q0 104 57 192t162 150q-12 18 -19 37q-174 48 -174 226q0 55 14 97.5t35 70.5t56.5 48t67.5 30.5t80.5 16t82 6.5t84.5 1h47h81.5t77.5 -2t77.5 -5t70 -9t68 -15t58 -23t53.5 -31.5t41.5 -42t33.5 -54.5q195 -68 195 -308q0 -209 -193 -338q16 -28 21 -45 q54 -14 92 -41.5t55.5 -62.5t24 -64.5t6.5 -60.5q0 -51 -11.5 -91.5t-31.5 -69t-52.5 -49t-68.5 -33t-86.5 -19.5t-99.5 -9.5t-113 -2.5h-71q-69 0 -115.5 1.5t-105.5 7t-100 18t-83 32t-72 50.5t-49 73q-94 35 -145 110t-51 209zM76 313q0 -51 10.5 -93.5t24.5 -73 t45 -54.5t53.5 -39.5t69.5 -26t74 -15.5t86.5 -8t87.5 -3h95h37q83 0 140.5 4t114 18t89.5 38.5t53.5 66.5t20.5 102q0 24 -4.5 47t-19.5 52t-39 50t-69 35.5t-105 14.5q-56 0 -111 -4t-81 -8l-27 -4v6q216 52 333 159.5t117 264.5q0 45 -8 82t-22.5 65.5t-35 51.5 t-46.5 38.5t-57 27t-65.5 18t-72 11t-77.5 5.5q-39 1 -81 2q-21 0 -42 0.5t-42 -0.5h-45q-46 0 -75.5 -1t-73 -5.5t-72 -13t-60.5 -25t-50.5 -40t-31 -59t-12.5 -81.5q0 -199 291 -199q60 0 182 16v-6q-241 -49 -370 -157t-129 -259z" />
<glyph unicode="{" horiz-adv-x="1353" d="M20 516q0 56 15 95t39.5 60.5t54 36.5t58.5 28.5t53.5 31t39.5 49t15 76.5v127q0 104 12 183.5t48 158.5t96.5 130.5t164 83.5t244.5 32q60 0 103.5 -5.5t91 -20.5t79 -48t46.5 -84q174 -41 174 -229q0 -59 -11 -103t-30.5 -68.5t-45 -40.5t-55 -20t-61 -6.5t-61.5 0.5 h-33q-42 0 -61 -50.5t-19 -109.5v-143q0 -224 -146 -309q146 -82 146 -308v-159q37 0 65.5 -5.5t58 -19.5t49.5 -44.5t30 -76.5q38 -3 66.5 -14.5t54.5 -36t39.5 -71t13.5 -113.5q0 -64 -19.5 -110t-49 -71.5t-76 -40t-88 -18.5t-97.5 -4q-358 0 -483 203q-74 35 -124.5 90 t-76 127t-35.5 145t-10 166v127q0 15 -4 39q-72 44 -94 109q-42 20 -70 38t-54.5 45t-39.5 64t-13 84zM66 516q0 -48 15 -81.5t39.5 -52.5t53.5 -33.5t58 -29.5t53.5 -35.5t39.5 -57.5t15 -89v-127q0 -96 11 -169t44 -146.5t89 -120.5t151 -76.5t225 -29.5q48 0 83.5 3 t76 15t66 32.5t42.5 58t17 89.5q0 40 -7.5 71.5t-16.5 52t-28.5 34.5t-32.5 21.5t-41.5 11t-41 3.5t-44 -0.5t-40.5 -0.5q-35 0 -60.5 20t-39 52.5t-19.5 65.5t-6 66v144q0 288 -262 307v2q262 19 262 307v144q0 33 6 66t19.5 65.5t39 52.5t60.5 20q9 0 40.5 -0.5t44 -0.5 t41 3.5t41.5 11t32.5 21.5t28.5 34.5t16.5 52t7.5 71.5q0 52 -17 89.5t-42.5 58.5t-66 33t-76 15t-83.5 3q-130 0 -225 -29.5t-151 -77t-89 -120.5t-44 -146.5t-11 -169.5v-127q0 -52 -15 -89t-39.5 -57.5t-53.5 -35.5t-58 -29.5t-53.5 -33t-39.5 -52t-15 -80.5z" />
<glyph unicode="|" d="M266 -395v1872h352v-144h164v-1872h-352v144h-164zM311 -350h262v1782h-262v-1782z" />
<glyph unicode="}" horiz-adv-x="1353" d="M-20 -334q0 59 11 103t30.5 68.5t45 40.5t55 20t61 6.5t61.5 -0.5h32q42 0 61 50t19 109v144q0 225 146 307q-146 85 -146 309v160q-37 0 -65.5 5.5t-57.5 20t-50 45t-31 76.5q-37 4 -66 16.5t-54 38t-38.5 70.5t-13.5 109t19.5 110t49 71.5t76 40t87.5 18.5t97 4 q355 0 484 -203q74 -35 124 -90t75.5 -127t35.5 -145t10 -166v-127q0 -17 4 -41q75 -42 97 -111q7 -5 32 -19t46 -29.5t44.5 -39t37.5 -59t14 -78.5q0 -41 -9.5 -74.5t-22 -53.5t-37 -39.5t-40.5 -28.5t-47 -25q-27 -14 -42.5 -23.5t-36 -28.5t-30.5 -45.5t-10 -60.5v-127 q0 -104 -12 -183.5t-48 -158.5t-96.5 -130.5t-164 -83.5t-244.5 -32q-60 0 -104 5.5t-91 20.5t-78.5 48.5t-45.5 83.5q-174 41 -174 229zM25 -334q0 -52 17 -89.5t42 -58t65.5 -32.5t76 -15t83.5 -3q130 0 225 29.5t151 76.5t89 120.5t44 146.5t11 169v127q0 52 15 89 t39.5 57.5t54 35.5t58.5 29.5t53.5 33.5t39.5 52.5t15 81.5q0 47 -15 80.5t-39.5 52t-54 33t-58.5 29.5t-53.5 35.5t-39.5 57.5t-15 89v127q0 96 -11 169.5t-44 146.5t-89 120.5t-151 77t-225 29.5q-48 0 -83.5 -3t-75.5 -15t-65.5 -33t-42.5 -58.5t-17 -89.5q0 -32 4.5 -58 t11 -45t19 -33.5t22.5 -24t29 -16.5t30.5 -10t34 -4.5t33 -2t35 0t32.5 0.5q35 0 60.5 -20t39 -52.5t19.5 -65.5t6 -66v-144q0 -144 67.5 -221t195.5 -86v-2q-128 -9 -195.5 -86t-67.5 -221v-144q0 -33 -6 -66t-19.5 -65.5t-39 -52.5t-60.5 -20q-11 0 -32.5 0.5t-34.5 0.5 t-34 -1t-33.5 -4t-30.5 -9.5t-28.5 -16t-23 -24.5t-19 -34t-11 -46t-4.5 -59z" />
<glyph unicode="~" horiz-adv-x="1294" d="M-4 678q0 152 99.5 259t264.5 107q70 0 200 -45t177 -45q30 0 58 14t49 30t56.5 30t78.5 14q31 0 61 -12t56.5 -46t33.5 -85h13q57 0 106 -44t49 -136q0 -163 -98.5 -261t-267.5 -98q-63 0 -199 44.5t-176 44.5q-29 0 -56.5 -14t-47.5 -30.5t-56.5 -30.5t-81.5 -14 q-53 0 -99 34t-54 110h-10q-25 0 -50.5 8.5t-50 27t-40 54t-15.5 84.5zM41 678q0 -68 34.5 -98.5t76.5 -30.5q33 0 59 9t43.5 22t35.5 26t44 22t59 9q45 0 181 -44t194 -44q148 0 235 85.5t87 227.5q0 69 -35.5 102t-75.5 33t-71.5 -13.5t-49.5 -30.5t-49.5 -30.5 t-71.5 -13.5q-52 0 -178.5 45t-198.5 45q-144 0 -231.5 -94t-87.5 -227z" />
<glyph unicode="&#xa1;" horiz-adv-x="878" d="M61 59q0 43 1 78t7 89.5t15.5 97.5t29 92.5t46 84.5t67.5 63t92 38q-13 16 -24 41q-86 28 -139.5 101.5t-53.5 166.5q0 117 83 200t200 83q81 0 149.5 -43.5t104.5 -114.5q84 -30 138 -103.5t54 -164.5q0 -99 -61.5 -175.5t-155.5 -98.5q8 -11 25 -41q46 -14 83 -44 t60.5 -64.5t40.5 -83.5t25.5 -89.5t13 -94.5t5.5 -86t1 -75q0 -51 -1 -85t-7.5 -95t-18 -103.5t-35 -93.5t-56.5 -82.5t-84.5 -53t-116.5 -21.5q-181 0 -260 157q-45 14 -81.5 43t-59.5 62.5t-40.5 80t-26 86.5t-13.5 91t-6 83.5t-1 73.5zM106 59q0 -44 1 -77.5t7 -87.5 t16.5 -94.5t31.5 -86t49.5 -75t73 -49t100.5 -19.5q44 0 80.5 12t63 31t47.5 49.5t34.5 59t23 69t14.5 71t7.5 72.5t3 66t0.5 59q0 45 -1 78.5t-6.5 90t-15.5 97.5t-30.5 88.5t-48.5 78t-72.5 51t-99.5 20.5t-99.5 -20.5t-73 -51t-49.5 -77.5t-31.5 -89.5t-17 -97.5 t-7.5 -90t-1 -78zM147 911q0 -98 70 -167.5t168 -69.5t168 69.5t70 167.5t-70 168t-168 70t-168 -70t-70 -168z" />
<glyph unicode="&#xa2;" horiz-adv-x="1359" d="M41 578q0 230 117 383t327 208q4 54 19 90t39 52.5t46.5 22t51.5 5.5q58 0 92.5 -32.5t40.5 -116.5q99 -8 184.5 -52.5t131.5 -127.5q196 -81 196 -287q0 -80 -39 -154.5t-108 -103.5q2 -4 6 -13.5t6 -13.5q92 -22 140 -97.5t48 -176.5q0 -74 -25 -134t-64 -98.5 t-93.5 -66t-107.5 -41t-111 -19.5q-10 -159 -135 -159q-64 0 -101.5 33t-48.5 112q-6 -2 -14 -2q-99 0 -133 80q-120 57 -193 158q-272 144 -272 551zM86 578q0 -499 446 -574q0 -94 27 -132t80 -38q90 0 90 158q55 3 106.5 12.5t107 32t95.5 56t66 89t26 125.5 q0 103 -55.5 170.5t-159.5 67.5q-48 0 -87 -18.5t-58 -18.5q-31 0 -55.5 20.5t-24.5 63.5t24 60.5t56 17.5q22 0 59 -15.5t68 -15.5q82 0 131 70.5t49 156.5q0 61 -22 109.5t-56.5 79t-81.5 52t-93 30.5t-95 12q0 81 -23.5 113t-64.5 32q-111 0 -111 -161 q-208 -43 -326 -188t-118 -367z" />
<glyph unicode="&#xa3;" horiz-adv-x="1411" d="M61 813q0 160 125 193q-55 82 -55 182q0 80 24 145.5t67.5 110.5t98.5 77.5t122.5 51t134.5 27t139 8.5q326 0 395 -176q184 -62 184 -254q0 -108 -49 -169.5t-125 -76.5q10 -30 11 -37q77 -10 124.5 -61t47.5 -150q0 -92 -38 -138.5t-114 -64.5q51 -39 74 -100 q92 -24 138 -91.5t46 -189.5q0 -49 -9 -88.5t-27.5 -68.5t-41 -51t-56.5 -36t-66.5 -23t-78 -13.5t-84.5 -6t-92 -1.5h-204q-57 0 -95 1t-88 4.5t-84.5 10.5t-73 20t-64.5 31.5t-49 46t-36 62.5q-184 55 -184 266q0 50 11.5 93t25.5 70.5t42 57t45 43t50 37.5l2 2 q-15 20 -25 61q-168 29 -168 195zM106 813q0 -45 17 -77t44.5 -47.5t64 -24t75 -8t76.5 0.5q0 -31 -15 -56t-37.5 -44.5t-50.5 -38.5t-55.5 -42.5t-50.5 -52t-37 -72t-14 -97.5q0 -53 15.5 -94t36.5 -68t65 -45t75.5 -27.5t96 -14t99.5 -5t110 -0.5h34h69q56 0 108 -0.5 t99.5 4.5t88.5 13t74.5 26t57.5 44t37 65.5t13 91.5q0 133 -66.5 191.5t-197.5 58.5q-56 0 -128 -5t-116 -11l-43 -5q34 7 63.5 16t51 18t39.5 20.5t29.5 20t21 21.5t14 20.5t8.5 20.5t5 17.5t2.5 16.5t1.5 13q107 7 158 42t51 128q0 90 -48 130t-124 40q-11 0 -37 -0.5 t-37 0t-30.5 2t-28.5 6t-20 12t-15 20t-4 30.5q0 21 16.5 39t44.5 18q15 0 46.5 -4t49.5 -4q74 0 126 51t52 154q0 242 -370 242q-81 0 -154 -10.5t-145.5 -37t-124.5 -67.5t-84.5 -108t-32.5 -152q0 -61 23.5 -115t46.5 -78l24 -24q-33 -2 -58.5 -8t-51.5 -22t-40 -48.5 t-14 -79.5z" />
<glyph unicode="&#xa4;" horiz-adv-x="1304" d="M0 791l154 153q-17 66 -17 125q0 61 17 127l-154 154l291 290l151 -151q52 16 127 16q69 0 127 -18l154 153l444 -444l-143 -143q16 -52 16 -127q0 -71 -16 -123q24 -24 78 -79t76 -77l-289 -289l-152 150q-50 -16 -131 -16q-65 0 -127 16l-162 -162zM66 791l225 -226 l139 140q67 -25 139 -25q73 0 140 25l141 -140l225 226l-141 141q24 74 24 137q0 65 -24 139l141 142l-225 225l-141 -141q-70 26 -140 26q-75 0 -139 -24l-139 139l-225 -225l141 -142q-25 -67 -25 -139q0 -70 25 -137zM428 1069q0 60 42 102.5t99 42.5q59 0 101.5 -42.5 t42.5 -102.5q0 -57 -43 -99t-101 -42q-57 0 -99 42t-42 99z" />
<glyph unicode="&#xa5;" horiz-adv-x="1544" d="M-20 1282q0 141 87.5 233.5t227.5 92.5q190 0 297 -170q73 -28 133 -101q98 271 332 271q92 0 162 -41.5t106 -118.5q92 -29 145.5 -108.5t53.5 -200.5q0 -276 -230 -574l1 -11q1 -10 1 -15q0 -13 -4 -29q91 -3 129.5 -26.5t38.5 -88.5q0 -85 -82 -106q42 -9 62 -34 t20 -71q0 -74 -55 -95t-199 -21q-26 -113 -116.5 -189t-241.5 -76q-104 0 -191 41.5t-133 130.5q-79 28 -131 95q-85 5 -120 29t-35 85q0 19 2 27q-90 5 -128 29t-38 88q0 46 20 70.5t64 35.5q-84 21 -84 105q0 68 43 90.5t149 25.5q-127 121 -206.5 294t-79.5 333zM25 1282 q0 -180 104 -371.5t256 -294.5q-2 -4 -2 -6h-20q-79 0 -112 -1t-70.5 -7.5t-49.5 -21.5t-12 -41t13.5 -41t48.5 -22t74 -8.5t112 -0.5l-5 -68q-154 0 -193 -11q-50 -14 -50 -60q0 -26 13.5 -41t48.5 -22t74 -8.5t112 -0.5q10 -70 40.5 -123t75.5 -82.5t95.5 -44t105.5 -14.5 q143 0 225 77.5t95 186.5q72 -1 111 0.5t74 8.5t48.5 22t13.5 41q0 47 -54 61q-39 10 -191 10l-5 68q42 -1 77.5 -0.5t63 2.5t48 7t34.5 13t20.5 20.5t6.5 29.5q0 26 -12 41t-50 21.5t-71 7.5t-111 1h-20v6q85 88 155 188t121.5 230t51.5 248q0 133 -72 207t-186 74 q-346 0 -357 -711h-14q-2 64 -7.5 122.5t-18 132.5t-30.5 135.5t-48.5 122.5t-69 103.5t-94.5 68.5t-123 26q-120 0 -195 -79.5t-75 -201.5z" />
<glyph unicode="&#xa6;" d="M266 -395v848h352v-144h164v-848h-352v144h-164zM266 629v848h352v-144h164v-848h-352v144h-164zM311 -350h262v758h-262v-758zM311 674h262v758h-262v-758z" />
<glyph unicode="&#xa7;" horiz-adv-x="1378" d="M31 160q0 106 55.5 170.5t153.5 75.5q-148 78 -148 270q0 72 32 144.5t103 123.5q-151 79 -151 273q0 88 31.5 158t83 114.5t122 73.5t144 41t153.5 12q74 0 141 -7.5t142.5 -26.5t133.5 -61t85 -102q186 -77 186 -252q0 -96 -48 -159t-142 -72q195 -76 195 -295 q0 -86 -39.5 -153.5t-102.5 -110.5q156 -76 156 -283q0 -91 -30 -162t-81 -116.5t-122.5 -75.5t-149.5 -42.5t-168 -12.5q-443 0 -545 204q-190 82 -190 271zM76 160q0 -61 25 -109.5t70 -79t96.5 -51t115.5 -30.5t114 -13.5t105 -3.5q83 0 154.5 11t137.5 38t112.5 68 t74 104.5t27.5 143.5q0 68 -19 119t-54 81.5t-72 48t-84 27.5q82 20 148.5 93t66.5 177q0 67 -21 117.5t-54.5 79t-74 47.5t-81.5 28.5t-74.5 17t-54.5 18t-21 26.5q0 41 47 41q25 0 76.5 -18.5t78.5 -18.5q86 0 130.5 53t44.5 136q0 55 -22.5 98.5t-62.5 71t-86.5 46.5 t-104 28t-105 12.5t-99.5 3.5q-74 0 -141 -10.5t-131.5 -36.5t-111.5 -65.5t-76 -101.5t-29 -140q0 -53 13.5 -95.5t33.5 -69.5t51.5 -48.5t58 -33t62.5 -22.5q-58 -19 -100 -51.5t-63.5 -71.5t-30.5 -75.5t-9 -73.5q0 -77 28.5 -132t71 -82t92 -46t92 -27.5t71 -23 t28.5 -35.5v-5t-2.5 -8t-7.5 -9.5t-15.5 -7t-25.5 -3.5q-39 0 -101 33t-100 32q-90 -3 -141 -56t-51 -146zM520 721q0 38 29 67t67 29t67.5 -29t29.5 -67t-29 -66t-68 -28q-38 0 -67 28t-29 66z" />
<glyph unicode="&#xa8;" d="M14 1489q0 86 60.5 145.5t148.5 59.5q70 0 124 -41t73 -105l18 -6q19 67 74.5 109.5t128.5 42.5q70 0 124 -41t73 -105q74 -12 123 -69t49 -133q0 -88 -59.5 -148.5t-145.5 -60.5q-71 0 -125.5 40.5t-75.5 104.5q-3 1 -10 3t-10 3q-19 -67 -73 -109t-124 -42 q-71 0 -125.5 40.5t-75.5 104.5q-74 12 -123 70.5t-49 136.5zM59 1489q0 -69 47.5 -116.5t116.5 -47.5q67 0 113.5 47.5t46.5 116.5q0 67 -46.5 113.5t-113.5 46.5q-69 0 -116.5 -46.5t-47.5 -113.5zM477 1489q0 -69 47.5 -116.5t116.5 -47.5q67 0 113.5 47.5t46.5 116.5 q0 67 -46.5 113.5t-113.5 46.5q-69 0 -116.5 -46.5t-47.5 -113.5z" />
<glyph unicode="&#xa9;" horiz-adv-x="2048" d="M88 791q0 173 62.5 329t172.5 272.5t271 185.5t348 69q192 0 356 -75.5t283 -209.5q176 -116 277.5 -305.5t101.5 -409.5q0 -230 -108.5 -425t-305.5 -312t-440 -117q-193 0 -358.5 75t-282.5 208q-176 118 -276.5 306.5t-100.5 408.5zM133 791q0 -163 61 -311t167 -258 t257.5 -175t323.5 -65q173 0 324.5 65t257 175t166.5 258t61 311t-61 311.5t-167 258.5t-257.5 175.5t-323.5 65.5q-177 0 -329.5 -65.5t-257 -176t-163.5 -258.5t-59 -311zM354 791q0 118 44.5 225.5t121 187t187 127t235.5 47.5t236 -47.5t188 -127t121.5 -187 t44.5 -225.5q0 -159 -74.5 -293t-210.5 -214.5t-305 -80.5q-167 0 -303 81t-210.5 215t-74.5 292zM504 797q0 -208 130.5 -329.5t342.5 -121.5q57 0 114 14.5t107 43t81.5 76.5t31.5 108q0 32 -6.5 60t-22 56t-46.5 44t-75 16q-37 0 -76 -16.5t-59 -16.5q-28 0 -51 19 t-23 59q0 39 22 56.5t50 17.5q22 0 57 -15.5t62 -15.5q68 0 101.5 48t33.5 120q0 73 -46.5 124t-112.5 72t-142 21q-211 0 -342 -124.5t-131 -315.5z" />
<glyph unicode="&#xaa;" horiz-adv-x="1202" d="M10 1135q0 96 22.5 179.5t67 150t118 105t167.5 38.5q136 0 209 -82q56 82 174 82q167 0 225 -150q41 -8 73 -28.5t52.5 -44.5t35 -63.5t21.5 -69.5t10.5 -79.5t4 -76t0.5 -76.5v-14v-15v-65t-2.5 -68t-7 -73t-13 -68.5t-21 -66t-32.5 -55t-45 -46t-60 -28t-77 -11.5 q-112 0 -168 80q-72 -80 -215 -80q-211 0 -305 168q-119 45 -176.5 167t-57.5 290zM55 1135q0 -92 18.5 -169t56.5 -138t103.5 -95.5t151.5 -34.5q170 0 225 133q18 -72 56.5 -102.5t101.5 -30.5q35 0 63.5 10.5t49.5 25.5t37 42t26.5 50t18 60.5t11 62.5t5.5 66.5t2 62 v58.5v13q0 166 -16 237q-41 176 -197 177q-138 0 -166 -142q-20 68 -78.5 105t-138.5 37q-83 0 -147.5 -35t-103.5 -95t-59 -135.5t-20 -162.5zM426 1155q0 38 27.5 64t66.5 26q38 0 65 -26t27 -64q0 -36 -27 -63t-65 -27t-66 27t-28 63z" />
<glyph unicode="&#xab;" horiz-adv-x="1499" d="M20 567q0 51 28 124t77 148t109 140.5t131.5 107t136.5 41.5q73 0 129 -41t65 -104q53 -8 101 -41q71 84 149 135t152 51q73 0 129 -41t65 -104q71 -9 118.5 -55.5t47.5 -112.5q0 -23 -4.5 -47t-9 -43.5t-17 -45t-20 -41t-26.5 -42t-26.5 -37.5t-31 -39t-30 -35.5 t-32.5 -37t-30 -33.5q53 -56 85 -93.5t69 -90.5t55 -105.5t18 -106.5q0 -75 -55 -125.5t-141 -50.5q-132 0 -285 178q-72 43 -139 119q24 -67 24 -121q0 -75 -55 -125.5t-141 -50.5q-132 0 -285 178q-91 50 -177.5 159t-135 216.5t-48.5 171.5zM66 567q0 -53 40 -142.5 t100 -177.5t141.5 -152t154.5 -64q67 0 109 37.5t42 93.5q0 24 -4 47.5t-14.5 48t-19 44t-27.5 46.5t-30 42.5t-36 44.5t-35 41t-38.5 43t-36.5 40q52 56 81 90t73 93t65.5 113t21.5 103q0 54 -44 89.5t-107 35.5q-73 0 -154.5 -58.5t-142 -140.5t-100 -170t-39.5 -147z M662 567q0 -53 40 -142.5t100 -177.5t141.5 -152t154.5 -64q67 0 109 37.5t42 93.5q0 21 -4.5 43.5t-9.5 41t-18 42.5t-21 39.5t-27.5 41.5t-28 38t-32.5 39.5t-32.5 36.5t-35 38t-32.5 35q45 49 63.5 70t60 74t61.5 88t38 82t18 87q0 54 -44 89.5t-107 35.5 q-73 0 -154.5 -58.5t-142 -140.5t-100 -170t-39.5 -147z" />
<glyph unicode="&#xac;" horiz-adv-x="1294" d="M0 903q0 38 11.5 69.5t28 54.5t47.5 41t56.5 29.5t70.5 19.5t73 12t80.5 6t77 2h77.5h25q68 0 109 -1t95.5 -4.5t88 -10.5t73 -19.5t65 -31t49.5 -46t40 -63.5q105 -33 156 -125.5t51 -272.5q0 -358 -217 -358q-136 0 -191 143q-126 13 -172 170q-54 0 -90.5 1t-91 4.5 t-93 10.5t-83 20t-74.5 31.5t-54.5 46.5t-35.5 64q-172 57 -172 207zM45 903q0 -32 11 -58t28 -45t46.5 -34t55.5 -25t68 -16.5t71.5 -10t76.5 -5t73 -2t72 -0.5q107 0 164 2q4 -68 13.5 -119t28.5 -98.5t54.5 -73t85.5 -25.5q172 0 172 314q0 80 -12.5 139.5t-31 100.5 t-57 68.5t-73 43t-98 23t-112 9t-134.5 1.5h-23q-60 0 -92 -0.5t-90.5 -4t-92.5 -10t-78 -20.5t-68 -33.5t-41 -50.5t-17 -70z" />
<glyph unicode="&#xad;" horiz-adv-x="1077" d="M20 569q0 65 18.5 115t54.5 80.5t75.5 50t96 28.5t100 12t102.5 3q74 0 129.5 -5t120 -21.5t109.5 -53.5t67 -94q184 -58 184 -258q0 -65 -18.5 -115t-54 -81t-76 -52t-95 -30.5t-100 -13t-102.5 -3.5q-73 0 -129 6t-119 22.5t-108.5 54t-69.5 93.5q-185 62 -185 262z M66 569q0 -55 17 -97t48.5 -68.5t68 -44.5t86 -26t90 -11t91.5 -3t91.5 3t90 11t86 26t68 44.5t48.5 68.5t17 97q0 47 -13.5 85t-35 63t-54.5 43.5t-65.5 28t-76.5 15.5t-78 7.5t-78 1.5t-78 -1.5t-78 -7.5t-76.5 -15.5t-65.5 -28t-54.5 -43.5t-35 -63t-13.5 -85z" />
<glyph unicode="&#xae;" horiz-adv-x="2048" d="M88 791q0 173 62.5 329t172.5 272.5t271 185.5t348 69q192 0 356 -75.5t283 -209.5q176 -116 277.5 -305.5t101.5 -409.5q0 -230 -108.5 -425t-305.5 -312t-440 -117q-193 0 -358.5 75t-282.5 208q-176 118 -276.5 306.5t-100.5 408.5zM133 791q0 -163 61 -311t167 -258 t257.5 -175t323.5 -65q173 0 324.5 65t257 175t166.5 258t61 311t-61 311.5t-167 258.5t-257.5 175.5t-323.5 65.5q-177 0 -329.5 -65.5t-257 -176t-163.5 -258.5t-59 -311zM354 791q0 118 44.5 225.5t121 187t187 127t235.5 47.5t236 -47.5t188 -127t121.5 -187 t44.5 -225.5q0 -159 -74.5 -293t-210.5 -214.5t-305 -80.5q-167 0 -303 81t-210.5 215t-74.5 292zM559 691.5q0 -20.5 2 -58.5t5.5 -60t10.5 -54t16.5 -51t25 -41t35 -34t46.5 -20t60 -8q37 0 65.5 11t46.5 26.5t31 45.5t19.5 53.5t9.5 66.5t3.5 68t0.5 74v11h4h2 q23 -185 77.5 -270.5t147.5 -85.5q72 0 119 48.5t47 118.5q3 62 -31.5 125t-78.5 111q100 61 100 205q0 69 -30 121t-82 82t-116.5 44.5t-140.5 14.5t-133 -9t-100 -25t-71.5 -46t-46.5 -64.5t-27.5 -89.5t-13 -111t-3.5 -138v-60.5zM866 946q0 28 21 49t47 21q28 0 49 -21 t21 -49q0 -27 -21 -47t-49 -20q-27 0 -47.5 20t-20.5 47z" />
<glyph unicode="&#xaf;" d="M90 1489q0 172 340 172q327 0 340 -160q164 -34 164 -155q0 -175 -340 -175q-327 0 -340 160q-164 34 -164 158zM135 1489q0 -129 295 -129t295 129q0 127 -295 127t-295 -127z" />
<glyph unicode="&#xb0;" horiz-adv-x="1028" d="M0 1188q0 178 127 303t309 125q108 0 201.5 -51t153.5 -138q107 -53 172 -156t65 -227q0 -182 -125 -309t-303 -127q-111 0 -205 50.5t-155 138.5q-108 55 -174 160t-66 231zM45 1188q0 -163 114 -277t277 -114q160 0 271.5 114t111.5 277q0 160 -111.5 271.5 t-271.5 111.5q-163 0 -277 -111.5t-114 -271.5zM311 1184q0 51 35 86t86 35t86 -35t35 -86t-35 -86t-86 -35t-86 35t-35 86z" />
<glyph unicode="&#xb1;" horiz-adv-x="1294" d="M20 309q0 64 29.5 109.5t83.5 70t113.5 36.5t136.5 16q-12 20 -16 30q-150 37 -177 146q-85 23 -127.5 72t-42.5 135q0 115 80 163t242 58q14 130 64 194t161 64q155 0 201 -146q118 -14 160 -133q75 -20 119 -54t57 -93q83 -23 126.5 -70t43.5 -127q0 -59 -22 -101.5 t-66.5 -68t-100.5 -38.5t-133 -19q-1 -7 -3 -22.5t-3 -22.5q129 -42 156 -139q172 -54 172 -203q0 -35 -8.5 -65t-27 -52.5t-39 -40.5t-53 -31t-60 -22t-69 -15t-70.5 -9.5t-74.5 -4.5t-71.5 -1.5t-70 -0.5q-57 0 -92 0.5t-93.5 4t-96.5 10t-85.5 19.5t-78 31.5t-56 47 t-36.5 65.5q-173 57 -173 207zM66 309q0 -32 11 -58t28 -45t46.5 -34t55.5 -25t67.5 -16.5t71 -10t76.5 -5t73 -2t72 -0.5t72 0.5t73 2t76 5t70.5 10t67 16.5t55 25t46 34t27.5 45t11 58q0 41 -17 72.5t-49.5 51.5t-69.5 33.5t-89 20t-94.5 8.5t-98.5 3q48 25 69.5 84 t28.5 157q159 7 239.5 47t80.5 138q0 95 -80.5 133t-239.5 45q-8 129 -46.5 192.5t-131.5 63.5t-133.5 -64t-50.5 -192q-159 -7 -238 -45t-79 -133q0 -98 79.5 -138t237.5 -47q6 -98 29 -157t73 -84q-57 -1 -99.5 -3t-95 -8.5t-89 -20t-69.5 -33.5t-49.5 -51.5t-16.5 -72.5z " />
<glyph unicode="&#xb2;" horiz-adv-x="1056" d="M41 803q0 47 12 87.5t26.5 66.5t46.5 56t51 44t61 43q-13 23 -19 47q-74 6 -122 62t-48 139q0 72 35.5 125.5t93 81.5t117 40.5t121.5 12.5q265 0 350 -174q203 -77 203 -328q0 -180 -127 -272q0 -7 2 -9q85 -19 128.5 -75t43.5 -129q0 -114 -69 -173t-228 -59h-207 q-114 0 -185.5 43.5t-101.5 116.5q-93 28 -138.5 97t-45.5 157zM86 803q0 -95 65 -160t197 -65h207q136 0 194 47t58 139q0 71 -53 119.5t-156 48.5q-63 0 -113 -3.5t-69 -6.5l-19 -4l-2 8q365 43 365 323q0 86 -27.5 149t-77 98t-108.5 51t-131 16q-54 0 -106.5 -10.5 t-103 -33.5t-81.5 -67t-31 -104q0 -67 41 -111.5t103 -44.5q35 0 61 12.5t39 12.5t22 -10t9 -29q0 -42 -80 -97q-7 -5 -36.5 -25t-38 -26.5t-32.5 -26t-32.5 -30.5t-24.5 -32t-22 -40t-11.5 -44.5t-5.5 -53.5z" />
<glyph unicode="&#xb3;" horiz-adv-x="1001" d="M20 786q0 83 50.5 136.5t126.5 56.5q-27 44 -27 98q0 70 51 111q-68 9 -114 58.5t-46 125.5q0 236 322 236q121 0 218.5 -39.5t139.5 -134.5q189 -67 189 -271q0 -137 -86 -205q66 -32 101.5 -94t35.5 -139t-23 -137t-61 -97.5t-92 -62t-111.5 -34t-124.5 -9.5 q-52 0 -102 7t-106.5 24.5t-99.5 54t-62 88.5q-179 62 -179 227zM66 786q0 -52 24.5 -92t60 -62t84 -36t89 -18.5t82.5 -4.5q60 0 111 8.5t99 29t81.5 53.5t54 85t20.5 119q0 98 -64.5 161t-181.5 63v6q95 0 145 58t50 151q0 60 -21 106.5t-54 74t-79 45t-90 24t-94 6.5 q-277 0 -277 -191q0 -64 41 -102.5t99 -38.5q16 0 67 14.5t68 14.5t32 -10t15 -31q0 -25 -22 -35t-53 -12t-62.5 -6.5t-53.5 -25.5t-22 -63q0 -19 3.5 -34t8 -26.5t14.5 -20t17.5 -14.5t22.5 -9.5t24 -5.5t28 -3t27.5 -1h30h29.5q15 0 31 -11.5t16 -36.5q0 -23 -14.5 -36 t-34.5 -13q-33 0 -108.5 34t-108.5 34q-59 0 -97 -40.5t-38 -107.5z" />
<glyph unicode="&#xb4;" d="M190 1341q0 50 25 120.5t65.5 138.5t102 115.5t125.5 47.5q61 0 105 -40.5t53 -102.5h6q68 0 113.5 -49.5t45.5 -120.5q0 -63 -38 -134t-92 -125t-115 -90t-105 -36q-56 0 -91.5 40.5t-35.5 92.5v16q-19 -8 -39 -8q-56 0 -90.5 41t-34.5 94zM236 1341q0 -35 22 -62.5 t57 -27.5q29 0 81 33.5t102.5 82t87.5 111.5t37 115q0 53 -33 89t-82 36q-55 0 -107.5 -42.5t-87.5 -103t-56 -123.5t-21 -108z" />
<glyph unicode="&#xb5;" horiz-adv-x="1515" d="M29 428v145q0 148 17.5 258t47 178.5t75.5 110.5t97 58t117 16q220 0 287 -162q20 -4 35 -10q62 172 286 172q177 0 258 -158q40 -12 72.5 -36t56 -51t42 -69.5t30 -75t19.5 -85.5t12 -84t6 -87t2 -77v-70q0 -598 -268 -598q-77 0 -117.5 25t-63.5 90q-62 -115 -163 -115 q-27 0 -59 15t-50 30l-18 15v-6q0 -76 -4.5 -139t-15 -125t-29.5 -108.5t-46.5 -82.5t-68 -55t-92.5 -19q-72 0 -124 33.5t-87 114.5q-66 11 -110.5 58t-78 153t-49.5 288.5t-16 452.5zM74 428q0 -281 15.5 -463t50 -279t78.5 -133t112 -36q43 0 76.5 16.5t56 52t38.5 74.5 t24 100.5t12.5 113t3.5 129.5t-3 132t-6 137q1 -6 2 -16t6.5 -39t13.5 -55.5t22.5 -59t32.5 -55.5t45 -39t59 -16q69 0 116.5 77.5t55.5 194.5q18 -163 51 -217.5t121 -54.5q223 0 223 553q0 215 -21 323q-55 281 -268 281q-138 0 -205 -79t-67 -267q0 -49 5 -134t5 -100 q0 -29 -2.5 -47t-13.5 -32.5t-31 -14.5q-21 0 -33 22t-12 56q0 37 10 126.5t10 197.5q0 65 -17 115t-43 79t-63.5 47.5t-73.5 24.5t-77 6q-72 0 -125 -25t-96.5 -87t-65.5 -178t-22 -286v-145z" />
<glyph unicode="&#xb6;" horiz-adv-x="1529" d="M0 1135q0 223 157 356t441 133h539q86 0 125 -15q80 -33 84 -128q163 -5 163 -150q0 -148 -161 -153v-1426v-4q1 -207 -160 -207q-80 0 -116 42t-44 102h-4q-30 0 -51 6q-8 -61 -44 -105.5t-114 -44.5q-80 0 -116 42t-44 102h-4q-35 0 -62 10t-43.5 22.5t-28.5 35.5 t-17 37.5t-8 41t-3 33v26.5v654q-145 61 -233 178q-116 68 -186 175t-70 237zM45 1135q0 -127 70.5 -231t181.5 -160.5t238 -61.5v-791q0 -62 11 -92q28 -68 105 -69q19 0 34.5 4.5t27 11.5t20.5 17.5t14.5 21t9.5 24t6 24t2.5 23t0.5 19.5v16v9v1462h141v-1471v-4 q-4 -157 117 -157q19 0 34.5 4.5t27 11.5t20.5 17.5t14.5 21t9.5 24t6 24t2.5 23t0.5 19.5v16v9v1468h9t15 -0.5t19 0.5t22 2.5t22.5 5.5t22.5 9t19.5 13.5t16.5 19t11 25t4 32.5q0 17 -4.5 31.5t-11.5 24.5t-17.5 18t-21 13t-24 8.5t-24 5.5t-23 2.5t-19.5 0.5h-16h-9h-532 q-262 0 -407.5 -121t-145.5 -323z" />
<glyph unicode="&#xb7;" horiz-adv-x="782" d="M20 831q0 120 85.5 203.5t205.5 83.5q83 0 152.5 -44t103.5 -116q87 -28 141 -102t54 -168q0 -120 -83.5 -205.5t-203.5 -85.5q-83 0 -152.5 44t-107.5 116q-86 30 -140.5 105t-54.5 169zM66 831q0 -101 72 -173t173 -72t171.5 71.5t70.5 173.5q0 101 -70.5 171.5 t-171.5 70.5q-102 0 -173.5 -70.5t-71.5 -171.5z" />
<glyph unicode="&#xb8;" d="M170 -326q0 65 34 97t91 32q13 0 40.5 -4t29.5 -4l6 4q0 10 -23 15.5t-50 10t-50 29t-23 68.5q0 36 26 76t56 61h58q-35 -25 -65 -64t-30 -73q0 -28 15 -42t36.5 -17t43 -6.5t36.5 -17t15 -40.5q0 -25 -13.5 -37t-29.5 -12q-4 0 -28 3t-42 3q-88 0 -88 -82q0 -33 21 -57 t54.5 -35t62.5 -15.5t57 -4.5q102 0 167.5 59t65.5 164q0 22 -3 42.5t-7 36t-12 30.5t-14 24.5t-17 20t-17 16t-18 12.5t-16.5 9.5t-16 8t-12.5 5.5l51 69h53l-39 -53q78 -46 99 -123q33 -8 61.5 -22.5t56.5 -41t44 -72t16 -105.5q0 -126 -78.5 -197.5t-200.5 -71.5 q-33 0 -69 6.5t-75.5 22t-66 47.5t-28.5 76q-69 12 -116.5 48.5t-47.5 100.5z" />
<glyph unicode="&#xb9;" horiz-adv-x="768" d="M61 956v226q0 78 4 132t18.5 114t40 96t72.5 60t113 24q163 0 215 -148q51 -8 87 -35t56.5 -62t32 -89t14.5 -103t3 -118v-254q0 -62 -2.5 -107.5t-11 -96.5t-25 -86t-43 -65t-67.5 -44.5t-95 -14.5q-88 0 -139.5 37.5t-77.5 109.5q-52 8 -88.5 36t-57 65t-32 94 t-14.5 107t-3 122zM106 1069q0 -197 5 -249q16 -177 104 -226q39 -21 94 -21q49 0 85 17t57 47t34.5 71t17 89.5t5.5 102.5t0 109v60v60q0 48 0.5 93.5t-3.5 89t-10.5 81t-21.5 69t-35.5 54t-53.5 35t-75 12.5q-50 0 -86.5 -15t-58 -53t-34.5 -67.5t-18 -96.5t-5.5 -98.5 t-0.5 -112.5v-51z" />
<glyph unicode="&#xba;" horiz-adv-x="1155" d="M10 1139q0 116 41.5 207.5t112.5 148t159 85.5t185 28q124 0 224.5 -51.5t164.5 -143.5q116 -59 182 -172.5t66 -259.5q0 -212 -141 -341.5t-361 -129.5q-126 0 -225.5 49.5t-161.5 140.5q-116 57 -181 172.5t-65 266.5zM55 1139q0 -196 116.5 -318.5t307.5 -122.5 q200 0 328.5 117t128.5 309t-120.5 315.5t-307.5 123.5q-89 1 -169 -25.5t-144 -77t-102 -133.5t-38 -188zM391 1227q0 38 28 66t66 28t66.5 -28t28.5 -66t-28.5 -66t-66.5 -28t-66 28t-28 66z" />
<glyph unicode="&#xbb;" horiz-adv-x="1499" d="M20 162q0 29 6.5 59.5t13.5 53t25.5 54t28 47.5t37 50t36 44t41.5 47t38 42q-40 43 -61 66t-58 70.5t-56 83.5t-35 84.5t-16 94.5q0 74 58 122t139 48q73 0 151.5 -51.5t149.5 -134.5q49 -27 119 -94q-21 53 -21 110q0 74 58 122t139 48q73 0 151.5 -51.5t149.5 -134.5 q87 -50 168.5 -148.5t128.5 -199.5t47 -170q0 -58 -44 -155.5t-110.5 -192.5t-156.5 -164.5t-170 -69.5q-76 0 -129.5 41.5t-65.5 104.5q-70 10 -108 45q-159 -191 -293 -191q-76 0 -129.5 41.5t-65.5 104.5q-74 9 -120 57.5t-46 116.5zM66 162q0 -56 42 -93.5t109 -37.5 q73 0 154.5 64t141.5 152t100 177.5t40 142.5q0 59 -39.5 147t-100 170t-142 140.5t-154.5 58.5q-63 0 -107 -35.5t-44 -89.5q0 -33 12 -70.5t25 -65t44.5 -71.5t47 -63t58 -69t52.5 -62q-44 -47 -64 -69t-60.5 -71.5t-60.5 -84.5t-37 -81.5t-17 -88.5zM662 162 q0 -56 42 -93.5t109 -37.5q73 0 154.5 64t141.5 152t100 177.5t40 142.5q0 59 -39.5 147t-100 170t-142 140.5t-154.5 58.5q-63 0 -107 -35.5t-44 -89.5q0 -29 6.5 -58t23.5 -62t29.5 -55.5t42 -60.5t42.5 -54t49.5 -58.5t45.5 -52.5q-44 -47 -64 -69t-60.5 -71.5 t-60.5 -84.5t-37 -81.5t-17 -88.5z" />
<glyph unicode="&#xbc;" horiz-adv-x="2174" d="M61 956v226q0 78 4 132t18.5 114t40 96t72.5 60t113 24q163 0 215 -148q51 -8 87 -35t56.5 -62t32 -89t14.5 -103t3 -118v-156l6 12q68 138 135 255t140 221t143 163.5t127 59.5q116 0 116 -142v-12q27 10 48 10q116 0 116 -141q0 -114 -94 -350q88 51 174 51 q190 0 258 -156q62 -16 103.5 -54t62 -94t28 -112t7.5 -127q0 -77 -2 -112v-21q90 -53 90 -164q0 -143 -117 -180q-11 -201 -213 -201q-58 0 -96.5 10.5t-58 32t-28 44.5t-11.5 59q-96 6 -131 47q-204 31 -256 164q-100 36 -146 108q-112 -206 -225 -335.5t-199 -129.5 q-127 0 -127 146v4q-18 -6 -37 -6q-127 0 -127 145q0 95 76 293h-6q-88 0 -139.5 37.5t-77.5 109.5q-52 8 -88.5 36t-57 65t-32 94t-14.5 107t-3 122zM106 1069q0 -197 5 -249q16 -177 104 -226q39 -21 94 -21q49 0 85 17t57 47t34.5 71t17 89.5t5.5 102.5t0 109v60v60 q0 48 0.5 93.5t-3.5 89t-10.5 81t-21.5 69t-35.5 54t-53.5 35t-75 12.5q-50 0 -86.5 -15t-58 -53t-34.5 -67.5t-18 -96.5t-5.5 -98.5t-0.5 -112.5v-51zM522 373q-140 -372 8 -381q65 0 156 101t176.5 246.5t167.5 322.5q206 409 271 615q91 286 -33 286q-49 0 -112 -56.5 t-131 -156.5t-131.5 -213t-129.5 -248q-181 -363 -242 -516zM1126 426q-1 -61 20.5 -107t57 -73t90.5 -44.5t109 -24t125 -9.5q1 -10 2.5 -34t2.5 -33.5t5 -29t9.5 -27.5t16.5 -20.5t26.5 -17.5t38.5 -9.5t52 -4.5q168 0 168 190q54 6 85.5 46.5t31.5 99.5q0 58 -24 89 t-68 48q5 170 4 199q-7 213 -112 280q-55 35 -138 35q-108 0 -226.5 -91t-196 -221t-79.5 -241zM1425 463q67 77 121 276h10q-3 -20 -7.5 -52.5t-11.5 -106.5t-5 -117h-107z" />
<glyph unicode="&#xbd;" horiz-adv-x="2201" d="M61 956v226q0 78 4 132t18.5 114t40 96t72.5 60t113 24q163 0 215 -148q51 -8 87 -35t56.5 -62t32 -89t14.5 -103t3 -118v-156l6 12q68 138 135 255t140 221t143 163.5t127 59.5q116 0 116 -142v-12q27 10 48 10q116 0 116 -141q0 -106 -73 -301q44 8 96 8 q265 0 350 -174q203 -77 203 -328q0 -180 -127 -272q0 -6 2 -8q85 -19 128.5 -75.5t43.5 -129.5q0 -114 -69 -172.5t-228 -58.5h-207q-114 0 -185.5 43.5t-101.5 115.5q-93 28 -138.5 97t-45.5 157q0 47 12 87.5t26.5 66.5t46.5 56t51 44t61 43h-2h2q-13 23 -19 47 q-49 6 -88 31q-7 -15 -25.5 -51t-25.5 -51v2q-63 -135 -131 -255.5t-139.5 -221.5t-142.5 -160.5t-128 -59.5q-127 0 -127 146v4q-18 -6 -37 -6q-127 0 -127 145q0 95 76 293h-6q-88 0 -139.5 37.5t-77.5 109.5q-52 8 -88.5 36t-57 65t-32 94t-14.5 107t-3 122zM106 1069 q0 -197 5 -249q16 -177 104 -226q39 -21 94 -21q49 0 85 17t57 47t34.5 71t17 89.5t5.5 102.5t0 109v60v60q0 48 0.5 93.5t-3.5 89t-10.5 81t-21.5 69t-35.5 54t-53.5 35t-75 12.5q-50 0 -86.5 -15t-58 -53t-34.5 -67.5t-18 -96.5t-5.5 -98.5t-0.5 -112.5v-51zM522 373 q-140 -372 8 -381q65 0 156 101t176.5 246.5t167.5 322.5q206 409 271 615q91 286 -33 286q-49 0 -112 -56.5t-131 -156.5t-131.5 -213t-129.5 -248q-181 -363 -242 -516zM1241 225q0 -95 65 -160t197 -65h207q136 0 194 47t58 139q0 71 -53 119.5t-156 48.5 q-63 0 -113 -3.5t-69 -6.5l-19 -4l-2 8q365 43 365 324q0 86 -27.5 148.5t-77 97.5t-108.5 51t-131 16q-54 0 -106.5 -10.5t-103 -33.5t-81.5 -67t-31 -104q0 -67 41 -111.5t103 -44.5q35 0 61 12.5t39 12.5t22 -10t9 -29q0 -41 -80 -96q-5 -4 -36.5 -25.5t-38.5 -27 t-32 -25.5t-33 -30.5t-24.5 -32.5t-22 -40t-11 -44t-5.5 -54z" />
<glyph unicode="&#xbe;" horiz-adv-x="2385" d="M20 786q0 84 49.5 137t125.5 56q-25 41 -25 98q0 76 51 111q-68 9 -114 58.5t-46 125.5q0 236 322 236q121 0 218.5 -39.5t139.5 -134.5q189 -67 189 -271q0 -137 -86 -205q51 -23 82 -65q1 3 4 8t4 8q68 138 135 255t140 221t143 163.5t127 59.5q116 0 116 -142v-12 q27 10 47 10q117 0 117 -141q0 -114 -94 -350q88 51 174 51q190 0 258 -156q62 -16 103.5 -54t62 -94t28 -112t7.5 -127q0 -77 -2 -112v-21q90 -53 90 -164q0 -143 -117 -180q-11 -201 -213 -201q-58 0 -96.5 10.5t-58 32t-28 44.5t-11.5 59q-96 6 -131 47q-204 31 -256 164 q-100 36 -146 108q-112 -206 -225 -335.5t-199 -129.5q-127 0 -127 146v4q-18 -6 -37 -6q-127 0 -127 145q0 105 80 303q-51 -10 -125 -10q-52 0 -102 7t-106.5 24.5t-99.5 54t-62 88.5q-179 62 -179 227zM66 786q0 -52 24.5 -92t60 -62t84 -36t89 -18.5t82.5 -4.5 q60 0 111 8.5t99 29t81.5 53.5t54 85t20.5 119q0 98 -64.5 161t-181.5 63v6q95 0 145 58t50 151q0 60 -21 106.5t-54 74t-79 45t-90 24t-94 6.5q-277 0 -277 -191q0 -64 41 -102.5t99 -38.5q16 0 67 14.5t68 14.5t32 -10t15 -31q0 -25 -22 -35t-53 -12t-62.5 -6.5 t-53.5 -25.5t-22 -63q0 -19 3.5 -34t8 -26.5t14.5 -20t17.5 -14.5t22.5 -9.5t24 -5.5t28 -3t27.5 -1h30h29.5q15 0 31 -11.5t16 -36.5q0 -23 -14.5 -36t-34.5 -13q-33 0 -108.5 34t-108.5 34q-59 0 -97 -40.5t-38 -107.5zM733 373q-140 -372 8 -381q65 0 156 101 t176.5 246.5t167.5 322.5q206 409 271 615q91 286 -33 286q-49 0 -112 -56.5t-131 -156.5t-131.5 -213t-129.5 -248q-181 -363 -242 -516zM1337 426q-1 -61 20.5 -107t57 -73t90.5 -44.5t109 -24t125 -9.5q1 -10 2.5 -34t2.5 -33.5t5 -29t9.5 -27.5t16.5 -20.5t26.5 -17.5 t38.5 -9.5t52 -4.5q168 0 168 190q54 6 85.5 46.5t31.5 99.5q0 58 -24 89t-68 48q5 170 4 199q-7 213 -112 280q-55 35 -138 35q-108 0 -226.5 -91t-196 -221t-79.5 -241zM1636 463q67 77 121 276h10q-3 -20 -7.5 -52.5t-11.5 -106.5t-5 -117h-107z" />
<glyph unicode="&#xbf;" horiz-adv-x="1472" d="M94 37q0 71 11 130t28 100t45.5 75.5t56 56.5t67 43.5t71.5 34.5t77.5 32t75.5 34q27 14 119 70.5t150 76.5q-82 23 -134.5 93t-52.5 159q0 111 75.5 181.5t186.5 70.5q84 0 151.5 -42.5t96.5 -113.5q81 -24 131.5 -88t50.5 -151q0 -77 -40 -140t-107 -96l6 -12 q83 -26 133.5 -91.5t50.5 -160.5q0 -78 -36 -133q42 -39 65 -86q92 -30 143.5 -108t51.5 -177q0 -72 -24.5 -132t-65.5 -101.5t-98 -74t-116.5 -52t-127 -32t-125 -17t-113.5 -4.5q-186 0 -331.5 58.5t-225.5 172.5q-117 64 -181.5 170.5t-64.5 253.5zM139 37 q0 -116 46 -206.5t127 -146.5t188 -85t233 -29q62 0 125 6t136.5 20.5t136 42.5t115 67t82.5 99t30 134q0 107 -66.5 180.5t-183.5 73.5q-57 0 -100.5 -15.5t-68 -38t-45 -45t-43 -38t-48.5 -15.5q-12 0 -24.5 3t-26 18.5t-13.5 41.5q0 35 26 58t59 33t87.5 25t87.5 30 q136 61 136 192q0 100 -65.5 160t-164.5 60q-56 0 -110 -18.5t-89.5 -41.5t-82 -54.5t-76.5 -45.5q-29 -14 -85 -36t-93 -37.5t-84.5 -49t-76.5 -74t-49 -110t-20 -158.5zM653 942q0 -91 63 -154t154 -63q92 0 157 63t65 154t-64 149t-158 58q-92 0 -154.5 -58t-62.5 -149z " />
<glyph unicode="&#xc0;" horiz-adv-x="1611" d="M20 451q0 110 8.5 215.5t30 219.5t55 213t86.5 190.5t120.5 158.5t161.5 111t206 53q-6 6 -8 10q-96 58 -179 161t-83 191q0 71 46 120.5t114 49.5q117 0 221 -153q71 -25 133.5 -103.5t94.5 -163.5t32 -145q0 -22 -6 -43q86 -51 153 -137q96 -54 168.5 -150t115 -205 t69.5 -243t36 -251t9 -243q0 -69 -4.5 -123.5t-16 -115.5t-35.5 -106t-60 -82.5t-92.5 -57t-129.5 -19.5q-193 5 -275 162q-104 32 -157 131q-26 -137 -100.5 -215t-223.5 -78q-183 0 -264 158q-69 20 -116 70.5t-70 122.5t-31.5 142t-8.5 155zM66 451q0 -59 4 -108t14 -104 t30.5 -97t50 -77t76 -54t105.5 -19q64 0 113.5 19.5t80.5 51.5t52.5 80t31.5 97t15 110h170q13 -81 30 -136.5t49 -109.5t85.5 -82.5t128.5 -29.5q54 0 98 14t74 37.5t52.5 59.5t35.5 73.5t20.5 86.5t10 92t2.5 96q0 107 -6.5 206.5t-25 214.5t-48.5 212t-80 189 t-115.5 156.5t-159.5 103t-208 38.5q-115 0 -212 -37t-166 -100t-123.5 -151.5t-88.5 -186.5t-56.5 -211.5t-31 -218.5t-8.5 -215zM463 1974q0 -52 37 -115t87 -111.5t102 -82t81 -33.5q35 0 57.5 28t22.5 62q0 45 -21 108t-56 123.5t-87.5 103t-107.5 42.5q-49 0 -82 -36 t-33 -89zM678 729q25 225 41 428h29q5 -86 14 -193t16 -171l6 -64h-106z" />
<glyph unicode="&#xc1;" horiz-adv-x="1611" d="M20 451q0 109 8.5 214t30 218t54 211.5t85 190t119 159t159 112.5t202.5 56q-51 39 -51 110q0 50 24.5 120.5t65 138.5t102 115.5t125.5 47.5q61 0 105 -40.5t53 -102.5h6q68 0 114 -49.5t46 -120.5t-58.5 -154.5t-140.5 -150.5q76 -50 137 -127q96 -54 168.5 -150 t115 -205t69.5 -243t36 -251t9 -243q0 -69 -4.5 -123.5t-16 -115.5t-35.5 -106t-60 -82.5t-92.5 -57t-129.5 -19.5q-193 5 -275 162q-104 32 -157 131q-26 -137 -100.5 -215t-223.5 -78q-183 0 -264 158q-69 20 -116 70.5t-70 122.5t-31.5 142t-8.5 155zM66 451 q0 -59 4 -108t14 -104t30.5 -97t50 -77t76 -54t105.5 -19q64 0 113.5 19.5t80.5 51.5t52.5 80t31.5 97t15 110h170q13 -81 30 -136.5t49 -109.5t85.5 -82.5t128.5 -29.5q54 0 98 14t74 37.5t52.5 59.5t35.5 73.5t20.5 86.5t10 92t2.5 96q0 107 -6.5 206.5t-25 214.5 t-48.5 212t-80 189t-115.5 156.5t-159.5 103t-208 38.5q-115 0 -212 -37t-166 -100t-123.5 -151.5t-88.5 -186.5t-56.5 -211.5t-31 -218.5t-8.5 -215zM672 1722q0 -34 22.5 -62t57.5 -28q29 0 81 33.5t102 82t87 111.5t37 115q0 53 -33 89t-82 36q-55 0 -107.5 -42.5 t-87.5 -103t-56 -123.5t-21 -108zM678 729q25 225 41 428h29q5 -86 14 -193t16 -171l6 -64h-106z" />
<glyph unicode="&#xc2;" horiz-adv-x="1611" d="M20 451q0 143 14.5 277t52 276.5t96 255.5t155 201.5t219.5 125.5h-14q-57 0 -95 43t-38 103q0 58 24.5 128.5t65 134t102.5 106t129 42.5q70 0 131 -43t107 -114q104 -39 176 -164t72 -234q0 -39 -18.5 -73.5t-49.5 -53.5q35 -35 57 -63q96 -54 168.5 -150t115 -205 t69.5 -243t36 -251t9 -243q0 -69 -4.5 -123.5t-16 -115.5t-35.5 -106t-60 -82.5t-92.5 -57t-129.5 -19.5q-193 5 -275 162q-104 32 -157 131q-26 -137 -100.5 -215t-223.5 -78q-183 0 -264 158q-69 20 -116 70.5t-70 122.5t-31.5 142t-8.5 155zM66 451q0 -59 4 -108t14 -104 t30.5 -97t50 -77t76 -54t105.5 -19q64 0 113.5 19.5t80.5 51.5t52.5 80t31.5 97t15 110h170q13 -81 30 -136.5t49 -109.5t85.5 -82.5t128.5 -29.5q54 0 98 14t74 37.5t52.5 59.5t35.5 73.5t20.5 86.5t10 92t2.5 96q0 107 -6.5 206.5t-25 214.5t-48.5 212t-80 189 t-115.5 156.5t-159.5 103t-208 38.5q-115 0 -212 -37t-166 -100t-123.5 -151.5t-88.5 -186.5t-56.5 -211.5t-31 -218.5t-8.5 -215zM455 1733q0 -41 25.5 -71t62.5 -30q34 0 66 25t55.5 64.5t39.5 78.5t27 78q10 -39 27 -78t40.5 -78.5t55.5 -64.5t66 -25q37 0 62.5 30 t25.5 71q0 73 -34.5 156.5t-100.5 146.5t-142 63q-58 0 -111 -38t-88 -94.5t-56 -119t-21 -114.5zM678 729q25 225 41 428h29q5 -86 14 -193t16 -171l6 -64h-106z" />
<glyph unicode="&#xc3;" horiz-adv-x="1611" d="M20 451q0 139 13.5 269t48 267t88 247t140.5 200.5t198 136.5q-98 17 -98 129q0 117 66.5 207t164.5 90q40 0 125 -33q60 -25 94 -25q12 0 41 25q19 18 28 25t28.5 15.5t41.5 8.5q36 0 65.5 -32t29.5 -85q0 -21 -4 -53q39 27 73 27q36 0 65 -32t29 -85q0 -91 -36.5 -162 t-98.5 -104q42 -36 84 -88q96 -54 168.5 -150t115 -205t69.5 -243t36 -251t9 -243q0 -69 -4.5 -123.5t-16 -115.5t-35.5 -106t-60 -82.5t-92.5 -57t-129.5 -19.5q-193 5 -275 162q-104 32 -157 131q-26 -137 -100.5 -215t-223.5 -78q-183 0 -264 158q-69 20 -116 70.5 t-70 122.5t-31.5 142t-8.5 155zM66 451q0 -59 4 -108t14 -104t30.5 -97t50 -77t76 -54t105.5 -19q64 0 113.5 19.5t80.5 51.5t52.5 80t31.5 97t15 110h170q13 -81 30 -136.5t49 -109.5t85.5 -82.5t128.5 -29.5q54 0 98 14t74 37.5t52.5 59.5t35.5 73.5t20.5 86.5t10 92 t2.5 96q0 107 -6.5 206.5t-25 214.5t-48.5 212t-80 189t-115.5 156.5t-159.5 103t-208 38.5q-115 0 -212 -37t-166 -100t-123.5 -151.5t-88.5 -186.5t-56.5 -211.5t-31 -218.5t-8.5 -215zM455 1700q0 -66 49 -66q28 0 68.5 37t70.5 37q35 0 106 -27.5t113 -27.5q81 0 134 69 t53 174q0 33 -15.5 52.5t-34.5 19.5q-28 0 -68.5 -37t-70.5 -37q-41 0 -110 29t-109 29q-79 0 -132.5 -76.5t-53.5 -175.5zM678 729q25 225 41 428h29q5 -86 14 -193t16 -171l6 -64h-106z" />
<glyph unicode="&#xc4;" horiz-adv-x="1611" d="M20 451q0 138 13 267t48 267.5t89 250t142.5 202.5t201.5 135q-2 4 -6 16q-74 12 -123 70.5t-49 136.5q0 86 60.5 145.5t148.5 59.5q69 0 123 -41t73 -105l19 -6q19 67 74.5 109.5t128.5 42.5q69 0 123 -41t73 -105q74 -12 123 -69t49 -133q0 -77 -47.5 -135t-120.5 -72 q15 -15 43 -47q96 -54 168.5 -150t115 -205t69.5 -243t36 -251t9 -243q0 -69 -4.5 -123.5t-16 -115.5t-35.5 -106t-60 -82.5t-92.5 -57t-129.5 -19.5q-193 5 -275 162q-104 32 -157 131q-26 -137 -100.5 -215t-223.5 -78q-183 0 -264 158q-69 20 -116 70.5t-70 122.5 t-31.5 142t-8.5 155zM66 451q0 -59 4 -108t14 -104t30.5 -97t50 -77t76 -54t105.5 -19q64 0 113.5 19.5t80.5 51.5t52.5 80t31.5 97t15 110h170q13 -81 30 -136.5t49 -109.5t85.5 -82.5t128.5 -29.5q54 0 98 14t74 37.5t52.5 59.5t35.5 73.5t20.5 86.5t10 92t2.5 96 q0 107 -6.5 206.5t-25 214.5t-48.5 212t-80 189t-115.5 156.5t-159.5 103t-208 38.5q-115 0 -212 -37t-166 -100t-123.5 -151.5t-88.5 -186.5t-56.5 -211.5t-31 -218.5t-8.5 -215zM381 1796q0 -69 47.5 -116.5t116.5 -47.5q67 0 113.5 47.5t46.5 116.5q0 68 -46.5 114 t-113.5 46q-69 0 -116.5 -46.5t-47.5 -113.5zM678 729q25 225 41 428h29q5 -86 14 -193t16 -171l6 -64h-106zM799 1796q0 -69 47.5 -116.5t116.5 -47.5q67 0 113 47.5t46 116.5q0 68 -46 114t-113 46q-69 0 -116.5 -46.5t-47.5 -113.5z" />
<glyph unicode="&#xc5;" horiz-adv-x="1611" d="M20 451q0 105 8 206.5t28 211t50 205.5t78.5 186.5t110 159t146.5 117.5t186 67q-85 37 -137 115t-52 173q0 129 92.5 219.5t221.5 90.5q88 0 160.5 -44.5t111.5 -119.5q89 -33 145 -112t56 -177q0 -74 -32.5 -139.5t-88.5 -108.5q50 -39 102 -102q96 -54 168.5 -150 t115 -205t69.5 -243t36 -251t9 -243q0 -69 -4.5 -123.5t-16 -115.5t-35.5 -106t-60 -82.5t-92.5 -57t-129.5 -19.5q-193 5 -275 162q-104 32 -157 131q-26 -137 -100.5 -215t-223.5 -78q-183 0 -264 158q-69 20 -116 70.5t-70 122.5t-31.5 142t-8.5 155zM66 451 q0 -59 4 -108t14 -104t30.5 -97t50 -77t76 -54t105.5 -19q64 0 113.5 19.5t80.5 51.5t52.5 80t31.5 97t15 110h170q13 -81 30 -136.5t49 -109.5t85.5 -82.5t128.5 -29.5q54 0 98 14t74 37.5t52.5 59.5t35.5 73.5t20.5 86.5t10 92t2.5 96q0 107 -6.5 206.5t-25 214.5 t-48.5 212t-80 189t-115.5 156.5t-159.5 103t-208 38.5q-115 0 -212 -37t-166 -100t-123.5 -151.5t-88.5 -186.5t-56.5 -211.5t-31 -218.5t-8.5 -215zM483 1892q0 -110 79.5 -189t189.5 -79t187 78.5t77 189.5q0 110 -77 187.5t-187 77.5q-111 0 -190 -77.5t-79 -187.5z M666 1890q0 35 24.5 59.5t59.5 24.5t59.5 -24.5t24.5 -59.5t-24.5 -59.5t-59.5 -24.5t-59.5 24.5t-24.5 59.5zM678 729q25 225 41 428h29q5 -86 14 -193t16 -171l6 -64h-106z" />
<glyph unicode="&#xc6;" horiz-adv-x="2078" d="M-12 272q0 102 33.5 246t63.5 230.5t79 218.5q1 2 20 53q45 118 88.5 203.5t103.5 162t132 123t169 73t218 26.5h500q45 0 74 -0.5t76 -4t79.5 -10.5t73 -20t68 -31t53 -46t39.5 -64q182 -62 182 -252q0 -118 -47 -179t-135 -83q2 -5 6 -14.5t6 -14.5q84 -21 131 -82.5 t47 -161.5q0 -110 -53.5 -162t-149.5 -67q2 -3 5 -11.5t5 -11.5q185 -47 185 -276q0 -63 -18.5 -112.5t-44.5 -81.5t-73.5 -54t-84 -33t-99.5 -17t-97.5 -6.5t-98.5 -0.5h-8q-198 0 -302 44t-155 140q-123 45 -178 174h-62q-30 -102 -58 -164t-72 -109t-105.5 -66 t-151.5 -19q-196 0 -256 153q-188 47 -188 307zM33 243.5q-1 -60.5 16 -99.5t42 -74.5t70.5 -52.5t106.5 -17q66 0 115 13.5t84 38t63 71t48.5 99.5t44.5 136h247q17 -77 36.5 -128.5t54.5 -98.5t85 -73.5t126 -42t180 -15.5q184 0 267 18q200 44 211 220q1 11 1 22 q0 244 -242 244q-43 0 -79.5 -4t-51.5 -8l-16 -3v107q91 -4 139 -2q47 2 80.5 6.5t69 17t57.5 33t36.5 55t14.5 82.5q0 103 -60.5 156t-164.5 53q-25 0 -68 -3t-74 -6l-30 -3v109l145 -2q57 3 97.5 14.5t75.5 36t53 70t18 110.5q0 49 -16 87.5t-39.5 63.5t-63 42.5t-73 26.5 t-84 13.5t-81.5 5.5t-79 1h-500q-96 0 -175 -16t-142 -50t-112.5 -78.5t-92.5 -111t-77 -137.5t-69 -166q-6 -17 -21 -57q-25 -66 -38.5 -104t-40 -114.5t-39 -126t-31 -124t-21 -124.5t-3.5 -110.5zM727 729q74 266 90 428h25q-2 -33 -5 -80.5t-7.5 -175.5t1.5 -172h-104z " />
<glyph unicode="&#xc7;" horiz-adv-x="1556" d="M25 774q0 180 50.5 333t146 266.5t244.5 178t335 64.5q100 0 192 -19t180.5 -69t133.5 -127q213 -102 213 -330q0 -69 -18.5 -126.5t-48 -95t-67.5 -64.5t-74.5 -39t-70.5 -13q74 -41 115 -121q53 -20 94.5 -53.5t73.5 -101.5t32 -160q0 -109 -33 -194.5t-92.5 -141.5 t-133.5 -90.5t-164 -50.5q59 -66 59 -178q0 -126 -78.5 -197.5t-200.5 -71.5q-33 0 -69 6.5t-75.5 22t-66 47.5t-28.5 76q-69 12 -116.5 48.5t-47.5 100.5q0 70 35 98.5t88 28.5q18 0 33.5 -1.5t24.5 -3t11 -1.5q9 0 9 6q0 8 -22 13t-48.5 9t-50 23.5t-25.5 53.5 q-107 58 -192 159q-168 105 -258 292t-90 423zM70 774q0 -198 65.5 -358.5t197 -269.5t314.5 -142q-15 -14 -26 -38t-11 -44q0 -33 23 -47.5t50 -16t50 -15t23 -44.5q0 -25 -13.5 -37t-29.5 -12q-7 0 -30 3t-40 3q-88 0 -88 -82q0 -33 21 -57t54.5 -35t62.5 -15.5t57 -4.5 q102 0 167.5 59t65.5 164q0 40 -9.5 73t-20.5 52t-32 36t-31 22.5t-30 15.5l-8 4l2 6q101 6 186 32t156 76.5t111.5 137t40.5 200.5q0 68 -19.5 121t-48 83.5t-64.5 50.5t-66 27t-56 7q-38 0 -75 -6t-58 -6q-51 0 -83 25.5t-32 82.5q0 103 115 103q5 0 36 -3t74 -3 q37 0 76.5 16.5t77.5 49.5t62 92t24 134q0 79 -32 142t-83 102.5t-119.5 65.5t-136.5 36.5t-139 10.5q-141 0 -259.5 -39.5t-205 -111t-147 -170.5t-90 -219.5t-29.5 -256.5z" />
<glyph unicode="&#xc8;" horiz-adv-x="1386" d="M41 803q0 164 9 277t35 206.5t67 149.5t109.5 95t158 55.5t217.5 19.5q-2 3 -6 8t-6 8q-96 58 -179.5 161t-83.5 191q0 71 46 120.5t114 49.5q117 0 221 -153q71 -25 133.5 -103.5t95 -163.5t32.5 -145v-6q119 -41 161 -141q183 -63 183 -252q0 -118 -47.5 -179 t-135.5 -83q2 -5 6.5 -14.5t6.5 -14.5q84 -21 131 -82.5t47 -161.5q0 -110 -53.5 -162t-149.5 -67q2 -3 5 -11.5t5 -11.5q185 -47 185 -276q0 -50 -11.5 -91t-28 -70.5t-47 -53t-57 -38.5t-69.5 -25.5t-72.5 -15.5t-79.5 -7.5t-76.5 -3t-75.5 -0.5h-8q-205 0 -328.5 50.5 t-187.5 153.5q-51 24 -91 58.5t-68 74.5t-47.5 96.5t-31 111.5t-18 132t-8.5 147t-2 167zM86 803q0 -126 4 -210.5t17 -176.5t37.5 -150t66.5 -113.5t102.5 -86t146.5 -48.5t199 -18q184 0 266 18q202 44 213 220q1 11 1 22q0 244 -242 244q-43 0 -79.5 -4t-51.5 -8l-16 -3 v107q91 -4 139 -2q47 2 80.5 6.5t69 17t57.5 33t36.5 55t14.5 82.5q0 103 -60.5 156t-164.5 53q-25 0 -68 -3t-74 -6l-30 -3v109l145 -2q57 3 97.5 14.5t75.5 36t53 70t18 110.5q0 49 -16 87.5t-39.5 63.5t-63 42.5t-73 26.5t-84.5 13.5t-82 5.5t-79 1q-134 0 -226 -13 t-163.5 -48t-113 -87t-68.5 -142t-36 -199t-9 -271zM408 1974q0 -52 37 -115t87 -111.5t102 -82t81 -33.5q35 0 57.5 28t22.5 62q0 44 -21.5 107.5t-56 124t-87.5 103t-108 42.5q-49 0 -81.5 -36t-32.5 -89z" />
<glyph unicode="&#xc9;" horiz-adv-x="1386" d="M41 803q0 159 8.5 269t32.5 202.5t62 149.5t101 97.5t146.5 59t200.5 23.5q-29 18 -45.5 50.5t-16.5 67.5q0 50 25 120.5t65.5 138.5t102 115.5t125.5 47.5q61 0 105 -40.5t53 -102.5h6q68 0 113.5 -49.5t45.5 -120.5q0 -66 -39 -136.5t-102 -131.5q98 -45 135 -131 q183 -63 183 -252q0 -118 -47.5 -179t-135.5 -83q2 -5 6.5 -14.5t6.5 -14.5q84 -21 131 -82.5t47 -161.5q0 -110 -53.5 -162t-149.5 -67q2 -3 5 -11.5t5 -11.5q185 -47 185 -276q0 -50 -11.5 -91t-28 -70.5t-47 -53t-57 -38.5t-69.5 -25.5t-72.5 -15.5t-79.5 -7.5t-76.5 -3 t-75.5 -0.5h-8q-205 0 -328.5 50.5t-187.5 153.5q-51 24 -91 58.5t-68 74.5t-47.5 96.5t-31 111.5t-18 132t-8.5 147t-2 167zM86 803q0 -126 4 -210.5t17 -176.5t37.5 -150t66.5 -113.5t102.5 -86t146.5 -48.5t199 -18q184 0 266 18q202 44 213 220q1 11 1 22 q0 244 -242 244q-43 0 -79.5 -4t-51.5 -8l-16 -3v107q91 -4 139 -2q47 2 80.5 6.5t69 17t57.5 33t36.5 55t14.5 82.5q0 103 -60.5 156t-164.5 53q-25 0 -68 -3t-74 -6l-30 -3v109l145 -2q57 3 97.5 14.5t75.5 36t53 70t18 110.5q0 49 -16 87.5t-39.5 63.5t-63 42.5t-73 26.5 t-84.5 13.5t-82 5.5t-79 1q-134 0 -226 -13t-163.5 -48t-113 -87t-68.5 -142t-36 -199t-9 -271zM575 1722q0 -34 22.5 -62t57.5 -28q29 0 81 33.5t102.5 82t87.5 111.5t37 115q0 53 -33 89t-82 36q-55 0 -108 -42.5t-87.5 -103t-56 -124t-21.5 -107.5z" />
<glyph unicode="&#xca;" horiz-adv-x="1386" d="M41 803q0 139 6.5 239.5t23.5 188t45.5 145t73 102.5t105 71t143.5 40q-46 10 -75 51t-29 93q0 58 24.5 128.5t65 134t102.5 106t129 42.5q70 0 131 -43t107 -114q104 -39 176 -164t72 -234q0 -45 -25 -84q32 -32 49 -73q183 -63 183 -252q0 -118 -47.5 -179t-135.5 -83 q2 -5 6.5 -14.5t6.5 -14.5q84 -21 131 -82.5t47 -161.5q0 -110 -53.5 -162t-149.5 -67q2 -3 5 -11.5t5 -11.5q185 -47 185 -276q0 -50 -11.5 -91t-28 -70.5t-47 -53t-57 -38.5t-69.5 -25.5t-72.5 -15.5t-79.5 -7.5t-76.5 -3t-75.5 -0.5h-8q-205 0 -328.5 50.5t-187.5 153.5 q-51 24 -91 58.5t-68 74.5t-47.5 96.5t-31 111.5t-18 132t-8.5 147t-2 167zM86 803q0 -126 4 -210.5t17 -176.5t37.5 -150t66.5 -113.5t102.5 -86t146.5 -48.5t199 -18q184 0 266 18q202 44 213 220q1 11 1 22q0 244 -242 244q-43 0 -79.5 -4t-51.5 -8l-16 -3v107 q91 -4 139 -2q47 2 80.5 6.5t69 17t57.5 33t36.5 55t14.5 82.5q0 103 -60.5 156t-164.5 53q-25 0 -68 -3t-74 -6l-30 -3v109l145 -2q57 3 97.5 14.5t75.5 36t53 70t18 110.5q0 49 -16 87.5t-39.5 63.5t-63 42.5t-73 26.5t-84.5 13.5t-82 5.5t-79 1q-134 0 -226 -13 t-163.5 -48t-113 -87t-68.5 -142t-36 -199t-9 -271zM379 1733q0 -41 25.5 -71t62.5 -30q34 0 66 25t55.5 64.5t39.5 78.5t27 78q10 -39 27 -78t40.5 -78.5t55.5 -64.5t66 -25q37 0 62.5 30t25.5 71q0 73 -34.5 156.5t-100.5 146.5t-142 63q-58 0 -111 -38t-88 -94.5 t-56 -119t-21 -114.5z" />
<glyph unicode="&#xcb;" horiz-adv-x="1386" d="M41 803q0 163 9.5 275.5t33.5 205t66.5 150t106 95.5t155.5 56v4q-74 12 -123 70.5t-49 136.5q0 86 60.5 145.5t148.5 59.5q69 0 123 -41t73 -105l19 -6q19 67 74.5 109.5t127.5 42.5q70 0 124 -41t73 -105q74 -12 123 -69t49 -133q0 -56 -25 -102t-69 -74q15 -21 24 -45 q183 -63 183 -252q0 -118 -47.5 -179t-135.5 -83q2 -5 6.5 -14.5t6.5 -14.5q84 -21 131 -82.5t47 -161.5q0 -110 -53.5 -162t-149.5 -67q2 -3 5 -11.5t5 -11.5q185 -47 185 -276q0 -50 -11.5 -91t-28 -70.5t-47 -53t-57 -38.5t-69.5 -25.5t-72.5 -15.5t-79.5 -7.5t-76.5 -3 t-75.5 -0.5h-8q-205 0 -328.5 50.5t-187.5 153.5q-51 24 -91 58.5t-68 74.5t-47.5 96.5t-31 111.5t-18 132t-8.5 147t-2 167zM86 803q0 -126 4 -210.5t17 -176.5t37.5 -150t66.5 -113.5t102.5 -86t146.5 -48.5t199 -18q184 0 266 18q202 44 213 220q1 11 1 22 q0 244 -242 244q-43 0 -79.5 -4t-51.5 -8l-16 -3v107q91 -4 139 -2q47 2 80.5 6.5t69 17t57.5 33t36.5 55t14.5 82.5q0 103 -60.5 156t-164.5 53q-25 0 -68 -3t-74 -6l-30 -3v109l145 -2q57 3 97.5 14.5t75.5 36t53 70t18 110.5q0 49 -16 87.5t-39.5 63.5t-63 42.5t-73 26.5 t-84.5 13.5t-82 5.5t-79 1q-134 0 -226 -13t-163.5 -48t-113 -87t-68.5 -142t-36 -199t-9 -271zM285 1796q0 -69 47.5 -116.5t116.5 -47.5q67 0 113 47.5t46 116.5q0 68 -46 114t-113 46q-69 0 -116.5 -46.5t-47.5 -113.5zM702 1796q0 -69 47.5 -116.5t116.5 -47.5 q67 0 113.5 47.5t46.5 116.5q0 68 -46 114t-114 46q-69 0 -116.5 -46.5t-47.5 -113.5z" />
<glyph unicode="&#xcc;" horiz-adv-x="1036" d="M41 782q0 79 1 133.5t4.5 128.5t10.5 125.5t19.5 113t30.5 104t44.5 85.5t60.5 70.5t80 47t101 24.5q-4 4 -6 8q-96 58 -179 161t-83 191q0 71 46 120.5t114 49.5q117 0 221 -153q71 -25 133.5 -103.5t94.5 -163.5t32 -145q0 -62 -45 -104q3 -4 8 -12.5t8 -12.5 q52 -19 92.5 -56t67.5 -80.5t46 -108.5t29 -122.5t15.5 -142t6.5 -146t1 -155.5q0 -111 -1.5 -180.5t-9.5 -167.5t-23.5 -159t-44 -130.5t-69.5 -108t-103 -64.5t-142 -26q-205 0 -301 166q-52 19 -92.5 55.5t-67.5 80.5t-46.5 109t-29.5 123t-15.5 142.5t-7 147t-1.5 155.5 zM86 782q0 -78 1 -132t4.5 -127t10.5 -123t19.5 -110t30.5 -100t44.5 -80.5t60.5 -64t80 -38.5t101 -15q71 0 126 24.5t91 61t61.5 102t39 123.5t20.5 150.5t8.5 158t1.5 170.5t-1.5 170.5t-8.5 158t-20.5 150.5t-39 123t-61.5 101.5t-91 61t-126 24.5q-50 0 -92 -11 t-74.5 -33.5t-58.5 -50t-45 -69.5t-33 -81t-22.5 -95t-14 -102.5t-8 -112.5t-3.5 -115t-1 -119zM170 1974q0 -52 37 -115t87 -111.5t102 -82t81 -33.5q35 0 57.5 28t22.5 62q0 45 -21 108t-56 123.5t-87.5 103t-107.5 42.5q-49 0 -82 -36t-33 -89z" />
<glyph unicode="&#xcd;" horiz-adv-x="1036" d="M41 782q0 97 1.5 161.5t7.5 152.5t17.5 146.5t33.5 125t52.5 109.5t77 77.5t105.5 49.5q-30 18 -47 50t-17 68q0 50 25 120.5t65.5 138.5t102 115.5t125.5 47.5q61 0 105 -40.5t53 -102.5h6q68 0 113.5 -49.5t45.5 -120.5q0 -85 -63 -176.5t-150 -151.5q21 -24 37 -53 q52 -19 92.5 -56t67.5 -80.5t46 -108.5t29 -122.5t15.5 -142t6.5 -146t1 -155.5q0 -111 -1.5 -180.5t-9.5 -167.5t-23.5 -159t-44 -130.5t-69.5 -108t-103 -64.5t-142 -26q-205 0 -301 166q-52 19 -92.5 55.5t-67.5 80.5t-46.5 109t-29.5 123t-15.5 142.5t-7 147t-1.5 155.5 zM86 782q0 -78 1 -132t4.5 -127t10.5 -123t19.5 -110t30.5 -100t44.5 -80.5t60.5 -64t80 -38.5t101 -15q71 0 126 24.5t91 61t61.5 102t39 123.5t20.5 150.5t8.5 158t1.5 170.5t-1.5 170.5t-8.5 158t-20.5 150.5t-39 123t-61.5 101.5t-91 61t-126 24.5q-50 0 -92 -11 t-74.5 -33.5t-58.5 -50t-45 -69.5t-33 -81t-22.5 -95t-14 -102.5t-8 -112.5t-3.5 -115t-1 -119zM317 1722q0 -34 22.5 -62t57.5 -28q29 0 81 33.5t102.5 82t87.5 111.5t37 115q0 53 -33 89t-82 36q-55 0 -108 -42.5t-87.5 -103t-56 -124t-21.5 -107.5z" />
<glyph unicode="&#xce;" horiz-adv-x="1036" d="M41 782q0 90 1 151t6.5 143t15 138.5t27 120.5t42.5 108t62.5 82t85.5 60v6q-20 -4 -31 -4q-57 0 -95 43t-38 103q0 58 24.5 128.5t65 134t102.5 106t129 42.5q70 0 131 -43t107 -114q104 -39 176 -164t72 -234q0 -60 -38 -102.5t-95 -42.5q-17 0 -23 2 q45 -23 80.5 -62.5t59.5 -84.5t40.5 -109.5t25.5 -121.5t14 -138.5t6 -141.5t1 -149q0 -111 -1.5 -180.5t-9.5 -167.5t-23.5 -159t-44 -130.5t-69.5 -108t-103 -64.5t-142 -26q-205 0 -301 166q-52 19 -92.5 55.5t-67.5 80.5t-46.5 109t-29.5 123t-15.5 142.5t-7 147 t-1.5 155.5zM86 782q0 -78 1 -132t4.5 -127t10.5 -123t19.5 -110t30.5 -100t44.5 -80.5t60.5 -64t80 -38.5t101 -15q71 0 126 24.5t91 61t61.5 102t39 123.5t20.5 150.5t8.5 158t1.5 170.5t-1.5 170.5t-8.5 158t-20.5 150.5t-39 123t-61.5 101.5t-91 61t-126 24.5 q-50 0 -92 -11t-74.5 -33.5t-58.5 -50t-45 -69.5t-33 -81t-22.5 -95t-14 -102.5t-8 -112.5t-3.5 -115t-1 -119zM162 1733q0 -41 25.5 -71t62.5 -30q34 0 66 25t55.5 64.5t39.5 78.5t27 78q10 -39 27 -78t40.5 -78.5t55.5 -64.5t66 -25q37 0 62.5 30t25.5 71 q0 73 -34.5 156.5t-100.5 146.5t-142 63q-58 0 -111 -38t-88 -94.5t-56 -119t-21 -114.5z" />
<glyph unicode="&#xcf;" horiz-adv-x="1036" d="M20 1796q0 86 60.5 145.5t148.5 59.5q70 0 124 -41t73 -105l18 -6q19 67 74.5 109.5t128.5 42.5q70 0 124 -41t73 -105q74 -12 123 -69t49 -133q0 -88 -59.5 -148.5t-145.5 -60.5h-20q41 -26 73 -67.5t53.5 -87t36.5 -111t23 -120.5t12 -136.5t5 -138.5t1 -144 q0 -111 -1.5 -180.5t-9.5 -167.5t-23.5 -159t-44 -130.5t-69.5 -108t-103 -64.5t-142 -26q-205 0 -301 166q-52 19 -92.5 55.5t-67.5 80.5t-46.5 109t-29.5 123t-15.5 142.5t-7 147t-1.5 155.5q0 94 1.5 157t6.5 147.5t16.5 144t30 122t48 109.5t69.5 80q-15 26 -20 47 q-74 12 -123.5 70.5t-49.5 136.5zM66 1796q0 -69 47 -116.5t116 -47.5q67 0 113.5 47.5t46.5 116.5q0 68 -46.5 114t-113.5 46q-69 0 -116 -46t-47 -114zM86 782q0 -78 1 -132t4.5 -127t10.5 -123t19.5 -110t30.5 -100t44.5 -80.5t60.5 -64t80 -38.5t101 -15q71 0 126 24.5 t91 61t61.5 102t39 123.5t20.5 150.5t8.5 158t1.5 170.5t-1.5 170.5t-8.5 158t-20.5 150.5t-39 123t-61.5 101.5t-91 61t-126 24.5q-50 0 -92 -11t-74.5 -33.5t-58.5 -50t-45 -69.5t-33 -81t-22.5 -95t-14 -102.5t-8 -112.5t-3.5 -115t-1 -119zM483 1796q0 -69 47.5 -116.5 t116.5 -47.5q67 0 113.5 47.5t46.5 116.5q0 68 -46.5 114t-113.5 46q-69 0 -116.5 -46.5t-47.5 -113.5z" />
<glyph unicode="&#xd0;" horiz-adv-x="1996" d="M0 801q4 72 39 103t100 36q2 150 19.5 256.5t61.5 181.5t99.5 119.5t151 69.5t197 33t256.5 8q266 0 449 -58t290 -200q153 -88 231 -256.5t78 -440.5q0 -180 -41.5 -321.5t-117.5 -238.5t-187 -160.5t-244 -92t-295 -28.5q-305 0 -463 44.5t-231 168.5 q-140 63 -195.5 208.5t-58.5 428.5q-59 9 -99 42t-40 97zM45 801q0 -96 139 -96q1 -155 13 -260.5t46.5 -187.5t84 -129t137.5 -77.5t194 -40.5t265 -10q154 0 280.5 27t231.5 87.5t176.5 152t111 226t39.5 304.5q0 152 -26 271t-78.5 202.5t-123 141t-168 90.5t-203.5 47 t-240 14q-88 0 -155 -2.5t-134 -9.5t-115 -19t-95 -31.5t-79 -46.5t-61.5 -65t-47 -85.5t-30.5 -108.5t-18.5 -134.5t-4.5 -163.5q-68 0 -102 -19.5t-37 -76.5zM846 537q0 13 7 64t9 104q131 0 131 96q-3 57 -36.5 76.5t-96.5 19.5q-2 24 -8 67.5t-6 63.5q0 30 10 51 t26 29.5t28 12t22 3.5q41 0 71 -35.5t44.5 -92t21 -109.5t6.5 -105q0 -51 -7 -105t-22.5 -110.5t-46.5 -92.5t-73 -36q-28 0 -54 22t-26 77z" />
<glyph unicode="&#xd1;" horiz-adv-x="1781" d="M41 782q0 110 2 180t11.5 167.5t26.5 159t50.5 130t80.5 107t118 64.5t162 26q5 0 14 -1t14 -1q-24 27 -24 86q0 117 66.5 207t164.5 90q42 0 113 -29t106 -29q11 0 25.5 11.5t27.5 25.5t36.5 25.5t49.5 11.5q36 0 65.5 -32t29.5 -85q0 -21 -4 -53q39 27 73 27 q36 0 65 -32t29 -85q0 -83 -30 -147q120 -28 182 -148q51 -16 90.5 -51.5t65 -75t43 -108t26.5 -119.5t13.5 -143.5t5 -146t0.5 -158.5v-9v-8q0 -109 -2 -180t-11.5 -168t-27.5 -159t-51.5 -130.5t-81 -107.5t-119 -65t-162.5 -26q-207 0 -319 174q-64 25 -109 70 q-33 -119 -103 -181.5t-194 -62.5q-183 0 -270 160q-51 16 -91 52t-66 77t-44 110.5t-27 123.5t-14 146t-5.5 149t-0.5 161zM86 782q0 -109 1 -170.5t7 -157.5t17.5 -151.5t34 -122.5t55 -102.5t81.5 -60.5t113 -25q83 0 141 36.5t88 101.5t47 153.5t17.5 192t-0.5 218.5h12 q5 -91 15.5 -169.5t29.5 -161.5t51 -147t75.5 -116t107 -80t141.5 -28q65 0 118 15t93 38.5t71 64t51.5 80.5t35.5 100t22.5 110t12 123t5.5 126.5t1 132.5v22q0 78 -0.5 117.5t-2 111t-5.5 110t-11 98.5t-18.5 93.5t-27.5 77.5t-38.5 68t-50.5 47.5t-65.5 33.5t-81.5 10 q-52 0 -94 -17.5t-71.5 -44t-51.5 -70t-35 -84t-21 -99t-10.5 -101.5t-1.5 -104.5t2.5 -94.5t5 -85.5t4.5 -65.5h-12q-23 231 -36 302q-51 295 -196 399q-91 65 -220 65q-82 0 -146 -24.5t-106.5 -61t-72 -101.5t-45.5 -123t-24.5 -150.5t-10 -158.5t-1.5 -170zM541 1700 q0 -66 49 -66q28 0 68.5 37t70.5 37q35 0 106 -27.5t113 -27.5q81 0 134 69t53 174q0 33 -15.5 52.5t-34.5 19.5q-28 0 -68.5 -37t-70.5 -37q-41 0 -110 29t-109 29q-79 0 -132.5 -76.5t-53.5 -175.5z" />
<glyph unicode="&#xd2;" horiz-adv-x="1906" d="M51 797q-1 192 64 346.5t177 253.5t253.5 154t302.5 63q-99 66 -183.5 168.5t-84.5 191.5q0 71 45.5 120.5t113.5 49.5q118 0 222 -153q71 -25 133.5 -103.5t94.5 -163.5t32 -145q0 -10 -2 -16q186 -66 323 -222q171 -110 268 -296t97 -418q0 -184 -66.5 -338.5 t-183 -260.5t-279 -165.5t-350.5 -59.5q-193 0 -350.5 70t-267.5 197q-170 110 -264.5 299t-94.5 428zM96 797q0 -235 94.5 -417.5t269.5 -285t404 -102.5q239 0 428 95.5t297.5 273.5t108.5 409q0 172 -58.5 321t-160.5 254.5t-247.5 165.5t-313.5 60q-128 2 -247.5 -27 t-224.5 -92t-183 -153t-123 -219.5t-44 -282.5zM625 1974q0 -52 37 -115t87 -111.5t102 -82t81 -33.5q35 0 57.5 28t22.5 62q0 44 -21.5 107.5t-56 124t-87.5 103t-108 42.5q-49 0 -81.5 -36t-32.5 -89zM737 958q0 58 41.5 99t100.5 41q58 0 98.5 -40.5t40.5 -99.5 t-40.5 -100t-98.5 -41q-59 0 -100.5 41.5t-41.5 99.5z" />
<glyph unicode="&#xd3;" horiz-adv-x="1906" d="M51 797q-1 144 36.5 268.5t103 216t156 160.5t195.5 109.5t222 56.5q-57 39 -57 114q0 50 24.5 120.5t65 138.5t102 115.5t125.5 47.5q61 0 105 -40.5t53 -102.5h6q68 0 114 -49.5t46 -120.5q0 -64 -38.5 -134.5t-99.5 -129.5q195 -70 332 -226q171 -110 268 -296 t97 -418q0 -184 -66.5 -338.5t-183 -260.5t-279 -165.5t-350.5 -59.5q-193 0 -350.5 70t-267.5 197q-170 110 -264.5 299t-94.5 428zM96 797q0 -235 94.5 -417.5t269.5 -285t404 -102.5q239 0 428 95.5t297.5 273.5t108.5 409q0 172 -58.5 321t-160.5 254.5t-247.5 165.5 t-313.5 60q-128 2 -247.5 -27t-224.5 -92t-183 -153t-123 -219.5t-44 -282.5zM737 958q0 58 41.5 99t100.5 41q58 0 98.5 -40.5t40.5 -99.5t-40.5 -100t-98.5 -41q-59 0 -100.5 41.5t-41.5 99.5zM752 1722q0 -35 22 -62.5t57 -27.5q29 0 81 33.5t102.5 82t87.5 111.5t37 115 q0 53 -33 89t-82 36q-55 0 -107.5 -42.5t-87.5 -103t-56 -123.5t-21 -108z" />
<glyph unicode="&#xd4;" horiz-adv-x="1906" d="M51 797q-1 166 47.5 304t135 234.5t197.5 160t243 93.5q-45 10 -74 51t-29 93q0 79 40 173t117 166t165 72q135 0 237 -157q104 -39 176 -164t72 -234q0 -47 -26 -88q105 -63 190 -160q171 -110 268 -296t97 -418q0 -184 -66.5 -338.5t-183 -260.5t-279 -165.5 t-350.5 -59.5q-193 0 -350.5 70t-267.5 197q-170 110 -264.5 299t-94.5 428zM96 797q0 -235 94.5 -417.5t269.5 -285t404 -102.5q239 0 428 95.5t297.5 273.5t108.5 409q0 172 -58.5 321t-160.5 254.5t-247.5 165.5t-313.5 60q-128 2 -247.5 -27t-224.5 -92t-183 -153 t-123 -219.5t-44 -282.5zM616 1733q0 -41 25.5 -71t63.5 -30q34 0 66 25t55.5 64.5t39.5 78.5t27 78q11 -39 27 -78t39.5 -78.5t55.5 -64.5t66 -25q37 0 62.5 30t25.5 71q0 73 -34 156.5t-100 146.5t-142 63q-58 0 -111.5 -38t-88.5 -94.5t-56 -119t-21 -114.5zM737 958 q0 58 41.5 99t100.5 41q58 0 98.5 -40.5t40.5 -99.5t-40.5 -100t-98.5 -41q-59 0 -100.5 41.5t-41.5 99.5z" />
<glyph unicode="&#xd5;" horiz-adv-x="1906" d="M51 797q-1 164 46.5 301t132.5 233.5t194 161.5t240 96h-9q-49 0 -76.5 28t-27.5 83q0 117 66.5 207t164.5 90q42 0 113 -29t106 -29q11 0 25.5 11.5t28 25.5t37 25.5t49.5 11.5q36 0 65 -32t29 -85q0 -21 -4 -53q39 27 74 27q36 0 65 -32t29 -85q0 -146 -86 -229 q134 -72 229 -183q171 -110 268 -296t97 -418q0 -184 -66.5 -338.5t-183 -260.5t-279 -165.5t-350.5 -59.5q-193 0 -350.5 70t-267.5 197q-170 110 -264.5 299t-94.5 428zM96 797q0 -235 94.5 -417.5t269.5 -285t404 -102.5q239 0 428 95.5t297.5 273.5t108.5 409 q0 172 -58.5 321t-160.5 254.5t-247.5 165.5t-313.5 60q-128 2 -247.5 -27t-224.5 -92t-183 -153t-123 -219.5t-44 -282.5zM596 1700q0 -66 49 -66q28 0 68.5 37t70.5 37q35 0 106.5 -27.5t113.5 -27.5q81 0 133.5 69t52.5 174q0 33 -15 52.5t-34 19.5q-28 0 -69 -37 t-71 -37q-41 0 -110 29t-109 29q-79 0 -132.5 -76.5t-53.5 -175.5zM737 958q0 58 41.5 99t100.5 41q58 0 98.5 -40.5t40.5 -99.5t-40.5 -100t-98.5 -41q-59 0 -100.5 41.5t-41.5 99.5z" />
<glyph unicode="&#xd6;" horiz-adv-x="1906" d="M51 797q-1 161 45 296.5t128.5 232t189.5 161.5t235 98v4q-74 12 -123 70.5t-49 136.5q0 86 60.5 145.5t148.5 59.5q70 0 124 -41t73 -105l18 -6q19 67 74.5 109.5t128.5 42.5q69 0 123 -41t73 -105q74 -12 123.5 -69t49.5 -133q0 -53 -24 -98.5t-65 -73.5 q82 -54 158 -140q171 -110 268 -296t97 -418q0 -184 -66.5 -338.5t-183 -260.5t-279 -165.5t-350.5 -59.5q-193 0 -350.5 70t-267.5 197q-170 110 -264.5 299t-94.5 428zM96 797q0 -235 94.5 -417.5t269.5 -285t404 -102.5q239 0 428 95.5t297.5 273.5t108.5 409 q0 172 -58.5 321t-160.5 254.5t-247.5 165.5t-313.5 60q-128 2 -247.5 -27t-224.5 -92t-183 -153t-123 -219.5t-44 -282.5zM522 1796q0 -69 47.5 -116.5t116.5 -47.5q67 0 113.5 47.5t46.5 116.5q0 68 -46 114t-114 46q-69 0 -116.5 -46.5t-47.5 -113.5zM737 958 q0 58 41.5 99t100.5 41q58 0 98.5 -40.5t40.5 -99.5t-40.5 -100t-98.5 -41q-59 0 -100.5 41.5t-41.5 99.5zM940 1796q0 -69 47.5 -116.5t116.5 -47.5q67 0 113.5 47.5t46.5 116.5q0 68 -46 114t-114 46q-69 0 -116.5 -46.5t-47.5 -113.5z" />
<glyph unicode="&#xd7;" horiz-adv-x="1294" d="M127 510q0 61 39 123t110 141q-149 164 -149 273q0 83 50.5 127.5t121.5 44.5q63 0 129 -37.5t145 -104.5q75 67 135.5 104.5t120.5 37.5q64 0 112 -37.5t58 -106.5q70 -3 118 -48.5t48 -125.5q0 -102 -135 -260q133 -163 133 -268q0 -83 -50 -128.5t-120 -45.5 q-100 0 -260 141q-164 -141 -270 -141q-64 0 -114 36.5t-58 106.5q-68 2 -116 44.5t-48 123.5zM172 510q0 -60 38 -91.5t89 -31.5q58 0 123.5 42t146.5 116q44 -39 68 -59t62 -47.5t69.5 -39.5t60.5 -12q51 0 88 34t37 95q0 97 -149 270q73 82 112 142.5t39 115.5 q0 61 -37 95.5t-90 34.5q-38 0 -86.5 -26t-81.5 -53t-88 -77q-58 49 -94.5 76.5t-88 53.5t-91.5 26q-53 0 -90 -33t-37 -94q0 -58 43.5 -122.5t122.5 -150.5q-47 -53 -62.5 -71t-47.5 -60.5t-44 -73t-12 -59.5z" />
<glyph unicode="&#xd8;" horiz-adv-x="1906" d="M27 797q-1 162 46.5 298.5t129 231t192.5 161t236.5 97.5t261.5 31q194 0 369 -82q22 35 65.5 67.5t83.5 32.5q61 0 101 -39t40 -96v-10q6 2 23 2q61 0 101 -39t40 -96t-59 -133q107 -115 166 -267.5t59 -328.5q0 -184 -66.5 -338.5t-182.5 -261t-278.5 -165.5 t-350.5 -59q-206 0 -371 82l-2 -2q-12 -18 -29 -36t-50.5 -39t-66.5 -21q-60 0 -101.5 40t-41.5 97v8q-3 0 -10 -1t-10 -1q-60 0 -102 40.5t-42 97.5q0 18 8 40.5t15 34.5t22 34l15 22q-102 111 -156.5 265t-54.5 333zM72 797q0 -183 58.5 -335t166.5 -259l-27 -37 q-47 -63 -47 -98q0 -38 29 -65.5t70 -27.5q46 0 110 80l23 31q177 -94 385 -94q239 0 428 95.5t297 273.5t108 409q0 180 -62.5 331.5t-176.5 260.5l24 33q49 65 49 104q0 38 -27.5 64t-68.5 26q-49 0 -111 -78l-26 -34q-183 94 -381 94q-129 0 -248 -29.5t-224 -92 t-182.5 -152t-122.5 -218.5t-44 -282zM713 958q0 58 41 99t100 41q58 0 98.5 -40.5t40.5 -99.5t-40.5 -100t-98.5 -41t-99.5 41.5t-41.5 99.5z" />
<glyph unicode="&#xd9;" horiz-adv-x="1755" d="M37 872q0 88 1.5 142t10 141.5t24 143t47.5 122t76.5 104.5t113.5 64.5t157 26.5q112 0 197 -47q-35 33 -86 125q-25 27 -42 49.5t-38.5 55t-33 67t-11.5 67.5q0 71 45.5 120.5t113.5 49.5q118 0 222 -153q86 -30 154.5 -131.5t94.5 -206.5q40 4 66 4q204 0 305 -168 q50 -20 90.5 -56t67.5 -78.5t47 -98t31 -106.5t17.5 -113t8.5 -109t2 -101q0 -119 -9 -220t-32 -203.5t-59.5 -184t-95.5 -153t-136 -119.5t-184 -75.5t-237 -27.5q-416 0 -600 240q-94 55 -159.5 138.5t-101.5 193t-51.5 229t-15.5 268.5zM82 872q0 -161 18 -286.5 t66.5 -240.5t128 -190t207 -119t299.5 -44q123 0 223 26t173 72t128 114.5t89.5 146t56 175t30 194.5t8.5 210q0 61 -2 112t-11 119.5t-23.5 122.5t-42 109.5t-64 93t-92.5 61t-125 23.5q-166 0 -237.5 -79.5t-71.5 -238.5q0 -122 16 -303t16 -250q0 -5 -0.5 -18.5t-1 -19.5 t-1.5 -18.5t-2.5 -18.5t-4.5 -15.5t-7.5 -14.5t-11 -10.5t-15 -7.5t-19.5 -2q-21 0 -34 12.5t-18 36t-6 38.5t-1 38q0 78 15 261t15 292q0 151 -83.5 234.5t-229.5 83.5q-79 0 -140.5 -24.5t-101.5 -60.5t-68.5 -98t-42.5 -114.5t-21.5 -134.5t-9 -133t-1.5 -134zM498 1933 q0 -52 37 -115t87 -111.5t102 -82t81 -33.5q35 0 57.5 28t22.5 62q0 44 -21.5 107.5t-56 124t-87.5 103t-108 42.5q-49 0 -81.5 -36t-32.5 -89z" />
<glyph unicode="&#xda;" horiz-adv-x="1755" d="M37 872q0 88 1.5 142t10 141.5t24 143t47.5 122t76.5 104.5t113.5 64.5t157 26.5q112 0 192 -47q-38 38 -38 112q0 50 24.5 120.5t65 138.5t102 115.5t125.5 47.5q61 0 105 -40.5t53 -102.5h6q68 0 114 -49.5t46 -120.5q0 -79 -64 -178q165 -16 256 -164q50 -20 90.5 -56 t67.5 -78.5t47 -98t31 -106.5t17.5 -113t8.5 -109t2 -101q0 -119 -9 -220t-32 -203.5t-59.5 -184t-95.5 -153t-136 -119.5t-184 -75.5t-237 -27.5q-416 0 -600 240q-94 55 -159.5 138.5t-101.5 193t-51.5 229t-15.5 268.5zM82 872q0 -161 18 -286.5t66.5 -240.5t128 -190 t207 -119t299.5 -44q123 0 223 26t173 72t128 114.5t89.5 146t56 175t30 194.5t8.5 210q0 61 -2 112t-11 119.5t-23.5 122.5t-42 109.5t-64 93t-92.5 61t-125 23.5q-166 0 -237.5 -79.5t-71.5 -238.5q0 -122 16 -303t16 -250q0 -5 -0.5 -18.5t-1 -19.5t-1.5 -18.5 t-2.5 -18.5t-4.5 -15.5t-7.5 -14.5t-11 -10.5t-15 -7.5t-19.5 -2q-21 0 -34 12.5t-18 36t-6 38.5t-1 38q0 78 15 261t15 292q0 151 -83.5 234.5t-229.5 83.5q-79 0 -140.5 -24.5t-101.5 -60.5t-68.5 -98t-42.5 -114.5t-21.5 -134.5t-9 -133t-1.5 -134zM666 1681 q0 -35 22 -62.5t57 -27.5q29 0 81 33.5t102.5 82t87.5 111.5t37 115q0 53 -33 89t-82 36q-55 0 -107.5 -42.5t-87.5 -103t-56 -123.5t-21 -108z" />
<glyph unicode="&#xdb;" horiz-adv-x="1755" d="M37 872q0 88 1.5 142t10 141.5t24 143t47.5 122t76.5 104.5t113.5 64.5t157 26.5q41 0 78 -6q-60 44 -60 123t40 173t117 166t165 72q135 0 237 -157q104 -39 176 -164t72 -234q97 -39 162 -141q50 -20 90.5 -56t67.5 -78.5t47 -98t31 -106.5t17.5 -113t8.5 -109t2 -101 q0 -119 -9 -220t-32 -203.5t-59.5 -184t-95.5 -153t-136 -119.5t-184 -75.5t-237 -27.5q-416 0 -600 240q-94 55 -159.5 138.5t-101.5 193t-51.5 229t-15.5 268.5zM82 872q0 -161 18 -286.5t66.5 -240.5t128 -190t207 -119t299.5 -44q123 0 223 26t173 72t128 114.5 t89.5 146t56 175t30 194.5t8.5 210q0 61 -2 112t-11 119.5t-23.5 122.5t-42 109.5t-64 93t-92.5 61t-125 23.5q-166 0 -237.5 -79.5t-71.5 -238.5q0 -122 16 -303t16 -250q0 -5 -0.5 -18.5t-1 -19.5t-1.5 -18.5t-2.5 -18.5t-4.5 -15.5t-7.5 -14.5t-11 -10.5t-15 -7.5 t-19.5 -2q-21 0 -34 12.5t-18 36t-6 38.5t-1 38q0 78 15 261t15 292q0 151 -83.5 234.5t-229.5 83.5q-79 0 -140.5 -24.5t-101.5 -60.5t-68.5 -98t-42.5 -114.5t-21.5 -134.5t-9 -133t-1.5 -134zM530 1733q0 -41 25.5 -71t62.5 -30q34 0 66 25t55.5 64.5t40.5 78.5t27 78 q11 -39 27 -78t39.5 -78.5t55.5 -64.5t66 -25q37 0 62.5 30t25.5 71q0 73 -34 156.5t-100 146.5t-142 63q-58 0 -111.5 -38t-88.5 -94.5t-56 -119t-21 -114.5z" />
<glyph unicode="&#xdc;" horiz-adv-x="1755" d="M37 872q0 88 1.5 142t10 141.5t24 143t47.5 122t76.5 104.5t113.5 64.5t157 26.5h25q-47 28 -74 75.5t-27 104.5q0 86 60.5 145.5t148.5 59.5q70 0 124 -41t73 -105l18 -6q19 67 74.5 109.5t128.5 42.5q69 0 123 -41t73 -105q74 -12 123 -69t49 -133q0 -53 -26 -103 q51 -36 94 -102q50 -20 90.5 -56t67.5 -78.5t47 -98t31 -106.5t17.5 -113t8.5 -109t2 -101q0 -119 -9 -220t-32 -203.5t-59.5 -184t-95.5 -153t-136 -119.5t-184 -75.5t-237 -27.5q-416 0 -600 240q-94 55 -159.5 138.5t-101.5 193t-51.5 229t-15.5 268.5zM82 872 q0 -161 18 -286.5t66.5 -240.5t128 -190t207 -119t299.5 -44q123 0 223 26t173 72t128 114.5t89.5 146t56 175t30 194.5t8.5 210q0 61 -2 112t-11 119.5t-23.5 122.5t-42 109.5t-64 93t-92.5 61t-125 23.5q-166 0 -237.5 -79.5t-71.5 -238.5q0 -122 16 -303t16 -250 q0 -5 -0.5 -18.5t-1 -19.5t-1.5 -18.5t-2.5 -18.5t-4.5 -15.5t-7.5 -14.5t-11 -10.5t-15 -7.5t-19.5 -2q-21 0 -34 12.5t-18 36t-6 38.5t-1 38q0 78 15 261t15 292q0 151 -83.5 234.5t-229.5 83.5q-79 0 -140.5 -24.5t-101.5 -60.5t-68.5 -98t-42.5 -114.5t-21.5 -134.5 t-9 -133t-1.5 -134zM436 1796q0 -69 47.5 -116.5t116.5 -47.5q67 0 113.5 47.5t46.5 116.5q0 68 -46 114t-114 46q-69 0 -116.5 -46.5t-47.5 -113.5zM854 1796q0 -69 47.5 -116.5t116.5 -47.5q67 0 113.5 47.5t46.5 116.5q0 68 -46 114t-114 46q-69 0 -116.5 -46.5 t-47.5 -113.5z" />
<glyph unicode="&#xdd;" horiz-adv-x="1554" d="M-10 1290q0 141 87.5 233.5t227.5 92.5q109 0 199 -64q-23 50 -23 129q0 50 25 120.5t65.5 138.5t102 115.5t125.5 47.5q61 0 104.5 -40.5t52.5 -102.5h7q68 0 113.5 -49.5t45.5 -120.5q0 -83 -61 -174h6q92 0 162 -41.5t106 -118.5q92 -29 145.5 -108.5t53.5 -200.5 q0 -177 -94.5 -360.5t-229.5 -327.5q17 -140 17 -303q0 -51 -13.5 -100t-42.5 -95t-71 -81t-104.5 -56t-137.5 -21q-102 0 -188 42t-133 130q-91 35 -147 114.5t-60 207.5q-4 153 14 301q-152 114 -253 312t-101 380zM35 1290q0 -118 47.5 -249t130 -244.5t182.5 -180.5 q-3 -14 -7 -39.5t-10 -108t-3 -169.5q3 -82 31.5 -143.5t74.5 -96t99.5 -51t113.5 -16.5q82 0 146 27.5t101.5 72.5t57 98t19.5 109q0 87 -5 166t-11 115l-5 36q134 138 231 319.5t97 354.5q0 133 -72 207t-186 74q-76 0 -136 -33.5t-98 -93.5t-63.5 -129.5t-38 -156 t-17.5 -157.5t-5 -149h-11q0 65 -4.5 129t-17 137t-31 136.5t-50 122.5t-71 101t-96 67.5t-123.5 25.5q-120 0 -195 -79.5t-75 -201.5zM526 1681q0 -34 22.5 -62t57.5 -28q29 0 81 33.5t102 82t87 111.5t37 115q0 53 -32.5 89t-81.5 36q-55 0 -108 -42.5t-87.5 -103 t-56 -124t-21.5 -107.5z" />
<glyph unicode="&#xde;" horiz-adv-x="1667" d="M41 782q0 58 0.5 96.5t4.5 110.5t11.5 123.5t22.5 121t35.5 119t53 102.5t73.5 86t98 54t125 21q95 0 168.5 -42.5t114.5 -121.5q53 -16 104 -61q68 0 122.5 -4t117.5 -16.5t112 -34.5t96 -60t80 -90q254 -123 254 -522q0 -267 -132.5 -426.5t-387.5 -159.5 q-69 0 -143 12q-50 -287 -344 -287q-203 0 -308 170q-54 21 -97 61.5t-72 89t-49.5 115.5t-32 128t-18 140t-8 138.5t-1.5 136.5zM86 782q0 -64 1.5 -115.5t6 -118.5t12 -120t22 -112.5t33.5 -104.5t48 -88t64.5 -70.5t84 -44t105.5 -16.5q55 0 100.5 12t76 30t54 46 t36 52.5t22 57.5t12.5 52.5t6 46.5q76 -23 180 -23q233 0 354 147.5t121 393.5q0 102 -18 183.5t-47 137t-74.5 96.5t-91 64t-106 36.5t-111 17.5t-113.5 4q-32 0 -63 -3t-45 -7l-15 -3q-23 118 -95 178t-181 60q-77 0 -138.5 -32.5t-100.5 -80t-67.5 -124t-42 -139.5 t-21 -153t-8.5 -139t-1 -121zM702 842q0 38 29.5 67t67.5 29t67 -29t29 -67t-29 -66t-67 -28q-39 0 -68 28t-29 66z" />
<glyph unicode="&#xdf;" horiz-adv-x="1626" d="M31 736v16q0 129 7 227t25.5 195t50.5 166.5t83 130t122 97.5t168.5 58t221.5 21q165 0 313 -54.5t227 -171.5q230 -123 230 -377q0 -117 -32 -188.5t-97 -116.5q8 -10 24 -34q232 -103 232 -424q0 -121 -39.5 -214.5t-108.5 -150t-156.5 -85t-189.5 -28.5q-64 0 -121 14 t-109.5 53t-74.5 99q-73 -166 -252 -166q-176 0 -264 160q-62 20 -109 66t-74 117.5t-44 135.5t-23.5 161t-8 149.5t-1.5 143.5zM76 752q0 -261 19 -388q55 -372 296 -372q58 0 102.5 20.5t72 59.5t45.5 83t26 105.5t11 111t3 113.5q0 95 -7 283t-7 281q0 165 90 165 q35 0 60.5 -23.5t25.5 -84.5q0 -35 -14.5 -58t-35.5 -37.5t-41.5 -32.5t-35 -55.5t-14.5 -93.5t14.5 -91.5t35 -53.5t41.5 -34.5t35.5 -48.5t14.5 -83q0 -39 -10.5 -65t-26 -38.5t-34 -28t-34 -32.5t-26 -53.5t-10.5 -89.5q0 -61 25.5 -106t68 -68.5t87.5 -34t95 -10.5 q93 0 172.5 26t142.5 77t98.5 135.5t35.5 193.5q0 89 -20.5 160t-56 119t-86.5 81t-108.5 48.5t-124.5 19.5q54 12 98 34t84.5 60.5t63.5 100t23 141.5q0 92 -35 165t-91 119t-131.5 76t-150.5 42t-153 12q-116 0 -207 -20t-157 -55t-114 -92.5t-77.5 -124t-47 -158 t-24 -185t-6.5 -215.5z" />
<glyph unicode="&#xe0;" horiz-adv-x="1548" d="M20 575q0 100 18 190.5t56.5 169t95 136t138.5 90.5t182 33q110 0 192 -43q-22 19 -45 49q-96 58 -179 161t-83 191q0 71 46 120.5t114 49.5q117 0 221 -153q64 -23 122 -91t91 -143.5t43 -140.5q188 -5 264 -158q41 -13 74 -35t56 -54.5t39.5 -63.5t26.5 -78t16 -80 t8.5 -88t3 -83.5t0.5 -82.5v-18v-20q0 -229 -24 -342q-64 -287 -308 -288q-153 0 -221 115q-99 -115 -293 -115q-255 0 -381 189q-140 66 -206.5 219.5t-66.5 363.5zM66 575q0 -99 15 -184.5t49 -159.5t84.5 -126.5t126 -82.5t169.5 -30q228 0 303 172q22 -95 74 -133.5 t137 -38.5q47 0 85.5 13.5t66.5 34t50 56t36 66.5t24 81t14.5 83.5t7 89t3 83.5t0.5 80v6v5v6v17q0 76 -1.5 118.5t-8.5 116.5t-25.5 118t-49 91t-82 69.5t-120.5 22.5q-183 0 -223 -186q-25 89 -104.5 137.5t-186.5 48.5q-113 0 -200 -46.5t-139 -127.5t-78.5 -182 t-26.5 -218zM440 1552q0 -52 37 -115t87.5 -111.5t102.5 -82t81 -33.5q35 0 57 27.5t22 62.5q0 45 -21 108t-56 123.5t-87.5 103t-107.5 42.5q-49 0 -82 -36t-33 -89zM594 623q0 38 29 67t67 29t67 -29t29 -67t-29 -66.5t-67 -28.5t-67 28.5t-29 66.5z" />
<glyph unicode="&#xe1;" horiz-adv-x="1548" d="M20 575q0 100 18 190.5t56.5 169t95 136t138.5 90.5t182 33q76 0 135 -20q-29 18 -45 50.5t-16 67.5q0 50 24.5 120.5t65 138.5t102 115.5t125.5 47.5q61 0 105 -40.5t53 -102.5h6q68 0 114 -49.5t46 -120.5q0 -101 -97 -221q114 -32 168 -144q41 -13 74 -35t56 -54.5 t39.5 -63.5t26.5 -78t16 -80t8.5 -88t3 -83.5t0.5 -82.5v-18v-20q0 -229 -24 -342q-64 -287 -308 -288q-153 0 -221 115q-99 -115 -293 -115q-255 0 -381 189q-140 66 -206.5 219.5t-66.5 363.5zM66 575q0 -99 15 -184.5t49 -159.5t84.5 -126.5t126 -82.5t169.5 -30 q228 0 303 172q22 -95 74 -133.5t137 -38.5q47 0 85.5 13.5t66.5 34t50 56t36 66.5t24 81t14.5 83.5t7 89t3 83.5t0.5 80v6v5v6v17q0 76 -1.5 118.5t-8.5 116.5t-25.5 118t-49 91t-82 69.5t-120.5 22.5q-183 0 -223 -186q-25 89 -104.5 137.5t-186.5 48.5q-113 0 -200 -46.5 t-139 -127.5t-78.5 -182t-26.5 -218zM594 623q0 38 29 67t67 29t67 -29t29 -67t-29 -66.5t-67 -28.5t-67 28.5t-29 66.5zM629 1292q0 -34 22.5 -62t57.5 -28q29 0 81 33.5t102 82t87 111.5t37 115q0 53 -33 89t-82 36q-55 0 -107.5 -42.5t-87.5 -103t-56 -123.5t-21 -108z " />
<glyph unicode="&#xe2;" horiz-adv-x="1548" d="M20 575q0 99 17.5 188t55 167t92.5 135t134.5 91t176.5 36q-39 15 -63.5 54t-24.5 85q0 58 24.5 128.5t65 134t102.5 106.5t129 43q70 0 131 -43.5t107 -114.5q104 -39 175.5 -163.5t71.5 -233.5q0 -24 -6 -45q56 -42 88 -107q41 -13 74 -35t56 -54.5t39.5 -63.5 t26.5 -78t16 -80t8.5 -88t3 -83.5t0.5 -82.5v-18v-20q0 -229 -24 -342q-64 -287 -308 -288q-153 0 -221 115q-99 -115 -293 -115q-255 0 -381 189q-140 66 -206.5 219.5t-66.5 363.5zM66 575q0 -99 15 -184.5t49 -159.5t84.5 -126.5t126 -82.5t169.5 -30q228 0 303 172 q22 -95 74 -133.5t137 -38.5q47 0 85.5 13.5t66.5 34t50 56t36 66.5t24 81t14.5 83.5t7 89t3 83.5t0.5 80v6v5v6v17q0 76 -1.5 118.5t-8.5 116.5t-25.5 118t-49 91t-82 69.5t-120.5 22.5q-183 0 -223 -186q-25 89 -104.5 137.5t-186.5 48.5q-113 0 -200 -46.5t-139 -127.5 t-78.5 -182t-26.5 -218zM453 1331q0 -41 25 -70.5t63 -29.5q34 0 66 25t55.5 64.5t39.5 78.5t27 78q10 -39 27 -78t40.5 -78.5t55.5 -64.5t66 -25q38 0 63 29.5t25 70.5q0 73 -34.5 157t-100.5 147t-142 63t-142 -64.5t-100 -148t-34 -154.5zM594 623q0 38 29 67t67 29 t67 -29t29 -67t-29 -66.5t-67 -28.5t-67 28.5t-29 66.5z" />
<glyph unicode="&#xe3;" horiz-adv-x="1548" d="M20 575q0 168 47.5 300.5t149.5 219t248 97.5q-78 32 -78 127q0 117 66.5 207t164.5 90q42 0 113.5 -28.5t106.5 -28.5q11 0 25.5 11.5t27.5 25t36.5 25t49.5 11.5q36 0 65 -31.5t29 -84.5q0 -22 -4 -54q39 27 74 27q36 0 65 -32t29 -85q0 -125 -66 -207q84 -41 127 -129 q41 -13 74 -35t56 -54.5t39.5 -63.5t26.5 -78t16 -80t8.5 -88t3 -83.5t0.5 -82.5v-18v-20q0 -229 -24 -342q-64 -287 -308 -288q-153 0 -221 115q-99 -115 -293 -115q-255 0 -381 189q-140 66 -206.5 219.5t-66.5 363.5zM66 575q0 -99 15 -184.5t49 -159.5t84.5 -126.5 t126 -82.5t169.5 -30q228 0 303 172q22 -95 74 -133.5t137 -38.5q47 0 85.5 13.5t66.5 34t50 56t36 66.5t24 81t14.5 83.5t7 89t3 83.5t0.5 80v6v5v6v17q0 76 -1.5 118.5t-8.5 116.5t-25.5 118t-49 91t-82 69.5t-120.5 22.5q-183 0 -223 -186q-25 89 -104.5 137.5 t-186.5 48.5q-113 0 -200 -46.5t-139 -127.5t-78.5 -182t-26.5 -218zM432 1319q0 -66 49 -66q28 0 69 37t71 37q35 0 106 -27.5t113 -27.5q81 0 133.5 69.5t52.5 174.5q0 33 -15 52t-34 19q-28 0 -68.5 -37t-70.5 -37q-41 0 -110.5 29t-109.5 29q-79 0 -132.5 -76.5 t-53.5 -175.5zM594 623q0 38 29 67t67 29t67 -29t29 -67t-29 -66.5t-67 -28.5t-67 28.5t-29 66.5z" />
<glyph unicode="&#xe4;" horiz-adv-x="1548" d="M20 575q0 99 17.5 188t55 167t92.5 135t134.5 91t176.5 36q-10 26 -11 29q-74 12 -123 70t-49 136q0 86 60.5 145.5t148.5 59.5q70 0 124 -40.5t73 -104.5l18 -6q19 67 74.5 109t128.5 42q70 0 124 -40.5t73 -104.5q74 -12 123 -69.5t49 -133.5q0 -102 -76 -162 q39 -36 63 -86q41 -13 74 -35t56 -54.5t39.5 -63.5t26.5 -78t16 -80t8.5 -88t3 -83.5t0.5 -82.5v-18v-20q0 -229 -24 -342q-64 -287 -308 -288q-153 0 -221 115q-99 -115 -293 -115q-255 0 -381 189q-140 66 -206.5 219.5t-66.5 363.5zM66 575q0 -99 15 -184.5t49 -159.5 t84.5 -126.5t126 -82.5t169.5 -30q228 0 303 172q22 -95 74 -133.5t137 -38.5q47 0 85.5 13.5t66.5 34t50 56t36 66.5t24 81t14.5 83.5t7 89t3 83.5t0.5 80v6v5v6v17q0 76 -1.5 118.5t-8.5 116.5t-25.5 118t-49 91t-82 69.5t-120.5 22.5q-183 0 -223 -186 q-25 89 -104.5 137.5t-186.5 48.5q-113 0 -200 -46.5t-139 -127.5t-78.5 -182t-26.5 -218zM358 1427q0 -69 47.5 -116t116.5 -47q68 0 114 47t46 116q0 67 -46 113.5t-114 46.5q-69 0 -116.5 -46.5t-47.5 -113.5zM594 623q0 38 29 67t67 29t67 -29t29 -67t-29 -66.5 t-67 -28.5t-67 28.5t-29 66.5zM776 1427q0 -69 47.5 -116t116.5 -47q68 0 114 47t46 116q0 67 -46 113.5t-114 46.5q-69 0 -116.5 -46.5t-47.5 -113.5z" />
<glyph unicode="&#xe5;" horiz-adv-x="1548" d="M20 575q0 100 18 190.5t56.5 169t95 136t138.5 90.5t182 33q19 0 55 -4q-68 42 -108.5 113t-40.5 155q0 129 92 219t221 90q88 0 160.5 -44t111.5 -119q89 -33 145 -112t56 -177q0 -83 -37 -150q82 -36 131 -129q41 -13 74 -35t56 -54.5t39.5 -63.5t26.5 -78t16 -80 t8.5 -88t3 -83.5t0.5 -82.5v-18v-20q0 -229 -24 -342q-64 -287 -308 -288q-153 0 -221 115q-99 -115 -293 -115q-255 0 -381 189q-140 66 -206.5 219.5t-66.5 363.5zM66 575q0 -99 15 -184.5t49 -159.5t84.5 -126.5t126 -82.5t169.5 -30q228 0 303 172q22 -95 74 -133.5 t137 -38.5q47 0 85.5 13.5t66.5 34t50 56t36 66.5t24 81t14.5 83.5t7 89t3 83.5t0.5 80v6v5v6v17q0 76 -1.5 118.5t-8.5 116.5t-25.5 118t-49 91t-82 69.5t-120.5 22.5q-183 0 -223 -186q-25 89 -104.5 137.5t-186.5 48.5q-113 0 -200 -46.5t-139 -127.5t-78.5 -182 t-26.5 -218zM461 1458q0 -110 79 -189t189 -79t187 78.5t77 189.5q0 110 -77 187t-187 77q-111 0 -189.5 -77t-78.5 -187zM594 623q0 38 29 67t67 29t67 -29t29 -67t-29 -66.5t-67 -28.5t-67 28.5t-29 66.5zM643 1456q0 35 24.5 59.5t59.5 24.5t59.5 -24.5t24.5 -59.5 t-24.5 -59.5t-59.5 -24.5t-59.5 24.5t-24.5 59.5z" />
<glyph unicode="&#xe6;" horiz-adv-x="2172" d="M20 575q0 100 18 190.5t56.5 169t95 136t138.5 90.5t182 33q61 0 125.5 -18t98.5 -36l34 -18q56 72 174 72q25 0 48.5 -4.5t39.5 -11t32 -15.5t24 -15.5t18 -15.5t12 -10q111 72 314 72q101 0 192.5 -20t176 -70t132.5 -125q221 -110 221 -358q0 -113 -43 -183t-129 -106 q81 -12 126.5 -68.5t45.5 -144.5q0 -78 -39.5 -137t-97.5 -92t-136 -53.5t-141 -27t-126 -6.5q-226 0 -334 70q-54 -70 -172 -70q-44 0 -88.5 18.5t-67.5 36.5l-22 19q-101 -74 -254 -74q-255 0 -381 189q-140 66 -206.5 219.5t-66.5 363.5zM66 575q0 -99 15 -184.5 t49 -159.5t84.5 -126.5t126 -82.5t169.5 -30q48 0 92.5 10t75 24t53.5 28t34 24l11 10q1 -4 3.5 -10.5t15 -23t29 -29t48 -23t70.5 -10.5t69.5 10t46.5 24t26 28t13 24l3 10q81 -96 348 -96q47 0 95 4t107 14t109 30t93 48.5t67.5 73t24.5 100.5q0 78 -45 125t-123 47 q-66 0 -154 -34.5t-131 -34.5q-154 0 -172 133q8 -3 24.5 -8t73.5 -12t121 -5q209 6 307.5 70.5t98.5 220.5q0 84 -30.5 151.5t-81 110t-118.5 71t-138 40.5t-146 12q-68 0 -127 -10.5t-94.5 -25t-61.5 -29t-37 -24.5l-10 -11q-1 4 -3.5 11t-14 24t-27.5 30t-46 24t-67 11 q-39 0 -70.5 -10.5t-48.5 -25t-28.5 -29t-14.5 -24.5l-4 -11q-2 4 -6.5 11t-25 24t-47 30t-76.5 24t-111 11q-113 0 -200 -46.5t-139 -127.5t-78.5 -182t-26.5 -218zM594 623q0 38 29 67t67 29t67 -29t29 -67t-29 -66.5t-67 -28.5t-67 28.5t-29 66.5zM1327 788 q0 31 23.5 54.5t54.5 23.5t54.5 -23.5t23.5 -54.5q0 -30 -23.5 -52.5t-54.5 -22.5t-54.5 22.5t-23.5 52.5z" />
<glyph unicode="&#xe7;" horiz-adv-x="1314" d="M16 578q0 286 179 451t479 165q131 0 237 -43.5t154 -138.5q91 -36 144 -107.5t53 -181.5q0 -80 -39.5 -154.5t-108.5 -103.5q2 -4 6 -13.5t6 -13.5q92 -22 140.5 -97.5t48.5 -176.5q0 -79 -27.5 -141.5t-75.5 -102.5t-104.5 -65t-124.5 -37q57 -64 57 -176 q0 -126 -78.5 -197.5t-199.5 -71.5q-33 0 -69.5 6.5t-76 22t-66 47.5t-28.5 76q-69 12 -116.5 48.5t-47.5 100.5q0 129 123 129q22 0 47 -4l25 -4q6 0 6 6q0 9 -22.5 13.5t-50 8t-50 26t-22.5 63.5q-73 51 -121 117q-277 150 -277 549zM61 578q0 -493 437 -572 q-15 -12 -27 -37.5t-12 -46.5q0 -28 15 -42t36.5 -17t42.5 -6.5t36 -17t15 -40.5q0 -25 -13.5 -37t-29.5 -12q-4 0 -27.5 3t-41.5 3q-89 0 -89 -82q0 -33 21 -57t54.5 -35t62.5 -15.5t57 -4.5q102 0 167.5 59t65.5 164q0 52 -13 90t-38 60.5t-39 31t-39 19.5l3 8 q59 2 113 12.5t107.5 33.5t92.5 57.5t63.5 88.5t24.5 121q0 103 -55.5 170.5t-159.5 67.5q-48 0 -87.5 -18.5t-58.5 -18.5q-31 0 -55 20.5t-24 63.5t23.5 60.5t55.5 17.5q22 0 59 -15.5t68 -15.5q82 0 131.5 70.5t49.5 156.5q0 62 -22 111t-58 80.5t-86 53t-102.5 30 t-110.5 8.5q-280 0 -446.5 -153t-166.5 -418z" />
<glyph unicode="&#xe8;" horiz-adv-x="1458" d="M16 582q0 145 53 262t145.5 191.5t212.5 115t259 43.5q-14 14 -22 27q-96 58 -179.5 161t-83.5 191q0 71 46 120.5t114 49.5q117 0 221 -154q71 -25 133.5 -103.5t94.5 -163t32 -144.5q0 -22 -8 -50q121 -57 183 -151q102 -50 161.5 -139.5t59.5 -216.5q0 -113 -43 -183 t-129 -106q81 -12 126.5 -68.5t45.5 -144.5q0 -56 -21 -103t-54.5 -79t-81 -56.5t-96 -39t-103 -23.5t-98.5 -12t-87 -3q-191 0 -348 61.5t-252 186.5q-132 77 -206.5 210t-74.5 321zM61 582q0 -122 36 -221.5t98.5 -167t148.5 -113.5t183 -67t206 -21q47 0 95 4t107 14 t109 30t93 48.5t67.5 73t24.5 100.5q0 78 -45 125t-123 47q-66 0 -154 -34.5t-131 -34.5q-154 0 -172 133q8 -3 24.5 -8t73.5 -12t121 -5q209 6 307.5 70.5t98.5 220.5q0 84 -31.5 151.5t-83 110t-120.5 71t-140 40.5t-147 12q-105 0 -200.5 -22.5t-177 -69t-141 -113 t-93.5 -159.5t-34 -203zM446 1573q0 -52 37 -115t87.5 -111.5t102.5 -82t81 -33.5q35 0 57.5 28t22.5 62q0 44 -21.5 107.5t-56 124t-87.5 103t-108 42.5q-49 0 -82 -36t-33 -89zM600 788q0 35 27.5 63t62.5 28t62.5 -28t27.5 -63t-27.5 -61.5t-62.5 -26.5t-62.5 26.5 t-27.5 61.5z" />
<glyph unicode="&#xe9;" horiz-adv-x="1458" d="M16 582q0 137 47 248.5t129.5 186t190.5 118.5t235 55q-41 12 -65.5 50t-24.5 81q0 50 25 120.5t65.5 138.5t102 115.5t125.5 47.5q61 0 105 -41t53 -103h6q68 0 113.5 -49t45.5 -120t-46 -149.5t-115 -139.5q141 -59 209 -164q102 -50 161.5 -139.5t59.5 -216.5 q0 -113 -43 -183t-129 -106q81 -12 126.5 -68.5t45.5 -144.5q0 -56 -21 -103t-54.5 -79t-81 -56.5t-96 -39t-103 -23.5t-98.5 -12t-87 -3q-191 0 -348 61.5t-252 186.5q-132 77 -206.5 210t-74.5 321zM61 582q0 -122 36 -221.5t98.5 -167t148.5 -113.5t183 -67t206 -21 q47 0 95 4t107 14t109 30t93 48.5t67.5 73t24.5 100.5q0 78 -45 125t-123 47q-66 0 -154 -34.5t-131 -34.5q-154 0 -172 133q8 -3 24.5 -8t73.5 -12t121 -5q209 6 307.5 70.5t98.5 220.5q0 84 -31.5 151.5t-83 110t-120.5 71t-140 40.5t-147 12q-105 0 -200.5 -22.5 t-177 -69t-141 -113t-93.5 -159.5t-34 -203zM573 1321q0 -34 22.5 -62t57.5 -28q29 0 81 33.5t102.5 82t87.5 111.5t37 115q0 53 -33 89t-82 36q-55 0 -108 -42.5t-87.5 -103t-56 -124t-21.5 -107.5zM600 788q0 35 27.5 63t62.5 28t62.5 -28t27.5 -63t-27.5 -61.5 t-62.5 -26.5t-62.5 26.5t-27.5 61.5z" />
<glyph unicode="&#xea;" horiz-adv-x="1458" d="M16 582q0 128 41.5 234.5t113.5 178.5t161 117.5t190 63.5q-57 15 -93 53.5t-36 101.5q0 58 24.5 128.5t65.5 134t103 106.5t129 43q70 0 130.5 -43.5t106.5 -114.5q104 -39 176 -163.5t72 -233.5q0 -80 -61 -125q45 -39 78 -86q102 -50 161.5 -139.5t59.5 -216.5 q0 -113 -43 -183t-129 -106q81 -12 126.5 -68.5t45.5 -144.5q0 -56 -21 -103t-54.5 -79t-81 -56.5t-96 -39t-103 -23.5t-98.5 -12t-87 -3q-191 0 -348 61.5t-252 186.5q-132 77 -206.5 210t-74.5 321zM61 582q0 -122 36 -221.5t98.5 -167t148.5 -113.5t183 -67t206 -21 q47 0 95 4t107 14t109 30t93 48.5t67.5 73t24.5 100.5q0 78 -45 125t-123 47q-66 0 -154 -34.5t-131 -34.5q-154 0 -172 133q8 -3 24.5 -8t73.5 -12t121 -5q209 6 307.5 70.5t98.5 220.5q0 84 -31.5 151.5t-83 110t-120.5 71t-140 40.5t-147 12q-105 0 -200.5 -22.5 t-177 -69t-141 -113t-93.5 -159.5t-34 -203zM438 1331q0 -41 25 -70.5t63 -29.5q34 0 66 25t55.5 64.5t40.5 78.5t27 78q11 -39 27 -78t39.5 -78.5t55.5 -64.5t66 -25q38 0 63 29.5t25 70.5q0 73 -34 157t-100 147t-142 63q-58 0 -111.5 -38t-88.5 -95t-56 -119.5 t-21 -114.5zM600 788q0 35 27.5 63t62.5 28t62.5 -28t27.5 -63t-27.5 -61.5t-62.5 -26.5t-62.5 26.5t-27.5 61.5z" />
<glyph unicode="&#xeb;" horiz-adv-x="1458" d="M16 582q0 236 131.5 386.5t346.5 200.5q-12 19 -23 52q-74 12 -123 70t-49 136q0 86 60.5 145.5t148.5 59.5q70 0 124 -40.5t73 -104.5l18 -6q19 67 74.5 109t128.5 42q70 0 123.5 -40.5t72.5 -104.5q74 -12 123 -69.5t49 -133.5q0 -79 -49.5 -137.5t-124.5 -69.5 q61 -48 97 -100q102 -50 161.5 -139.5t59.5 -216.5q0 -113 -43 -183t-129 -106q81 -12 126.5 -68.5t45.5 -144.5q0 -56 -21 -103t-54.5 -79t-81 -56.5t-96 -39t-103 -23.5t-98.5 -12t-87 -3q-191 0 -348 61.5t-252 186.5q-132 77 -206.5 210t-74.5 321zM61 582 q0 -122 36 -221.5t98.5 -167t148.5 -113.5t183 -67t206 -21q47 0 95 4t107 14t109 30t93 48.5t67.5 73t24.5 100.5q0 78 -45 125t-123 47q-66 0 -154 -34.5t-131 -34.5q-154 0 -172 133q8 -3 24.5 -8t73.5 -12t121 -5q209 6 307.5 70.5t98.5 220.5q0 84 -31.5 151.5t-83 110 t-120.5 71t-140 40.5t-147 12q-105 0 -200.5 -22.5t-177 -69t-141 -113t-93.5 -159.5t-34 -203zM344 1427q0 -69 47.5 -116t116.5 -47q68 0 114 47t46 116q0 67 -46 113.5t-114 46.5q-69 0 -116.5 -46.5t-47.5 -113.5zM600 788q0 35 27.5 63t62.5 28t62.5 -28t27.5 -63 t-27.5 -61.5t-62.5 -26.5t-62.5 26.5t-27.5 61.5zM762 1427q0 -69 47.5 -116t116.5 -47q67 0 113 47t46 116q0 68 -46 114t-113 46q-69 0 -116.5 -46.5t-47.5 -113.5z" />
<glyph unicode="&#xec;" horiz-adv-x="901" d="M27 578q0 44 0.5 76t4 83t9 89t17 86.5t27 84.5t39.5 73t54.5 61t72 41t91.5 20q-4 5 -11.5 14.5t-11.5 14.5q-96 58 -179 161t-83 191q0 71 46 120.5t114 49.5q116 0 221 -154q71 -25 133.5 -103.5t94.5 -163t32 -144.5q0 -38 -19.5 -72t-53.5 -51q2 -3 6 -10.5t6 -10.5 q38 -12 69.5 -34.5t54.5 -49t41 -64t29.5 -71t20 -79t13 -79t6.5 -80.5t2.5 -74.5t0.5 -68.5q0 -48 -0.5 -78.5t-3.5 -86.5t-9 -94.5t-18 -91t-28.5 -88.5t-42.5 -75t-58.5 -62.5t-78.5 -39t-100 -15.5q-182 0 -265 160q-49 15 -88 48t-64 72t-43 94t-27 101.5t-14 108.5 t-6 100t-1 91zM72 578q0 -56 1 -96.5t7.5 -106t17.5 -113t33.5 -101.5t53 -88.5t78.5 -57.5t108 -23q47 0 86.5 14t68 36t51 58t37 70t25 82.5t15.5 84.5t8 87.5t3.5 80.5t0.5 73t-0.5 73t-3.5 79t-8 85t-15.5 82t-25 80t-37 67.5t-51 56t-68 35t-86.5 13.5q-60 0 -108 -22 t-78.5 -55t-53 -86t-33.5 -99t-17.5 -110t-7.5 -104t-1 -95zM102 1573q0 -52 37 -115t87.5 -111.5t102.5 -82t81 -33.5q35 0 57 27.5t22 62.5q0 45 -21 108t-56 123.5t-87.5 103t-107.5 42.5q-49 0 -82 -36t-33 -89z" />
<glyph unicode="&#xed;" horiz-adv-x="901" d="M27 578q0 55 1 94.5t7 103.5t16 110.5t31 101.5t49 92.5t72.5 67t99.5 40.5q-44 9 -71 48t-27 85q0 50 24.5 120.5t65 138.5t102 115.5t125.5 47.5q61 0 105 -41t53 -103h6q68 0 114 -49t46 -120q0 -92 -73.5 -191.5t-166.5 -155.5l31 -49q38 -12 69.5 -34.5t54.5 -49 t41 -64t29.5 -71t20 -79t13 -79t6.5 -80.5t2.5 -74.5t0.5 -68.5q0 -48 -0.5 -78.5t-3.5 -86.5t-9 -94.5t-18 -91t-28.5 -88.5t-42.5 -75t-58.5 -62.5t-78.5 -39t-100 -15.5q-182 0 -265 160q-49 15 -88 48t-64 72t-43 94t-27 101.5t-14 108.5t-6 100t-1 91zM72 578 q0 -56 1 -96.5t7.5 -106t17.5 -113t33.5 -101.5t53 -88.5t78.5 -57.5t108 -23q47 0 86.5 14t68 36t51 58t37 70t25 82.5t15.5 84.5t8 87.5t3.5 80.5t0.5 73t-0.5 73t-3.5 79t-8 85t-15.5 82t-25 80t-37 67.5t-51 56t-68 35t-86.5 13.5q-60 0 -108 -22t-78.5 -55t-53 -86 t-33.5 -99t-17.5 -110t-7.5 -104t-1 -95zM250 1321q0 -34 22.5 -62t57.5 -28q29 0 81 33.5t102 82t87 111.5t37 115q0 53 -33 89t-82 36q-55 0 -107.5 -42.5t-87.5 -103t-56 -123.5t-21 -108z" />
<glyph unicode="&#xee;" horiz-adv-x="901" d="M27 578q0 56 1.5 97t6.5 105.5t18 114t32.5 102t52.5 93t77 65.5q-2 14 -2 35q-20 -4 -31 -4q-57 0 -95 42.5t-38 102.5q0 58 24.5 128.5t65.5 134t103 106.5t129 43q70 0 130.5 -43.5t106.5 -114.5q104 -39 176 -163.5t72 -233.5q0 -60 -38 -103t-95 -43q-51 0 -107 27 q2 -3 10.5 -17.5t10.5 -17.5q38 -12 69.5 -34.5t54.5 -49t41 -64t29.5 -71t20 -79t13 -79t6.5 -80.5t2.5 -74.5t0.5 -68.5q0 -48 -0.5 -78.5t-3.5 -86.5t-9 -94.5t-18 -91t-28.5 -88.5t-42.5 -75t-58.5 -62.5t-78.5 -39t-100 -15.5q-182 0 -265 160q-49 15 -88 48t-64 72 t-43 94t-27 101.5t-14 108.5t-6 100t-1 91zM72 578q0 -56 1 -96.5t7.5 -106t17.5 -113t33.5 -101.5t53 -88.5t78.5 -57.5t108 -23q47 0 86.5 14t68 36t51 58t37 70t25 82.5t15.5 84.5t8 87.5t3.5 80.5t0.5 73t-0.5 73t-3.5 79t-8 85t-15.5 82t-25 80t-37 67.5t-51 56t-68 35 t-86.5 13.5q-60 0 -108 -22t-78.5 -55t-53 -86t-33.5 -99t-17.5 -110t-7.5 -104t-1 -95zM94 1331q0 -41 25 -70.5t63 -29.5q34 0 66 25t55.5 64.5t40.5 78.5t27 78q11 -39 27 -78t39.5 -78.5t55.5 -64.5t66 -25q38 0 63 29.5t25 70.5q0 73 -34 157t-100 147t-142 63 q-58 0 -111.5 -38t-88.5 -95t-56 -119.5t-21 -114.5z" />
<glyph unicode="&#xef;" horiz-adv-x="901" d="M-47 1427q0 86 60.5 145.5t148.5 59.5q70 0 123.5 -40.5t72.5 -104.5l19 -6q19 67 74.5 109t128.5 42q70 0 123.5 -40.5t72.5 -104.5q74 -12 123 -70t49 -137q0 -91 -60 -152t-151 -61q-22 0 -40.5 1.5t-35.5 6.5t-24 7t-25 9.5t-20 8.5q17 -17 45 -66q38 -12 69.5 -34.5 t54.5 -49t41 -64t29.5 -71t20 -79t13 -79t6.5 -80.5t2.5 -74.5t0.5 -68.5q0 -48 -0.5 -78.5t-3.5 -86.5t-9 -94.5t-18 -91t-28.5 -88.5t-42.5 -75t-58.5 -62.5t-78.5 -39t-100 -15.5q-182 0 -265 160q-49 15 -88 48t-64 72t-43 94t-27 101.5t-14 108.5t-6 100t-1 91 q0 81 4 141.5t17 146t46.5 153.5t85.5 111q-41 41 -55 91q-74 12 -123 70t-49 136zM-2 1427q0 -69 47.5 -116t116.5 -47q68 0 114 47t46 116q0 67 -46 113.5t-114 46.5q-69 0 -116.5 -46.5t-47.5 -113.5zM72 578q0 -56 1 -96.5t7.5 -106t17.5 -113t33.5 -101.5t53 -88.5 t78.5 -57.5t108 -23q47 0 86.5 14t68 36t51 58t37 70t25 82.5t15.5 84.5t8 87.5t3.5 80.5t0.5 73t-0.5 73t-3.5 79t-8 85t-15.5 82t-25 80t-37 67.5t-51 56t-68 35t-86.5 13.5q-60 0 -108 -22t-78.5 -55t-53 -86t-33.5 -99t-17.5 -110t-7.5 -104t-1 -95zM416 1427 q0 -69 47.5 -116t116.5 -47q67 0 113 47t46 116q0 68 -46 114t-113 46q-69 0 -116.5 -46.5t-47.5 -113.5z" />
<glyph unicode="&#xf0;" horiz-adv-x="1560" d="M16 526q0 133 60 256.5t184 206.5q-37 10 -61.5 40t-24.5 81q0 50 30.5 83t90.5 60q-62 32 -94.5 74.5t-32.5 108.5q0 99 82 154t237 55q192 0 392 -115l28 14t43 21t43.5 19t49 16.5t40.5 5.5q20 0 40 -6t40 -19.5t32.5 -39t12.5 -60.5q0 -9 -4 -25q24 6 43 6 q20 0 40 -6t40 -19.5t32.5 -39t12.5 -60.5q0 -43 -30 -75.5t-82 -61.5q131 -150 205.5 -342t74.5 -375q0 -175 -52 -308t-145.5 -213t-212.5 -119.5t-262 -39.5q-192 0 -340.5 65t-238.5 181q-131 77 -202 201t-71 276zM61 526q0 -233 176.5 -383.5t467.5 -150.5 q133 0 244 37t198 111.5t135.5 198.5t48.5 288q0 189 -83 387t-226 344l33 16q108 53 108 107q0 42 -25 61t-55 19q-37 0 -92 -25l-117 -55q-197 118 -387 118q-133 0 -203.5 -43t-70.5 -120q0 -67 48 -105.5t142 -73.5q-113 -54 -148.5 -80.5t-35.5 -66.5t24 -60t52 -20 t100 33l221 104q73 -46 111 -102q-143 0 -258.5 -32.5t-190 -85t-125 -124t-71.5 -145.5t-21 -152zM604 702q0 38 29 67.5t67 29.5t67.5 -29.5t29.5 -67.5t-29 -66t-68 -28q-38 0 -67 28t-29 66z" />
<glyph unicode="&#xf1;" horiz-adv-x="1529" d="M27 596q0 57 2 105t10.5 111.5t22 114t39 102.5t60 86.5t86 56.5t115.5 22q28 0 44 -4q-2 1 -11 8.5t-14.5 12.5t-14 16.5t-13.5 23t-9 29.5t-4 39q0 117 66.5 207t164.5 90q42 0 113.5 -28.5t106.5 -28.5q11 0 25.5 11.5t27.5 25t36.5 25t49.5 11.5q36 0 65 -31.5 t29 -84.5q0 -22 -4 -54q39 27 74 27q36 0 65 -32t29 -85q0 -75 -25.5 -137.5t-70.5 -101.5q70 -47 122 -121q79 -37 138.5 -109t91.5 -160.5t47.5 -178.5t15.5 -181q0 -289 -101.5 -434.5t-291.5 -145.5q-192 0 -260 156q-27 9 -51 21q-72 -177 -271 -177q-168 0 -256 158 q-49 15 -88.5 48.5t-65 74.5t-44 97.5t-28.5 105.5t-15.5 112t-6.5 104t-1 93zM72 596q0 -53 1.5 -96.5t8 -109t18 -116.5t34 -106t53 -91.5t77.5 -60.5t105 -24q150 0 213 117t63 352q0 84 -6 207q-4 92 51 92q47 0 47 -70q0 -55 -17.5 -171t-17.5 -234q0 -82 20.5 -141 t57 -91t78.5 -46.5t92 -14.5q168 0 258 134t90 400q0 85 -12 167t-43.5 166t-78.5 147t-123.5 103t-172.5 40q-215 0 -278 -197q-10 94 -73 145.5t-155 51.5q-56 0 -100.5 -20.5t-74.5 -52t-52 -79.5t-33.5 -95t-18.5 -106t-9 -103t-2 -97zM385 1319q0 -66 49 -66 q28 0 68.5 37t70.5 37q35 0 106.5 -27.5t113.5 -27.5q81 0 133.5 69.5t52.5 174.5q0 33 -15 52t-34 19q-28 0 -68.5 -37t-70.5 -37q-41 0 -110.5 29t-109.5 29q-79 0 -132.5 -76.5t-53.5 -175.5z" />
<glyph unicode="&#xf2;" horiz-adv-x="1556" d="M16 578q0 85 22 168t74 164.5t128.5 143.5t195.5 100.5t266 39.5q-14 14 -22 27q-96 58 -179 161t-83 191q0 71 46 120.5t114 49.5q116 0 221 -154q71 -25 133.5 -103.5t94.5 -163t32 -144.5q0 -26 -10 -56q121 -57 206 -166q135 -78 210 -213t75 -311q0 -191 -85 -334.5 t-235 -219t-343 -75.5q-195 0 -343 61.5t-237 178.5q-135 78 -208 214t-73 321zM61 578q0 -278 174.5 -432t477.5 -154q274 0 446 158.5t172 424.5q0 261 -170.5 417.5t-447.5 156.5q-139 0 -252.5 -35.5t-186.5 -92.5t-122 -132.5t-70 -153t-21 -157.5zM463 1573 q0 -52 37 -115t87 -111.5t102 -82t81 -33.5q35 0 57.5 28t22.5 62q0 45 -21 108t-56 123.5t-87.5 103t-107.5 42.5q-49 0 -82 -36t-33 -89zM604 737q0 38 29 67.5t67 29.5t67.5 -29.5t29.5 -67.5t-29 -66t-68 -28q-38 0 -67 28t-29 66z" />
<glyph unicode="&#xf3;" horiz-adv-x="1556" d="M16 578q0 80 19.5 158t65 156t113 139t171 104t231.5 55q-42 11 -67 49t-25 82q0 50 25 120.5t65.5 138.5t102 115.5t125.5 47.5q61 0 104.5 -41t52.5 -103h7q68 0 113.5 -49t45.5 -120t-45 -148.5t-114 -140.5q153 -60 249 -185q135 -78 210 -213t75 -311 q0 -191 -85 -334.5t-235 -219t-343 -75.5q-195 0 -343 61.5t-237 178.5q-135 78 -208 214t-73 321zM61 578q0 -278 174.5 -432t477.5 -154q274 0 446 158.5t172 424.5q0 261 -170.5 417.5t-447.5 156.5q-139 0 -252.5 -35.5t-186.5 -92.5t-122 -132.5t-70 -153t-21 -157.5z M569 1321q0 -34 22.5 -62t57.5 -28q29 0 81 33.5t102 82t87 111.5t37 115q0 53 -32.5 89t-81.5 36q-55 0 -108 -42.5t-87.5 -103t-56 -124t-21.5 -107.5zM604 737q0 38 29 67.5t67 29.5t67.5 -29.5t29.5 -67.5t-29 -66t-68 -28q-38 0 -67 28t-29 66z" />
<glyph unicode="&#xf4;" horiz-adv-x="1556" d="M16 578q0 92 27 181t82 172.5t152.5 147.5t226.5 92q-51 9 -83 53t-32 107q0 58 24.5 128.5t65.5 134t103 106.5t129 43q70 0 130.5 -43.5t106.5 -114.5q104 -39 176 -163.5t72 -233.5q0 -77 -57 -121q65 -45 116 -111q135 -78 210 -213t75 -311q0 -191 -85 -334.5 t-235 -219t-343 -75.5q-195 0 -343 61.5t-237 178.5q-135 78 -208 214t-73 321zM61 578q0 -278 174.5 -432t477.5 -154q274 0 446 158.5t172 424.5q0 261 -170.5 417.5t-447.5 156.5q-139 0 -252.5 -35.5t-186.5 -92.5t-122 -132.5t-70 -153t-21 -157.5zM434 1331 q0 -41 25 -70.5t63 -29.5q34 0 66 25t55.5 64.5t40.5 78.5t27 78q11 -39 27 -78t39.5 -78.5t55.5 -64.5t66 -25q38 0 63 29.5t25 70.5q0 73 -34 157t-100 147t-142 63q-58 0 -111.5 -38t-88.5 -95t-56 -119.5t-21 -114.5zM604 737q0 38 29 67.5t67 29.5t67.5 -29.5 t29.5 -67.5t-29 -66t-68 -28q-38 0 -67 28t-29 66z" />
<glyph unicode="&#xf5;" horiz-adv-x="1556" d="M16 578q0 86 24 170t73.5 165.5t137.5 147.5t204 100q-16 8 -26.5 15t-26.5 24.5t-24.5 47.5t-8.5 71q0 117 66.5 207t164.5 90q42 0 113 -28.5t106 -28.5q11 0 25.5 11.5t27.5 25t36.5 25t49.5 11.5q36 0 65.5 -31.5t29.5 -84.5q0 -22 -4 -54q39 27 73 27q36 0 65.5 -32 t29.5 -85q0 -91 -37 -162t-99 -104q100 -58 174 -150q135 -78 210 -213t75 -311q0 -191 -85 -334.5t-235 -219t-343 -75.5q-195 0 -343 61.5t-237 178.5q-135 78 -208 214t-73 321zM61 578q0 -278 174.5 -432t477.5 -154q274 0 446 158.5t172 424.5q0 261 -170.5 417.5 t-447.5 156.5q-139 0 -252.5 -35.5t-186.5 -92.5t-122 -132.5t-70 -153t-21 -157.5zM414 1319q0 -66 49 -66q28 0 68.5 37t70.5 37q35 0 106 -27.5t113 -27.5q81 0 134 69.5t53 174.5q0 33 -15.5 52t-34.5 19q-28 0 -68.5 -37t-70.5 -37q-41 0 -110 29t-109 29 q-79 0 -132.5 -76.5t-53.5 -175.5zM604 737q0 38 29 67.5t67 29.5t67.5 -29.5t29.5 -67.5t-29 -66t-68 -28q-38 0 -67 28t-29 66z" />
<glyph unicode="&#xf6;" horiz-adv-x="1556" d="M16 578q0 71 15.5 141.5t52 141.5t90 130t135.5 106.5t183 71.5q-14 20 -25 52q-74 12 -123 70t-49 136q0 86 60.5 145.5t148.5 59.5q70 0 123.5 -40.5t72.5 -104.5l19 -6q19 67 74.5 109t128.5 42q70 0 123.5 -40.5t72.5 -104.5q74 -12 123 -69.5t49 -133.5 q0 -77 -47.5 -135t-118.5 -72q76 -51 131 -121q135 -78 210 -213t75 -311q0 -191 -85 -334.5t-235 -219t-343 -75.5q-195 0 -343 61.5t-237 178.5q-135 78 -208 214t-73 321zM61 578q0 -278 174.5 -432t477.5 -154q274 0 446 158.5t172 424.5q0 261 -170.5 417.5 t-447.5 156.5q-139 0 -252.5 -35.5t-186.5 -92.5t-122 -132.5t-70 -153t-21 -157.5zM340 1427q0 -69 47.5 -116t116.5 -47q68 0 114 47t46 116q0 67 -46 113.5t-114 46.5q-69 0 -116.5 -46.5t-47.5 -113.5zM604 737q0 38 29 67.5t67 29.5t67.5 -29.5t29.5 -67.5t-29 -66 t-68 -28q-38 0 -67 28t-29 66zM758 1427q0 -69 47.5 -116t116.5 -47q67 0 113 47t46 116q0 68 -46 114t-113 46q-69 0 -116.5 -46.5t-47.5 -113.5z" />
<glyph unicode="&#xf7;" horiz-adv-x="1294" d="M20 780q0 50 17.5 89t52 63.5t74 41t93.5 25t100.5 11.5t105.5 4q-56 28 -89.5 82t-33.5 121q0 93 66 158t161 65q71 0 128 -41.5t81 -106.5q77 -17 127.5 -78.5t50.5 -140.5q0 -47 -18 -90q135 -38 166 -143q172 -51 172 -203q0 -50 -17.5 -88.5t-51.5 -64t-73.5 -43 t-93.5 -27t-101 -13.5t-106 -6q56 -28 89.5 -81t33.5 -117q0 -95 -65.5 -161.5t-157.5 -66.5q-74 0 -132 41t-83 107q-77 17 -126.5 79t-49.5 144q0 50 18 90q-135 45 -165 143q-173 57 -173 207zM66 780q0 -32 11 -58t28 -45t46.5 -34t55.5 -25t67.5 -16.5t71 -10t76.5 -5 t73 -2t72 -0.5t72 0.5t73 2t76 5t70.5 10t67 16.5t55 25t46 34t27.5 45t11 58q0 35 -11 62.5t-35.5 47t-49 33.5t-67 22.5t-71.5 13.5t-82 7t-79 2.5t-80 0.5h-23h-23q-60 0 -92 -0.5t-90.5 -4t-92.5 -10t-77.5 -20.5t-67.5 -33.5t-41 -50.5t-17 -70zM385 340 q0 -76 52.5 -129t129.5 -53q74 0 126 53t52 129q0 74 -52.5 126t-125.5 52q-76 0 -129 -52t-53 -126zM385 1217q0 -77 53 -130t129 -53q74 0 126 53.5t52 129.5q0 73 -52.5 125.5t-125.5 52.5q-76 0 -129 -52t-53 -126z" />
<glyph unicode="&#xf8;" horiz-adv-x="1556" d="M16 578q0 86 22.5 169.5t75 165.5t130.5 143.5t199 99.5t270 38q143 0 258 -41q56 70 125 70q60 0 102.5 -41.5t42.5 -98.5v-6q6 2 19 2q60 0 102.5 -41t42.5 -98q0 -36 -25 -84q160 -166 160 -424q0 -191 -85 -334.5t-235 -219t-343 -75.5q-156 0 -271 35 q-54 -63 -119 -63q-60 0 -103.5 42t-43.5 99v4q-6 -2 -16 -2q-60 0 -104 42t-44 99q0 26 17 64q-81 83 -129 201.5t-48 253.5zM61 578q0 -292 189 -445q-29 -44 -29 -74q0 -38 31 -67t72 -29q50 0 102 74q122 -45 287 -45q274 0 446 158.5t172 424.5q0 263 -174 420 q39 45 39 88q0 38 -29.5 66.5t-70.5 28.5q-17 0 -33 -6.5t-28.5 -18.5t-21 -21t-17.5 -22l-9 -12q-124 51 -274 51q-139 0 -252.5 -35.5t-186.5 -92.5t-122 -132.5t-70 -153t-21 -157.5zM604 737q0 38 29 67.5t67 29.5t67.5 -29.5t29.5 -67.5t-29 -66t-68 -28q-38 0 -67 28 t-29 66z" />
<glyph unicode="&#xf9;" horiz-adv-x="1511" d="M23 614q0 312 89.5 446t282.5 134q82 0 148 -27q-207 218 -207 385q0 71 46 120.5t114 49.5q117 0 221 -153q64 -23 122 -91t91 -143.5t43 -140.5h20q170 0 250 -156q39 -11 72 -34.5t56 -51t41.5 -69t30 -75.5t20 -86t12 -85t6 -87t2.5 -78v-71q0 -56 -2 -104.5 t-10.5 -112t-22.5 -114t-39.5 -102.5t-59.5 -86.5t-86 -56.5t-116 -22q-43 0 -74.5 4t-66 16.5t-60.5 39t-43 67.5q-82 -127 -262 -127q-232 0 -348 181q-270 118 -270 630zM68 614q0 -98 10 -181.5t38 -167.5t72.5 -142t118 -94.5t170.5 -36.5q110 0 186.5 65t90.5 209 q1 -74 14 -126t32.5 -80.5t52 -44t60.5 -19.5t70 -4q56 0 100.5 20t74.5 52.5t52 80t34 94.5t19 105.5t9 103.5t2 97v4q0 47 -0.5 74.5t-3 81.5t-7 89.5t-14 86.5t-23.5 84.5t-35.5 71.5t-48.5 60t-65 37t-84 15q-158 0 -221 -83t-63 -304q0 -49 5 -113.5t5 -79.5 q0 -21 -1.5 -35.5t-5.5 -29t-13 -22t-23 -7.5q-21 0 -32 22t-11 56q0 31 10 139t10 185q0 272 -258 272q-169 0 -248 -123.5t-79 -411.5zM381 1552q0 -52 37 -115t87 -111.5t102 -82t81 -33.5q35 0 57.5 28t22.5 62q0 45 -21 108t-56 123.5t-87.5 103t-107.5 42.5 q-49 0 -82 -36t-33 -89z" />
<glyph unicode="&#xfa;" horiz-adv-x="1511" d="M23 614q0 312 89.5 446t282.5 134q125 0 187 -51q-5 7 -19 24.5t-20 26.5t-14 25.5t-11.5 36t-3.5 44.5q0 50 24.5 120.5t65 138.5t102 115.5t125.5 47.5q61 0 105 -40.5t53 -102.5h6q68 0 114 -49.5t46 -120.5q0 -104 -98 -221q120 -25 186 -150q39 -11 72 -34.5t56 -51 t41.5 -69t30 -75.5t20 -86t12 -85t6 -87t2.5 -78v-71q0 -56 -2 -104.5t-10.5 -112t-22.5 -114t-39.5 -102.5t-59.5 -86.5t-86 -56.5t-116 -22q-43 0 -74.5 4t-66 16.5t-60.5 39t-43 67.5q-82 -127 -262 -127q-232 0 -348 181q-270 118 -270 630zM68 614q0 -98 10 -181.5 t38 -167.5t72.5 -142t118 -94.5t170.5 -36.5q110 0 186.5 65t90.5 209q1 -74 14 -126t32.5 -80.5t52 -44t60.5 -19.5t70 -4q56 0 100.5 20t74.5 52.5t52 80t34 94.5t19 105.5t9 103.5t2 97v4q0 47 -0.5 74.5t-3 81.5t-7 89.5t-14 86.5t-23.5 84.5t-35.5 71.5t-48.5 60 t-65 37t-84 15q-158 0 -221 -83t-63 -304q0 -49 5 -113.5t5 -79.5q0 -21 -1.5 -35.5t-5.5 -29t-13 -22t-23 -7.5q-21 0 -32 22t-11 56q0 31 10 139t10 185q0 272 -258 272q-169 0 -248 -123.5t-79 -411.5zM559 1300q0 -34 22.5 -62t57.5 -28q29 0 81 33.5t102 82t87 111.5 t37 115q0 53 -33 89t-82 36q-55 0 -107.5 -42.5t-87.5 -103t-56 -123.5t-21 -108z" />
<glyph unicode="&#xfb;" horiz-adv-x="1511" d="M23 614q0 312 89.5 446t282.5 134q21 0 45 -4q-65 57 -65 141q0 58 24.5 128.5t65 134t102.5 106.5t129 43q70 0 131 -43.5t107 -114.5q104 -39 176 -163.5t72 -233.5q0 -26 -11 -55q47 -44 72 -95q39 -11 72 -34.5t56 -51t41.5 -69t30 -75.5t20 -86t12 -85t6 -87 t2.5 -78v-71q0 -56 -2 -104.5t-10.5 -112t-22.5 -114t-39.5 -102.5t-59.5 -86.5t-86 -56.5t-116 -22q-43 0 -74.5 4t-66 16.5t-60.5 39t-43 67.5q-82 -127 -262 -127q-232 0 -348 181q-270 118 -270 630zM68 614q0 -98 10 -181.5t38 -167.5t72.5 -142t118 -94.5t170.5 -36.5 q110 0 186.5 65t90.5 209q1 -74 14 -126t32.5 -80.5t52 -44t60.5 -19.5t70 -4q56 0 100.5 20t74.5 52.5t52 80t34 94.5t19 105.5t9 103.5t2 97v4q0 47 -0.5 74.5t-3 81.5t-7 89.5t-14 86.5t-23.5 84.5t-35.5 71.5t-48.5 60t-65 37t-84 15q-158 0 -221 -83t-63 -304 q0 -49 5 -113.5t5 -79.5q0 -21 -1.5 -35.5t-5.5 -29t-13 -22t-23 -7.5q-21 0 -32 22t-11 56q0 31 10 139t10 185q0 272 -258 272q-169 0 -248 -123.5t-79 -411.5zM420 1331q0 -41 25 -70.5t63 -29.5q34 0 66 25t55.5 64.5t39.5 78.5t27 78q10 -39 27 -78t40.5 -78.5 t55.5 -64.5t66 -25q38 0 63 29.5t25 70.5q0 73 -34.5 157t-100.5 147t-142 63t-142 -64.5t-100 -148t-34 -154.5z" />
<glyph unicode="&#xfc;" horiz-adv-x="1511" d="M23 614q0 312 89.5 446t282.5 134q35 0 51 -2q-7 14 -10 29q-74 12 -123 70t-49 136q0 86 60.5 145.5t148.5 59.5q70 0 124 -40.5t73 -104.5l18 -6q19 67 74.5 109t128.5 42q70 0 123.5 -40.5t72.5 -104.5q74 -12 123.5 -69.5t49.5 -133.5q0 -98 -76 -164q34 -34 59 -82 q39 -11 72 -34.5t56 -51t41.5 -69t30 -75.5t20 -86t12 -85t6 -87t2.5 -78v-71q0 -56 -2 -104.5t-10.5 -112t-22.5 -114t-39.5 -102.5t-59.5 -86.5t-86 -56.5t-116 -22q-43 0 -74.5 4t-66 16.5t-60.5 39t-43 67.5q-82 -127 -262 -127q-232 0 -348 181q-270 118 -270 630z M68 614q0 -98 10 -181.5t38 -167.5t72.5 -142t118 -94.5t170.5 -36.5q110 0 186.5 65t90.5 209q1 -74 14 -126t32.5 -80.5t52 -44t60.5 -19.5t70 -4q56 0 100.5 20t74.5 52.5t52 80t34 94.5t19 105.5t9 103.5t2 97v4q0 47 -0.5 74.5t-3 81.5t-7 89.5t-14 86.5t-23.5 84.5 t-35.5 71.5t-48.5 60t-65 37t-84 15q-158 0 -221 -83t-63 -304q0 -49 5 -113.5t5 -79.5q0 -21 -1.5 -35.5t-5.5 -29t-13 -22t-23 -7.5q-21 0 -32 22t-11 56q0 31 10 139t10 185q0 272 -258 272q-169 0 -248 -123.5t-79 -411.5zM309 1427q0 -69 47.5 -116t116.5 -47 q68 0 114 47t46 116q0 67 -46.5 113.5t-113.5 46.5q-69 0 -116.5 -46.5t-47.5 -113.5zM727 1427q0 -69 47.5 -116t116.5 -47q68 0 114 47t46 116q0 67 -46.5 113.5t-113.5 46.5q-69 0 -116.5 -46.5t-47.5 -113.5z" />
<glyph unicode="&#xfd;" horiz-adv-x="1492" d="M27 575q0 56 2 103.5t10 113.5t22 118.5t40.5 107.5t62 92t90 60.5t121.5 23.5q80 0 143 -37q-18 54 -18 125q0 81 40.5 181.5t117 179.5t161.5 79q61 0 105 -40.5t53 -102.5h6q68 0 114 -49.5t46 -120.5q0 -105 -103 -227q127 -32 189 -150q38 -13 69.5 -35t54 -46.5 t40.5 -63.5t29.5 -69.5t19.5 -82.5t11.5 -85.5t5.5 -94.5t2.5 -93.5t0.5 -97.5v-18v-235q4 -838 -676 -838q-68 0 -133 9t-134 29.5t-124 61.5t-84 99q-192 83 -192 278q0 103 49.5 175t138.5 89q-73 30 -128.5 89.5t-88 136.5t-48 161t-15.5 174zM72 575q0 -81 12 -155 t41.5 -145.5t74 -123t115 -83t158.5 -31.5q102 0 170 52t92 128h19q0 -172 -33.5 -250t-114.5 -78q-22 0 -40 9t-33.5 22t-34 26t-50.5 22t-75 9q-98 0 -153.5 -62.5t-55.5 -164.5q0 -69 30.5 -122.5t77.5 -84t111 -50t121 -26t119 -6.5q634 0 630 793v235q0 244 -14 342 q-32 226 -163 290q-58 28 -138 28q-48 0 -90.5 -14.5t-80.5 -45.5t-60.5 -89t-22.5 -136q0 -84 7 -188t7 -133q0 -76 -55 -76q-19 0 -31 14.5t-15 28t-3 25.5q0 47 12 148t12 144q0 45 -6 86.5t-23 85.5t-43 76.5t-70 53t-101 20.5q-303 0 -303 -574zM547 1300 q0 -34 22.5 -62t57.5 -28q29 0 81 33.5t102 82t87 111.5t37 115q0 53 -33 89t-82 36q-55 0 -107.5 -42.5t-87.5 -103t-56 -123.5t-21 -108z" />
<glyph unicode="&#xfe;" horiz-adv-x="1646" d="M29 340v156q0 524 18 712q26 258 108 353q72 84 216 84q183 0 262 -156q86 -24 138 -100t77 -209q52 12 102 12q259 0 396 -195q97 -48 162 -142t91.5 -204t26.5 -237q0 -87 -18 -171.5t-58.5 -164.5t-98.5 -140.5t-145 -97t-192 -37.5q-62 0 -130.5 19.5t-115.5 54.5 q0 -51 -2.5 -95.5t-11 -102.5t-22 -105t-39 -94.5t-59.5 -80t-85 -52t-114 -19.5q-101 0 -165 37t-102 119q-60 15 -101 54t-68.5 101t-42.5 165t-21 228t-6 308zM74 340q0 -166 4.5 -282t17.5 -212.5t33.5 -155t54.5 -99.5t79 -57t108 -17q66 -1 116 24.5t80.5 67.5 t50.5 105.5t28 129t11 148.5l7 178q51 -178 286 -178q95 1 174.5 35t132.5 90t90 129.5t53.5 152t16.5 158.5q0 93 -15 176t-50 160t-87.5 132.5t-133 88.5t-181.5 33q-84 0 -162.5 -34t-121.5 -103q-8 313 -72 451t-223 138q-140 0 -203 -102q-67 -107 -84 -397 q-10 -170 -10 -604v-156zM647 569q0 38 29 67.5t67 29.5t67.5 -29.5t29.5 -67.5t-29 -66t-68 -28q-38 0 -67 28t-29 66z" />
<glyph unicode="&#xff;" horiz-adv-x="1492" d="M27 575q0 56 2 103.5t10 113.5t22 118.5t40.5 107.5t62 92t90 60.5t121.5 23.5q34 0 61 -6q-11 28 -12 33q-74 12 -123 70t-49 136q0 86 60.5 145.5t148.5 59.5q70 0 123.5 -40.5t72.5 -104.5l19 -6q19 67 74.5 109t128.5 42q70 0 123.5 -40.5t72.5 -104.5 q74 -12 123 -69.5t49 -133.5q0 -109 -82 -168q40 -37 64 -84q38 -13 69.5 -35t54 -46.5t40.5 -63.5t29.5 -69.5t19.5 -82.5t11.5 -85.5t5.5 -94.5t2.5 -93.5t0.5 -97.5v-18v-235q4 -838 -676 -838q-68 0 -133 9t-134 29.5t-124 61.5t-84 99q-192 83 -192 278q0 103 49.5 175 t138.5 89q-73 30 -128.5 89.5t-88 136.5t-48 161t-15.5 174zM72 575q0 -81 12 -155t41.5 -145.5t74 -123t115 -83t158.5 -31.5q102 0 170 52t92 128h19q0 -172 -33.5 -250t-114.5 -78q-22 0 -40 9t-33.5 22t-34 26t-50.5 22t-75 9q-98 0 -153.5 -62.5t-55.5 -164.5 q0 -69 30.5 -122.5t77.5 -84t111 -50t121 -26t119 -6.5q634 0 630 793v235q0 244 -14 342q-32 226 -163 290q-58 28 -138 28q-48 0 -90.5 -14.5t-80.5 -45.5t-60.5 -89t-22.5 -136q0 -84 7 -188t7 -133q0 -76 -55 -76q-19 0 -31 14.5t-15 28t-3 25.5q0 47 12 148t12 144 q0 45 -6 86.5t-23 85.5t-43 76.5t-70 53t-101 20.5q-303 0 -303 -574zM297 1427q0 -69 47.5 -116t116.5 -47q68 0 114 47t46 116q0 67 -46.5 113.5t-113.5 46.5q-69 0 -116.5 -46.5t-47.5 -113.5zM715 1427q0 -69 47.5 -116t116.5 -47q67 0 113 47t46 116q0 68 -46 114 t-113 46q-69 0 -116.5 -46.5t-47.5 -113.5z" />
<glyph unicode="&#x152;" horiz-adv-x="2295" d="M27 797q-1 146 42 275.5t120 227.5t180.5 170t227.5 109t257 37q193 0 326 -82q87 74 338 74h94q45 0 74 -0.5t76 -4t79.5 -10.5t73 -20t68 -31t53 -46t39.5 -64q182 -62 182 -252q0 -118 -47 -179t-135 -83q2 -5 6 -14.5t6 -14.5q84 -21 131 -82.5t47 -161.5 q0 -110 -53.5 -162t-149.5 -67q1 -2 5 -11t6 -12q184 -47 184 -276q0 -73 -21 -128t-65.5 -87t-85.5 -51.5t-110 -27.5t-107.5 -9.5t-107.5 -1.5h-7h-98q-238 0 -303 82q-147 -91 -348 -91q-193 0 -351.5 70.5t-267.5 198.5q-170 108 -264 296.5t-94 428.5zM72 797 q1 -235 95 -417.5t269 -285t404 -102.5q217 0 364 110q1 -1 5 -11.5t9.5 -18t17 -19t31.5 -20t49 -16.5t74 -12.5t101 -4.5h98q175 0 256 19q203 49 203 241q0 244 -242 244q-43 0 -79.5 -4t-52.5 -8l-15 -3v107q91 -4 139 -2q47 2 80.5 6.5t69 17t57.5 33t36.5 55 t14.5 82.5q0 103 -60.5 156t-164.5 53q-25 0 -68 -3t-73 -6l-31 -3v109l145 -2q57 3 97.5 14.5t75.5 36t53 70t18 110.5q0 49 -16 87.5t-39.5 63.5t-63 42.5t-73 26.5t-84 13.5t-81.5 5.5t-79 1h-4h-5h-4h-4h-5h-4h-4h-5h-5h-4h-5h-5h-5h-5h-5h-6h-6h-6h-7q-39 0 -74 -2 t-61.5 -4t-50 -7t-39.5 -8.5t-31.5 -10.5t-23.5 -11t-18.5 -12t-13.5 -11l-11 -11l-9 -9q-124 94 -332 94q-158 0 -300.5 -55.5t-249.5 -154.5t-170 -246t-62 -318zM713 958q0 58 41 99t100 41q58 0 98.5 -40.5t40.5 -99.5t-40.5 -100t-98.5 -41t-99.5 41.5t-41.5 99.5z" />
<glyph unicode="&#x153;" horiz-adv-x="2179" d="M16 578q0 86 22 169.5t74.5 165.5t129 143.5t195.5 99.5t265 38q93 0 193.5 -29.5t167.5 -74.5q147 104 375 104q101 0 192 -20t175 -70t132 -125q222 -110 222 -358q0 -113 -43 -183t-129 -106q81 -12 126.5 -68.5t45.5 -144.5q0 -56 -20.5 -103t-54 -79t-80.5 -56.5 t-94.5 -39t-101 -23.5t-96.5 -12t-84 -3q-112 0 -223 27t-180 82q-68 -51 -165.5 -80t-193.5 -29q-189 0 -334 61t-233 177q-136 78 -209.5 215t-73.5 322zM61 578q0 -278 172.5 -432t468.5 -154q101 0 201.5 34.5t159.5 90.5q54 -64 166.5 -94.5t234.5 -30.5q56 0 112 5.5 t126.5 23t123 45.5t88.5 79t36 117q0 78 -45 125t-123 47q-66 0 -154 -34.5t-131 -34.5q-69 0 -119.5 35.5t-50.5 95.5q81 -27 217 -23q209 6 307.5 70.5t98.5 220.5q0 84 -30.5 151.5t-80.5 110t-117.5 71t-137.5 40.5t-146 12q-237 0 -375 -117q-56 50 -159 83.5 t-202 33.5q-136 0 -247.5 -35t-183 -92.5t-120.5 -133t-69.5 -153t-20.5 -157.5zM604 758q0 38 29 67t67 29t67.5 -29t29.5 -67t-29 -66t-68 -28q-38 0 -67 28t-29 66zM1319 768q0 35 27.5 62.5t62.5 27.5t62.5 -27.5t27.5 -62.5t-27.5 -61.5t-62.5 -26.5t-62.5 26.5 t-27.5 61.5z" />
<glyph unicode="&#x178;" horiz-adv-x="1554" d="M-10 1290q0 141 87.5 233.5t227.5 92.5q49 0 92 -12l-6 12q-47 28 -73.5 75t-26.5 105q0 86 60.5 145.5t148.5 59.5q69 0 123 -41t73 -105l19 -6q19 67 74.5 109.5t128.5 42.5q69 0 123 -41t73 -105q74 -12 123 -69t49 -133q0 -54 -26 -101q49 -39 75 -96 q92 -29 145.5 -108.5t53.5 -200.5q0 -177 -94.5 -360.5t-229.5 -327.5q17 -140 17 -303q0 -51 -13.5 -100t-42.5 -95t-71 -81t-104.5 -56t-137.5 -21q-102 0 -188 42t-133 130q-91 35 -147 114.5t-60 207.5q-4 153 14 301q-152 114 -253 312t-101 380zM35 1290 q0 -118 47.5 -249t130 -244.5t182.5 -180.5q-3 -14 -7 -39.5t-10 -108t-3 -169.5q3 -82 31.5 -143.5t74.5 -96t99.5 -51t113.5 -16.5q82 0 146 27.5t101.5 72.5t57 98t19.5 109q0 87 -5 166t-11 115l-5 36q134 138 231 319.5t97 354.5q0 133 -72 207t-186 74 q-76 0 -136 -33.5t-98 -93.5t-63.5 -129.5t-38 -156t-17.5 -157.5t-5 -149h-11q0 65 -4.5 129t-17 137t-31 136.5t-50 122.5t-71 101t-96 67.5t-123.5 25.5q-120 0 -195 -79.5t-75 -201.5zM336 1796q0 -69 47.5 -116.5t116.5 -47.5q67 0 113 47.5t46 116.5q0 68 -46 114 t-113 46q-69 0 -116.5 -46.5t-47.5 -113.5zM754 1796q0 -69 47.5 -116.5t116.5 -47.5q67 0 113 47.5t46 116.5q0 68 -46 114t-113 46q-69 0 -116.5 -46.5t-47.5 -113.5z" />
<glyph unicode="&#x2c6;" d="M109 1352q0 58 24.5 128.5t65 134t102.5 106t129 42.5q70 0 131 -43t107 -114q70 -26 128.5 -96.5t88.5 -151.5t30 -150q0 -60 -38 -102.5t-95 -42.5q-103 0 -180 143q-3 1 -8 2t-8 2q-77 -147 -180 -147q-57 0 -95.5 42.5t-38.5 102.5v2q-20 -4 -30 -4q-57 0 -95 43 t-38 103zM154 1352q0 -41 25.5 -71t62.5 -30q34 0 66 25t55.5 64.5t39.5 78.5t27 78q11 -39 27 -78t39.5 -78.5t55.5 -64.5t66 -25q38 0 63.5 30t25.5 71q0 73 -34.5 156.5t-100.5 146.5t-142 63q-58 0 -111 -38t-88 -94.5t-56 -119t-21 -114.5z" />
<glyph unicode="&#x2dc;" d="M88 1380q0 117 66.5 207t164.5 90q42 0 113.5 -28.5t106.5 -28.5q11 0 25.5 11.5t27.5 25.5t36.5 25.5t49.5 11.5q36 0 65 -32t29 -85q0 -21 -4 -53q37 26 74 26q36 0 65 -31.5t29 -84.5q0 -125 -65 -207t-166 -82q-58 0 -127 27.5t-93 27.5q-14 0 -33.5 -18.5t-46 -37 t-59.5 -18.5q-94 0 -94 111q0 23 4 59q-33 -26 -74 -26q-94 0 -94 110zM133 1380q0 -65 49 -65q28 0 69 37t71 37q35 0 106 -28t113 -28q81 0 133.5 69.5t52.5 174.5q0 33 -15 52.5t-34 19.5q-28 0 -68.5 -37t-70.5 -37q-41 0 -110.5 28.5t-109.5 28.5q-79 0 -132.5 -76.5 t-53.5 -175.5z" />
<glyph unicode="&#x2000;" horiz-adv-x="1101" />
<glyph unicode="&#x2001;" horiz-adv-x="2202" />
<glyph unicode="&#x2002;" horiz-adv-x="1101" />
<glyph unicode="&#x2003;" horiz-adv-x="2202" />
<glyph unicode="&#x2004;" horiz-adv-x="734" />
<glyph unicode="&#x2005;" horiz-adv-x="550" />
<glyph unicode="&#x2006;" horiz-adv-x="367" />
<glyph unicode="&#x2007;" horiz-adv-x="367" />
<glyph unicode="&#x2008;" horiz-adv-x="275" />
<glyph unicode="&#x2009;" horiz-adv-x="440" />
<glyph unicode="&#x200a;" horiz-adv-x="122" />
<glyph unicode="&#x2010;" horiz-adv-x="1077" d="M20 569q0 65 18.5 115t54.5 80.5t75.5 50t96 28.5t100 12t102.5 3q74 0 129.5 -5t120 -21.5t109.5 -53.5t67 -94q184 -58 184 -258q0 -65 -18.5 -115t-54 -81t-76 -52t-95 -30.5t-100 -13t-102.5 -3.5q-73 0 -129 6t-119 22.5t-108.5 54t-69.5 93.5q-185 62 -185 262z M66 569q0 -55 17 -97t48.5 -68.5t68 -44.5t86 -26t90 -11t91.5 -3t91.5 3t90 11t86 26t68 44.5t48.5 68.5t17 97q0 47 -13.5 85t-35 63t-54.5 43.5t-65.5 28t-76.5 15.5t-78 7.5t-78 1.5t-78 -1.5t-78 -7.5t-76.5 -15.5t-65.5 -28t-54.5 -43.5t-35 -63t-13.5 -85z" />
<glyph unicode="&#x2011;" horiz-adv-x="1077" d="M20 569q0 65 18.5 115t54.5 80.5t75.5 50t96 28.5t100 12t102.5 3q74 0 129.5 -5t120 -21.5t109.5 -53.5t67 -94q184 -58 184 -258q0 -65 -18.5 -115t-54 -81t-76 -52t-95 -30.5t-100 -13t-102.5 -3.5q-73 0 -129 6t-119 22.5t-108.5 54t-69.5 93.5q-185 62 -185 262z M66 569q0 -55 17 -97t48.5 -68.5t68 -44.5t86 -26t90 -11t91.5 -3t91.5 3t90 11t86 26t68 44.5t48.5 68.5t17 97q0 47 -13.5 85t-35 63t-54.5 43.5t-65.5 28t-76.5 15.5t-78 7.5t-78 1.5t-78 -1.5t-78 -7.5t-76.5 -15.5t-65.5 -28t-54.5 -43.5t-35 -63t-13.5 -85z" />
<glyph unicode="&#x2012;" horiz-adv-x="1077" d="M20 569q0 65 18.5 115t54.5 80.5t75.5 50t96 28.5t100 12t102.5 3q74 0 129.5 -5t120 -21.5t109.5 -53.5t67 -94q184 -58 184 -258q0 -65 -18.5 -115t-54 -81t-76 -52t-95 -30.5t-100 -13t-102.5 -3.5q-73 0 -129 6t-119 22.5t-108.5 54t-69.5 93.5q-185 62 -185 262z M66 569q0 -55 17 -97t48.5 -68.5t68 -44.5t86 -26t90 -11t91.5 -3t91.5 3t90 11t86 26t68 44.5t48.5 68.5t17 97q0 47 -13.5 85t-35 63t-54.5 43.5t-65.5 28t-76.5 15.5t-78 7.5t-78 1.5t-78 -1.5t-78 -7.5t-76.5 -15.5t-65.5 -28t-54.5 -43.5t-35 -63t-13.5 -85z" />
<glyph unicode="&#x2013;" d="M20 569q0 56 15.5 101t39 74.5t60.5 51.5t72 33.5t80.5 18.5t79 8.5t75.5 1.5q51 0 92 -3t94.5 -14t93.5 -30t75.5 -54.5t52.5 -84.5q154 -68 154 -246q0 -295 -422 -295q-341 0 -406 186q-156 73 -156 252zM66 569q0 -55 17 -97.5t48 -68.5t66 -44t81.5 -26t83 -11 t80.5 -3q54 0 98 4t99 19t92.5 40.5t63.5 73.5t26 113q0 47 -13.5 85t-35 63t-54 43.5t-64 28t-72.5 15.5t-71.5 7.5t-68.5 1.5t-68.5 -1.5t-71 -7.5t-72 -15.5t-63.5 -28t-53 -43.5t-34.5 -63t-13.5 -85z" />
<glyph unicode="&#x2014;" horiz-adv-x="2048" d="M0 569q0 69 37 119t106 82.5t182.5 52t251.5 27.5t328 8h84q175 -4 296 -11t231.5 -22t179.5 -38.5t115.5 -60.5t62.5 -89q88 -33 131 -84t43 -127q0 -166 -211 -230.5t-684 -64.5h-84q-421 0 -635 49t-258 172q-176 68 -176 217zM45 569q0 -141 204.5 -195.5 t655.5 -54.5h84q449 0 649.5 54.5t200.5 195.5t-198.5 192.5t-651.5 51.5h-84q-455 0 -657.5 -52t-202.5 -192z" />
<glyph unicode="&#x2018;" horiz-adv-x="737" d="M-20 1214q0 162 111 282t276 120q41 0 77.5 -12.5t63.5 -43t27 -73.5v-14q64 -2 113.5 -35t49.5 -95q0 -85 -63 -112q123 -69 123 -211q0 -129 -84 -210t-213 -81q-93 0 -164 44t-111 118q-97 35 -151.5 123t-54.5 200zM25 1214q0 -124 75 -210t197 -86q109 0 180.5 68 t71.5 177q0 56 -23.5 98.5t-59.5 63.5t-70.5 31t-65.5 10q25 18 69.5 31.5t67 31t22.5 58.5t-37.5 62.5t-84.5 21.5q-146 0 -244 -107t-98 -250z" />
<glyph unicode="&#x2019;" horiz-adv-x="737" d="M-41 1325q0 129 84 210t213 81q92 0 163 -43.5t111 -118.5q95 -35 151 -124t56 -200q0 -162 -111 -281.5t-276 -119.5q-41 0 -77.5 12.5t-63.5 43t-27 73.5v14q-64 0 -114 33t-50 96q0 84 66 111q-125 64 -125 213zM4 1325q0 -56 23.5 -98.5t59.5 -63.5t70.5 -31 t65.5 -10q-25 -18 -69.5 -31.5t-67.5 -31t-23 -58.5t37.5 -62t85.5 -21q146 0 244 106.5t98 249.5q0 124 -75 210.5t-197 86.5q-109 0 -180.5 -68.5t-71.5 -177.5z" />
<glyph unicode="&#x201a;" horiz-adv-x="737" d="M20 236q0 129 84 209.5t213 80.5q93 0 164.5 -43.5t110.5 -117.5q95 -35 151 -124t56 -200q0 -162 -111 -281.5t-276 -119.5q-41 0 -77.5 12.5t-63.5 43t-27 73.5v14q-65 2 -114.5 34.5t-49.5 94.5q0 48 16.5 73t48.5 38q-125 64 -125 213zM66 236q0 -56 23.5 -98.5 t59.5 -63.5t70.5 -31t65.5 -10q-25 -18 -69.5 -31.5t-67.5 -31t-23 -58.5t38 -62.5t85 -21.5q146 0 244 106.5t98 249.5q0 124 -75.5 210.5t-197.5 86.5q-109 0 -180 -68t-71 -177z" />
<glyph unicode="&#x201c;" horiz-adv-x="1339" d="M-20 1214q0 162 111 282t276 120q41 0 77.5 -12.5t63.5 -43t27 -73.5v-14q70 -4 112 -35q53 81 137 129.5t185 48.5q41 0 77.5 -12.5t63.5 -43t27 -73.5v-14q64 -2 113.5 -35t49.5 -95q0 -85 -63 -112q123 -69 123 -211q0 -129 -84 -210t-213 -81q-93 0 -164 44t-111 118 q-30 10 -49 22q-29 -86 -104 -135t-174 -49q-93 0 -164 44t-111 118q-97 35 -151.5 123t-54.5 200zM25 1214q0 -124 75 -210t197 -86q109 0 180.5 68t71.5 177q0 56 -23.5 98.5t-59.5 63.5t-70.5 31t-65.5 10q25 18 69.5 31.5t67 31t22.5 58.5t-37.5 62.5t-84.5 21.5 q-146 0 -244 -107t-98 -250zM627 1214q0 -124 75 -210t197 -86q109 0 180.5 68t71.5 177q0 56 -23.5 98.5t-59.5 63.5t-70.5 31t-65.5 10q25 18 69.5 31.5t67.5 31t23 58.5t-38 62.5t-85 21.5q-146 0 -244 -107t-98 -250z" />
<glyph unicode="&#x201d;" horiz-adv-x="1339" d="M-41 1325q0 129 84 210t213 81q92 0 163 -43.5t111 -118.5q28 -10 48 -22q31 85 106 134.5t174 49.5q93 0 164 -44t111 -118q95 -35 150.5 -124t55.5 -200q0 -162 -111 -281.5t-276 -119.5q-41 0 -77.5 12.5t-63.5 43t-27 73.5v14q-67 0 -114 33q-53 -81 -136 -128.5 t-184 -47.5q-41 0 -77.5 12.5t-63.5 43t-27 73.5v14q-64 0 -114 33t-50 96q0 84 66 111q-125 64 -125 213zM4 1325q0 -56 23.5 -98.5t59.5 -63.5t70.5 -31t65.5 -10q-25 -18 -69.5 -31.5t-67.5 -31t-23 -58.5t37.5 -62t85.5 -21q146 0 244 106.5t98 249.5q0 124 -75 210.5 t-197 86.5q-109 0 -180.5 -68.5t-71.5 -177.5zM606 1325q0 -56 23.5 -98.5t59.5 -63.5t70.5 -31t65.5 -10q-25 -18 -69.5 -31.5t-67 -31t-22.5 -58.5t37.5 -62t84.5 -21q146 0 244 106.5t98 249.5q0 124 -75 210.5t-197 86.5q-109 0 -180.5 -68.5t-71.5 -177.5z" />
<glyph unicode="&#x201e;" horiz-adv-x="1339" d="M20 236q0 129 84 209.5t213 80.5q93 0 164.5 -43.5t110.5 -117.5q20 -7 47 -23q31 85 106.5 134.5t174.5 49.5q93 0 163.5 -43.5t110.5 -117.5q95 -35 151 -124t56 -200q0 -162 -111 -281.5t-276 -119.5q-41 0 -77.5 12.5t-63.5 43t-27 73.5v14q-70 4 -115 35 q-53 -81 -135.5 -129.5t-183.5 -48.5q-41 0 -77.5 12.5t-63.5 43t-27 73.5v14q-65 2 -114.5 34.5t-49.5 94.5q0 48 16.5 73t48.5 38q-125 64 -125 213zM66 236q0 -56 23.5 -98.5t59.5 -63.5t70.5 -31t65.5 -10q-25 -18 -69.5 -31.5t-67.5 -31t-23 -58.5t38 -62.5t85 -21.5 q146 0 244 106.5t98 249.5q0 124 -75.5 210.5t-197.5 86.5q-109 0 -180 -68t-71 -177zM668 236q0 -56 23.5 -98.5t59.5 -63.5t70.5 -31t65.5 -10q-25 -18 -69.5 -31.5t-67.5 -31t-23 -58.5t38 -62.5t85 -21.5q146 0 244 106.5t98 249.5q0 124 -75 210.5t-197 86.5 q-109 0 -180.5 -68t-71.5 -177z" />
<glyph unicode="&#x2022;" d="M78 719q0 146 104 248t248 102q94 0 174 -47t127 -125q96 -40 155.5 -128.5t59.5 -193.5q0 -145 -103 -248.5t-249 -103.5q-94 0 -175.5 46.5t-127.5 125.5q-95 40 -154 127.5t-59 196.5zM123 719q0 -129 90.5 -218t216.5 -89q127 0 217 90.5t90 216.5q0 125 -90 215 t-217 90q-126 0 -216.5 -88.5t-90.5 -216.5z" />
<glyph unicode="&#x2026;" horiz-adv-x="2154" d="M20 238q0 120 85.5 203t205.5 83q84 0 153 -43.5t103 -115.5q121 -39 170 -158v31q0 120 85.5 203t205.5 83q84 0 153 -43.5t103 -115.5q121 -39 170 -158v31q0 120 85.5 203t205.5 83q84 0 153 -43.5t103 -115.5q87 -28 140.5 -102t53.5 -169q0 -120 -83 -205.5 t-203 -85.5q-83 0 -152.5 44t-107.5 116q-57 20 -102 62t-70 98q2 -8 2 -29q0 -120 -83.5 -205.5t-203.5 -85.5q-83 0 -152.5 44t-107.5 116q-57 20 -102 62t-70 98q2 -8 2 -29q0 -120 -83.5 -205.5t-203.5 -85.5q-83 0 -152.5 44t-107.5 116q-86 30 -140.5 105.5 t-54.5 169.5zM66 238q0 -101 72 -173.5t173 -72.5t171.5 72t70.5 174q0 101 -70.5 171t-171.5 70q-102 0 -173.5 -70t-71.5 -171zM782 238q0 -101 72.5 -173.5t173.5 -72.5t171.5 72t70.5 174q0 101 -70.5 171t-171.5 70q-102 0 -174 -70t-72 -171zM1499 238 q0 -101 72.5 -173.5t173.5 -72.5t171.5 72t70.5 174q0 101 -70.5 171t-171.5 70q-102 0 -174 -70t-72 -171z" />
<glyph unicode="&#x202f;" horiz-adv-x="440" />
<glyph unicode="&#x2039;" horiz-adv-x="903" d="M20 567q0 51 28 124t77 148t109 140.5t131.5 107t136.5 41.5q73 0 129 -41t65 -104q71 -9 118.5 -55.5t47.5 -112.5q0 -23 -4.5 -47t-9 -43.5t-17 -45t-20 -41t-26.5 -42t-26.5 -37.5t-31 -39t-30 -35.5t-32.5 -37t-30 -33.5q53 -56 85 -93.5t69 -90.5t55 -105.5 t18 -106.5q0 -75 -55 -125.5t-141 -50.5q-132 0 -285 178q-132 75 -246.5 259.5t-114.5 287.5zM66 567q0 -53 40 -142.5t100 -177.5t141.5 -152t154.5 -64q67 0 109 37.5t42 93.5q0 30 -6.5 60t-23.5 62.5t-29.5 55t-42 59.5t-42.5 52.5t-49.5 56.5t-45.5 51q7 8 36.5 42 t41 47.5t38.5 47t39.5 52.5t32 50.5t28.5 54.5t16 51.5t7 53.5q0 54 -44 89.5t-107 35.5q-73 0 -154.5 -58.5t-142 -140.5t-100 -170t-39.5 -147z" />
<glyph unicode="&#x203a;" horiz-adv-x="903" d="M20 162q0 29 6.5 59.5t13.5 53t25.5 54t28 47.5t37 50t36 44t41.5 47t38 42q-40 43 -61 66t-58 70.5t-56 83.5t-35 84.5t-16 94.5q0 74 58 122t139 48q73 0 151.5 -51.5t149.5 -134.5q87 -50 168.5 -148.5t128.5 -199.5t47 -170q0 -58 -44 -155.5t-110.5 -192.5 t-156.5 -164.5t-170 -69.5q-76 0 -129.5 41.5t-65.5 104.5q-74 9 -120 57.5t-46 116.5zM66 162q0 -56 42 -93.5t109 -37.5q73 0 154.5 64t141.5 152t100 177.5t40 142.5q0 59 -39.5 147t-100 170t-142 140.5t-154.5 58.5q-63 0 -107 -35.5t-44 -89.5q0 -25 7 -53.5t16 -51.5 t28.5 -54.5t32 -50.5t39.5 -52.5t38.5 -47t41 -47.5t36.5 -42q-9 -10 -45.5 -51t-49.5 -56.5t-42.5 -52.5t-42 -59.5t-29.5 -55t-23.5 -62.5t-6.5 -60z" />
<glyph unicode="&#x205f;" horiz-adv-x="550" />
<glyph unicode="&#x20ac;" horiz-adv-x="1730" d="M0 688q0 50 24.5 78.5t63.5 34.5q-43 22 -43 100q0 32 11 55t27 35t43 18.5t51 8t59 0.5q60 268 251.5 424.5t493.5 156.5q103 0 195.5 -17.5t181 -67t131.5 -125.5q207 -96 207 -310q0 -50 -23 -99t-78 -86.5t-131 -37.5q-64 0 -139.5 24.5t-95.5 28.5q0 -17 -2 -37 q93 -3 129.5 -25.5t36.5 -88.5q0 -61 -33 -85.5t-111 -29.5q28 -12 43 -37q28 4 49 4q82 0 135.5 -41.5t75.5 -105.5q86 -16 132.5 -82t46.5 -141q0 -92 -32.5 -166.5t-88 -124t-131 -83t-159 -48.5t-175.5 -15q-373 0 -584 254q-203 125 -293 373q-56 5 -80 29.5t-24 85.5 v26q-85 0 -124.5 26t-39.5 91zM45 688q0 -51 36.5 -62t143.5 -10h45q21 -136 77.5 -249.5t145 -197.5t213.5 -130.5t275 -46.5q107 0 201 22t171.5 67t123 122.5t45.5 179.5q0 70 -47 126t-134 56q-70 0 -140 -32.5t-120 -32.5q-122 0 -188 116h37q104 -1 133 12 q34 16 35 60q0 27 -11.5 42.5t-46.5 22t-59 7t-88 0.5h-45v69q214 0 246 3q73 7 86 42q4 11 4 27q0 51 -48.5 62t-198.5 10h-21.5h-20h-23.5q27 66 74.5 96.5t95.5 30.5q46 0 113 -28t145 -28q90 0 138.5 57t48.5 122q0 75 -32 134.5t-82 95.5t-118.5 59.5t-135.5 32.5 t-138 9q-294 0 -476 -157t-231 -424q-108 2 -136 -6q-48 -13 -48 -66q0 -13 2 -24t8.5 -18.5t11.5 -13t17 -8.5t19 -5t24 -2.5t25.5 -0.5h30h30.5v-69h-43q-44 1 -63.5 0.5t-45.5 -4t-36 -11t-17.5 -21.5t-7.5 -36z" />
</font>
</defs>
</svg>
